<svg xmlns="http://www.w3.org/2000/svg" viewBox="0 0 1000 700"><path d="M981 700c-.3-3.8-.6-7.7-.9-11.5-3.1-39.1-6.3-78.2-9.4-117.3-5.6-71.4-11.2-142.8-16.8-214.1-3.8-47.3-7.6-94.7-11.3-142-1.6-19.1-3.2-38.2-4.9-57.2.4-1.3 2.2-2.8 2.9-4.4l-.3-.9c-6.1-2.9-15.6-1.8-21.7-2.8-25.3-2.6-50.5-5.3-75.8-7.9-2.7-1.9-1-7.3-.6-10.1-.3-.2-.6-.4-1-.6-5.6-2.7-14.1-.4-21.1-1.9-13.3-1.4-26.6-2.7-39.8-4.1-7.5 12.5-14.9 25.1-22.4 37.6-3.1 5.2-6.3 10.3-9.4 15.5-.9.7-15.6-.4-18.8-.9-16.7-1.6-93.3-8.8-113.1-10.4-3.1 6.6-6.3 13.3-9.4 19.9-3.7 7.8-7.3 15.6-11 23.4-.2 1.5.8 1.2 1 1.9v54.4l.6 88.9c-1.8 3.5-3.7 7-5.5 10.4l.6 49.3h1.3c.5.6.4.4.6 1.6l-8.1-.6c-4.3 7.9-8.6 15.8-13 23.7-8.2-1.4-16.4-2.7-24.6-4.1-8.6 5.8-17.3 11.6-25.9 17.4-.8 1.8-.8 8.4 0 11.1-3.1 6.9-24.6 16.1-30.8 22.8-10.8-1.4-21.6-2.7-32.4-4.1-6.7 5-13.4 9.9-20.1 14.9-1.6 2.5-1.4 7.2-1.3 11.4-3.3 3.2-4.4 2.9-4.2 9.5-6.8-.8-13.6-1.7-20.4-2.5-5.1 3.6-10.2 7.2-15.2 10.8-.3 1.7.4 4.9.3 7.9-1.6 1.2-3.2 2.3-4.9 3.5-.6 1.5-.4 5.6-.6 7.9-5.8-.6-11.7-1.3-17.5-1.9-.4.2-.9.4-1.3.6-.6 1.6-.1 5.9 0 9.2-.9.5-1.7 1.1-2.6 1.6-1-1.1-3.3-.7-5.2-.9-9.7-1.5-7.1 3.3-13.3 5.1-1.1.3-2.3-.1-3.9.3l-.6.9c.5.1 1.1.2 1.6.3-1.9 1.5-3.9 3-5.8 4.4-2.8 5.7-.2 15-1.3 22.1-.7 4.4-.7 9.6 1 13.3.7 1.4-2 20.9-2.6 25-.5 3.4 3.5 10.4 1 14.9-1.7 3-4.9 4.2-7.5 7-5.8-.9-16.5-.3-20.7-3.8-8.9 1.4-13.3 5.9-21.7 10.4-.4 4-.9 8-1.3 12-4.7 2-10.8-2.5-16.2-.9-3.7 2.4-7.3 4.9-11 7.3-.5 4.3-1.1 8.6-1.6 13-19.4-1.9-38.9-3.8-58.3-5.7-7.9 5.5-15.8 11-23.6 16.4-.1 1.2-.1 2.4-.2 3.6h800v-.6z" fill="#cc151a"/><path d="M971.5 700c-.2-2.8-.4-5.6-.7-8.4-3-38.9-6.1-77.8-9.1-116.7-5.5-71-10.9-141.9-16.4-212.9-3.7-47.1-7.3-94.1-11-141.2-1.6-19-3.1-37.9-4.7-56.9.4-1.3 2.1-2.7 2.8-4.4l-.3-.9c-5.9-2.9-15.2-1.8-21.1-2.8-24.5-2.6-49.1-5.2-73.6-7.9-2.6-1.9-.9-7.2-.6-10.1l-.9-.6c-5.5-2.7-13.7-.4-20.4-1.9-12.9-1.4-25.8-2.7-38.7-4.1-7.2 12.5-14.5 24.9-21.7 37.4-3 5.1-6.1 10.3-9.1 15.4-.9.7-15.2-.4-18.2-.9-16.2-1.6-90.6-8.7-109.7-10.4-3 6.6-6.1 13.2-9.1 19.8-3.6 7.8-7.1 15.5-10.7 23.3-.1 1.5.7 1.2.9 1.9v54.1l.6 88.4c-1.8 3.5-3.6 6.9-5.3 10.4l.6 49.1h1.3c.5.6.4.4.6 1.6-2.6-.2-5.2-.4-7.9-.6-4.2 7.9-8.4 15.7-12.6 23.6-8-1.4-15.9-2.7-23.9-4.1-8.4 5.8-16.8 11.5-25.2 17.3-.8 1.7-.8 8.4 0 11-3 6.8-23.9 16-29.9 22.6-10.5-1.4-21-2.7-31.4-4.1-6.5 4.9-13 9.9-19.5 14.8-1.5 2.5-1.4 7.2-1.3 11.3-3.2 3.2-4.3 2.8-4.1 9.4-6.6-.8-13.2-1.7-19.8-2.5-4.9 3.6-9.9 7.1-14.8 10.7-.3 1.7.4 4.8.3 7.9-1.6 1.2-3.1 2.3-4.7 3.5-.6 1.4-.4 5.5-.6 7.9-5.7-.6-11.3-1.3-17-1.9-.4.2-.8.4-1.3.6-.6 1.6-.1 5.9 0 9.1-.8.5-1.7 1-2.5 1.6-1-1.1-3.2-.7-5-.9-9.4-1.5-6.9 3.2-12.9 5-1.1.3-2.2-.1-3.8.3l-.6.9c.5.1 1 .2 1.6.3-1.9 1.5-3.8 2.9-5.7 4.4-2.7 5.7-.2 14.9-1.3 22-.7 4.4-.7 9.5.9 13.2.6 1.4-2 20.8-2.5 24.8-.5 3.4 3.4 10.4.9 14.8-1.6 3-4.8 4.2-7.2 6.9-5.6-.9-16-.3-20.1-3.8-8.6 1.4-12.9 5.9-21.1 10.4-.4 4-.8 8-1.3 11.9-4.5 2-10.5-2.5-15.7-.9-3.6 2.4-7.1 4.8-10.7 7.2-.5 4.3-1 8.6-1.6 12.9-18.9-1.9-37.7-3.8-56.6-5.7-7.7 5.5-15.3 10.9-23 16.4v.6h776.4v-.1z" fill="#fff"/><path d="M923.9 220.7c-.2-2.5-.4-5.1-.6-7.6 1.3 1.4 1.3 5.5.9 7.6h-.3zm-1.3-31.3c-.3-1.2-.6-2.3-.9-3.5-.2 1.3-.4 2.5-.6 3.8l.9.3.6-.6zM353 645.8c-.1 1.6-.3 3.1-.9 4.3.8-.9 1.1-3 .9-4.3zm31.3-21.5c-1.6.6-2.6 1-2.8 3.2-.2.2-.7 13.1.3 13.9-.5 1.1-.4.6-1.3 1.3 1.1 1 1.9 1 2.5.6.1 3.5-.9 7.1.3 10.4-.7 1.5-1 1.8-2.8 2.2.2 3-1.1 15 .9 16.1-.6.5-.4.4-1.6.6.7.5 1.1.5 1.6 1.3 1.5 1.6.5 5.6.3 8.9l.9-.6c-.9 1.7-.8 3.9-3.2 3.8 1.1 5.2-.3 9.6-1.1 12.8h5.9c-1.4.6-2.3 1-2.5.9h-.3c0 .1.1.3.1.4H250.6c.1-.1.3-.2.5-.4h.6l.3-.9h-.9v.9c-1.5.2 0-.1-1.6-.3.3.3.4.6.5.7h-52.7c6.6-4.9 13.1-9.8 19.7-14.7l57.6 5.4c.4-5 .5-9.6 1.9-13.3.1 0 .2-.1.2-.1 2.9-1.1 4.7-3.3 8-4.5.1-.3.1-.6.2-.8.2-.2.5-.3.7-.5l17.1.6c-.1-3.1 0-10.6 1.3-12 4.3-2.7 8.6-5.5 12.9-8.2.2-.1.5-.1.7-.2 5.1.4 10.1.9 15.2 1.3l3 .6c.2.5.2.4.2 1.2.7-.4.6.2.6-.9.1 0 .2 0 .4-.1 1.5.3 2.9.4 4.2.5.5.2 1 .5 1.5.8.3-.2.6-.5 1-.8 4.1-.1 6.5-1.2 7.9-3 0 2.9-.1 5.4-.3 8.8l-1.3.3c-.2-.6-.4-1.3-.6-1.9v4.1c.7.7 0 .2.9.3 2 2.7-.5 9.7.6 10.8l-1.3 1.3c-1.3-3-.2-6.7.6-8.5-.7-.7-.6-.4-.9-1.6-.4 5.4-.8 10.8-1.3 16.1-1.7 1.1-3.4 2.1-5.1 3.2-.4 4.2 1 10.2-.9 14.5v.1h.4c1.6-.9 3.1-1.8 4.7-2.6h.3c0 .9 0 1.8-.1 2.6h.8c.1-2.4.1-4.7.2-7.1 1.6.2 1.3.3 2.2.9 1.1-.6 2.1-1.3 3.2-1.9v-.8c.3-.2.6-.3.9-.5-.3-1.1 0-.6-.6-1.3l-.3.3v-3.2c-1.2 1.1-1.8 2.5-1.9 2.8-1-.6-.4 0-.6-.9-.8.8-.6 1.4-.6 2.2-1-.1-.6-.1-1.6.3-.1-.1-.1-.2-.2-.4.4-2.3.6-5.2-.2-6.3.2-2.2.4-4.6.4-6.3 1.2-.3 5-3.1 5.7-4.1v-.3c-1.1.5-2.1 1.1-3.2 1.6.1-3.2.2-6.3.3-9.5.9-1.6 1-1.2 2.5-1.6.2-.5.3-1 .4-1.5.3-.1.6-.3.9-.4-.1-.8-.2-1.7-.3-2.5-.1.1-.2.3-.4.4.1-2.9-.5-5.5-.3-7.4h.3c-.5-1 .1-.4-.9-.6-.2-3.2-.5-2.6 0-5.4-.1-1.3-.1-1.2 1.3-.9.1-.6.2-1.3.3-1.9h-1.9l.9.6c-.8.6-.1.2-.9.3-.3.1-.5.2-.8.3-.1-1.6-.4-3.2-.7-4.9l.3-3.9c.3-1.6 2.6-1.6 3.2-2.8l.6-.3c.3-1.1.5-1.4-.3-2.2l-.2.2c.1-1 .1-2.1.2-3.1-1.2-1 0-.3-1.9-.3-.2-1.2.6-1.2-.6-2.2-.1 3.4-1 5.7-2.5 7.5-.8-4.8-1-9.7.9-13.6.6-.3 1.3-.6 1.9-.9.1-2.6.2-5.3.3-7.9 0-.4 0-1-.1-1.9.6-1 1.1-1.8 1.7-2.6.8-.2 1.5-.9 1.9-2.1v-1.3c-.2.2-.5.4-.7.6.2-.6.3-1.2.4-1.9-.5-.1-1.1-.2-1.6-.3-.6 1-1.4 1.7-2.2 2.3-1-10.3-2.4-27.8.9-30.9 1.9-1.6 3.8-3.2 5.7-4.7-.6-.6-1.6-.5-1.3-1.3 3.5-1 5.6-2.2 8.2-4 .1 0 .4.1.7.2.5 1.1.8.9 0 1.9.4.9 0 .4.6.9-.1-.4.3-2.8.6-4.4.3-.2.7-.5 1-.7 2 .6 4.4.1 5.4.9-1 0-2.3-.3-1.6.6-1 1-.3 1.8-.6 2.2.4.1.8.2 1.3.3.9-.5 2.5.2 2.2-2.2l.3-.6c1.5.9 1.2.8 1.6.6h-.5c1.1-.9 3.9-1 5.4-1.9-.1-3-.7-8.4.6-9.5 5.4.4 10.8.8 16.2 1.1-2.8 1.6-7.9-1.6-10.2.5 3.8.4 7.6.8 11.4 1.3-1 .9-1.4.7-1.9 2.2-.7-.8-1-.6-1.3-1.3-.3 1.1-.4.4.6 1.6-2.7.3-4 2.9-6.6 4.4-.4.1-.1.1-.3-.3-.7.8-.4.7-.6 1.6-1.3-.1-.5.1-1.6-.6.1 1.3.3.7-.3 1.6v.6l-.3-.6c-.2.3-1 .5-.3.6-1.5 1.2-3 2.3-4.4 3.5-1.8 3.5-1.5 13.5 0 16.4v.3c-.5-.3-1.1-.6-1.6-.9l-.3.6v1.3c.9-.4.6-.3 1.6-.3 0 0 1.5 2.9 2.2 3.8-.9.3-.6 0-1.3 1.3.7.6 1.5 1.3 2.2 1.9-.1 5.1-3.9 2.4-4.7 7v13c.1.6.2 1.3.3 1.9-.8-.6-.5-.3-.9-1.3-.2.5-.4 1.1-.6 1.6.8.5.4.8.9 0 .5.3 1.1.6 1.6.9-.7 1 .1 3.7-.9 4.4.4.1.8.2 1.3.3-.6 2-.6 4.2.1 6.3zm-164.8 64.2l-.9-.9c.1.5.2 1.1.3 1.6.2-.3.4-.5.6-.7zm34.8 10.8c-.3-1.1.1-.9-.6-1.6v1.6h.6zm30.4-21.2l-.3.6h-.6c.2-1.6.3-2.8-.1-3.2-1.5.9-3 1.9-4.4 2.8.5 3 1.1 5.9 1.6 8.9l-.6-.9c.2 1.4.4 2.7.6 4.1l.6.3.9-.3c-.6-2.6.7-7.7 1.2-11.3.2-.1.4-.3.7-.4.6-.4.2-.3.4-.6zm16.7-1.6h.3c.3-1.3.6-1.2 0-1.9-.1.6-.2 1.2-.3 1.9zm-13.6-2.9c-.4-.2-.8-.4-1.3-.6l.3.9c.4-.1.7-.2 1-.3zm4.8 2.2c0-1.7.1-1.8-.9-2.5-.1.5-.2 1.1-.3 1.6l1.2.9zm5.7 0c-.2-.6-.4-1.3-.6-1.9h-.9v2.2l.6.3.3-.6h.6zm7.9 14c-.1 0-.1 0 0 0-.5-3-3.9.7-4.7 1.9.5 1.1 1.5 4.2 1.6 7.1h.3c-.1-2.2.5-4.6 2.4-7.4.2-.1.5-.2.7-.3 0-1.1.4-.5-.3-1.3zm6.9-4.1l-.4.1v-.8l-.6-.6c-1.2.5-1.6.5-2.2 1.6-1.3 2.4 1.2 8.4-.5 12.8h2.7c.2-3.8.3-7.5.5-11.3.1 0 .3.1.4.1v-1.9h.1zm21.8 7.3c-.2 1.3-.4 2.5-.6 3.8l.6.3V693zm0-7.9c-.5 1.3-.2 1.7 0 4.1.8-1.4.9-3.8 0-4.1zm6.1 4.1c-.6-.1-1.3-.2-1.9-.3 1 .9.2.5 1.3.3-.1 1.3-.2 2.5-.3 3.8l.3.6c.7-1 .4-3.1.6-4.4zm20.3-2.9c.2.1.5.2.9.4-.1-.8-.2-1.7-.3-2.5-.3.3-.4.5-.6.6 0-1 0-1.7-.1-2.2-.5-.2-1.1-.4-1.6-.6v2.2l-.6.3c-.1-.5-.2-1.1-.3-1.6h-.3c-.3.8-.6 1.7-.9 2.5 2 2 1.8 5.8 1.6 9.5h.3v-1.6l.3-.9.3 5.7c1.1-1.1 1.3-7.5 1.3-11.8zm1.5-31.9c-.2.3-.5.6-.7.8 0-.6 0-1.2.1-1.8-.7.4-1.5.8-2.2 1.3l-.3-.3c.7-4.7 2.5-7 1.3-10.1-.4.9-.2.5-.3 1.3-1.1.6-.1.3-1.3 0 .3.8.6 1.7.9 2.5-.6-.6-.3-.1-.6-1.3-4.7 3.9 3.6 17-1.6 23.4h1.3c.7-.4 1.5-.8 2.2-1.3.2-3.8.3-7.7.5-11.5.3.5.4 1 .2 2 .8-.8 1.2-3.5.5-5zm.9-27.8c-.2-.9-.2-1-.5-1.2.1-3.4-.2-6.3-1.4-7.7l-.3 6c-.6-.2-1.3-.4-1.9-.6.6 5.5 1.6 10.4.6 17.4 1.5-1.1.2-1.3 2.2-1.6.1-3.7.6-8.1.7-11.9l.6-.4zm1-30.1l-.6.3v-1.6h-.9c-.7.8-.8 1-2.2 1.3.4 1.8.8 3.6 1.3 5.4.1-.4.2-.8.3-1.3.1 2.6.2 5.3.3 7.9h-.3v-2.2h-.3c-.2 1.6-.4 3.2-.6 4.7l.9.6v-1.9c.5-1 .1-.2 1.3 0l.3-11.7h.4c.1-.8.2-.6.1-1.5zm6-32.6c.5-.2 1.1-.4 1.6-.6l-.3-.6c.1-.9.4-.5-.3-1.3l-.9-.6v3.1h-.1zm-1.6 102.2c2.2 1.7 5.3.7 7.6 2.5.7-1.9.6-1 .3-3.2-.9.6-.6 0-1.3 1.3-1.6-.8-1.8-.7-3.5-.3l-.6-.9c-.8.8-1.1.5-2.5.3v.3zm6.6 14.2c-.7 1-.7 1.6-2.2.9.9 1.4 1.3.2 1.9 2.2.6-.4.5-.3.9-.9.4-.4-.1-3.1-.3-3.8-.4.9-.4.5-.3 1.6zm1.6 18.4c-.9.1-.7.2-1.6-.3v-1.3c.9.9-.2-2.8-.6-3.5v2.2c-1.2.6-.7.4-1.9 0l-.6.6c.7.5.8.6 2.2.6.3.6.6 1.1.8 1.7h1.7zm.3-57c-.3 1.4-.6 2.7-.9 4.1h.3c1.3-1.4.6-4.1.6-4.1zm1-4.1c-1.5-1-1.5.1-2.8-1.3l-.6-.6c-.2 1.1-.2.9-.6 1.6 1.1.8 1.9.7 3.2 1.9l.6-.3c0-.4.1-.9.2-1.3zm.6-28.5c-.1-.4-.2-.8-.3-1.3-2.5-.4-5.1-.8-7.6-1.3v.6h-.9c2.5 1.6 5.2 1.3 7.6 1.3v1.3l.6.3c.5-.9-.4-.6.6-.9zm.3-15.8c-1.4-.1-2.7-.2-4.1-.3 1 1 2.5 1.1 3.5 2.2v-.6c.2-.4.4-.9.6-1.3zm.7-14.5c-2.2-.1-2.1-.5-3.2-1.6-.4.6-.3.5-.9.9l-.3.6c1.3.8 2.4.7 3.8 1.6l.6-1.5zM352 638.6c-.1-2.7-.6-4.4-1.2-6.3l1.2 6.3zM646.2 319c-.4 3.6-.4 7.8-.1 11.5.1-3.5.3-7.8.1-11.5zm6.5 54.7c-.2 3.3-.2 6.7 0 9.8.4-3.2.3-6.7 0-9.8zm254.7 80.7c1.8 1.6 6.2.8 8.5.6-2.8-.4-5.7-.8-8.5-1.3v.7zM635 354.7c0-4-.1-8-.1-12-.4 3.9-.2 8.3.1 12zM409.9 693.6l.6-.3c.1-2.2 0-3.5-.6-4.4v4.7zm239.4-237c-2.8-.2-5.7-.4-8.5-.6 1 .9 6.9.7 8.5.9v-.3zm153.1-263.7c.6.6.9.7 1.2 1.1 5.8.6 11.7 1.2 17.5 1.8-.2-.1-.5-.2-.7-.3 1.5.1 3 .2 4.4.3-.3.1-.6.2-.9.2 2.5.3 5 .5 7.5.8h.9v.9c-.3-.1-.7-.3-1-.4-.1 1.4-.2 2.9-.2 4.3.5 5.9 1 11.9 1.5 17.8-.1.1-.2.1-.4.2 0 .4 0 .8.1 1.1h-.3v-1c-.1-.6-.2-1.3-.3-1.9h-.3c.1.9.2 1.9.3 2.8-6.9-.4-13.7-.8-20.6-1.3.8.3 1.7.6 2.5.9 1.3 1.3 18.7 1.1 21.5 2.5.4-.1.8-.2 1.3-.3v-.3c-.8-1.3-.6-.8-1.9-1.3-.5-8.1-1.1-16.2-1.6-24.4h1.6v-.4c-10.8-1.2-21.5-2.3-32.3-3.5v.4h.2zm29.1 12.6l-.3-3.9v.7c-.2-1.6-.4-3.2-.6-4.7-4-.7-22.6-1.6-26.8-3.3.1.2.1.6.2 1.1 6.1 1.7 22.6.7 26.3 3.5-5.7-.5-11.4-1.1-17.1-1.6 5.6.6 11.2 1.3 16.8 1.9 1 1.7 1.1 3.3.9 6l.6.3zm-13.6 44.8c-2.9-.1-5.8-.3-8.7-.4 2.6.3 5.6.4 8.7.4zm12 55.8h.3v-.3c-3.6-.4-7.2-.8-10.8-1.3-.4.9 8.3 1 10.5 1.6zm-.6-3.5v-.3c-4-.9-6-.9-10.8-1.3l-.3.6c.3.2.7.3 1.2.4 2 .2 4.1.3 6.2.6 1.2.1 2.5 0 3.7 0zm-22.1-.6c.8-.3 1.2-.2 1.6 0v-.5c1.3.1 3.5.2 6.2.4.9 0 1.7-.1 2.6-.1-2-1.6-7.5-1.4-10.4-1.9v2.1zm127.4 68c-.1 3.6-.7 8.1 1.3 9.8-.4-3.3-.9-6.6-1.3-9.8zm-95.5-95.5c.7.6.8 1 .6 1.9-3.6 0-6.3-1.9-10.8-.6-.1.5-.2 1.1-.3 1.6v-.6c-2.1-2.2-17.8-3.8-21.8-2.8-.2.8-.4 1.7-.6 2.5-.3-1.2-.6-2.3-.9-3.5l.3-.9c.5-.2 1.1-.4 1.6-.6 1.9.6 4.1 1.1 6.5 1.5 1.1.5 2.2.7 4 .7v-.1c2.5.3 5.2.6 7.7.7 1.4.6 2.8.5 5.2.4v-.2c2.2 0 4.2-.1 6-.2.4 0 .7.1.9.1v-.1c.6-.1 1.1-.1 1.6-.2v.4zm-31.9-2.5h-.9l.3.6c.1-.2.4-.4.6-.6zm28.7-22.2c1.1.3.6 0 1.3.6h.3v-1.3c-9.7-4-21.7.6-32.6-3.8l-.3.6.9 1.2v-.1c2.6.3 5.1.5 7.7.8-.1-.1-.3-.1-.4-.2 1.2.1 2.3.2 3.5.3-.1.1-.3.1-.5.1 3.5.3 7.1.7 10.6 1-.2-.1-.4-.3-.6-.5.7.2 1.3.4 2 .7 2.2.2 4.4.4 6.5.6v.5c.3 0 .6.1.9.1v.3h-.2c-.2 0-.4-.1-.6-.1.2 5.4 1.4 21.8.3 22.5v-.4c-3.1-4.3-.5-15.3-1.9-20.8h.3c.2.3.3.7.4 1.1 0-.8-.1-1.5-.1-2.3-9.1-.9-18.1-1.9-27.2-2.8.2.3.4.6.7.8l12.6 1.5c4.6.1 9 .3 12 2.1v12c-.4-4-.8-8-1.3-12-7.4-.7-14.7-1.4-22.1-2.1l.9 20.1c1.6.8 22.5 3.3 27.6 3.7.3 0 .6 0 .9-.1-2.1-6.3-1.7-16.5-1.6-24.1zm-38.5 80.3c.9-1.8.5-4.4-.3-5.7 0 1.9.2 3.8.3 5.7zm11.9-27.8c.4.4.9.9 2 1.2 8.1.6 16.2 1.2 24.3 1.9-1.4-.6-3.6-1.1-6.1-1.5-3.7.3-8.2-.6-12.2-1.2-3.2-.2-6.1-.3-8-.4zM796.7 314v5.1h.3l-.3-5.1zm.7 16.8v6c.6-.9.7-4.5 0-6zm1.5 32.2c.8-2.5.3-9.6-.6-11.7l.3 11.7h.3zm-.6-11.7c.3-1.9.6-9.7-.6-11.4l.3 11.4h.3zm-3.2-68.3c.1 3 .2 5.9.3 8.9l.6.3c0-2.7.5-7.1-.9-9.2zm.7 12.7c.1 2.7.2 5.5.3 8.2 1-2.3.6-6.5-.3-8.2zm13.9-75.3l.9-1.3c-2.3-.3-4.6-.6-7-.9-.4 1.2-.5.5 0 1.6.2 0 4.2-.3 6.1.6zm-2.5-2.9c-.3-6.6-.6-13.3-.9-19.9 7.9.8 15.8 1.7 23.7 2.5.3 6.6.6 13.3.9 19.9-7.9-.8-15.8-1.6-23.7-2.5zm5.3-10.7c-.5-.1-1.1-.2-1.6-.3-.5.3-1.1.6-1.6.9v.3c1.1.8 1.3.7 2.8.9.2-1.4 0-.7.4-1.8zm5.4-3.5l.6.6-.3-.9-.3.3zm-.3 5.7l.6.6.9-.3v-.3c-.4-.1-.8-.2-1.3-.3 0 .1-.1.2-.2.3zm-9.2-11l5.7.9h.3v-.3l-6-.6zM800 371.6c0-3.4-.2-7-1.4-8.2.2 4.5.4 9.1.6 13.6l.4.4c-.1-4.3.1-5.7.4-5.8zM794.8 270c-.2 2.9-.2 1.2 0 4.1.7-1.2.7-2.8 0-4.1zm139.5 91.1c.1-1.8 0-3.4-.6-4.4-.4 2.1-.7 1.7.3 3.2-.3.8-.2.5.3 1.2zm2.2 37.7h.3c-.2-1.4-.4-2.7-.6-4.1.1 1.3.2 2.7.3 4.1zm-97.4-259.4v-1.8c-.6 0-1.3-.1-1.9-.1.1.2-.3 0-.9.3l.2-.4c-.2 0-.5 0-.7-.1.1 0 .1.1.2.1h-1.3c0-.1.1-.1.1-.2-.5 0-1-.1-1.5-.1h-3.1c0-.1-.1-.2-.1-.3-2.8-.2-5.5-.5-8.3-.8-1.4.1-2.6.1-3.9-.4l-2.4-.3c-4 .9-14.1-1.6-18.8-1.7.9.6 1.9 1.3 2.8 1.9 2-1.2 32.7 2.5 39.6 3.9zM936.5 394c.2-1.8.3-4.4-.6-5.1-.4 2.7.2 2 .3 5.1h.3zm5.1 77.5v3.8c.2.8.4 1.6.5 2.4.1.2.2.3.3.5-.2-2.3-.5-4.6-.7-7 0 .1-.1.2-.1.3zm9.1 92.7h-.2c.1-.6.1-.8.1-1 0-.3 0-.7-.1-1-.4-.4-.9-.7-1.3-1.1l.9-.9h.3c-.1-1.8-.1-3.5-.2-5.3l-.1-.1.1-.1c-.1-1.7-.3-3.4-.6-5.1 0-.2-.1-.4-.1-.5-.5-.5-.7-1.1-1.3-1.6.2-.6.5-1.2.7-1.9-.4-2.2-.8-4.3-1.1-6.5l-.2-.2c-.1-.8-.1-1.6-.2-2.4-.2-1.5-.4-2.9-.5-4.4 0-.3-.1-.7-.1-1-.1-.1-.3-.2-.5-.4.2-1.3.4-1.3-.3-1.9.2-.2.4-.3.6-.5-.2-2.9-.5-5.8-.7-8.7-.2-1.3-.4-2.5-.6-3.8.1 0 .2-.1.3-.1-.1-.7-.1-1.4-.2-2.2-.3-.6-.2-.7-.1-1.9-.3-4.1-.7-8.2-1-12.4 0-.2 0-.4-.1-.6-.2-2.5-.4-5-.7-7.4-.3-3.5-.7-7-1-10.5 0 .1 0 .2-.1.2.3 3.4.3 7 .2 9.7.1.7.1 1.4-.1 2 0 .5 0 .9-.1 1.2 1.5 4.2 1.6 8.8 1.7 13.3 0 .2 0 .5-.1.7.1.2.2.4.3.7-.1-.1-.2-.2-.4-.2-.1.4-.3.7-.5 1 .1.2.1.3.2.5-.2-.1-.3-.1-.5-.2-.1.2-.3.3-.4.4.5.4.9.8 1.2 1.3l.3.3c-.2 2.3-.2 1.2-1.3 1.9 2.6 3.4 1 6.1 1.6 9.5l-.3-.2c0 .6.1 1.2.1 1.8.4.5.7 1 1.1 1.6-.5-.1-.8-.3-1.1-.4v.9l.4.1c-.1.1-.3.2-.4.4v1l.7.2c-.9.9-.6.2-.6 1.5.1 1.1.2 2.2.4 3.4.1.3.2.7.3 1.2h-.1c.1.7.3 1.3.5 1.9.2.5.2 1.1.1 1.7.1 1.1.2 2.2.4 3.3-.1 0-.3 0-.4-.1v1.1c1.5 5 2.4 10.4 1.7 15.5.8 3.7 1.3 7.5 1.3 11.3.7 0 1.3.1 2 .1.1-.3.2-.7.2-1 .1-1.4 0-2.7-.1-4.1zM843.5 330.1l-.6.6c-.2 1.1-.1 1-.6 1.6-.6-.6-2.8-2-4.4-1.9v1.3c-1.4-1.3-3.3-2.1-6-1.3-.1.7-.2 1.5-.3 2.2-.1-1.8-.1-1.9-1.3-2.5-1.9-1.4-8.6-1.8-10.1.6-1.1-3.5-7.4-2.3-10.8-2.5-.2.5-.4 1.1-.6 1.6-.2-.6-.4-1.3-.6-1.9l.3-.9c3 .6 28.4 3.2 29.4 2.2v-.3c.7-1.3-.6-14-1.5-19.6 0-.5 0-1.1-.1-1.6h-.3c-.1-.5-.3-.9-.4-.9-1.1-.3-2.1-.6-3.2-.9 1.8.1 2.5.3 3.4-.2.6.3 1.1.6 1.4.9.3-1.3-2-2.2-5.4-2.9.4-.1.7-.2 1-.3-1.1-.1-2.1-.2-3.2-.3v-.3l.3-.9c3.2 1.1 8.6-.4 10.4 2.2 2 4.4-.2 24.6 3.2 26zm-5-25.5c-.6-.5-.4-.4-1.6-.6.4.3.8.6 1.3.9h.3v-.3zm2.8 23.3c-.5-8.1-1.1-16.2-1.6-24.4h-1.3c.9 5-.1 21.5 2.2 24.7.3-.1.5-.2.7-.3zm96.2 85.7h.3v-3.5c.5.3.9.7 1.4 1v-.8c-.3-.3-.6-.7-.8-1.1-1.3-1.9-1.3-6.4-.6-8.2-.6-.8-.2-.1-.3-.9-.6.4-.2 0-.6.6-.6.4-.1 3.7.3 5.1-1.1 1-.4.6-1.6.3.8 2.6 2 3.5 1.9 7.5zM836 307.6c.1.4.2 1 .3 1.6l.6 18.6h-.3c-1.6-.2-3.2-.4-4.1-1.3l1.3-.3c-.5-.8-1.1-1.7-1.6-2.5l-.6.3c-.1.6-.2 1.3-.3 1.9h-.3c-.1-2.4-.6-1.5-.9-2.8 1.1-.3.5 0 .9-1.9.4.8.4.5.3 1.3.7-.4.8-.7 1.3-1.3-.1.4-.2.8-.3 1.3l.6-.3c.1-.8.2-1.7.3-2.5-1-.7-1.2-1.3-1.9-1.5v-.1h-.3c-.3 0-.6-.1-1 0 .3-1.8.4-2.5-1.3-3.8-.1.4-.2.8-.3 1.3 0 0 .3 9.5-.3 11.1.9-.3.2-.6.9 0v.3h-1.9c-.3-1.5-.6-3-.9-4.4.8-.6.7-.2 1.3-1.3-.8-2.4-.8-1.6-2.2-2.8l-.6.3c.5 2.7 1.1 5.5 1.6 8.2-4.4-.4-8.9-.8-13.3-1.3-.4-6.6-.8-13.3-1.3-19.9l.3-.3c7.9.7 16 1.4 24 2.1zm-6.4 6.1l-.3.6c.5-.5.5.1.3-.6zm.7-.3l-.6-.9c-.5.7-.6.6-.9 1.6h.3c.7-1.3-.2-.5 1.2-.7zm.6 1.5l.9.3-.6-.9-.3.6zm.9.7h-.6l-.3.9c.8-.5.4-.1.9-.9zm.4 2.2l-.6-.9-.3.3c.2.2.5.4.9.6zm107.1 116.5c-.1-3.3-.2-6.6-.2-10-.1-.6-.1-1.3 0-2v-3.2c-.1-1.1-.2-2.2-.3-3.4-.2-.6-.4-1.3-.6-1.9v6c-.4-.4-.8-.9-1.2-1.5.9 2.5 1.9 5.1 2 7.8.1 1.2-.3 2.1-.9 2.7.1.7.3 1.3.4 2 .4-.4.6 1.3.8 3.5zm.7 14.5c-.3-4.1-.5-8.2-.6-12.2 0 2.6-.1 5.3-.3 5.9v.6c-.1-.1-.3-.2-.4-.3.2.9.3 1.9.3 2.9v.1c.4.9.7 1.9 1 3zm-98.4-89.9c.6.2 1.3.4 1.9.6V358c-.8 0-2.3-.1-4.1-.2v.2c-.4-.1-.8-.2-1.1-.3h-.3c-.6.1-1.7.1-2.6-.2-6.2-.5-13.5-1.3-13.7-2.1-.2.4-.4.8-.6 1.3-.1 0-9.6-1-10.1-1.3-.7-.6-.5-.6-.6-1.9-.5.6-.4 1.3-.6 2.5.3.3.6.7.9 1.1l.4-.4c2.6.2 5.3.4 7.9.6l5.1.3c-.1 0-.1 0-.2.1l1.2.1c.1 0 .2-.1.3-.1.8.1 1.7.2 2.5.3h-.6c1 .1 1.9.1 2.9.2-.1-.1-.3-.1-.4-.2l6 .6c1.6.1 3.2.2 4.8.4v.6c.3 0 .6.1 1 .1l-.3.9c-.2-.1-.4-.2-.7-.3l-.3 10.7-.9-10.8c-5.6-1-23.1-.2-28.1-2.5 3.5 5.4 3.6 14.2 3.4 23.6 8.5.7 17.1 1.5 25.6 2.2l.3-.6-.6-11.1h.3c.4 4.1.8 8.2 1.3 12.3v.3c-9 2.5-21.9-1.8-29.7-1.6h-1.3c1 4.9 1.6 9.8 1.6 16.1 1-2.5.6-11.2 1.3-14.2 2.7-1.6 8.2-.8 9.8 1.9 1-2.8 8.2-1.5 10.4-.9.6 1 .9 1.4.9 3.2.1-.8.2-1.7.3-2.5 1-.5 3-1 4.4-.3 1.2.7 1.2.8 1.3 2.5.1-.8.2-1.7.3-2.5h.9c1.3 1.1 1.7 2.6 1.9 4.7l.6.3c.3-2.5.9-3.8 1.9-5.4-1.3-.9-.7-1.3-2.2-1.3-3.3-3.8-.8-19.4-2.4-25.5zM306 658c3-1.7 5.4-3.8 8.2-5.3-3.1 1.4-5.9 3.3-8.2 5.3zm20.1-6.8c-1.3-.5-.7 0-.9-.9-.6-.5-.4-.4-1.6-.6-.1.3-.2.6-.3.8v.4h-.2c0 .1-.1.2-.1.4 1.7.2 3.3.3 5 .5-.7-.3-1.3-.5-1.9-.6zm359.6-453.3c-.1 3-.2 5.9-.3 8.9 1-1.2 1-7.3.3-8.9zm-41.1 9.5l-.3.6c1.6.4 4.4 0 6 .9l.6-.9c-1.3-.9-4.5-.5-6.3-.6zm-.3-30c.8-.3 1.7-.6 2.5-.9-1.4-.2-2.7-.4-4.1-.6.5.7.9.9 1.6 1.5zm17.7 31.9l.3-.6-6.6-.6-.3.6-.6.3h.6c.3.3 4.4 0 5.7.6l.9-.3zm9.2 170.2c.9.2.7.1 1.6-.3l-.6.9h1.3c-.9-2.5.4-3.8-.9-5.1-.4.2-.8.4-1.3.6h.9c-.6.6 0 .2-.9.6.4.2.8.4 1.3.6-.9.7-.1.2-1.3.3.2 2 1 1.4-.1 2.4zM661 512.6c.5 2 2 12.4 0 14.5 1.3 1.2 4.6 1 6.6 1.3l-.3-20.9c.1.2.2.6.3 1.2-.1-1.2-.2-2.5-.3-3.7-4.3-1.4-23.8-.7-28.1-2.6.7 2.1.6 1.5 2.1 2.6.1 2.6.2 5.3.3 7.9.3-.8.6-1.7.9-2.5v-.6c.7.9.2.1.3 1.3h1.3c.6-.9.1-.9 1.3-1.6l-.6.6c2.8 1.1 4-.4 6.3 1.3.7-.9.2-.2.3-1.6h.3c.8 2.7 2.8 4.1 1.9 6.6h1.6c-.3.4-.6.8-.9 1.3.5.8 0 7 0 10.1 2.5-.5.4-7.2 2.2-8.5-.3 1.3-.1 2.1.2 3.2.8-2.6.3-9.6.1-11.5 1.3.3.6.8 1.3-.3 1 1.9 1.2 2.5 2.9 1.9zm-37.9-284.3h.6l-.6-25.3c-1.4 7.2-.3 18.5 0 25.3zm176.1 360.5l5.3 111.2H448.6c.1-.4.1-.4-.4-1-.3.4-.7.7-1 1h-44.9v-8c.1-1.1.2-2.1.3-3.2h-1.3c-.1.1-.2.2-.3.2.2-4.4.5-8.1.6-9.4-.4.5-.4.6-.9.9.9-1.8 1.3-4.1 1.6-6.8.3-.2.6-.3 1-.5l.3-15.8h-.9c-.1.1-.2.1-.3.2 0-2.5 0-4.7.3-6.5-.1-2.4-.2-4.9-.3-7.3.1-.3.2-.6.2-1 .5-.3 1.1-.6 1.7-.9l.3-14.9c-.2-.1-.5-.2-.7-.4-.1-1.5-.2-2.8-.6-3.5 0-.1-1.3-.5-.9-.9 0 0 1.5-4.4 1.3-5.4s0-2.8.2-5.1c.3-.2.7-.4 1-.6.1-3.6 1-14.4-.3-15.8-.1 0-.1.1-.2.1 0-.3-.1-.5-.1-.8-1-5-.4-9.7.6-13.4.2-.2.4-.3.7-.5.4-2.4 1.5-13.2 0-15.5-.3.2-.6.4-.8.6-.3-5.5-.6-9.6.8-15.2v-.3c-.9.6-1.9 1.3-2.8 1.9-.1-.4-.4-.8-.7-1.3h.1l-.3-6.6c1.4-.8 3-2.1 3.8-3.5.6-.5 1.2-1 1.9-1.6.1-3.2-.4-5.5-.9-7.6 1.6-1.1 3.1-2.2 4.7-3.3 2.9-.9 7.1-4.2 8.3-5.5.1-.2.2-.3.2-.4.5-.3.9-.6 1.4-.9 1.4.9 2.7 1.4 2.8 1.9h-2.5c-.1 5.4-.5 8.7 1.3 12 0-2.2 0-5.2 1.3-7.3 0 2.5.5 5 1.3 5.7v-.3c-.1-.6-.4-.2 0-.6.6-.6 0-.2.9-.6-.3.8-.5.5-.3 1.3.4-.7.8-1.5 1.3-2.2.2.9.4 1.9.6 2.8.9-.5.1-.5 1.3 0l.6-5.1h.3c.1 1.2.2 2.3.3 3.5.7-.8.3 0 .3-1.3.6.3 1.3.6 1.9.9.1-1.6-.4-.9.6-1.9v2.5c1 0 .5 0 1.6.3.3-1.3.6-2.5.9-3.8 1.1 1.5 1.7 2.5 2.8 2.2-.1-.8-.2-1.3.3-2.2 0 1.6.1 3.2 1.3 2.8l.9.3c-.2-3.4-.1-13.7 1.6-16.4 1.1-.6 2.1-1.3 3.2-1.9-.1-4.1-.4-7.9.7-10.7 2-1.2 3-3.2 5.7-3.8l.2-1c2.5-1.8 5-3.7 7.5-5.5.4-.2.7-.3 1.2-.4l.1-.6c1.7-1.3 3.5-2.6 5.2-3.9l.3.6c3.5 4.2-1.6 16.8 1.6 20.2 1.4-1.1 1.2-2.6.9-3.8.9.9.6 2.5.6 3.8l5.1.6.6-.6c.2-2.7.4-5.5.6-8.2h.3c.2 3 .4 5.9.6 8.9h.3c.4-.1.8-.2 1.3-.3-.6-.6-.2 0-.6-.9l.9.6c-.2-1.8.3-2.3.6-3.8l.6.9c-.1 1.1-.2.7.3 1.6l1.6-1.6c.1-1.4.2-2.7.3-4.1l.6.3c.4 2.1 1 1.8.9 3.5 1.3-.9 0-.7 1.6-.3-.3-2.2-.1-3.8.9-6 .1 2.1.9 2.4.3 3.5 1.2-.4 1.9-.3 1.6-.9.7-2.2.9-3.3.6-6 3.2.5 5.1-.6 6.6-1.6-.1-.5-.2-1.1-.3-1.6 4.5-3.2 9-6.4 13.5-9.5 2.5-.8 3.4-2.7 6.1-3.4.1-.3.2-.7.2-1 .6-.4 1.2-.8 1.7-1.2.2.1.4.2.5.3 2.7-2.1 5.4-4.1 8.2-6.2.9-.6 1.7-1.2 2.6-1.8-.1-4.1-.9-8.4-.3-11.3 1.4-1.3 2.8-2.5 4.2-3.8l20.4-14.1c.3.4.6.8.9 1.3-2.8 3.2-1 17.9-.6 20.9.5.1 1.1.2 1.6.3.4-1.3.8-2.5 1.3-3.8 0 1.5-.2 2.6.6 3.5l5.1.9.3-.9v-2.8c.2.4.4.8.6 1.3.1.9.2 1.9.3 2.8 3-.1 4.4.3 4.4.3.8-2.2 1.2-3.8.9-6.3l.6.3c0 2.7.6 4.2.3 5.4h2.5c-.7-.9-.5-.4-.6-1.3 1.1-.7.6-.5.6-2.5l.6.6c.1 1.2.8 1.6.6 3.2l.9-.6.3-.9c-.7-.1-.5.2-1.3-.3 2.5-1.4 1.3-7.5 1.9-9.8h.3c0 5.3.9 8.6.9 10.1.9-.6.9-.8 1.6-.9.2-4.5.4-9.1.6-13.6-.2-1.5-.4-3-.6-4.4.7-2.7 8.1-15.3 11.8-20.2-.1.3-.3.7-.4 1 .7-.7.9-.6.7-1.4.7-.9 1.2-1.4 1.5-1.5.8.9 2.1 1 3.8.9v4.4c.7-.1 1.5-.2 2.2-.3.1-.2.1-.4.2-.6.1 2.2.1 4.4.2 6.6.6-1.3 1-9 1.3-14.6 1.2-1.3 2.3-3 1.5-5-.5.8-.9 1.7-1.4 2.5.1-2.1.1-3.5.1-3.5.2-.7.4-1.5.6-2.2h-.3c-1.3.9-2.4 2.9-3.2 5V382l-.6-10.8c1.8-3.5 3.6-7 5.4-10.4v-37l-.6-87.3v-19.3c-.2-.7-1.2-.6-.9-2.2 6.5-14.2 13.1-28.5 19.6-42.7h2.2c.8 1.5 1 .6 2.8 2.2-1 .6-.5.1-.9 1.3-1.3-.7-2.2-.9-3.8-.6-.1 18.8.1 37.5.6 56.3v24.7c.9.1 1.9.2 2.8.3l.3-.6c.1-.7.2-1.5.3-2.2l.3.9v1.6c.8.3 1.7.5 2.2.9-1.9 0-1.3-.1-2.5.9.2 8.1.4 16.2.6 24.4.6.1 1.3.2 1.9.3-1.3.1-1.3 0-1.9.6-.1 4.3-.2 8.6-.3 13h-.3c-.2-4.5-.4-9.1-.6-13.6-.8.1-1.7.2-2.5.3v25.3c2 .2 2.3.3 3.5-.3v-11.4h.3l.3 11.7c1.3.2 2.5.4 3.8.6-2.3-.3-4.2-.2-3.8 1.6l.3 24.7c1.6-.1 2.8-.1 3.5.6-1.4-.5-2.7-.2-3.8.3.2 18.4.5 34.6.6 52.8 4.1-.1 5.3-.5 7.3.6-2.4.7-1.2 2.6-1.9 4.7.1-2 .3-3.6-.9-4.4-1.6-.8-2.6-.5-4.4-.3l.3 12.3.3 14.5h4.7c.1-.4.2-.8.3-1.3-.4-1.4-1.6-12.5.3-14.5-1.3 4.8 1.6 13.9 0 16.8l-.6.9c-.3-1.7-2.6-2.1-5.1-1.3l.6 26.9h4.7l.3-.3c.1-.7.2-1.5.3-2.2.2 3.5 1.1 8.8-.3 10.8.1-3 .1-6.3-.6-7.6h-4.7l.3 27.2h5.4V460h.3l.3 11.7c3.6.4 4-.4 7 0l.3-16.8v.6c.2 4.5.4 9.1.6 13.6l.9.3c3.2 2.4 20 2 24.7 1.9v-.9h-.6c-8-.7-16-1.5-24-2.2v-.2c8.1.5 16.2 1.1 24.4 1.6.1-.5.2-1.1.3-1.6-4.3-.2-20.3-.3-22.8-2.2 6.5.2 17.4 3.1 22.8.6l-.3-.6c-8-.8-16-1.7-24-2.5 8 .4 16 .8 24 1.3-.3-.5-.6-1.1-.9-1.6-2.8-.1-20.8-.9-22.1-2.2 7.6.5 15.2 1.1 22.8 1.6v-1.6c-4.7-.1-23.2-2.1-23.4-2.5 7.8.4 15.6.8 23.4 1.3v-.3c-.4-.3-.8-.6-1.3-.9-3.5-1.5-11.6.5-13.9-1.9 5 .2 9.9.4 14.9.6v-.6l-.3-.6c-7.8-.7-15.6-1.5-23.4-2.2 5.9.1 21.3 2.3 23.7.6l-.3-.9c-7.7-.4-15.4-.8-23.1-1.3l-.6-.3c0-1.4-.1-1.8-.6-2.5h-.3l-.3 6v-.6c-.3-2.7-.6-5.4-.9-8 .5.2 1.2.4 2.2.6 2.1.8 5.7.9 9.7 1 6.8.4 14.1.7 15.9 1.2.3 1.6.6 3.5.7 5.6-.3 3.9-.5 8.1 0 12.2-.2 2.2-.5 4.2-1 5.9-1.5-.1-3-.2-4.4-.3 1.2.6 2.3.9 3.2 1.1v.2l.4-.1c1.3.3 2.5.5 3.7 1.7l.6-.6c1-.4.1-.6 0-1.9-.8 0-.4 0-1.3.3-.6-2.1-1-4.2-1.2-6.3.4-4 .3-8.4 0-12.2.1-2 .3-4 .4-5.8.3.1.5.2.7.3.1-.4.2-.8.3-1.3-.3 0-.6 0-1-.1v-.3c-9.9-.5-19.8-1.1-29.7-1.6l.1.1c-1.8-.6-3.6-1.1-5.5-1.7h4.1c-.1-.8 1-24-1.3-26.3-.7-.4-1.5-.8-2.2-1.3 3.1-.2 2.2-.2 5.4 0V412h.3c.1 1.6.2 3.2.3 4.7 5.6.3 23.1 2.1 27.1 1 .1.1.1 0 .2 0 .3-.1.5-.2.6-.3-.4.1-.5.2-.6.3h-.2c0-.1-.1-.2-.2-.4-.2-.6-.4-1.3-.6-1.9-.7 2.4-21.7.5-24.4-.3-.2-5.7-.5-11.3-.7-17 4.6.3 7.4 0 9.9 1.5v-.9c.8.3 1.7.6 2.5.9.8.4.2 0 0 .9 1.2-.4 2.3-.8 3.5-1.3v.3c-.7.3-1.5.6-2.2.9l-.3.6c1.7-.2 1.3.1 1.6-.6 1.3.8.3.3.3 1.9-1.4-.5-1.3-.5-2.5 0 .1-.4.2-.8.3-1.3h-3.5c.1.4.2.8.3 1.3.4-.6 1.4-.7 2.8-.9-.6.9-.5.8-.6 1.6-.5-.2-1.1-.4-1.6-.6.4.6-.2.9-.6.3h-.3l.3 1.3c1.3.1.8.3 1.3-.3 1.2.5-.3.6.9.9l1.3 1.3c-.1-.4-.2-.8-.3-1.3 1 .2.2.4.9-.3.2.5.4 1.1.6 1.6l-.9.6c.9-.1.1.1.9-.3-.4 1.6-.2 1-1.9 1.3v.3c1.8.4 1.2.8 2.2-.3 1.1.4.7.2 1.3.9-1.5-.2-.8.2-2.8.6.6.3 1.3.6 1.9.9.4-.8.8-.4 0-.9v-.3c.4.2.8.4 1.3.6h.3c0-1.2.1-.5-.3-1.6 1.2.7.8.6 2.2.6-1.3 1-1.3-.1-1.9 1.9.8.6.6.4.9 1.6l.9.6c1.2-2.9.6-3.9 3.8-6v2.2c.1-3.3.2-6.5.3-9.8h.5c.3 2.9.6 5.9.8 8.8v-10.7c.4.3.7.6.9.9.1-.8.2-1.7.3-2.5-.4 0-.8-.1-1.3-.1v-.3c-2.7-.2-5.4-.3-8.1-.5.8-.1 1.5-.3 1.8-.5l-5.1-.3c.3.3.7.6 1.2.7-4.7-.3-9.4-.6-14.2-.9v-.1h.3c3.2.1 6.3.2 9.5.3l-11.4-.6c-.1.8-.2 1.7-.3 2.5-.1-1.5-.2-2.9-.3-4.4 4.6 3 26.5-.4 28.1 3.8h.3c.1-.8.2-1.7.3-2.5-9.8-.6-19.6-1.3-29.4-1.9.1.2.4.4.6.6-2.6 0-4.6-1.7-4.7-2.2 1.4.4 2.1.4 2.8 0V382h.3c.2 2.5.4 5.1.6 7.6 1.7-.1 3-.2 3.5.3l1.3-.3.3-6.3c0 2.4 0 5.9 1.6 7 1.6-.1 2.9.4 3.8 0-.7-2.4-1.6-16.7.3-19.3.2 6.4.4 12.9.6 19.3 2.8.1 2.6.2 4.4.3-.1-1.4-.2-2.7-.3-4.1.3-.9.4-2 .6-3 .2 2.9.5 5.4 1 7.4 1.5.1 3 .2 4.4.3-.2-5.2 1-24.7-2.5-25.9-1 .6-1 .5-2.2.3-.3 2.4-.6 5.2-.7 8.1-.2-2.6-.5-5-.5-6.8-1.5-.1-.9-.7-2.2-2.2-1.5 0-2.1 0-2.8.6.2 1.4.4 3.1-.3 4.1 0-1.5.1-3.6-1.3-4.4-1-1-2.6-1.1-3.8-1.3-.1 2.4-.2 4.9-.3 7.3.6 2 .8 8.8 0 9.8.1-8 .1-10.6-1.6-17.1-2 .4-2.1.3-3.8.6.1 4.4 1.2 15.4-.6 17.4.4-2.6 1.2-15.4-.9-18-.5-.7-.9-.8-1.6-1.3.7-.1 1.5-.2 2.2-.3 0-2.5-.1-4.9-.1-7.4.3 3.2.7 5.9 1 7.4.6-.7 1.3-1.5 1.9-2.2.1.5.2 1.1.3 1.6h.3c.1-.5.2-1.1.3-1.6.2.4.4.8.6 1.3.1-6.1 1.1-16-.5-20.3 2.9 1.1 20 2.3 23.3 2.3-.2 1.1-.2.8.3 1.6.1-.7.2-1.5.3-2.2-8-.6-16-1.2-24-1.9v-.1.1h-.3c0 .1.1.1.3.2-.1.8-.2 1.5-.3 2.3.1-2.7-.9-5.1-2.8-5.7-.4 1.6-.7 3.4-.9 5.3 0-2.1-.1-4.2-.1-6.3-.4-.2-.8-.4-1.3-.6l.9.3.6-.3c.1-.9.2-1.9.3-2.8.1.9.2 1.9.3 2.8 1.6.1 3.2.2 4.7.3.1-2.3.2-4.6.3-7h.3c.1 2.3.2 4.6.3 7 1.9.2 4 .8 4.7.3-.2-1.3-.1-3.4-.1-5.9.2 2.5.5 4.7 1 6.2h1.1c.5.6 1.9.8 4.6.7v-.3c-.9-.1-1.8-.2-2.7-.4h1.5l-.3-20.2-.3.6c-.1 1.1-.2 2.1-.3 3.2l-.9-.6c2.1-4.5.9-3.8.3-8.2-.4-.1-.8-.2-1.3-.3-1.2.6-2.1 3.8-2.5 7.9-.1-3.6-.6-6.6-1.6-7.9-1.2-.2-2.3-.4-3.5-.6-.1.4-.2.8-.3 1.3v15.8l-.3-.6-.3-15.8c-.8-.3-1.7-.6-2.5-.9h-2.2l-.3.9v9.8h-.3c.1-4.6.2-9.1-1.6-11.7 1.2-.2 2.3-.4 3.5-.6-.1-2.4.1-2.1.9-2.8.2.4.4.8.6 1.3v-18.3c-.9.6-.5.5-1.3.6 0-3.8-1.6-3.9-3.8-6l.3-.3c.7 1.1 4.8 1.3 7.9 1.3-.4-.4-1-.6-1.6-.7v-3.4l.6.3c.1 1.1.2 2.1.3 3.2 1.5.2 3 .4 4.4.6l.3-13.9h.3c.2 4.6.4 9.3.6 13.9h.2c.7.7 3 .8 6.1.7-1.4-.2-2.8-.4-4.3-.6.8 0 1.5-.2 2.1-.7.2-2.4.4-4.9.6-7.3h.3c.2 2.7.4 5.5.6 8.2 1.4.2 2.7.4 4.1.6 0-9.6-.5-13.4 0-20.9h.3l.6 20.6c1.1-.2 1-.1 1.6-.6.1-.4-.1-.1.6-.6l.6.6-.6.3c5.3-2 0-8.4 2.5-13h.3c.2 4.2.4 8.4.6 12.7l.9-.6c-.2.5-.4 1.1-.6 1.6 1.2.1 2.3.2 3.5.3-.2-.7-.4-1.5-.6-2.2.9.4.1.2.9.3-.1-6.7-.7-15.6-.3-19h-.3c-.2.4.1.4-.3.3-1.1-1.7-2.5-3.1-1.9-4.1-.5.1-1.1.2-1.6.3-.2 3.4-.4 6.7-.6 10.1h-.3c.5-4.4.2-9.4-1.6-10.4-.7-.7-1.1-.5-2.2-.9-.7.6-1 .9-1.6 1.6-1.2-1.2-2.6-1.5-4.4-2.2-1.6 5.9.5 10.6-.6 17.1h-.3c.2-6.3 1.3-14.6-2.5-17.4-.8.1-1.7.2-2.5.3-.1 1.5-.1 3.4-.6 4.1-.1-1.3-.2-2.5-.3-3.8-2-.6-3.4-1.6-4.7-.3v6.6h-.3c.3-3.7.5-7-2.5-7.6-.2.4-.4.8-.6 1.3-.6-.4-1.3-.8-1.9-1.3l-.3 14.9h-.3c.1-7.2.4-12.1-1.3-16.1 2.3-.4 3.8-1.9 3.8-1.9 1.1-.1.2-.3 1.3.6v-17.7l.3.3v-.6c1.1-.6 1.2.8 2.8 1.6l-.3-.9c.9.3 1.9.6 2.8.9.6-1.2.3-.4-.3-1.6l.3-.6c1.1 1 .8 1.5.9 2.8 1.2-.6 1.1-1 2.8-1.3.1.5.2 1.1.3 1.6l.6-.6c.1-.7.1-.2-.6-.6.4-.6.4-.8.7-.9.8 1.2.6-.2.9 1.5 1.4-.7 1.6-.7 3.5-1.3-.4.3-.8.6-1.3.9v.3c1.3.2.8.3 1.3-.3.9.1.5.2.6-.6 1.2.9.4 1.2 1.6 1.9.5.8.4.1 1.9 0-.4-.2-.8-.4-1.3-.6v-.3c.9.2 1.9.4 2.8.6-.7-1-1-.7-2.5-.9v-.3c1.3.2 1.2.2 2.2-.3 2.8 3.8 1.4 9.5 2.2 16.8-.6.4-.2 0-.6.6h-.9c.7.2 1.5.4 2.2.6l-.3-17.7c-.1-1.5-15.1-2.7-21.2-3 .6-.1 1.3-.1 1.9-.2h-5.1v-1.7c8.7.9 17.5 1.8 26.3 2.7 0 1.5 0 3 .1 4.5 0 0 0-.1-.1-.1 0 .2 0 .4.1.6v2.9c-.1 1.4-.2 2.8.1 4.1v2.7l-.2-.2c.1.4.1.8.2 1.2 0 2 .1 4 .1 6.1h.3c0-1.6 0-3.2.1-4.8.1.1.1.3.3.4V253c-.1-.2-.2-.4-.2-.6 0-1.8.1-3.7.1-5.5v-1.6c0-3 .1-5.9.1-8.9.2 0 .4.1.6.1h.3c-.2-.3-.5-.5-1-.7v-.3c-9.1-.8-18.1-1.6-27.2-2.4v-.1c-.8-.1-1.7-.2-2.5-.3.1-.5.2-1.1.3-1.6 2.1 1.3 8.3 1.8 13.6 1.8.9.1 1.9.3 2.8.4v-.3c-.5 0-1-.1-1.5-.1 3.6 0 6.6-.3 7.2-.6.6 1.7 3.2 1.5 5.1 1.6.4-.4 3.9.5 5.4.3v-1.6c2.1 2 4.8 2.2 8.5 2.2-.3-1.3-1.2-14 0-16.1l.3.6c.2 5.3.4 10.5.6 15.8h4.7l-.3-5.7h.3v.6c1 1.2.2 3.5.9 4.7.8.9 2 .7 2.8.9h.3c-.3-6.9 2.3-20.3-.6-24.4-2.2-.5-2.9-.6-3.5.3-1.7-.9-6.2-2.6-5.4.6v4.7l-.6-.3-.3-6.3c-2.7-.5-6.6-1.6-8.2.9-.5-1.8-.8-1.4-2.2-2.2 3-.1 7.1 1.2 10.8.3V208c.2.6.4 1.3.6 1.9 5.6 0 4.8-.5 9.8.9-.1-1.4.1-3.6.9-4.4v4.4c1.9 0 3.5.2 4.7-.9-.1-1.1-.5-2.2.6-3.2.1 1.5.2 3 .3 4.4 1.2.1 2.3.2 3.5.3.1-.4.2-.8.3-1.3-.8-3.6-.5-12 .6-14.2h.3v.3c-1 3.3.6 14.2 1.3 14.9.8.1 1.7.2 2.5.3-.7-.6-.3-.1-.6-1.3.7.4.5.4 1.6.6-.2-1.4-1.3-9.3.6-11.7.1 4.8.5 10 1.3 12 .4-.7.4-.7.9-1.6l.6.6-.3.6.6-.3.3-.9-.9-.3c1.2-.5.7-.4.9-.9l2-.2c-.8-.6-.1-.2-.9-.3 2.2-4.3-.4-8 1.9-13.3v.6c1.2 2.8-.4 7.3 1.9 8.5.6 1 .1.3.9.6.1-.4.2-.6.4-.9.3.5 0 .1.6.6l-.6-.6c.4-.5 1-.8 1.8-1.3l-.6-.6c-.8 1.2-1.4 1.3-2.5.9.5-.1 1.1-.2 1.6-.3-.2-.5-.4-1.1-.6-1.6h.9c.5.9.5-.6.9.3 1-2.5-.4-4.5.6-6.6h.3c.2 2.6.4 5.3.6 7.9h1.3c-1.2.7-1.2.7-1.3 2.5h.3c.3-1.8.3-1.2.9-1.6.1.8-.3.2.3.9v-2.2c.4.1.8.2 1.3.3.1-.7-.1-.4.3-1.3h-.9c1.8-5.2-.2-7.2 1.6-11.7 3.5.1 6.8 1.5 8.5 0v-1.6l.3.9c1.2.4-.3.4.9.9h2.8c.2-.8.4-1.7.6-2.5.2 1.7.6 2.6 1.6 3.5 2.3-.6 1.7-1.9 2.5-3.8.2.9.4 1.9.6 2.8 1.9-.3 3-.1 3.5-1.9 1.2-.8.3-.5.9-1.6v.6c.3.5.6 1.1.9 1.6.5-.1 1.1-.2 1.6-.3.4-1 .2-.7.9-1.3l-.3-.6c-1.6-.2-3-.3-3.5-.6-.6-.4-.2 0-.6-.6 2.6-.2 5.2-.3 7.8-.5-1.2 1-1.8 1-4.3.9 1.8.4 3.6.8 5.4 1.3 0-.2.1-.4.1-.5l.2.2.6-.9h-.6l-.2.1c0-.4 0-.7-.4-1 .3 0 .6 0 .9-.1l24-41.1.9-1.8c2.1-2.2 4.3-6.4 4.8-8.6h5.1c-1.3-.3-2.6-.6-3.9-1 1.2-.7 2.7-1 4.5-.7v.3h-1.9l.3.9c1.9.2 3.8.3 5.7.5.3.1.7.1 1 .1h1.1c1.1.1 2.1.2 3.2.3v.3c-2.2-.1-3.5 0-4.1 1.6-2.4-1.8-5.5-1.7-9.5-1.6.7 14.3 1.5 28.7 2.2 43 .7 3.4-1.2 13.7 1.9 14.9-1 .5-1.4 22.2-.3 25.6 1 3.2.8 12.9.6 17.4-.1 2 .1 9.1 1.6 9.8l-.6.6v10.1c.8 19.5 1.6 39 2.5 58.5 0 3-.5 11.7 1.6 12.7 0 0-1.1 5.7-.9 7 .5 7.1 1.1 14.1 1.6 21.2 2.2 9.2-1.4 19.9 1.3 28.1.4 1.2-.8 5.6-.3 8.2 1.2 7 .6 14.7 1.9 20.6l-.3 15.8c2.5 18.9-.7 40 2.5 58.8l2.1 46.5c0 13.3-.8 26.6.2 39.9l.6 6.6 2.1 10.5zM656 257.7c-3-2.2-11.2-1.6-15.5-1.6 5.1.5 10.3 1.1 15.5 1.6zm10.7-.6l-.3-19c-.1-.9.2-1.5-.6-.9-.4-.6 0-.2-.6-.6-.1 4.5-.7 18.5 1.5 20.5zm-11 104.1c-.5-.8-2.3-2-1.9-1.9-.9-.6-1.5.4-2.5-.3.7-.2.1.2.6-.3l.6.3c-.5-.8-2.3-1.3-3.8-1.6-.5.9 0 .1-.9.6 0 1.2-.1.5.3 1.6-1-1-.5-.3-.6-1.9-.4-.1-.8-.2-1.3-.3-2.1 1.4-2.5.4-4.1 2.5h-.6c4.7.4 9.4.8 14.2 1.3zm-1.3 30l-6.6-.6 5.4.9 1.2-.3zM411.8 532.6c2.2-1.5 4.4-3 6.6-4.4l.3-.9h-.9c-1.6 1.9-5 2.8-6 5.3zm-.6 14.5c2.3-1.4 4.6-2.7 7-4.1l.6-.9-.3-.6c-1.1.6-2.1 1.3-3.2 1.9.1-3.1.2-6.1.3-9.2.5-1.3 1.5-1.6 2.3-2.6.5-.3 1-.6 1.5-.8l.3-.9h-.6c-.2.1-.3.2-.5.3.1-.2.1-.4.2-.7l-.6-.3c-2.6 2.6-5.5 2.1-4.7 6.6 1.3-.5 1 4.9.9 7.9-1.1.8-2.1 1.7-3.2 2.5v.9zm-.3 15.2c.8 1.2 1.2 1.3 1.3 3.5l.6.3v-1.9h.6v10.4h.3c1.9-1.9 1.6-7.6.9-9.8.4.1.8.2 1.3.3-.1-.5-.2-1.1-.3-1.6l-.6.9c-.1-.4-.2-.8-.3-1.3 1.6-.3 2.2-1 2.7-2.4.6-.5 1.1-1.1 1.4-1.7-.3-.2-.5-.3-.8-.5 0-.2.1-.3.1-.5l-.6-.6c-2.2 1.8-4.4 3.4-6.6 4.9zm-.7 31.3c1.5.8 1.7 2.1 1.3 3.8.7-.6.8-1.6.9-2.8 1.3 3.1.4 6.7.3 10.8h.3c1.9-2.3 1.4-7.6 1.3-11.4.8 0 1.8-.6 2.3-2.1.3-.2.5-.3.8-.4.2-.5.4-1.1.6-1.6h-.6c-.1.1-.3.2-.4.3.1-.5.1-1 .1-1.6h-.6c-1.8 1.4-5.4 2.7-6.3 5zm-.3 29.8l.6 5.4c1.1.4 1-1.4.9-3.2h.6c-.1 3.5-.2 7-.3 10.4l.6.6.6-.3c0-6 1-6.9.7-10.7.1.4.2.8.2 1.2v.6c.4-1 .4-1.5-.3-2.2v-.4h1.6c.2-.7.3-1.4.5-2.1.2-.1.5-.3.7-.4.4-.9.5-.7.3-1.6l-.7.4c.1-.5.2-.9.3-1.4h-.9c-1.6 1.4-3.5 2.5-5.4 3.7zm-.6 31.3l.6 5.4c.6-.7.6-1.1.6-2.5h.3l.3 10.8h.3c1.3-1.5 1.1-3.8.9-7 .4-.1.8-.2 1.3-.3.2-.7-.6-.8-.9-.9.3-1.4.3-.4.9-1.6h-1.3c.1-.5.2-1.1.3-1.6l.3.9c.9-.4 1.5-1.8 2-3.3.6-.4 1.1-.7 1.5-1.1l-.6-.3c-.2.1-.3.2-.5.3.2-.5.3-1.1.5-1.6l-.6-.6c-1.9 1.1-3.9 2.2-5.9 3.4zm15.3 44.1c-.3-.7-.5-1.3-.8-2-.1.5-.2 1.1-.3 1.6-1.8-.6-1.7-1.4-1.6-2.8l-.6-.6v2.8c-3.1-1.2-6.1-2.3-9.2-3.5l-.3-.6v-.9c.7.6 1.5 1.3 2.2 1.9.2-2.1-.1-2.4-.6-3.8-.1-.7-.1-.2.6-.6h-1.3c.1-.8.2-1.7.3-2.5.6.9.4.5.3 1.6l.6.3c.3-1.1.5-2.3.8-3.4 0 0 .1 0 .1-.1.3-.4.6-.8.9-1.3-.2-.1-.5-.2-.7-.2 0-.1.1-.3.1-.4v-.3c-1.8-.2-5.6 1.8-7 3.2 0 0 .8 8.5.6 9.8.6-.7.6-1.1.6-2.5h.6v4.5h1.7c-.4-1.1-.3-2.3-.5-3.6v-.3c3.4.9 7.2 2.4 10.3 3.9h3.2v-.2zm8.1-122.2c1-1.9.8-3.6 0-5.1v5.1zm-.7 18.3l.3.9c.2-1.1 1.3-8.6 0-9.5-.2 2.6-1.4 7.1-.3 8.6zm-2.8 8.9c.1.5.4 1.1 2.5 1.3-.1.6-.2 1.3-.3 1.9.3.4.6.8.9 1.3-.1-1.6 1-5-.9-6.3l.6.9v1.3c-.9-.2-1.9-.3-2.8-.4zm1.9 32.5c-.2 3.5-.2 2.3-.3 6h.3v-.6c1.7-2.1 1-22.9.6-25.3h-.6c.1 1.2.2 2.3.3 3.5l-.9-.6c.9 5.8.4 8.7.6 16.1-.4-.1-.8-.2-1.3-.3l-.3.3c.7.7.4.6 1.6.9zm0-22.1l.6.6c.7-1.3.5-4.5-.3-5.4.2 2.1.4 3.3-.3 4.8zm-3.5 52.5c.9 2.1 2.5.4 2.8 3.2h.3c1.7-3.9.3-24.4.3-24.4-.9.9-.6 2.1-.3 3.5-.5 1.7.1 2.5-2.5 1.9.5.6 1.1 1.3 1.6 1.9.6.9.1 1 .6 2.8-.8.2-.2 0-.9-.3.4 2 .4 2.5.6 4.1.2.7-.1.3.6.3-1.5 3.3-1.4 5.3-.3 7.3-1.6-.4-1.2.1-2.8-.3zm2.9 32.1c-.8-2.8.1-8.5 0-10.9-.4-.2-.8-.4-1.3-.6v1.3c-.2-.4-.4-.8-.6-1.3-1.9 3.8-.1 7.4 0 11.5h1.9zm0-20.7h-.6c-.5 1.2-.4 1.1-.3 2.2.3.4-.1.3.6.3-.1.6-.2 1.3-.3 1.9-.8-.2-1.2.3-2.8 0 .9.6 1.9 1.3 2.8 1.9v3.2h.6c-.4-3.3.5-5.6 0-9.5zm.6-7l-.3-.9-1.3-.3c.3.6.6 1.3.9 1.9-1.1 1.4-1 3.8 0 4.1-.4.6-.3.5-.9.9l.9.9c.3-2.1.5-4.4.7-6.6zm7.3-105.9c-.2 1.1.3.3-.6.9 1.3 1.7-.6 4.4.6 5.4v1.6c-.2-.4-.4-.8-.6-1.3v1.6c-1.1-.4-.9 0-1.9-.9v1.9c.4.1.1.1.3-.3.6.5.8.6 1.3 1.3l.6.3c-.6 1-.2.8-1.3 1.3.5 1-.1.4.9.6l.6.9c-.5.4-1.1.8-1.6 1.3.6 1.2.4 1.6 1.3 1.6-.6.8-.2.5-1.3.9.1 1.7.8.4-.3 2.2 1.1.5.6-.4 1.3.9-1.1-.2-.3-.3-1.3.9.2 1.4-.2 1 .6 1.3-.5 1.1-.4 1-1.3 1.6-.1-.1-.5-.8-1.9 0 .8.2 1.7.4 2.5.6.6 5.3-1.2 8.4 0 13.3-.9 1.6-.7.7-2.2 1.3.1.6.2 1.3.3 1.9l.9.9v-1.9h.3c.3 1.5.6 3 .9 4.4l-.9-.9c.9 4.7-.1 8.1 0 11.1l-.6.3v-.6l-.9.9c.5.8.5 1.1 1.3 1.6-.1-.4-.2-.8-.3-1.3l.6.3c-.1 1.8-.6 4.6.6 5.4-.3.8-.2.9-.4.9-.4-.5 0-.2-.6-.6l.6.6c-.1 0-.2 0-.6.1 0 3.6.3 3.1 0 7.9l-.6.3v-8.5h-.6l-.3 19.3h.3c.6-2.7.6-5.8.6-9.2l.6-.3-.3 14.5-.6.3v-1.9h-.3c-.2 1.3-.4 2.5-.6 3.8l.6.6c.1-.7.2-1.5.3-2.2h.3c.3 2-.1 2.8.9 4.7-.4-.1-.8-.2-1.3-.3.9 1.5.3 4.7.6 6.6-1.1 2-.3 1 .3 2.2-1.1-.7-.6 1.2-.6 1.6l-.3.9c-1.4-2.4-.2-10.5 0-11.1l-.6-.6-.3 16.8h.3c.1-1.6.2-3.2.3-4.7 2.1 2.9-.2 5.1.9 7.6-.7.4-.4.4-1.6.6.1-.4.2-.8.3-1.3-.3.6-.6 1.3-.9 1.9.6-.1 1.3-.2 1.9-.3-.7 1.1-.4 4-.3 5.7-.9 1-.2.4-1.3-.3-.3 2.8.4 3.5-.3 6.3-.4 1.6-.1 1.2-1.6 1.6 1.2 1.7 1.4 1.9 3.2 1.6-.9.9-.5.5-1.6.6 0 1.6.2 1.3-.3 1.9l.6.9c.1-.7.2-1.5.3-2.2.4-.1.8-.2 1.3-.3-.6 1.4-1 3.5-.3 5.7-.1.1-.1.3-.2.4h2c.5-5.7 1.8-12.4.7-17.8.4-28 .8-56.1 1.3-84.1.7-5.3 1.8-29.5.3-31.5zm-2.9 43.3h-.9c.1 1.5.2 3 .3 4.4 1.1-1.8.2-2.5.6-4.4zm32-93.3c1.1-.2.2-.3.9.6l.3-.6c-.2-1.6-.4-3.2-.6-4.7h-.6v4.7zm-12.1 32.3l.3.6.9.3c.3-.3.5-.7.8-1 0 .1-.1.3-.1.4.5-.1 1.1-.2 1.6-.3v-1.6c-.2.2-.5.3-.7.5.5-.6 1.1-1.2 2-1.5.1-1 .3-3.4.3-6 .6-.6.4-3.7.9-8.2h-.9c-.2.1-.3.2-.5.2-.1-.4-.3-.8-.5-.9.8-.9 2-1.7.9-2.5-1.4 1.1-2.7 2.1-4.1 3.2.7 4.4 2.4 12.7-.9 16.8zm4.4 18.3c.2.2.4.4.7.6.3-1.6.8-4-.3-5.1l.3.6c-.2 0-.4 0-.5.1.1-.4.1-.7.2-1.1-.8-1.2-.6-.8-1.6-1.3-.2 1.3-.4 2.5-.6 3.8-.5.1-1.1.2-1.6.3-.4.8-.6 1.1-.6 2.5l.9-.6.3 6.3.3.9.6-6.3c.1 3.3.2 6.5.3 9.8h.3c1.7-1.9 1.3-6.4 1.3-10.5zm-4.7 29.7c.6 2.4 2.1 4.6 1.3 7.6l.3.6c.1-1.5.2-3 .3-4.4l.3-.9.6 11.7v.6h1.3c.3-1.1 0-.6.6-1.3-1-.6-.1-.3-1.3 0 .3-4.2.5-8.5.8-12.7.3-.2.5-.4.8-.5v-1.6h-.7c0-.3 0-.6.1-1h-1.3c-1 .7-2 1.3-3.1 1.9zm1 44.3c-.6.5-.4.4-1.6.6.4.1.8.2 1.3.3v2.8h.3c.1-.8.2-1.7.3-2.5h.3c.3.5.6 1.1.9 1.6 1-2 1.4-9.3 1.1-13.4.3-.2.5-.3.8-.5-.3-1.1 0-.6-.6-1.3-.1.1-.2.1-.3.2-.1-.6-.2-1-.3-1.1-1.3.6-2.5 1.3-3.8 1.9 1.2 3.9 1 8.8 1.6 11.4zm-2.2 21.8c1 1.6 2.5 5.3 1.3 9.2l.3.9c.4-.8.4-1.9.9-2.5l.6 6.3c1.4-1.8 1.3-7 1.5-11.5.4-.9.4-1.8.4-3h-.3c.1-.7.1-1.3.3-1.9-.6.2-1.3.4-1.9.6 0-1.3.5-.7-.9-1.3v2.5h-1.9c-.1.3-.2.5-.3.7zm-9.8-120.5l1.9.3c-.1 3-.2 6.1-.3 9.1-.1-.1-.3-.2-.4-.3.1.4.2.8.3 1.3v1.3c1.8-1.1 1.1-7.7.9-10.8.3-.3.5-.6.8-.9.1.1.2.2.5.3.5-1.9 2.4-2.3 3.8-4.1l-.6-.6c-.2.2-.5.4-.7.5.2-.5.5-1.1.7-1.8v-.3c-3.7 1-4 3.9-6.6 5.1l-.3.9zm6.3 59.8c-.2.2-.5.3-.7.5.1-.8 0-1.5-.6-2.1-1.2.7-2.3 1.5-3.5 2.2-.4.5-.8 1.1-1.3 1.6.5-.1 1.1-.2 1.6-.3v.3c-1.5.6-1.5 1.2-2.5.6l-.6.6c.9.7.6.8 2.2.9.1.9.2 1.9.3 2.8 1.2-2.8 1.7-3.2 3.1-4.4 1.1-.6 2-1.8 2-2.7zm-2.5 13.3c.1.5.2 1.1.3 1.6.1-.5.2-1.1.3-1.6h-.6zm-2.9-31l.6-.3c-.3-1.4-.1-.9-.9-1.6v1.6l.3.3zm4.8 25.6h.3c.2-.7.1-.8.6-.3-.2-.4-.4-.8-.6-1.3-.1.5-.2 1.1-.3 1.6zm.9-40.4c-.2.2-.5.3-.7.5.1-.8.3-1.6.4-2.4-2.9 1.7-4.7 4.5-7 4.4-.1.6-.2 1.3-.3 1.9h2.2c.1.8.2 1.7.3 2.5 1.3-2.5 2.6-3 3.9-4.8.2-.1.3-.2.5-.2.9-1.3 1.1-.9.7-1.9zm-7.9-12.7l.9.6c2.3-1.5 3.8-4 7-4.7-.9-1.3-3.6 1-5.4 1.9-.6-1.8.3-3.2-.9-4.4l-.6.3c-.6 1.6.2 4.4-1 6.3zm-.6 26.2c.8 1.2 1 2.2.9 4.4h.9c.5-2 1.1-5-.3-6-.6.7-1 .9-1.5 1.6zm-.4 31c.4 1.5.8 3 1.3 4.4v.6h.3c.3-1.7 1.5-4.7 0-6-.5.4-1 .7-1.6 1zm-.3 39.6l.6.6c1.2-.9 1.9-1.1 2.5-2.5-.4.1-.8.2-1.3.3v-7c-.6.4-1.3.8-1.9 1.3.3 1.5 1.8 4.6.1 7.3zm2.9-5.7c.1-1.4.4-1.1-.3-1.9-.2 1-.2 1 .3 1.9zm-2.2 29.4l-1.3.9c0 .1.6 4.4.6 7h.3c1.1-1.1 1.9-6.5.4-7.9zm7.2-10.1h-.8c.1-.3.1-.6.2-1h-1.9c-.9 1.3-2.9 2.6-4.4 3.2l-.6.9c1.2 1 1.6.5 1.9 1.6.4-.3.8-.6 1.3-.9.7-.1 0-.2-.3-.6 2.4-.2 2.1-.5 3.5-.9 0-.2.1-.4.1-.6.3-.1.6-.3.8-.4 0-.5.1-.9.2-1.3zm1-32.3c-.4-.6-.3-.5-.9-.9v.9h-.1c0-.4.1-.9.1-1.3-.4-.2-.8-.4-1.3-.6-1.1 1.7-4 3.8-6 4.4.8.5 1.7 1.1 2.5 1.6-.1 1.8-.2 3.9.6 4.7l.3-5.1c1.2-.5 2.3-1.1 3.5-1.6 0-.4.1-.8.1-1.2.3-.1.6-.3.8-.4.2 0 .3-.3.4-.5zm18.8 51.3c-.3 0-.7-.1-1.1 0 .1-.4.2-.8.3-1.3l-1.3 1.3c-.2-.7-.4-1.5-.6-2.2-.7.2-.9.8-1.6 1.3 1.1 1.5.9.2 1.9 1.6-1.7.1-.7.1-2.8 0 .9 1.1-.2.9 1.9.9 0 1.7-.3.8.6 1.9H464c1.5.2-2.2 2.4-2.5 2.5-.6-.8-.3-.3-.3-1.3-1.5.8-1.1.4-3.5 0 .3.6.6 1.3.9 1.9.5-.2 1.1-.4 1.6-.6v.6c-1.9.7-2.8 1.9-4.7 1.3.1.5.2 1.1.3 1.6-.9-.3-3.1 2.1-5.1 4.2h1.5l1.7-1.7c.7.3.5.8.4 1.7h3.2v-.5c.1.2.1.5.2.7h.3c.2-1 .5-2.3.6-3.3.3-.1.6-.1.9-.2-.4-.9-.3-.8-.9-.7 0-.4 0-.7-.1-.9.4-.3.9-.6 1.3-1 .4-.2.8-.4 1.3-.6l.3.6c-.6.5-1.3 1.1-1.9 1.6 2.1-.9 4.1-1.6 6-2.5 1.1.3 2.4.7 3.6 1v-6.1c-.4.2-.7.5-1.1.7l-.3-.6c.1-1.3-.1-.3.3-1.3v.9c.4-.1.7-.3 1.1-.4l.1-1.1zm.2-39.9c-1.2-1.4-2.3-2.7-3.5-4.1l.6.3c-.3-.8-2.3-2.7-3.5-3.5.4 1.5.4 1.2 0 2.5 1.7.6 3.3 2 3.2 2.8l3 2.1v-.3h.2v.2zm1.2-130h-.6c-.1.4-.2.8-.3 1.3.7-.7.5-.3.9-1.3zm.7 1.2h-.9v1.3c.2-.4.5-.9.9-1.3zm.9-5c-.6-.6-1.4-.7-2.2-.9-.1 1.5-.2 3-.3 4.4 1.4-.2.8.1 1.6 1.3h.3l.3-.6c-.4-2.7.9-2.9.3-4.2zm1.3 1.2c.6-.3 1.3-.6 1.9-.9-1.9.2-.8 0-2.2-.6v2.5l.9.3.3-.3c-.4-.4-.5-.4-.9-1zm12.9 93.7c-.6-.3-1.3-.6-1.9-.9-.4 1.2.3.8-1.6.9.4.3.8.6 1.3.9l-1.3.9c-.3.3-.3 1-.6 2.2 1.7-.9 2.7-1.9 3.5-3.8.2 0 .4-.1.6-.2zm66.5-141.8c.2 2 .9 3.7.6 4.7h1.3c-.1-1.6-.2-3.2-.3-4.7h-1.6zm-12.1 22.6c.6 1.9 1.3 1.9 2.5 1.6h.3V501l.6.3.3-.3c.2-4.5.3-8.9.5-13.4.1-.1.3-.1.4-.2.3-.5.6-1.1.9-1.6h-.6c-.2.2-.5.4-.7.6 0-.7.1-1.5.1-2.2-1.3.9-2.5 1.9-3.8 2.8l-.5.1zm0 35.1c1.5.6 1.3.7 3.2.6v12.7c.8-.8 1.1-9.2 1.1-13.8.6-.5 1-1 1.1-1.7-.4.2-.8.4-1.1.6 0-1.1-.1-1.9-.1-1.9-1.1 1.1-1.9 1.9-3.8 2.2l-.4 1.3zm-15.1 2.2c.1-3.3.2-6.5.3-9.8 1.2-.7 2.1-1.1 2.8-2.2-.5-.6-.8-1.1-.9-1.8.3-.2.6-.5.9-.7l-.6-.3-.3.3v-1.3c-.4-.1-.8-.2-1.3-.3-.4.2-.8.4-1.3.6-1.3 2.6-.1 11.7.4 15.5zm-.4 26.9h.3c.2-.7.4-1.5.6-2.2.3-.5.7-.9 1.2-1.3-.1.1-.2.3-.3.4.4-.1.8-.2 1.3-.3.2-.8.8-.6.1-.9 2.2-1.4 4.9-2.4 5.9-4.5-2.1 1.2-4.2 2.3-6.3 3.5-.1-.7-.3-1.5-.4-2.2.4-.5.6-.7.7-1.3l-.9.6c-.1-.7-.3-1.4-.4-2.2-.8.5-1.7 1.1-2.5 1.6-.7 2.2 1 5.8.7 8.8zm8.8 10.3c0-.6-.1-1.1-.6-1.5-2.5 1.8-5.1 3.6-7.6 5.4v.3c1.1.3 2.1.6 3.2.9 1.6-.9 3.2-1.9 4.7-2.8 0-.3.1-.6.1-.8.1 0 .1-.1.2-.1.7-1.2.7-.5.3-1.6 0 .1-.1.2-.3.2zm-10 15c.3 2 .7 5.5 1.3 7l-.6.3c2.3-.7 3.1-2.5 5.1-3.5l.3-.6c-1.3.6-2.5 1.3-3.8 1.9h-.4c-.1-.5-.2-1.1-.3-1.6.2-.6.4-1.3.6-1.9.1.9.2 1.9.3 2.8.9-.8 1-2 1-3.6.3-.1.6-.3.9-.4v-.6h-.9v-.7c-.4-.2-.8-.4-1.3-.6-.7.4-1.5.9-2.2 1.5zm4.4 4.7c-.5.5-.8.6-1.3 1.3 1.6-.8 1.3-.6 1.3-1.3zm-4.4 10.1l.6.3.6.6V587c0 2.6-.1 3-1.2 4.4zm-14.9-70.5c.3 1 1.4 2.3 1.9 1.9 1.4 2-.8 8 .3 9.8-1.1 1.2-1.5 1.4-1.9 3.5 1-.9 2.8-2.3 5.1-2.5l.3-.9h-1.6c.4-.5.8-1.1 1.3-1.6v-.6c1.4.7 1.1 0 .9 1.3h.3l-.3 1.2h.9l-.6-1.2h1.2l.3-.6c-1.5-3.1-1.1-8.5-.6-13.1.3-.2.7-.4 1-.5-.1-.5-.2-1.1-.3-1.6-.2.1-.3.2-.5.4.1-.5.1-.9.1-1.3h-.9c-1.4 1.4-3.5 3.3-5.7 3.8-.3.5-.8 1.3-1.2 2zm-.3 31.9c2.1 4.2.3 10.9 1.9 15.2l-.6.3h1.3c.4-.5.8-1.1 1.3-1.6-.6.2-1.3.4-1.9.6l.3-12.3c1.4 2.8.7 7.6.3 11.4.8-.5 1.7-1.1 2.5-1.6h.3c-.3.5-.6 1.1-.9 1.6 1.4-.3.9-.1 1.6-.9.9-.4 0 0-.3-.9 1.6-.1.6-1 1.6.3.4-.2.8-.4 1.3-.6-.6-1-.6-8.9-.7-13.4.2-.2.5-.3.7-.5l.6-.9-.9-.6c.1.3-.1.6-.4.9 0-1.3-.1-2.1-.2-2.2-2.4 2.2-5.6 2.5-7.8 5.2zm-18 60.8c-.4-1.3-.9-3.5-2.2-4.7-.1 2 .9 2.2.6 4.1.5.1 1 .4 1.6.6zm.3-116.2l-.9-.3c-.7 2-.9 2.9.9 3.5v-.9c1.3-.9 1.2-1.4 0-2.3zm5.4 104.8l.6-5.7h.3l.3 11.4c1.2-.2 1-.7 1.3 0h1.6c-.4-.9 0-.4-.6-.9.8-.7 1.7-.7 2.8-.3-.1-3.7-.1-7.4-.2-11.1h.5v-1.3h-.5v-1.9c.3-.1.6-.3.9-.4.1-.4.2-.8.3-1.3h-.6c-.2.2-.4.5-.6.7v-2.3c-2.5 1.4-5.1 2.7-7.6 4.1.3 2.4 1.5 4.8 1.5 9zm4.4 31c-.4-.1-.8-.2-1.3-.3l-.6-.6v.9l.6-.3c.6.6.1.3 1.3.6v-.3zm2.5-6c-1.3.2-2.1-1.1-3.8-2.2-.8.9-1.1 1.2-2.5 1.6l-.3.9c1.5.2 2-.5 3.8-.9l.3.6h.6c-.6.4-1.1.4-1.6.9l-.9.3c.4.2.8.4 1.3.6.3-.7-.3-.3.6-.9.8.4 1.7.8 2.5 1.3v-2.2zm-.3-4.1c-.6.5-1.3 1.1-1.9 1.6l-.3.9c1.8-.3 1.3-.3 2.8 0 0-.7.2-1.7-.6-2.5zm1-65.5c-.2.1-.3.2-.5.3-.1-.7-.4-1.3-.8-1.6-1.8 1.7-4.4 3.4-7 4.1l-.6.9c1.6 1.4 1.7 2.1 1.6 3.8.1.4.2.8.3 1.3.2-1.2.4-2.3.6-3.5 1.1 2.5-.3 8.1.6 11.1v.6c1.8-.9 3.3-1.9 3.5-3.5l.9.3c-.2.4-.4.8-.6 1.3l.6.6.6-.3c-.1-.6-.2-1.3-.3-1.9-.6-.8 0 .1-.9-.3-.1-.7-.2-1.5-.3-2.2 1-.3.2-.3.9.3.1-.4.2-.8.3-1.3-.3-.6.9-5.7.6-9 .4-.3.6-.7.5-1zm.3-31.9h-.6v-1.6h-.9c-1.9 1.9-4 2.9-6.6 4.4l.9 6c.7-.9.8-1.8.6-2.8l.3-.6.3 11.4c-.6-.4-.5-.5-.9-.9-.6 1.2-1.3 2.3-1.9 3.5v.3c2.4-1.4 4.9-3.9 7.9-4.4.1-4.7.2-9.4.3-14 .1-.1.2-.1.4-.2 0-.5.1-.8.2-1.1zm3.2 109.3c-.2-.6-.4-1.1-.7-1.5-.5.6-.7.2-1.3.7.7.2 1.3.5 2 .8zm6.6-11.3c-.4-.3-.8-.6-1.3-.9-.1 1.2-.3.5.6 1.3l.3.9c.2-.4.3-.9.4-1.3zm-1.3-1.6h.3v-.6l.6-.3-.9-.6-.3.6.3.9zm4.1-6c-.4.3-.7.5-1.1.8-.1-.7-.2-1.3-.2-2l-2.4 1.5c-1-1.3-.6-1.9-1.6-3.8v-.6c-.4 1.1.2 3.1.6 4.4l-.2.2c.4.1.8.3 1.2.5.3.2.6.5.9.7-1.2.5-2.4 1-3.8 1.4l.6.6c.3.4 2.2-.4 3.8-1.5.4.4.9.8 1.3 1.2 0-.2 0-.5.1-.7-.1-.4-.1-.9-.2-1.3.6-.5 1-1 1-1.4zm.3-33.8c-.2.1-.4.2-.6.4.1-.5.2-1.1.3-1.6h-.9c-1.6 1.5-4.7 3.7-7 3.5.3 5.2.6 10.3.9 15.5h-.3c-.1-.5-.2-1.1-.3-1.6h-.3c-.4 1.2-.3 2.5-.9 3.8v.3c1.1-.3 2.1-.6 3.2-.9-.2-2.7-.4-5.5-.6-8.2.5.8.4 1.4.3 3.2h.3c.1-.5.2-1.1.3-1.6h.3c-.1 1.5-.2 3-.3 4.4h.9c1.2-.8 2.3-1.7 3.5-2.5.1-.4.2-.8.3-1.3-.9.4-1.9.8-2.8 1.3.8-1.9 1.3-3.7 1.8-5.6 1.6-1.9 4.1-5.2 1.9-9.1zm10.2 35.1c.4-.2.8-.4 1.3-.6l.6-.9h-.9c-.4.3-.8.6-1.3.9v.3l.3.3zm7.2 16.1c-.1-1.7.1-1.5-.9-2.2-2 2.2-4.4 3.1-5.7 2.8-.1.5-.2 1.1-.3 1.6 2-1 5.4-2.7 6.9-2.2zm-1.9-6.3c-.1.4-.2.8-.3 1.3h.6c-.1-1.3.4-.5-.3-1.3zm0-13c-.4-.1-.8-.2-1.3-.3-.3 1.5-.3.1.3 1.6.4-.4.7-.9 1-1.3zm1.9-16.7l-.3-.9c-.3.2-.7.4-1 .6.3-.6.6-1.3 1-2.2l-.9-.3c-1.7 1.6-6 4.6-7.9 4.7.8 1.1.6 1.2 2.5 1.3.1 3.3.2 6.5.2 9.8-.2-.1-.4-.2-.5-.3-.1.1-.2.1-.3.2v-1.8c-.1-.4-.2-.8-.3-1.3-1.2 1-2.8 3.1-3.8 3.9.3 1 .5 1.9.7 2.9.3-1.6 1.8-2.4 3.4-2.4v-.7c.3-.2.6-.3.9-.5v1.2c.2 0 .5.1.7.2.6-3.1 0-6.9 0-10.6 1.5-1 2.5-1.5 3.3-2.5.8-.5 1.6-1 2.3-1.3zm.4-70.6h-.9v-1c-3.1 1.1-5.7 3.4-7.9 5.4.7.6 1.1.6 2.5.6v3.2h.6c-.2-3.7 2.6-3.9 4.4-6.2.4-.3.9-.6 1.3-.7v-1.3zm0-33.5h-.6s-.1 0-.1.1c.1-1-.2-1.8-.9-2.3-1.3 2.4-5.5 5.2-7.3 5.4v1.3c.8.1 1.7.2 2.5.3l.3 12.3.6-12 3.9-3c.3-.2.6-.3.9-.5.2-.5.4-1.1.7-1.6zm1.5 147.1c-.4-.2-.8-.4-1.3-.6.2.6.4 1.3.6 1.9h.3c.2-.5.3-.9.4-1.3zm3.5-84.2c1.8 2 2.3 7.4 1.6 10.8 1.1-1.3.7-3 .6-5.1l.6-.3v5.1l.9-.9c-.1 1.6-.2 3.2-.3 4.7 2-1.5 2.1-7.5 1.8-12.1.1-.1.3-.1.7-.2-.1-1.2-.2-2.3-.3-3.5-.2.1-.4.3-.7.4-.1-1.4-.3-2.3-.3-2.3l-1.3-1.3v-1.9c-.3-1 .1-.4-.6-.9.2 3.7-1.1 5.3-2.7 7.5zm.3 34.8c1.4 3 1.7 7.1 1.6 12h.6c.1-3.2.2-6.3.3-9.5h.3l.3 12 .6-.9c0-1.2 0-2.4.1-3.5 0-.5.1-.9.2-1.2.2-2.3 1-5.9 1.1-8.5l.6-.3.3-.6-.3-.9h-.8c-.1-.4-.3-.7-.5-1-1.4.7-2.9 1.6-4.4 2.4zm1 17.1c1-.9 1.8-2.9.9-4.7-.3 1.5-.6 3.1-.9 4.7zm4.7 53.1l-.9-.2c-.2.2-.4.5-.6.7 0 .1-.1.3-.1.4.5-.1 1.1-.2 1.6-.3v-.6zm-.9-26.2l.3-.3-.6-.6-.3.6.6.3zm2.5-9.5c-1.1-.3-2.1-.6-3.2-.9.4.2.8.4 1.3.6-.7.8-.7 1-1.7 1.2.1-.9.1-1.8.2-2.7-.4-.9-.2-1.8.2-3.1v-.3c-.7.7-.8 1.7-.8 2.4-.4.3-.8.4-1.3.5.1.3.1.5.1.8.1 1.6.1 3.4 0 5.3.6 1.4-.4 1.3.8 1.9l-.9 1.2v.3c.4-.1.7-.2 1.1-.3.2-.9.3-1.8.5-2.7.1-.8.1-1.6.2-2.5.9-.4 1.8-1.3 3.5-1.7zm5.1-20.6c-.4-.1-.8-.2-1.3-.3v1.3l.6.6c.2-.5.5-1 .7-1.6zm2.2-37.3c-1.3-.4-2.5-.8-3.8-1.3-.2.4-.4.8-.6 1.3.6.5 2.7.7 3.8.3l.6-.3zm1.2-97.8c.7-.5 1.5-1.1 2.2-1.6l-.9.3c.5-2.1.9-1 .6-2.2v-1.6h-1.9l-.3 5.1h.3zm3.8 96.5v1.6c-1.2-.1-2.3-.2-3.5-.3.8 1.1 1 .9 2.8.9.4 1 .4 1.3.3 3.2l.6.3c0-1.5.8-3.6-.2-5.7zm1-15.5c-1.3-.3-2.5-.6-3.8-.9-.8 1.7 1 .2 2.5 1.9l.9-.3c.2-.2.3-.4.4-.7zm.3-82.9c-1.2-.7-.9-.3-.6-1.3l.3.6v-1.6h-.6c-.4-.1-.8-.2-1.3-.3.1.9.2 1.9.3 2.8h1.9v-.2zm24.4 13.4c.9-1 1.3-3.2 1.3-5.2.2.1.4.1.6.2-.1-.8-.2-1.7-.3-2.5-.2.5-.2.7-.4.6-.1-1.4-.4-2.5-.9-2.8-2.6 4.4-.6 3.7-.3 9.7zm0 4.7l.3 5.4.6.3c.1-1 0-4.5-.9-5.7zm-4.8 73.4c-1.3 2.1-2.5 4.2-3.8 6.3.1.5.2 1.1.3 1.6h1.9l.3 5.1c.7-1.4 1.2-4.2 1.5-6.8.5-.8.9-1.6 1.4-2.3l-.6-.6c-.2.3-.4.7-.6 1 .1-2.1 0-3.7-.4-4.3zm1.3-33.2h-.6c-.2.4-.4.8-.6 1.3 1.2-.5.7 0 1.2-1.3zm-.3 2.1c-.1 3-.2 5.9-.3 8.9h.3c.4-2.8 1.3-7 0-8.9zm-5.1-40.1c.6 1.2.2.8 1.9.9.2 1.7 0 1.7.3 3.5.5-1.2.9-2.3 1.2-3.5l.1.1c1.4-1 2.2-3.6 1.3-5.7-.2.5-.5.9-.7 1.4 0-.6.1-1.2.1-1.8.2-.1.4-.1.6-.2v-1.9l-.6.6v-2.5c-.6.4-.5.3-.9.9h-.3c-.1-.4-.2-.8-.3-1.3-1.4 2.8-3.1 7.5-2.7 9.5zm4.7 1.6c-1.3 2.4-.7 8.2-.6 11.7l.6-.3c.8-2.2 1.6-9.4 0-11.4zm-3.7 16.8v.3c1-.7.9-.8.9-1.6l-.9 1.3zm-1.3 19.6l.3.9c.8.5 1.1.6 2.5.6.1.7.2 1.5.3 2.2.4-.7.9-2 1.3-3.5 1.1-1.1 1.7-2.7.6-3.7v-.6c.2-.1.4-.3.6-.4-.3-1.1 0-.6-.6-1.3 0 .2-.1.4-.1.6-.2-1-.5-1.9-1.2-2.5-1.1 2.6-1.2 6.4-3.7 7.7zm-.3 29.4h.3v-5.1l-.3 5.1zm0 11.1c.9-1.1 1.1-6 .3-7.6-.1 2.5-.2 5-.3 7.6zm-9.2 2.5v-1.6c-1.6.7-2 1.9-3.2.3l-.9 1c1.1.5 1.4.4 2.5.3.9 1.1 1.1 1.4.9 2.8l.6.3v-2.5h1.6l.3-.6h-1.8zm-.6-18c-1.1-.1-2.1-.2-3.2-.3 1 1.6 2.7 0 3.2 2.8h.3c.3-1.9.7-3.4-.3-4.4v1.9zm-4.1-84.9c.7 1.2.9 1 1.9.6-.7-.1-1.3-.3-1.9-.6zm2 148.7c-.6-3.2-.7-5.9-.4-7.8h-.3c-1.5 1.5-.6 4.9 0 8 .1-.1.4-.2.7-.2zM576 588h-1.9c-.6-4.1-1.2-16.6.9-17.1-2.7-5.1-1.3-16.7-1.6-22.5-.7.9-.7 1.8-.6 3.8h-.3c-1.3-.4-1.4.2-2.2-1.3h-.3c-.1.4-.2.8-.3 1.3.9 1 1.9-.2 2.8 1.3 2 3-.5 13.1.3 15.8v.3h-.3c-.7-.2-1.5-.4-2.2-.6l-.6.6c.1.8.2 1.7.3 2.5l.6.3v-1.9h2.2c0 .1.1 5.6 0 8.4v.1c-.1.9-.1 1.5-.3 1.6.3.6-.1.5.6.3-.2 1.5-.2 2.2-1.3 2.8.8.6.1.2.9.3-.2 1.1-.4 2.1-.6 3.2-.5-.1-1.1-.2-1.6-.3v-5.4c-2.1 2.4-.7 10.9-.6 16.4h.3c.1-3.3.2-6.5.3-9.8l.6-.3.9.3c.4.7.4.4.6 1.6-.3-.4-.6-.8-.9-1.3h-.3c.2 1.6.3 1.5 1.3 1.6-.8 1.1-.1.5-1.3.6 1 2.9 1.4 4.2.6 6-.2.4-.4.8-.6 1.3.2 1.5 1.2 3.7 1.3 6.6-1-.4-.5-.3-1.9.3-.1-2.3-.2-4.6-.3-7-1.8 2.3-.8 8-.6 10.4h-.3c-.2-1.2-.4-2.3-.6-3.5l-.9-.9c-.1.4-.2.8-.3 1.3 1 .8.6.7.9 1.9-.6-.4-.2 0-.6-.6-2.2-2.6-1-20-.9-25h-.3c-.6 1.1-.9 3.3-1 6-.2 5.8.4 13.6.6 14.9l-.3.9c-1.6-1.1-2.8-3.2-3.4-5.4v2.6c.2 1.9.8 3.8.6 5.6l.6.3v-4.4c.7.9.9 3.2.9 3.8.6.7.4 0 .6-.6.8.6 1.4 7 .6 8.5.1.6.1 1 0 1.3.6.2 1.1.4 1.5.8-.1-.3-.2-.5-.2-.8h-.1v-.3c0-.1-.1-.2-.1-.3-.2-.8-.2-1.5 0-2.2-.1-1.6-.1-3.2-.2-4.9 1.2.5 1.9 1.4 2.3 2.5.5-.2.9-.4 1.4-.4v-4c1.3.6 1 1.4.9 3.8.7-.7.2 0 .3-.9.4.6.5.6.6 1.4.5.2.9.5 1.3.9-.4-4 .3-8-.3-11.5h.3c.4 1.1.5 1.1.6 1.9 0 0-.7-10.5-.9-12l.3-.9c.6.1 1.3.2 1.9.3.3.1.3-.1.3-.3zm.9-16.8l.6-.3c.4.3.8.6 1.3.9l.3-.9v-.3c-.9 0-.2-.6-.9 0-1.3-.9-1.3-1.1-1.3-3.5-1.8 3.9-1.2 13.9-.5 19.1.4-.8 1.1-1.4 1.9-1.7.1-.2.1-.4.2-.7v-.3c-.6.2-.7.5-1.6 1.3.8-4.8.4-8.6 0-13.6zm4.4 44l-.3.9.3.9c.5-1 .6-1.3 0-1.8zm1.9-12.4l-.3-.9c-.4-1.1-.2-.9-.9-1.6-1 2.4-1.7 4.2-2.8 6.3 1.5-.1 1.2-.2 2.2.3.3-.4.6-.8.9-1.3H581c.1-.5.2-1.1.3-1.6l.9.9c-.2-1.2-.3-2.3.6-3.2v.9h.4v.2zm2.2 8.6c-.1-.5-.2-1.1-.3-1.6-.1.4-.2.8-.3 1.3l.6.3zm1.3-17.4l-.9.9v.3h.3c.7-.7.5-.6.6-1.2zm1 .3l-.3.9c-.4.8-.8.4 0 .9l.3.9v-2.7zm.3-41.1c-.3.3-.5.4-.7.6-.1-1.3-.2-2.2-.5-2.5-.7.9-1.5 1.9-2.2 2.8.4 2 1.6 16.5 2.2 17.1v.6h.3c-.3-2.9.3-11 .3-16.1l.4.4h.3l-.1-2.9zm-.3-41.5c-.2 1.1-.1 1.3-.4 1.6-.1-1-.1-1.8-.2-2.3h-.6c-.7 1.5-1.4 2.3-2.2 3.5 2 3.9 2.1 7.5 1.9 14.9.9-1.8 1.3-8.6 1.3-13.5l.3.2h.3c.2-1.6.3-3.6-.4-4.4zm13.2 37.9v13.3h.3l.6-.6c-.2-2.1 1-10.1-.9-12.7zm0-3.1c-.3.8-.6 1.7-.9 2.5.9-.6 1.9-1 .9-2.5zm0-41.1l-.9.6v13.6l.6-.3c1.4-3.3 2.1-9.9.3-13.9zm-1.3-.9c.1-.5.2-.9.2-1.4 1.5-1.9 2.3-4.5.8-6-.2.3-.4.6-.5.8.1-.5.1-1 .2-1.4-.5-.1-1.1-.2-1.6-.3-.4 2.9-2.3 5.8-3.8 7.9 1 1.1.8 1.3 2.5.9l.3 6c.6-1.4 1.2-3.8 1.7-6.1 1.4-.5 1.9-1.4 1.2-2.4-.3.6-.6 1.3-.9 1.9l-.1.1zm-3.1 3.1l.3-.3-.3-.9-6.6-.6v1.6c1.9-1.1 5.1-.6 6.6.2zm-6.6 18.4v.6l.3.6 5.1-.3-5.4-.9zm6.3 0h.3c.9-.9.9-1.2.9-2.2-.2.4-.4.8-.6 1.3-.2.2-.4.6-.6.9zm1.3-46.2c-.3.5-.6 1.1-.9 1.6l-.6.9c1.2-.4 2-1.3 1.5-2.5zm1.9-17.7c1.1-.9 1.4-1.6 1.3-2.8-.5.8-1.1 1.7-1.6 2.5v.3h.3zm1.2.6c-1 2.4.4 8.8-.9 12.7.4-.3.8-.6 1.3-.9.3-3.7.8-9.6-.4-11.8zm-.3-42.4c-1.3 3.2-.7 7.5-.6 12l.6-.9c1.3-1.4 1.1-9.8 0-11.1zm-1.6-.6c1.1-.5 1.1-.5 1.6-1.6v-1.6c-.3.7-.6 1.5-.9 2.2-.2.4-.5.7-.7 1zm-2.8 20.2h.3c.9-1 1.4-1.6.6-2.5-.3.7-.6 1.5-.9 2.2v.3zm-1 21.9c1.1.5.9.4 2.5.3.2 4.8.4 9.7.6 14.5-1.1 1.6-2.1 3.2-3.2 4.7-.2.4-.4.8-.6 1.3.4.1.8.2 1.3.3.7-1.7 2.2-3.5 2.8-4.7v-.9l-.3-15.2.3-.6c1.9-2 3.3-6.1 1.9-7.9l-.3.9c-.2-1.4-.1-.9-.9-1.5-1.5 2.5-3.1 5-4.1 8.5v.3zm-4.1-34.9c.6.1 1.3.2 1.9.3.9-.4.5-.3 1.3-.3.2-1.6.3-2.3-.3-3.5-.9-.1-1.9-.2-2.8-.3l-.1 3.8zm-1.2 40.2c2.7-.6 4.1-.3 6.6.3.2-.4.4-.8.6-1.3-3.4.1-4.5.6-7-.9 0 .7-.1 1.3-.2 1.9zm0 19.6c3 0 3.6.3 5.7 0-1.4-1.1-3.6-.6-5.4-1.9-.1.7-.2 1.3-.3 1.9zm.3 60.4c1.5.1 3 .2 4.4.3v-.3l-.6-.6c-.5-.4-2.2-.1-3.5-.6l-.3 1.2zm4.7 20.6c-1-.9-2.5-.7-4.4-.9.4.8 2.3 1 3.8 1.3v-.3h.6v-.1zm.6-20.6c1.4 2.6 3.4.8 3.5 4.7.6-1.1 1-2.5 1.3-4.1 1.1-1.9 1.8-4.9.9-6.9l-.5.7c-.2-2.3-.7-4.2-1.7-4.9-.6 3.1-1.3 6.1-1.9 9.2l-.6.3c-.1-1.5-.2-3-.3-4.4-.2 1.9-.4 3.7-.7 5.4zm2.3 72.8c.3-.5.6-1.1.9-1.6.1 0 .2.1.3.1v-1.3c-.7 1.4-1.7 2.7-2.7 3.8v.7c.8-.7 1.7-1.1 2.6-1.1v-.1c-.4-.5 0-.2-1.1-.5zm0-5.4c1.1-.7 1.5-.8.9-2.2l-.3.9c-.3.4-.6.8-.9 1.3h.3zm1.5-5.4c-1.1 1.4-2.1 2.8-3.2 4.2 0 .6.1 1.1.1 1.7 1.8-.9 3.7-4.7 3.1-5.9zm-.9 21.3c-1-.7-1.5-1.7-2.4-2.6 0 .4-.1.7-.1 1.1.6.5 1.1 1 1.7 1.5-.2.6-.3 1.3-.5 1.9.1.2.1.5.2.7.1-.5.2-.9.3-1.4.2.2.5.4.7.6-.1-.6 0-1.2.1-1.8zm3 12c-.5 1.8-.7 4.8-.2 5.9.1-2 .2-3.9.2-5.9zm.3-10.9c-1.1 1.3-1.7 1.8-2.6 3.6 1-.4 1-.4 1.6-1.3h.3c-.2 2-1.6 2.5-1.9 4.1-.4.6-.1.3.6.3.6-.5 1.3-1 1.9-1.5 0-1.7 0-3.4.1-5.2zm.2-43.2c-.4.5-.7 1-1.1 1.5 0-1.9.2-3.8.4-5.3-2.2 1.4-3.1 6.1-5.1 6.6v1.9c.8.1 1.7.2 2.5.3v14.2l.3.9.6.3c1.2-3.5 1.2-8.7 1.1-13.8 1.5-1 2.4-4.3 1.3-6.6zm161.6-354.9c.1 3.3.2 6.5.3 9.8-.6 2.4-2.1 2.7-2.2 6l.6.3c1.2-2.2 2.1-6.8 4.7-7.3.3-1.3 0-12.9-.6-20.6.6-1.2.9-2.5.3-3.7l-.6.9c-.2-2-.4-3.4-.7-3.7-1.3 2-2.5 4-3.8 6-.5 1.7 2.1 8.2 2 12.3zm1.9 10.8c-.2.4-.4.8-.6 1.3h.3l.9-1.3h-.6zm-45.5 123.9c1.3 1.4 16 2 19.3 2.5l.3-.6v-.3c-5.4-1.5-13.7-.9-19.6-1.6zm15-23.4c.7-.3 1.6-.3 2.3-.6l.6-.3h-.6c-1.9-1.8-9.5-.9-13.3-1.9-1.2.1-2.3.2-3.5.3v.3c2.9 3.3 11.3 1.3 13 5.1.3-.8.6-1.5.8-2.3.1 0 .3 0 .4.1l.6-.3v-.3l-.3-.1zm-3.7 3.8v.6c.5-.9.9-.4 0-1.3-.1.1-.2.1-.3.2v-.5l-5.7-.3.3 19.3 5.4.9.6-.3c-.2-6.3-.4-12.5-.6-18.8.1.1.2.2.3.2zm6.7-31c-1-.9-3-1.2-4.7-1.3 0 0-10-1-13.6-.9l-.3.9c3.3.5 6.6-.3 8.9 2.2 1.3-2.4 6.4-1.6 8.5-.3l1.3-.3v-.3h-.1zm-5.1-25l.1-.3c2.3.1 2 .2 3.8-.3l.3-.6c-5.1-.4-10.1-.8-15.2-1.3-.8.1-1.7.2-2.5.3 1.3 1.3 1.6 0 2.2 2.5 2.8.1 5.7.2 8.5.3-.8.6-.1.2-.9.3l-.6.6c2.5.1 2-1.2 3.8.6.1-.6.3-1.2.4-1.8.3.1.6.1.8.2-.2-.1-.5-.4-.7-.5zm-6.3 21.8l.6.3c1.3-.3 1.2.3 2.8.3.4-.6.8-1.3 1.3-1.9-.4-1.9-.8-3.8-1.3-5.7-1 4.4-2.8 4.7-3.4 7zm.3-18.3c.2.4.9 1.5 1.6 1.6l.3.6.6-.6v-2.5l-5.1-.6c-.1.9-.2 1.9-.3 2.8v.3l.9.6c.6-1.4.7-1.6 2-2.2zm4.4-102.8h.3c.5-.9 1-.8 1.6-1.6-1.3 0-.4-.1-1.6-.3-.1.6-.2 1.2-.3 1.9zm-4.4-2.2c.2.5.4 1.1.6 1.6.7-.7.4-1.1 1.9 0v-1.3c-.8-.1-1.6-.2-2.5-.3zm-1.6 22.5c-.4.5-.9.5-2.2.6 2.2 1.5 6 1.4 7.9.6.7.2 1.5.4 2.2.6-2.1-1.7-5.4-.8-7.9-1.8zm-2.2-16.2h.9l.6-.3c.2-2.5 1.3-4.9 0-6.3-.6-.2-1.3-.4-1.9-.6-.5 2.1.1 5 .4 7.2zm-3.1-1.9c-.4.6-.8.8-1.3 1.3.4.1.8.2 1.3.3v-.6c.9-.8 1.3-1.3 1.9-1.9-.2-1.3.3-3-.9-4.1-.9-.1-1.9-.2-2.8-.3-.4 2-.4 5.6 1.8 5.3zm-2.3 69.3c3.2-.2 7.5-.6 8.5 2.2 3.1-2.2 7.5-.6 11.1-.9v-.3l-5.1-.9c-.7-3.4-1.2-7.4-1.3-11.4 0-1.2 0-2.3-.1-3.5 0-2.8.1-5.4.4-7.6l.4.1.6-.6c-.3 0-.6-.1-1-.1v-.2c1.1-.2 2.1-.4 3.2-.6h.6c-3.5-2.7-7.9-.9-12-1.9h-5.4c.6 1.8 1.5.6 2.2 2.8 2.4.4 7.9 2.3 9.5.9.9 1 1.3 3.9 1.4 7.3 0 1.1 0 2.3.1 3.5 0 4.4-.2 8.9-.3 11.1-4.2-.3-8.4-.6-12.7-.9l-.3.9v.1h.2zm4.8-3.5c-.4 2 3.7 2.1 6.3 1.9l-.3-19.3-6.6-.3.6 17.7zm-11.7 214.5c-1.5-1.3-1.9-4.3-1.6-6.3l-.3-.6c-.7 2 .2 5.3-1.3 6.6-.5.6-.6.1-1.6.6 4.6 2.6 14.6-.9 17.7 3.5.2-.5.4-1.1.6-1.6 3.7 0 3.6.1 7 0 .8.9 1 .6 1.3 2.2 2.2-3.1 9-1.1 11.4-1.3l-.3-.6-11.1-.6-.3-.6h4.1v-.3c-.7-.5-.6-.5-1.9-.6.1-.2.3-.4.4-.7.2 0 .4 0 .6.1l.9-.6-.9-12.3V461c.2.8.3 1.7.3 2.7v-8.3c.2 0 .4.1.6.1 1 4.5 1.2 19.6.4 21.6v.3c1.6-.6 1.9-17 1.2-23.8.1 0 .2.1.3.1.1-.5.2-1.1.3-1.6h-.8c0-.2-.1-.4-.1-.6 1.2.3 2.3.6 3.5.9.3-.5.6-1.1.9-1.6-6.5-.4-13.1-.8-19.6-1.3.9 1.1 1.7 1.3 3.8 1.3-.2 2.2.8 4.6 1.3 7.3.4 5.9.8 11.8 1.3 17.7-.7.1-.5.2-1.6.6v.3c1.5.1 3 .2 4.4.3-4.9 2.4-16-1.8-20.9-1.3zm29 32.2v-.9h3.8l.3-.6c-1.4-.6-5.4-1.1-9.9-1.4l-.5-.5c.4.5.1.3.5.5-6.3-.4-13.7-.6-17.5-.5 2.4 1.7 8.3 1.9 11.4 1.9v1.6c3.3.3 6.5.6 9.8.9 1.3 1.5 1.1 4.4.9 7.6l.3-.6c.4.2.7-5 .9-7.7.5-.1.8-.1 1-.2-.3-.1-.6-.1-1-.1zm-.9 24.7v.9h1.6c-.7-3.7-.3-15.8-1.6-17.1.1 4.1.9 15.1 0 16.2zm-1.9-1.6c.3 0 .6 0 1 .1l-.3-10.1c-.7-.2-.7-.3-.8-.4 0-1.1 0-2.3-.1-3.4.6-1.7 1-3.3.5-5.7.3-.9.2-.5-.3-1.3h-.3c-2.3-.2-4.6-.4-7-.6l.6 21.5 6.6.3c.1-.2.1-.3.1-.4zm-4.4 1c-.3 1.2 1.9.9 4.7 1.3h.3l.3-.6c-1.7-.3-3.5-.5-5.3-.7zm-23.1-26.6c1.7-.6 4.4-.2 6.6-.3v-.3c-4.4-.2-8.9-.4-13.3-.6 1.4.9 4 1 6.3.9-.9.4-2 .6-3.3.7-.9-.1-1.8-.2-2.7-.4.2.2.5.4.9.5h-1.8v-.2c-1.3-.1-2.5-.2-3.8-.3.8.2 1.7.3 2.5.5-6.7-.2-15-1.6-19.9-1.7v.9c9.8.7 19.6 1.5 29.4 2.2l.3-.9.9.3c-.2-.4-.4-.6-.7-.8 0-.1.1-.1.1-.2-.4-.1-1-.2-1.5-.3zm1 61.1v-.6l-11.7-.6c.6 1.2 0 .7 1.6.9.1.3.1.5.1.8h.6c0-.3 0-.5-.1-.8.5.3.7.5.8.8l.9.1c1.3-1.5 4.8-.8 7.8-.6zm-12.4 21.1c1.4 1.9 5.4.8 7 .6v-.3c-2.3-.1-4.7-.2-7-.3zm13.6-20.2h.3v-3.5l-10.8-.6c.6-.6 0-.2.9-.6-1-.8-2.3.1-3.8-.6.1.7.2 1.5.3 2.2 2.8-.1 12.7-1.1 13.1 3.1zm-12.9-10.7v1.6h.3c-.1-1.5.3-.8-.3-1.6zm0 2.5l-.3.6.3.9h.3l-.3-1.5zm9.4-50.6c-2.6-1.9-21.5-1.6-25.3-1.6 8.3.6 16.7 1.3 25 1.9h.3v-.3zm-.6 53.7c-1.3.1-2.5.2-3.8.3l6 .3c-.7-.1-1.4-.3-2.2-.6zm-2.8-29.7c-.9-.7-2.6-.7-4.4-.6 1.4.7 2.7.8 4.4.6zm-4.1 27.2v.9l.9.3h1.3c-.8-.3-1.5-.8-2.2-1.2zm12.3 3.8h.3c-.7-1.2-1.3-1.1-3.2-.9 1 .3 1.9.6 2.9.9zM680 519l-.9.3c1-1.7.4-3.4.6-6l-.9.3c.7-1.2 1-1.4.9-4.1-.3-.5-.3-4.8-.3-4.7-.6-.9-.8-.9-1.9-1.3-1.1 4-.4 23.6 1.9 26.9-.2-.8-.4-1.7-.6-2.5.4.1.8.2 1.3.3-.3-.4-.6-.8-.9-1.3.8-.6.5-.3.9-1.3l-.9.3c1.1-2.3 0-4.1.8-6.9zm-2.5-16.8h1.9c.2-4.5 1-22.6-.9-26.6h-1.9c1.4 7.5-1.1 15.2.9 26.6zm-2.5-7c-.2-1.1-.4-2.1-.6-3.2-1.4-.4-.9 0-1.9-.9l-.3 5.4c1.1.7.7.4.9 1.3.7-1 .4-.4 0-1.6.6-.3 1.2-.7 1.9-1zm-1 2.9l-.9.3.6.3.6.6-.3-1.2zm-3.2 16.1c1 .3.4.5.9-.3-2.5-1.6-.5-6.2-1.6-9.2-1.1 3.8 0 20.8.9 22.5v-1.3c.7.2.3.3.6-.3-1-.7-.7-.2-.9-1.6l.9.3c-.7-1.5-.9-3.5-.9-5.7l.9.6c-.6-1.8-.8-2.4-.8-5zm.7 33.9c-.2-4.2-1.3-10.7-.8-14.7.1.1.3.1.5.2-.4-1.6-.8-1.6.3-2.5-4.3-.3-8.6-.6-13-.9 2.1 1.4 8.1 1.3 11.1 1.3.2.5.2.8.3 1.1-.7-.1-1.5-.1-2.2-.2-.7 4.4 1.2 8.4 1.6 14.2h.3c.3-1.2.1-.9.9-1.6 0 1.5-.1 1.6 1 3.1zm-.3 1.2c-.1.4-.2.8-.3 1.3l.3.9h.3c-.1-.7-.2-1.4-.3-2.2zm-3.5-2.5c0 2.1-.4 5.4.6 6 .7.9 1 .9 2.5.9-.3-2.4-1.6-5.6-3.1-6.9zm-8.9-18.4l-.3.6c-1.8.6-1.1.3-2.8.6v.3l.6.3c3.3-.6 6.1-2.2 10.4-1.3.5.1.8.1.9.1 0 .1-.1.2-.1.3.1-.2.1-.3.1-.3.6-2.1.7-10.1.4-15.8l.3-8.7c.3 0 .7.1 1 .1-.1-.1-.4-.3-1-.4v-.9c-9.9-.5-19.8-1.1-29.7-1.6l.3.3c-.8.1-1.7.2-2.5.3.1-.4.2-.8.3-1.3-2.4-.4-3.7-.8-4.7.6v4.1c-.1-.4-.2-.8-.3-1.3v-3.8l-5.1-.3v27.8c1.6.1 3.2.2 4.7.3l.6-.3V506h.3l.6 22.5c4.5.3 15.4-2.9 20.6 0l-.3.9c-.5-.1-1.3-.1-1.7-.3-.1-.2-.2-.4-.2-.6-.2.3-.1.5.2.6.5.6 1.9.8 3 .6-1.1-1 .1-.6-.9-1.3v-.3c3.4.3 3.3.4 5.3.3zm-12.6 23.8l.3-.3c1.1.7 2.1 1.5 3.2 2.2-1.4-5.8 1.3-20.9-1.6-23.1-.9-.7-2.2-.9-3.8-.9-.5 4.6-.9 25.7 1.9 28.1.7-.9 1.8-.4 3.2.6v-4.1c-1.6-.5-2.4-1.4-3.2-2.5zm-3.5-21.9c-1.5-.1-3-.2-4.4-.3l.6 27.5.3.3c2.8-.2 1.8-.4 3.5-1.3.2.4.4.8.6 1.3v-.6c1.3-2.9.1-26.3-.6-26.9zm-6-.6c-1.3-.2-2.5-.4-3.8-.6v28.5c3.1 0 3.6-.2 4.7.3.1-9.2-.2-20.9-.9-28.2zm-5.7-.3c-1.4-.1-2.7-.2-4.1-.3l-.3 27.5.3.6h5.1c0-1.4.6-26.6-1-27.8zm25.3-27.5l-6.6-.6c1.4.8 4.2.7 6.6.6zm7.9 27.2c-.4.6 0 .2-.6.6.9.6 1.5.4 2.8.6-.7-.4-1.5-.8-2.2-1.2zm6.6-139.8c1.2-.3.8.1 1.6-.6-.9-.2-.6.2-.9-1.3 1.5-.1.6-.5 2.2-1.6-.5 1.6-.9 3.9.3 5.4v-7.3c.9.9.8.6.6 1.9l.6 6.3c.7-.3 1.5-.6 2.2-.9-.3-8.2-.6-16.4-.9-24.7-.7-.1-1.5-.2-2.2-.3v.3c.6 4.3 1.4 12.6 0 17.1l-.9-.3c.2-.4.4-.8.6-1.3-.6.3-1.3.6-1.9.9 0-.9.2-.3-.6-.6.4-.6.8-1.3 1.3-1.9l.6.3-.9.9h1.3c0-.7.1-1.1-.3-1.9v-10.1c-1 1 .1 1.2-.9 2.5h-.3c.2-1.6 0-1.3.3-2.8l-.9.9.3-.9c0-.2-.1-1.2.3-.6l.6-.9.6.6c-.5.9-.7 0-.3.9l.6-.6c-.7-1.3-1.3-1.3-1.3-2.5-.6.4-.8.8-1.3 1.3v-1.3h-.6l-.3.6-.3.9c0 1-.2 22.8 1.3 23.7-.6-1.7.5-.6-.5-2.1zm-.3 4.1c-.1 1.5-.5 4.3.6 5.7-.4-2.7.7-3.8-.6-5.7zm-.9-109.1c-1.1.4-.7.2-1.3.9h.9v-.6l.6.3-1.3.9c2.1-.3 3.9 0 5.7.6.7-1.1 1-1.8.9-2.2.2-1.3 1-18.5-.9-22.8h-.2l-5.7-.6c-2 8.6.5 15.8 0 23.1h.3c.2-.4-.1-.4.3-.3.3.2.5.5.7.7zm7.9 2.4c-.7-.1-1.5-.1-2.2-.2 1.4 1.2 5.1 1.3 7.6 1.3l.3-.6c-1.7-.1-3.5-.3-5.2-.4l2.7-.3c-.4-1.4-1.1-1.4-.3-1.9.4-1.6.3-1.8.3-3.8l.9.6c-.6-1.1 0-.9-1.3-1.3l1.3-.9c-.5-.4-.8-.4-1.3-.9h1.3c-.5-1.2-.3-2.5-.7-3.8h.1l-.2-.2c-.2-.4-.4-.8-.8-1.1.5.1 1.1.2 1.6.3-.7-1.7-.1-5.2-1.3-6.3.4 1.7.8 2-.3 2.8 0-2.2.1-1.3-.3-3.5.5.1 1.1.2 1.6.3-.7-1.3-1.6-4.2-1.9-4.4-.6-.1-1.3-.2-1.9-.3-.3.7-.6 1.5-.9 2.2l.9-.3c-1.3 3.4-1.6 19 0 22.7zm13.3-35.9c-1.4.8-5.2-.9-7 0-2.1 1.1-3.2 4.2-5.4 4.7l-.6.6v1.9c7.8.7 15.6 1.5 23.4 2.2h.3l-.3-18.3-.3-.9c-7.8-.6-15.6-1.3-23.4-1.9-.7 3.3 7.5.5 8.5 2.5.6-.3.5.1.3-.6.7.4 1.5.8 2.2 1.3.9-.8 2.3-.8 4.7-.9-.9 2.1 2.9.9 3.8 1.9h.9c-.3-.4-.6-.8-.9-1.3 2.3.4.2 1 2.2.6.2 4.5.8 9.1.6 14.9H697c-1.4-1.3-4.5-4.7-4.4-6-1.3.1-.3-.1-1.3.3h-.3l.6-.9v-.3c-.6.1-1.3.2-1.9.3l1.1-.1zm-9.5 32.5c-.1.9-.2 1.9-.3 2.8l.6-.3c-.1-.8-.2-1.6-.3-2.5zm1.9 3.8c.9-.1 1.9-.2 2.8-.3l-.3-.9-.6-.3c-1.2.3-.3.6-1.3 0 1-.3 1.3-.3 1.9-.9-1.3-1.8 0-15.2 0-15.2v-3.2c-1.5.2-1.3-1.1-3.2-2.2.4 8.4-1.7 17.2.7 23zm5.4-20.9l-.3.6c.6-.4.8-.8 1.3-1.3l-.6-.6.3.6c-1 .3-.9-.2-.7.7zm-.4 13.3l-.3.9.6-.3c.6.6 0 .2.9.6v-.3l-1.2-.9zm-.3 8c1.3 1.5 5.3 1 7 1.3l.6-.3c-2.5-.4-5-.7-7.6-1zm-12 .6c2.9 3.9 26.8 1.1 28.1 5.1.2-.7.3-1.4.5-2 .4.1.7.1 1.1.2v-.7h1.3l.3-1.3v-.3c-3.3-.2-6.5-.4-9.8-.6 1.1 1.1 4.1.7 5.4 1.6-9-.7-17.9-1.4-26.9-2zm33.2 26.9c.2-.4-.3-1-.6-1.9H706c-.5-.7-1.1-1.5-1.6-2.2v2.8l-.6.3c-1.9-1.1-6 .1-9-.6h-.2c-.6.4-1.2.8-1.9 1.2l.3.9c2.2-1 6 .2 8.5-.6.2 1.5.4 3 .6 4.4.4-.5.4-.8.9-1.3h2.2c.2 1.3.4 2.5.6 3.8l.9.6V317h.3l.3 11.4.6.3c-.4-4.3-.9-10.3.6-13.6h.3l.3-.1zm-16.4 26.2c1.4-.1 2.7-.2 4.1-.3l.3-.6c-3.2-.2-6.3-.4-9.5-.6 1.5.4 3 .8 4.4 1.3-1.5.4-7.1.2-8.2-.9h2.5v-.3c-3.3-.3-6.5-.6-9.8-.9-.1.5-.2 1.1-.3 1.6h.9c1.1 1.7 24.4 2.8 27.5 3.2.7 1.1.9 3.2.9 5.1.2-1.7.3-3.5.5-5.2.4.1.7.1 1.1.2-.2-.3-.6-.6-1-.8 0-.2 0-.3.1-.5-4.5-.6-9-.9-13.5-1.3zm16.1 27.6c0 5.9-.1 5.5 0 10.4h.3c1.3-3.3 1.2-12.2-.3-15.2-.1.8-.2 1.7-.3 2.5-.2.6-.4.6-1.3 1.3.5.3 1.1.6 1.6 1zm-2.8-8.6v5.4c-.3 1-.1 1.1.6 1.9.7-1.7-.1-6.4-.6-7.3zm-1.9 4.5v-1.3c-.9.1-.6-.3-.9.9-1.3-.7-2.6-1.4-2.8-1.9-.7.2-1 .5-.3.6l-.6.6c-.6-.8-.2-.9-.3-1.9-.4-.1-.8-.2-1.3-.3.4.6.3.5.9.9l-.9.6c-1.2.9-.1.1-1.9.3.6-.3 1.3-.6 1.9-.9v-.6c-1.5-.2-3-.4-4.4-.6l.6.9c-1.9-.8-1.7-1.3-4.1-1.9-.1.4-.2.8-.3 1.3-1 0-.5.2-1.3-.6h-.9c.6 1.5.1 1.5 1.9 1.9l-.9.3c2.6 1.9 12.2 1.6 15.6 1.7zm-8.3 1.8c1.1.7 2.6 1.1 4.1.6.9.3.5.2 1.3-.3-1.8 0-3.6-.1-5.4-.3zm-8.5 22.5v-.3l.9-.6h-1.6c.2.8-.3.2.7.9zm.9-2.6c-.8-.1-.3.1-1.3-.3.2-.4 2-1.3.6-1.3-.4-.6-.6-.3-1.9-.6 1.1-.7.7-.2.9-.9l.3-.9-1.3.9c.7-1.3.5-1.2 1.9-.9-.1-1.1-.1-1.8-.3-2.4.1-.1.2-.3.3-.4h-.4c-.2-.5-.4-.9-.9-1.6.4.2.8.4 1.3.6-.2-1.1-.1-1-.6-1.6-.1.5-1.2.2-1.6-.6.4-.1.8-.2 1.3-.3.4.3.8.6 1.3.9v-1.3c-1-.1-1.1.2-1.9-.9.5.2 1.1.4 1.6.6-.6-.4-1.3-.8-1.9-1.3.1-.4.2-.8.3-1.3l.3.6c.7.3.2 0 .9.9h.3v-.3c-.1-.5-.2-1.1-.3-1.6-2.3-.1-.6-1-2.5-1.6.1 3.6.2 3.3 0 7 .4-.1.8-.2 1.3-.3-1.3 2-2 13.4 0 15.2 1-.5 1-.4 1.6-1.3.5-1.2.4-1.2 0-2.2-1.6-.3-1.1.1-1.6-1.3.2-.4.4-.8.6-1.3 1.5.5.7.9 1.7-.2zm-9.1 13c.6-1.6.4-3.5-.3-4.7-2 5.2.1 15.3.6 18l-.9-.6.6 5.4c1.6.1.9-.4 1.9.6-.4 1.2-.5.3 0 1.6h8.9c-3-.3-5.9-.6-8.9-.9.8-3.3 0-13.8-.9-15.5.9-.8 1-3.6 0-4.7.1 1.1.2 2.1.3 3.2-.5-.9-.9-1.7-1.3-2.4zm10.7 48.4c2.6 1.5 7.5 1.4 10.8.9-2-1.4-7.4-1-10.8-.9zm3.5-28.2c-.9-.1-1.9-.2-2.8-.3l-.3.6c1-.1 2-.2 3.1-.3zm11.4 29.8c-.8.3-2.3.5-4.2.6-6-.5-12-.9-18-1.4-1.1-.2-2.1-.3-2.8-.5l-.3.6c1.8 1.8 24.8 2.8 28.1 2.8l.6 11.1c1.1-2.2 1-7.8.7-11.4.3 0 .6 0 .8.1l.3-.6c-.4 0-.8-.1-1.2-.1 0-.2 0-.4-.1-.6h2.5v-1.3c-3.5-.1-7-.2-10.4-.3 1.1.9 2.2 1 4 1zm-14.9 53.4l-.6.3c2.7-.7 1.5-4-.9-4.4v-.6c1.3.1.8 0 1.3-.3.1-.1.2-.2.3-.4.5-.8.8-2.3.7-4.4-.4.1-.8.2-1.3.3.2-.4.4-.8.6-1.3l.6.6c-.7-1.4-1-1-2.8-1.3l-.3.9c1-.4.6-.4 1.6-.3-.2.9-.8.5 0 .9l-.3.6c-1.3-.2-.4-.6-1.3.3.4 1.9.1 4.5.9 5.6-.1.1-.2.3-.3.4.2-.1.4-.1.6-.2.2.1.4.2.7.2-.1.6-.2 1.3-.3 1.9.3-.4.6-.8.9-1.3l-.6-.6-.3-.3c-.1 0-.3.1-.4.1-.1-.1-.2-.2-.3-.2.1-.2.2-.3.3-.5 1.1.6 1.5.7 1.3 1.9.2.4.4.8.6 1.3-.9.3-.3 0-.7.8zm-2.2-21.2l-.3.6c1.3.1.2.7 1.3 0-.4-.1-.7-.4-1-.6zm.6-1.2c.1-.5.2-1.1.3-1.6h-.3c-.1.5-.2 1.1-.3 1.6h.3zm-.9 5.7h.9c.1-.5.2-.9.3-1.4.1 0 .2-.1.3-.2h.1c.1 1.6-.6.8.6 1.6-.3-2 .8-1.5-.3-2.8h-.9c.7.7.5.2 1.3.6-.3.3-.5.5-.7.6h-.2v.2c-.8.3-1 .2-1.4 1.4zm0 3.1v.3c1.6-.1 1.1-.3 1.6 0 .5-.8.6-.2 0-1.3-.6.4-1.1.7-1.6 1zm1.3.7c-.4.6 0 .2-.6.6.4.2.8.4 1.3.6-.3-.4-.5-.8-.7-1.2zm3.4-14.2c-1.4-.2-2.7-.4-4.1-.6 1.3.9 2.2.8 4.1.6zm-1.2 27.8c1.8 1.4 7.8 1.5 10.1.9l.6.3v-.9l-10.7-.3zm12.6-27.2l-5.1-.6c1.7.8 3.1.8 5.1.6zm2.2-21.8c.1-.5.2-1.1.3-1.6l-5.1-.3c2.1.9 3.3.3 4.8 1.9zm-20.2 39.1c-.8-1.1-1.1-2.1-2.5-3.2-.4.6-.3.2-.6.3.5-.6 1.1-.9 1.6-1.6-1.1.1-.7.3-1.6-.3 1.1-.9-.6-.7.6-1.3l.3-.9c.2-.6.4-1.3.6-1.9l.3.9h.3c-.5-1.6-1.5-1.9-2.5-2.8-.1 4.1 1 12.8-.3 14.9 1.5-.5 2.3.3 3.5-1.6-.6-.4-.1-2 .3-2.5zm-3.8-36.6l.3 6.6h.3c.1-2.2.3-5.4-.6-6.6zm.6-.7c-.1-.6-.2-1.3-.3-1.9-.1.7-.2 1.5-.3 2.2l.6-.3zm-.6 7.6c.1 1.3.2 2.5.3 3.8l.6-.3c-.2-1.1-.2-2.8-.9-3.5zm.9 16.5c-.9-2 .3-2.6-.6-3.8.1 1-1.1 2.8.6 3.8zm-.6.6v1.6l.6-.6c-.2-.4-.4-.7-.6-1zm1.9-1.9c.1-.5.2-1.1.3-1.6h-.3c-.1.5-.2 1.1-.3 1.6h.3zm-4.1-5.4c.4-.1.8-.2 1.3-.3-1.2-5.6 1.2-21.1-1.3-23.7l-.3-.3c1.2 3 .3 24.3.3 24.3zm-1-26.5c3.4.3 6.7.6 10.1.9v-.3c-3.3-.2-6.7-.4-10.1-.6zm2.9-8c.2.4 1.2.5 2.2.9-1.1-1.9-1.3-1.4-2.8-2.2.6 1.4.3 1 .6 1.3zm21.2-93.2l.3 5.4.3-6.3c-8-.5-16-1.1-24-1.6.3.6 21.4 2.8 23.4 2.5zm-19.3 36.6c-.1.5-.2 1.1-.3 1.6l.6-.3c-.1-.4-.2-.8-.3-1.3zm-3.5 3.2c.7.3 1.5.6 2.2.9 0-1.3-.1-.8.6-1.9-.4-.8-.6-1.4-1.3-1.9-.9.7-1 .6-1.3 1.3-1 .6-1.1 2.9.3 4.7-.1-2.2.7-1.5-.5-3.1zm-2.5 6.7c3.2.3 6.3.6 9.5.9v-.3c-3.2-.2-6.4-.4-9.5-.6zm12.6-26v-.3l-5.4-.6c.9 1.2 3.1 1.1 5.4.9zm-18-31c-.3 1.3-.1 1.4.3 2.5h.3c.1-.4.2-.8.3-1.3l-.6-20.9c-1.1-.1-1.1-.3-.9-.6-.6-1.6-.6-.9-.3-2.2h-1.6l.6.3c-.1.3-.2.7-.3 1l-.1-.1v.5c-.1 1.5.1 3.2.3 4 .5.1 1.1.2 1.6.3-.1.6-.2 1.3-.3 1.9-.3-1.6.2-.9-.9-1.6-.3 1.6.1 1.1-1.3 1.6v-1.3l-.3.9c1.6 1.9.9 1.7.3 4.4.9-.4.5-.3 1.3-.3l-.3.3c.1.6 0 2-.2 3.5-.1-.1-.2-.2-.4-.3v1.6c.1 0 .1.1.2.1-.3 2-.7 3.9-.8 4.6 1.4.4 1.2 1.2 3.1 1.1zm-3.2-35.4h1.9c-.7-.3-1.5-.6-2.2-.9l.3.9zm4.5 11.7h1.3c.2-.1.3-.2.5-.3l-.2.3h-.6l2.2 2.2c3.5-2.7 7.4 1.5 12.7-.6h.6c-2.7-1.3-7.5-1.2-11.2-1.7-1.1-.1-2.2-.2-3.3-.4l-.1.1c-.2-8.1-.4-16.2-.6-24.2h-2.2c.2 8.1.6 16.4.9 24.6zm3.8-3.5l-.9-.3c.4.2.8.4 1.3.6v-.9c-.6-2.2.2-3-.6-4.7l.9.3c-.9-3.4.9-11.3-1.6-14.2.2 2.5-1.8 14.4.9 19.2zm9.5 27.2c.1-.7-.1-.4.3-1.3-.4.2-.8.4-1.3.6.3-.8.6-1.7.9-2.5-1.3-.1-1.3 0-1.9-.6 1.2.2.9-.1 1.9-1.3-.3-.5-.6-1.1-.9-1.6h-.6c.1.5.2 1.1.3 1.6l-.9-.3v-1.9h1.9c-.8-.6-1-.4-1.6-1.3l.9.3c-.3-1.3-.4-.5.3-1.9-1.1-.5 0-2.7-1.3-3.5-.6 2.2-.3 2.6-.9 4.4l.9-.6c-.6 1.6-.7 2.5-1.3 4.4 1.3.3 1.3.3 1.9 1.3-1-.4-.8-.1-1.6-.6.4 3.8.8 2.5.3 5.7 1.1.4 1.4.8 2.8 1.6v-.3c-.4-.7-.2-1-.6-1.9-.2.4 0 .6-.3.3-.8.1.8-.6.8-.6zm-2.6 1.6l-.3.6c.6.3 1.3.6 1.9.9l-1.6-1.5zm.7-16.5c-.1-.5-.2-1.1-.3-1.6-.1.5-.2 1.1-.3 1.6h.6zm.6 1c.5-.8 0-.4.9-.3-.4-1-.2-.7-.9-1.3-.1.5-.2 1.1-.3 1.6h.3zm-3.8 11.7c-.4-.2-.4-3.2-.3-4.1-.5.2-1.1.4-1.6.6 1.7-3.1 1.2-8.4.6-11.7l.6.6c-.4-2-.2-2.1-.3-4.1-1.2.3 0 .2-1.3 0-.3.5-.6 1.1-.9 1.6.7.1.4-.1 1.3.3-.1.4-.2.8-.3 1.3h-.3c-.2-.4-.4-.8-.6-1.3v2.2c-.5.4-.1 2.8-.6 5.1h.9c-.8 1.5-.6.6-.3 2.5.9-.4 1.1-.4 1.6.6-1.2.3-.6 0-1.3.6h1.3c-.4.3-.8.6-1.3.9l.9.6h-1.3c.5.5.8.6 1.3 1.3-1.2.2-.7-.2-1.6.9.4 1 0 .4.6.9.5.8.7 1.7 1.6 1.3.8.1.5.4 1.3-.1zm-1 .9h-.9c.5 1.3.3.6 1.6 1.3-.6-.9-.5-.5-.7-1.3zm-6.3 3.8c.5.2 1.1.4 1.6.6l.3-.6c-.6-3.4.3-23.1-1.6-24.7-.4-.1-.8-.2-1.3-.3-.2 2.5.1 24.7 1 25zm-.6 3.2l.9 23.7c.5.1 1.1.2 1.6.3v-1.9c1.5-5.1.6-17.4-.3-23.4-.4-.2-.8-.4-1.3-.6-.7.8-.6.3-.9 1.9zm26.6-31v-.2c-.2.2-.4.5-.6.7 0 .2-.1.4-.1.7-.1-.1-.2-.2-.3-.4-.4.4-.7.7-1.1 1 2.7 0 2.3-.3 3.9.6h.3c-.1-2-.1-4.1-.2-6.1-.1.4-.3.7-.5 1.1-.1.3-.3.6-.5.9.1.8-.2 1.3-.9 1.7zm1.7-11.7c-.1-2-.1-4-.2-6-2.2-.1-4.5-.3-6.7-.4 2.2 1 4.1 2.5 5.5 4.2h.2c0 .1-.1.1-.1.2.6.7 1 1.3 1.3 2zm-33.1-10.4c.8 1.3 1 .7 1.9 2.2-1.1.2-1.1.1-1.9 1.3h.9c-.3.6-.3.1 0 .6.6.6 0 .2.9.6v1.3h-.3c-.6-1.3-.3-.4-1.3-.9v1.3c1.2 0 .6-.6 1.3.6h-1.3c.6.2 1.3.4 1.9.6-.7.3-1.5.6-2.2.9l.3.6c.5.1 1.1.2 1.6.3-.8.8-.4.2-.6.9l.9.6-.9-.3c.4.6.8 1.3 1.3 1.9-2 0-1.6-.6-2.2.9.7-.2 1.5-.4 2.2-.6l-.3.6c-.9.2-2.4.3-1.9.9-.4 1-.2 0-.3 1.3 1.1.7 1.5.4.9 1.3l-.9-.6v1.3l.6-.3c1.1.2.8-.9 1.6.6-.9.1-1.4 2.9-1.6 4.7l.9-.3c0-1.1-.8-.9.6-1.6.2.7.4 1.5.6 2.2l.6-.3c-1.3-5.7 1.3-19.9-1.3-23.1-.6 0-.4.4-.9-.6l.6.3c-.7-.7-1.5-.6-1.6-.6h-.3c-.1 1.3-.4.4.2 1.4zm-.9 106.2l.6 20.2v-.6s1.7-17.2-.6-19.6zm1.6-57.8l.6-.3v-.3c-.4-.2-.8-.4-1.3-.6.3.3.5.7.7 1.2zm-.3 1.2c.5.1 1.1.2 1.6.3v-.3c-.1-.9-.3-.2.3-.9l-.9-.3c-.7.9-.5.9-1 1.2zm.8 20.5l-.2-.2.2.2c.1 2 .2 3.2.1 3.3l-.3-.6v1.6c1.3-.3.6-.4 1.9.6 0-1.1-.4-.8.3-1.6l.6.3c0 1.6.1 1.1-.3 2.2l1.3-.3c-.3-1.1 0-2.8-.9-3.8.1.5.2 1.1.3 1.6-1.1-.6-1.5-2.2-.6-2.8v-.7l.6.6v.9h.3c0-2.2.1-2.4.3-3.8l-.6.3c-.2.4-.4.8-.6 1.3h-.3v-.3c.2-.3.4-1.1.6-2.3h.1v-.1c.7-4 1.1-11.6-.6-12.9.6 1.4.9 5.3-.6 6 .2-1.2.4-2.3.6-3.5-1 .9-.3 1.2-1.3.6.5-.8 1.1-3.6.6-4.1-.2-1.1-.1-1-.6-1.6h-1.3c-.7 2.7.1 13.5.4 19.1zm2.3 132.3c.6.3 1.3.6 1.9.9v-.9c-.9.2-.2.5-.9 0l-.6-.6c-.2.2-.3.4-.4.6zm0-11.4c1.5-.9.7.7 1.6-.9-.8-.1-.9-.1-1.9-.6.1.4.2 1 .3 1.5zm1 6.6v-.6h.6v-.3h-1.3c.3.3.5.6.7.9zm.9-3.1c-.5-.5-.1 0-.3-.6h-.9l-.3.6c1.1 0 .6.5 1.5 0zm.3-52.2c0-1.6.1-2.7-.6-3.5v3.8l.6-.3zm-1.2 8.5h.3c-.2-.4-.4-.8-.6-1.3-.7.4-.8.2-1.6.6.6.3 1.2.5 1.9.7zm.9-3.1v4.7c1.3-1.1.6-4 0-4.7zm1.6-16.8c1.4-.3 1.2-.3 1.9-1.3-1.8-7.3.6-13.5-.6-21.5.3-1.7 0-2.7-1.9-3.2-1.9 7.5.3 18.9.6 26zm.6 27.2c.5.1 1.1.2 1.6.3.1-.6.2-1.3.3-1.9l-.6-24c-.7-.1-1.5-.2-2.2-.3-.1 8.5-.7 18.5.9 25.9zm.7 27.5v.6c.9-.5.8-.5 1.6-.6l-.3-17.7c-1.2.4-.5.6-1.6 0 .2-.6.4-1.3.6-1.9l.9.6c-.5-2.3-.4-4.9 0-6.3-.6-.2-1.3-.4-1.9-.6-.6 8.7-.4 17.3.7 25.9zm13.3 30.1c-2.7-.3-5.5-.6-8.2-.9-.8.1-1.7.2-2.5.3 3.5.2 7.1.4 10.7.6zm21.5-84.7c-1.3.2-2.5.4-3.8.6-.2-.5-.4-1.1-.6-1.6-.1.9-.2 1.9-.3 2.8 1.3 1.1 2.9 2.3 4.1 3.2-.2-.5.3-1.8 1.6-2.2 0-.1-.1-.2-.1-.3h.4c-.4-.8-.3-.8-.8-1-.2-.5-.4-1-.5-1.5zm-12.1-25.4c.8 1 2.3 1 3.5 1.6-3-.2-5.9-.4-8.9-.6 1.3-.1 2.5-.2 3.8-.3v-.3c-3-.3-5.9-.6-8.9-.9 1 1 2.9.7 4.4 1.3-5.2-.2-10.3-.4-15.5-.6 1.4 2.9 18.4 1.6 22.5 3.2-7-.3-13.9-.6-20.9-.9v.3c4.2 3.1 20.7.1 25 2.5.1-.5.2-1.1.3-1.6.7.2 1.5.4 2.2.6v-1.3c.3 0 .6.1.9.1l.3-.6c-.4 0-.8-.1-1.3-.1v-.6c1.2.2 2.3.4 3.5.6.1-.5.2-1.1.3-1.6-3.6-.3-7.4-.5-11.2-.8zm2.6-53.7c-1 .6-1.9.4-3.8.3l-.3.6c3.1.4 6.1.8 9.2 1.3.2 1.4.4 2.7.6 4.1 1.1-2.5.4-3.2 1.9-5.1-2.6-.4-5.1-.8-7.6-1.2zm5.3-136.1c.3 1.2.3.9.9 1.6l.3-.3c-.3-.4-.7-.9-1.2-1.3zm-5 10.1h1.3l.3.6v-.6h.6v-.3l-1.3-.3-.9.3v.3zm.6 2.3l-.3.9c.4-.3.8-.6 1.3-.9h-1zm-.6-1.9c.1.4.2.8.3 1.3h.3c.1-.4.2-.8.3-1.3h-.9zm-5.7-1.3l.3.6c1.3.2 1.2.2 1.9.6.3-.7-.1-.4.6-.3h.3c-.6-.8-.6-.8-1.6-1.3-.8.7-.2.5-1.5.4zm.3.9v1c1.4.2 1.4.3 2.2.9-.6-1.1-1-1.3-2.2-1.9zm-4.1 9.5c-1.1.3-.5-.4-.9.6.8.6.5 3 0 5.7.8.1.7.1 1.6.6-.3-.7-.6-1.5-.9-2.2l.3-.6h.3c.3.6.6 1.3.9 1.9v-.6h.6v-1.3c-.6-.5-1.3-1.1-1.9-1.6 1.3-.6 1.2.3 1.3.6l.9-.6c-.6-.6-1.6-.5-1.3-1.3 1-.7.7-.2.9-1.6h-.3c-.2.4-.4.8-.6 1.3 1.4-5.6.8-5.8.9-11.7-1.1-.2-2.1-.4-3.2-.6-.2 2.9-.3 8 1.4 11.4zm-.6 7.3l.9.9.3-.9h-1.2zm-5.6-11.3l-.1-.1v.9h.2c.1 1.5 0 2.9-.5 4.1l.9-.9c-.1.6-.1 1.1-.2 1.7l-.1.2h.1c0 .2-.1.4-.1.7.4.1.8.2 1.3.3l-.6-.9h2.2v-.3c-.6-.7-1.3-1.5-1.9-2.2.8.2 1.7.4 2.5.6-.6-1.4-.8-1.6-1.3-3.5.3.6.6 1.3.9 1.9h.3c.1-.4.2-.8.3-1.3-.3-.4-.6-.8-.9-1.3l.9.3c-.6-1.6-.1-4.6-.3-7.3-1.4-.2-2.7-.4-4.1-.6-.3 2.7.3 5.3.5 7.7zm2.7 9.4c-.4-.6-.7-1.4-.9-2.2h-.9c-.3 1.2-.6 2.3-.9 3.5l.9-.6c.2-.8.4-1.7.6-2.5h.3c-.2.6-.4 1.3-.6 1.9.1 1.5-.1 1.1-.9 2.2l.9-.6c.9-.6 1-.9 1.5-1.7zm-1.2 2.2l-.9 1.3c.4-.1.8-.2 1.3-.3v-.9h-.4v-.1zm-3.2 4.8c1.8 1.5 6.6 1.4 9.8 1.3-1.8-1.4-6.8-1.4-9.8-1.3zm-9.8-.6c2.7.3 5.5.6 8.2.9-1-1-5.2-1-8.2-.9zm-8.2-.1c.2 8.2.4 16.4.6 24.7 2.7.1 5.1.7 6.6 0l.3-6h.3c-.1 1.5-.5 3.1.3 4.7v-.6c2.2-2 .9-15.4 0-20.1 5.5 1.1 20.5 3.5 25.9 2.1l.9.3c.7 5.9-1.3 18.6.6 22.1-7.3-.5-14.6-1.1-21.8-1.6 6.4 3.3 16.8-.5 21.8 2.5 1.1.3 1.1 1.5 1.6 2.8.2-.4.4-.8.6-1.3.2.4.4.8.6 1.3h.3c.2-1.4.5-1.8 1-2.5h.2v-.9h-.2c-.1-.3-.3-.6-.4-1-1.2.2-2.3.4-3.5.6 2.1-4.7.3-15.6 0-22.7l.9.3.3-.6-1.2-.1v-.9h.9c.4-.1.8-.2 1.3-.3-1.8-1.4-6.4-1.4-9.5-1.3l-.3.6 6 .6c-1 .4-2.3.6-3.7.7-5.4-.5-10.7-1-16.1-1.5-2.6-.4-5-.7-6.7-.8-.1.8-.2 1.7-.3 2.5-.1-1.1-.2-2.1-.3-3.2-3.1-.3-3.1-.4-7-.4zm-2.6 51.3h.3v-.3c-1.3-1-4.8-1.2-7-1.3-.3.7 5.8 1.2 6.7 1.6zm-2.2 1.3l.3.7h.4v.9c.1.1.1.2.2.4.2-.9.4-1.9.6-2.8-9.6-.8-19.2-1.7-28.8-2.5 1.3 1.7 23 3.1 27.3 3.3zm-14.4.7c-3.5-.3-7.1-.7-10.6-1-.1.3-.1.6-.1 1h10.7zm11.9 20.5c1.3-.2 1.2-.2 1.9-.6v-2.3h-1v.1l-.6.3c0-.2 0-.3.1-.4h-2.1c-.1.1-.1.3-.2.4h-1.6c.1-.2.1-.3.1-.4h-3.9v.1h-.3v-.1h-12.1c5.7 1.7 15.4 1.1 19.7 2.9zm-7.3 1.2c1.4 1.3 2.7 1.1 5.1.9v-.3c-1.7-.1-3.4-.3-5.1-.6zm0 26.9c2.2 0 3.1 0 4.1.6h.3c-.1-2.4.1-5.8.2-9.5.3 3.2.6 6.2.8 8.6 1.5-.3 1.5.8 4.1.3 1.2-4.7 1.2-14-.9-18.7l.9.3c-.3-.5-.6-1.1-.9-1.6 1.3-.2.5.5 1.3-.6-2.3.1-.6-2.6-2.2-4.1-.8-.1-1.7-.2-2.5-.3-.5 1.8-.7 3.9-.8 6.2-.3-2.5-.8-4.8-1.7-6.5h-3.2c-.2 8.4-1.3 18.7.5 25.3zm12 4.1c.4-.5.6-.9.8-1.1.3.1.5.1.8.2-.2-.3-.3-.5-.4-.6.3-.4.7-.7 1.4-1.3-.4-.2-1-.4-1.5-.5.4.1.8.1 1.2.2.1-2.6 1.3-20.3-1.3-23.1h-.3c-.1.4-.2.8-.3 1.3-.5-1.2-1.1-2.3-1.6-3.5h-.3c.2 8.2.4 16.4.6 24.7.2.1.4.1.6.2-2.1-.3-4.5-.2-6.6-.2 1.7 1 4.6 1 7.3.9l.3.6c-9.7-.6-19.4-1.3-29.1-1.9.4.9 0 .4.6.9 8.3 3.4 21.3-1 27.8 3.2zm-.3 14.5c.2 1.3.4 2.5.6 3.8.1-1.6.1-2.9-.6-3.8zm.3-3.7v-.6c.4-1 .2-2-.3-2.8v3.5h.3v-.1zm-6.3 13.6l.6 23.4.9-.6c-.4 1.5-.9 1.6-.3 2.5h4.1c-.2-7.4-.4-14.8-.6-22.1l-.9.9c-.1-1.4-.2-2.7-.3-4.1h-3.5zm8.5 26.9h.3c-.2-.4-.6-.6-1.1-.8.6.1 1.1.1 1.7.2.8-5.2.9-20.8-1.6-22.8.2 1.3.6.4-.3 1.3-.4-1.4-.7-1-.6-2.2l-.6.3c-.7 6.7-.1 14.3 0 22.8-1.8-.3-4.2-.1-5.7 0 2.7.3 5.3.8 7.9 1.2zm-.3 12.3c-.2-.6-.4-1.3-.6-1.9v2.2l.6-.3zm0 6.3l.3-.9-.6-.9c.1.5.2 1.2.3 1.8zM644.6 445c-1.3-.1-2.5-.2-3.8-.4h1.3c.1-5.3.5-24.9-1.3-26.3H637l.3 26.3h.6c.4.7 4.5.7 6.7.7v-.3zm11.7.9c-2.3-.2-4.6-.5-6.9-.7 1.3-.5 1.3.1 2.8-1.2.5 1.3-.1.8 1.3 1.3.1-5.5.5-25-1.9-26.3-.6-.1-1.3-.2-1.9-.3-.4.1-.8.2-1.3.3-.1.8-.2 1.7-.3 2.5 2.1 6.6-1.8 19.5 1.2 23.7-.5-.1-1-.1-1.6-.2.1-5.3.6-24.4-1.9-26.4-1.7-.2-3.5-1.6-3.2.9-.8 2.7-.2 23.7.9 25 1.2.2 2.5.4 3.7.6 1.9 1.3 6.4 1 9.1.8zm2.8-.6l-.6-25c-.6-.4-1.3-.8-1.9-1.3h-2.5l.6 26.6c2.6.1 3 .3 4.4-.3zm8.6 1.6c-1-1-3.6-1.1-6-1.1-.1-.9-.5-.4.3-.9.9 1.4 1.1.3 2.5.6v-.9c.7-2.5.9-9.2-.9-10.8.4 1.8.4.9-.9 1.6v-.9c1-.5-.4-.5.6-.9-.4-.1-.8-.2-1.3-.3l.6-.3c.3-1.5.2.1.9-1.3-.5-.6-.4-.1 0-.9-1.7.6-.9.9-1.9.6v-.9c1.1-.4 1.2-.5 1.9-1.3-1.4.3-.8.4-2.2.3v-1.3l.3-.6.6.3-.6.9h1.3c-.6-1.5-.7-1.1.3-1.6-.7-1-1.3-2.1-1.3-3.5-1.3.8-.9 1.4-1.6 2.2.2-2.9.6-2.2-.3-3.5l.6-.6c.6 1 1.2 1.3 2.2 1.9-.5-1.4.4-2.9-.6-4.1-.7 1.3-1.2.6-2.5 0-.1 1.8 1.2 8.5 0 7.9.4 1.8.7 1.3 1.3 2.2-1 .6-.9-.1-.6.9.6-.9.1-.2 1.3-.6l-.3.6c-.6.2-1.2.4-.9.9-1.5 3.1-.6 13 1.1 14.1-1.2 0-2.4.1-3.4.1 3.2.6 6.3.9 9.5 1.2zm1.6-.4c-.9-6.8 1.4-22-1.3-26.6-.7-.1-1.5-.2-2.2-.3v26.3c1.1.2 2.3.4 3.5.6zm.3 21.8l.6-.3c.1-.6.2-1.3.3-1.9h-.3c-.2.9.3 1.5-.6.9v-7.6l.9.3-.9-1.3c1.1-.6.6-.4.9-1.9h-.3l-.6.9c.1-1.7.8-6.3-.6-8.9-.1 8.1-.9 15.2.6 19.8zm.3 2.9c-.1-.8-.2-1.7-.3-2.5-.1.9-.2 1.9-.3 2.8l.6-.3zm-2.9 31c1.1.1 2.1.2 3.2.3v-1.3c2.2-1.1.2-8.4 0-9.5 1.1.1.6.4.9-.6-1 .1-.3.4-.9-.3.2-.1.4-.7.5-1.6h.1c0-.1-.1-.1-.1-.2.4-4.1-.6-13.9-4.3-14.1-.3 9-.1 18.3.6 27.3zm-6-.3c2.3-.4 2.7-.9 4.7 0l-.6-26.6c-1.1.6-1.7-.2-4.4-.6-2.1 7.5 2.1 22.7.3 27.2zm-.9 0c1.8.9 5.2.7 7.9.6-2.6-.2-5.3-.4-7.9-.6zm-9.5-.7c1.9-.5 1.1-1 3.8 0 0-2.8.2-7.1.3-11.4.2 5.8.6 11 1.6 11.7 2 .8 2.3-.2 3.5.6l-.3-26.6c-.5-.4-1.1-.8-1.6-1.3h-3.2c0 1.4-.1 3.8-.1 6.5-.2-3.1-.5-5.6-1.2-6.5-1.5-.1-3-.2-4.4-.3-.3 3.5-.6 25.9 1.6 27.3zm-7.3-26.8l.6 25.9.6.9c1.3.1 2.5.2 3.8.3l-.3-26.6c-1.3-.8-2.3-1.1-4.1-1.6-.2.4-.4.7-.6 1.1zm-17.1-1.9l.3 27.5c2.1.2 4.3.4 5.4-.6v-1.3c.3.7.6 1.5.9 2.2 1.4.2 2.7.4 4.1.6 0-2.1.1-4.2.2-6.4.2 2.4.5 4.6 1.1 6.4h1.4c.8.3 1.9.4 3.6.4v-.3c-.3 0-.6 0-.9-.1l.6-.3-.6-26.9c-1.6-.1-3.2-.2-4.7-.3-.2 1.7-.3 3.9-.5 6.5-.2-2.5-.7-4.8-1.4-6.8l-.6-.3h-3.2c.1 2.3.5 7-.6 8.2v-8.2l-5.1-.3zm-5.6-190.1h2.5v-2.2c.4-1.6.5-22-.9-23.1-.4-.1-.8-.2-1.3-.3l-.9.9c-.1 8-1.5 19.7.6 24.7zm-.4 27.2l.3 25.3c1.4.2 1.6.4 2.5-.3.8-.9 1-22.9-.6-25.6h-.3c-.6.1-1.2.4-1.9.6zm1.3 51.8c.8.1 1.7.2 2.5.3l-.3-25.9c-.8-.1-1.7-.2-2.5-.3l-.6.6c-.1 3-.7 23.6.9 25.3zm.3 27.2c.8.1 1.7.2 2.5.3v-.3c-.3-2.1.5-24.8-1.3-25.9-.6-.7-.1-.3-1.3-.6l-.9.9c0 2.9-.6 23.8 1 25.6zm.3 27.2h2.5c-.2-8.7-.4-17.5-.6-26.3-.8-.1-1.7-.2-2.5-.3-.5 1.8-.8 25.1.6 26.6zm-.6 1l.3 26.9c.9.1 1.9.2 2.8.3.1-4.2.7-25.7-.9-26.9-.7-.1-1.5-.2-2.2-.3zm1.9 55.7c-2 4.7-1.6 19.1-.6 26.9.9.7 1.9.6 2.5 1.6-.8-.1-1.7-.2-2.5-.3l.3 27.8c.8.1 1.7.2 2.5.3h.3c.2-20.8.8-45.4-.9-60.7-.6-5.5 2.2-19.7-.9-23.1-.9-.7-.8-.5-2.2-.3l.3 26.6c.1.4 1.6.3 1.2 1.2zm-.6 84.7c1.1.1 2.1.2 3.2.3-.5-5.7 0-18.7 0-28.1-1.1-.1-2.1-.2-3.2-.3v28.1zm3.5 30.4c-.1-9.8-.3-19.6-.4-29.4-.9-.1-1.9-.2-2.8-.3l.3 28.5c1.2.1 1.9.3 2.5.9-.8-.1-1.7-.2-2.5-.3v.5l2.9.1zm4.4-.6h-2.8l-.9.6 3.7-.6zm13.6 0c-1 0-2.6.4-1.9-.6h1.6c.5-.1-1.4-.9-1.6-.9-.2-1.3-.4-2.5-.6-3.8-1.3-.6-2.5-1.3-3.8-1.9 1.1.4 2.1.8 3.2 1.3-.4-1.1-.8-2.1-1.3-3.2l.9.3c.1.6.2 1.3.3 1.9h.3v-17.7l.9-.3.9.3c-.9-.6-1.4-.6-2.5-.3-.3-.8-.6-1.7-.9-2.5-2.6-.1-3.7-1.2-7.3-1.3v3.5h-.3c-.1-.4-.2-.8-.3-1.3v-2.2h-5.4c.2 9.4.4 18.8.6 28.1h5.4c.1-.7.2-1.5.3-2.2.1.8.2 1.7.3 2.5 1.7.2 3.8.6 5.1-.3h.6c-.2-.7-.4-1.5-.6-2.2l.6.3c.5 2 3 3.7 5.5 2.5zm.6-2.3c-.2-4.1-.6-15-2.2-17.1h-.3l.6.9c-1 4.2.2 14.5 1.9 16.2zm7.9 2.3c-1.6-1.8-4.7-1.1-7.3-1.6.2 1.4.2 1.5.9 2.2.1-.8-.3-.2.3-.9 1.4.9 3.4-.5 6.1.3zm-1.9-8.5l-.3.9.6.3c-.1-1.3.4-.5-.3-1.2zm2.9-23.5c0-1.2-.2-1.6.6-2.5.2 1.2.4 2.3.6 3.5h.3l-.3-25-5.1-.3.6 23.4.6-.3c.1-.4.7-2.2.9-1.3 1 .2.5-.3.9.9l-2.5 2.5 1.3.9c-.2-.4-.4-.8-.6-1.3 1.4-.2.2 0 1.3-.9.8.7.3.3 1.4.4zm2.8 31.6c-.9-.1-.2.2-.6-.6h-2.2c.1.4.2.8.3 1.3 1.1-.6 1.7-.1 2.5-.7zm2.1-2.8c-.4-.1-.8-.1-1.1-.2l-.7.8.9-.3c.7 0 .9 0 .9-.3zm3 3.2l-.9-.6v1.3c.2-.3.6-.5.9-.7zm2.8.9c-.6-.5-1.3-1.1-1.9-1.6.4 1.1.6 1.2 1.9 1.6zm1.6-35.7l.9-.6c-.5-1.5-.1-9.2-1.9-7.9v-1.3c1.2-.5-.3-.6.9-.9.1 1.3.1 1.2.6 1.9l-.3-10.8h-.3c.1 2.4.3 6.3-.9 7.3.1-2.5.2-5.1.3-7.6-1.3-.1-2.5-.2-3.8-.3.2 3.4-.2 8.5-.3 13.5 0-5.7-.3-11-1.9-14.4-1.2-.1-2.3-.2-3.5-.3-1.4 5.7 1 27.6 1.6 27.8.5-.4.2-.1 2.2.3.1-.9-.3-.5.6-1.3.1.5.2 1.1.3 1.6h.3c0-3.5.2-7.3.3-11 0 4.1.3 8 1.3 10.7.7-1.1 1.2-.3 2.5-1.6-.6-.5-1.3-1.1-1.9-1.6v-.3l.3-.3c.6.4 1.3.8 1.9 1.3-.1-1.4-.3-2.7.3-3.5v.6c.2.7.4 1.5.6 2.2l.6-.3v-.4c-.1-.9-.4-1.9-.7-2.8zm2.5 34.4h-1.3l.9.9c.2-.2.3-.5.4-.9zm1.9-24.9c-.7-1.2-.4-.6-1.9-.9-.6.9.8.7 1.6.9h.3zm1-3.5l-.3-.6c.3-1.8-.7-2.4 0-2.8-1.1-.2-2.1-.4-3.2-.6-.1 1.8 0 3.2.6 4.1v.6c2.7-.4 1-1.6 2.9-.7zm.2 7c0-1.3-.1-2.5-.5-3.2v3.2h.5zm.7-13.4c-.1-1.4-.1-1.5-.6-2.2.1 1.4.1 1.6.6 2.2zm0-46.8l.6.3.6-.6-.9-.3-.3.6zm.3 2.2h.9v-.3l-.6-.9-.3 1.2zm.4 4.5l.6-.3c-.2-.4-.4-.8-.6-1.3v1.6zm2.8 41.7c-.9-.4.1-1.7-.3-2.5-.7.7 0 .1-.9.3.6-.9.8-.6.6-1.6-.9.9-1.2 1.1-1.9.6.5 1.9.6 1 1.9 2.5-1.1.9-.7.3-.6 1.9l.3-.9c.9-.1.2.4.9-.3zm0-9.8l-.6-.6v2.2h.3c-.1-1.6 0-1.2.3-1.6zm0-3.5h-1.3c.2.4.4.8.6 1.3.2-.9 0-.4.7-1.3zm0-41.7l-.3-5.4c-.3 1.4-.4 3.9.3 5.4zm1.6 121.1c-.4-.1-.8-.2-1.3-.3 0 1.8-.2 1.9.9 2.5v-.6c.2-.5.3-1 .4-1.6zm1.2-30.9c-.4-.1-.8-.2-1.3-.3.1 1.4.3 1.1.3 1.4h.6l.4-.7v-.4zm.7-33c.1-2.3 1-2.1 1.3-2.5V549l-.9.6c.3-.4.6-.8.9-1.3-.4.1-.8.2-1.3.3.6-1.3.7-1.9.3-2.8v-.1h-.1c-.1-.3-.3-.6-.6-.9.4.2.8.4 1.3.6-1.1-4 .2-8.9-1.6-11.7 1.2-.4.7 0 1.3-.9-.5-.1-1.1-.2-1.6-.3.4-.1.8-.2 1.3-.3l-1.3-.3c-.4 2.2-.1 2.3.6 3.2-.5.8-.9-.2-.6.6-.5 2.6-.2 18.8.6 19.9h.4zm.6 31.5v1.2h.3l.3-1.2h-.6zm.8 36.4c-.1-1.8-.2-3.6-.2-5.3h-.8c.1 1.8.2 3.6.4 5.4l.6-.1zm.5-4v3.5l.6-.3c.1-1.5.1-2.5-.6-3.2zm.9-91.4c.9 1 .8 1.5.6 2.5 6.2.1 12.4.2 18.7.3v-.3l-17.7-.9c.1-6.2 1.2-17.6-.9-22.5-.1 1.1-.2 2.1-.3 3.2h-.3c-.1-.5-.2-1.1-.3-1.6 0-.1.7-2.6-1.3-2.5l-.3-.6c1.4 6.7 1 16.7.6 22.5h.3c.9-.3.2-.6.9-.1zm7.3 23.7c.5.4 1.1.8 1.6 1.3-.4-1.2-.5-1.2-1.3-1.9l-.6.3c.2 1.2.2 1.3.9 1.9-.2-.5-.4-1-.6-1.6zm3.8-19.8c-1.5-.2-3-.4-4.4-.6 1.4.8 2.4.8 4.4.6zm-6.3 30.3l.9-.3c-.8-.2-1.7-.4-2.5-.6-.6.9.8.7 1.6.9zm-1.6-9.2c-.5-.6-.8-.6-1.6-.9l.3.9h1.3zm-1.6 67.4c-.6 1.1-1 1.8-1.2 3h1.9c.1-.7.1-1.3-.7-3zm.2-54.6h.3c-.2-.3-.3-.5-.5-.8.1.3.2.6.2.8zm4.8 23.6c.1-.2.3-.4.4-.6-.3-.6-.6-1.3-.8-1.9h-.2c-.1.9-.2 1.7-.3 2.6l.9-.1zm3.8 34c-.5-1.6-.9-3.4-1.1-4.9h-1.3c.1.3.1.5.2.7-1 1.1-1 .2-1.6 2.2.5-.4 1.1-.8 1.6-1.3.6.7 1.1 1.9 1.5 3.2l.7.1zm2.6-57.7l.6.6c0 .1 0 .1-.1.2h.7c.2-.2.5-.4.9-.5-.4-.8.3-.5-.9-.9.5-1.3 0-.7.9-.9 0-1 .3-.2-.3-.9l.3-.9c-.8-.1-1.7-.2-2.5-.3.6.6.3.4 1.6.6h-13c1.6 2.5 10.2.7 12.7 1.9-1.7.8-8.7.3-11.1 0l-.6.6c3.6.1 7.2.3 10.8.5zm.3 23.7c.2-.8.5-1.7.8-2.6h-.9c-.1.8-.2 1.7-.3 2.5l.4.1zm6.7 31c-.5-.7-.5-1.1-.3-1.6h-.8c-.7.7-1.6 1.2-3 1.3l1.3.3c-.4 2.1-.9 1.8-2.2 2.2.2-1 .3-2.4.2-4l-1.5-.1c.2 1.7.4 3.3.9 4.6-.6-.6-.3-.1-.6-1.3 0 .4-.1.9-.1 1.3h1.7v-.4l.4.4h.7c.4-1.5 1.2-2.3 3.3-2.7zm4.1 0c-1.1-.1-2.1-.2-3.2-.3 1 .5 1.7.2 2.5.9l.7-.6zm.6-32.6c.4.5 1.9.9 3.2.3-1.1-.1-2.1-.2-3.2-.3zm7.6 32.6c-2.3-.1-4.6-.2-7-.3v.6l6.6.3c.2-.1.3-.3.4-.6zm5.7-51.8c-.3-.4-.6-.8-.9-1.3l-.3.6.9.6.3.1zm2.5-4.8c-.2-.4-.4-.8-.6-1.3-.1.4-.2.8-.3 1.3h.9zm12-1.2c-1.4-.2-2.7-.4-4.1-.6.6.6 1.9.7 2.8.9.5-.1.9-.2 1.3-.3zm-2.2 1.2l-.3.6c.5.2 4.1.1 5.7.6v-1.3c-1.1.7-3.5.4-5.4.1zm-1.9 11.4l.6.3c-.1-.5-.2-1.1-.3-1.6-.1.5-.2.9-.3 1.3zm9.2-7.9c-1.8-1-3.9-1.1-7.3-.9.1 3.2.2 6.3.3 9.5 1.6.4.9.2 2.2 0-.2.8-.4 1.7-.6 2.5-.8-.8-1-.8-1.3-2.2-.1.7-.2 1.5-.3 2.2h-.3c-.7-.8-.9-1.3-.9-2.8l-.6.3c-.1 1.8.3 3.8.3 6 1.3-1.3 1.2.2 2.5-1.3h.3c-.5 1.4-.3 1.1-1.6 1.6l.3 5.7.3.6c.9-.6.3.3.9-.6 1.1-.8.5-2.7.3-4.7l.3.6c.9.2.8 2.4.9 4.1.9.2 1.9.4 2.8.6.2-.6.4-1.3.6-1.9.1.4.2.8.3 1.3v.6h.3c.3-6-2.2-15.2.3-21.2zm2.2-2.8c-.5-.1-1.1-.2-1.6-.3l-.9.3c.7.6.6.3 1.6.6l.9-.3v-.3zm0-1.9h-2.5c.5.2 1.1.4 1.6.6l.9-.3v-.3zm2.2-28.8c-.4-.5-2.2-1-3.5-.3l.9.3c-9.9-.8-20.8.1-28.5-2.8-.3.9-.4.1 0 .9-.8.1-1.7.2-2.5.3 1.4 1 1.7 2 2.8 3.2.2-.6.8-1 1.4-1.9h.9c.1-.1.1-.2.2-.3 6.7.1 11.2 1.5 16.6.6 1.1.9 1.2.7 1.3 2.8l.6.3c.3-.8.6-1.7.9-2.5 2.9-.6 6.6-.1 7.9 1.3l.9-.3c.8-1.5 1-.5.1-1.6zm7.6-109.5h.6c-.5-.1-1.1-.2-1.6-.3-.1-.6-.2-1.3-.3-1.9-.3.5-.6 1.1-.9 1.6-4.3-1.3-8.3-1.3-13-1.9-1-3.6-1.8-18.5-.9-22.9.2.1.4.3.5.5h.3v-1.7c1-.4 2.4-.4 3.2-.6l.6-.9v-.3c-2.8.2-4.2-.4-7-.6v-1.3c-3.9.7-6.7 1.4-12.3 1.3v.6c.9.2 1.9.4 2.8.6.1 1.4.2 2.7.3 4.1.2-.7.4-1.5.6-2.2 4 0 7.4.2 9.5.9l.9 22.8c-5.3-.1-9.3-1.3-13.6-1.6-.4 1 0 .7-.6 1.3 3.2 4.1 23.8-.6 29.4 3.2.4.6 1.1-.1 1.5-.7zm-18.3-4.2c.3 0 .6.1 1 .1-.2-6.6-.4-13.3-.6-19.9h-.7c-2-.7-3.9-.7-6.9-.6l.6 20.2 6.6.6v-.4zm18.9 61.5l.6.3c-.1-1.3-.3-1 .3-1.9.9-.9 3.3-.5 4.1.6.3-.5.6-1.1.9-1.6-.9-.4-4-.1-5.4 0-.2-.6-.4-1.3-.6-1.9-.1.4-.2.8-.3 1.3-2.1.8 0 .4.4 3.2zm8.9 97.1l-.6-.6c-.1.7-.2 1.5-.3 2.2h.3c.6-.7.3-.6.6-1.6zm1.3-47.1h-.9c-1.3 2-3.2 4.6-6.3 2.8-.7-.7-.6-.8-.6-2.2-.2.8-.4 1.7-.6 2.5-.5-.1-1.1-.2-1.6-.3 1.2.8 1.5.4 1.9 2.2 2.4-1.2 3.6-1.2 6.3-.9.4-2.5.7-2.4 1.8-4.1zm.3-258.1c.6 2.9 3.1 7.4 2.2 10.1v.3h1.3v-2.2c.2 3.1.4 6.1.6 9.2h-.3v-1.9l-.6.6c0 2 0 1.6 1.3 1.6-.1.7-.2 1.5-.3 2.2-.2-.4-.4-.8-.6-1.3-.4 2.4 0 3.2-1.3 5.7v.3c1.8-.5 3-4.7 3.5-9.8.1 1.7.3 3.3.3 4.8l.9-.3c.3-2.7.4-16.8-.9-19-.1-.6-.1-1.3-.2-1.8.4-1.4.3-2.8-.4-3.9 0 .3-.1.5-.1.8-.2-.9-.5-1.5-.8-1.7-1.7 2-3.1 4.2-4.6 6.3zm2.2 52.5c.5 3.5 3 3.5 2.5 7l.3.9h.3l.3-5.1c2.4 2.9 2.3 16.4.9 19l.3.6.9.6c.1-.5.2-1.1.3-1.6.4-2.2-.3-13.7-.8-21.1.4-.8.8-1.6.5-2.6-.2.2-.4.5-.6.7-.2-2.5-.3-4.2-.3-4.2-1.4 2-3 3.9-4.6 5.8zm3.2 57.2c2.1 6.1 1.6 13.8 1.6 21.2l.9-.3-.3-19h.3c1.1 2.5 2.2 15 .9 17.4v.3l.9.3.6-.6-1.2-21c.6-1.5 1.2-2.9.5-4.6-.2.3-.5.6-.7.9 0-.3 0-.7-.1-1l.2-.2h-.2c0-.8-.1-1.7-.1-2.5-1.7 2.2-3.4 5-5.7 6.6.6 1.8 1.9 1.1 2.4 2.5zm3.4 36.4c.4.2.8.4 1.3.6-.8-1.5-2-2.8-.9-6h-.9c.2-.6.4-1.3.6-1.9-.4-1.3-.4-2.1-1.3-2.8-.1.5.4 2.7.3 4.7h.3c.1 2.6.2 5.3.3 7.9.7.2.4.1 1.3.6-.3-1.5-.3-1.8-1-3.1zm-3.1 5.7c1.5-2.3 1.2-5.9-.3-7.3.1 1.2.2 2.3.3 3.5-.2-.6 0 .4.6 1.3h-.9c.4 1 .3.8.3 2.5zm1.9 12.6c.6 6.7 1.3 13.5 1.9 20.2v1.9h.3c.3-.9.6-1.9.9-2.8 1.1 1.1.7.8 0 2.2.8-.2 2.1-.1 1.9-1.3-.3-6.6-.5-13.2-.8-19.8l.5.5.3-.6-.6-.6-.2.4c0-.5 0-1-.1-1.5.5-1.3.8-2.7-.1-3.6 0 0 0 .1-.1.1-.1-1.9-.1-3.7-.2-5.6 0 0-.1.1-.3.4.2 2.7-4.5 6.5-5.7 9.2.8.3 1.5.6 2.3.9zm1.9 55.7c1.2 8.1 2.8 19.6.9 25.9.5.1 1.1.2 1.6.3.7-2.4.8-2.8 2.8-3.8-.4-7.9-.9-15.8-1.3-23.7.4-.6.9-1.3 1.3-1.9l-.6-.9c-.2.5-.5.9-.7 1.3 0-.4 0-.7-.1-1.1.3-.2.5-.3.8-.5 0-1.4.3-.7-.3-1.6-.4 1-.1 1-.5 1.2 0-.6-.1-1.3-.1-1.9-2 1.7-4.2 3.5-5.4 6l.6.3c.6.9 0 .5 1 .4zm6.9 57.3c0 .1-.1.1-.1.2v-.6c.5-1.1.7-2.2.1-3.1v-.9l.7-.7-.6-.6V544c-.1.5-1.2-.1-1.3-.3.1-.5.2-1.1.3-1.6-.6-.1-1.3-.2-1.9-.3l-.3 5.4c-1.3 1.4-1.9 1.1-3.2 3.2 2.6 3.2 2.7 6.9 2.7 11.4h3.4v-3.5c.2 2 .3 4 .2 5.8l.6.3c.8-3.6 1.1-11.7-.6-13.4zM657.4 328.2c.1-3.3 0-6.8-.3-10-.2 3.3 0 6.7.3 10zm118.5 188.3v-.6c1-.9.4-18.4-.9-20.2l.6 20.9.3-.1zm-89.6-262.9c.4-.2.8-.4 1.3-.6-.1.7-.2 1.5-.3 2.2 1.3-.1 2.5-.2 3.8-.3-.3-.8-.6-1.7-.9-2.5-1.1.4-1.5-.5-3.5-1.6-1.3 1-1.7 1.6-.4 2.8zm88 202.5c-.5-1.7.6-4.7-.9-6.3-.1 2-.7 5.1.9 6.3zm-134.4-60.7v.6c7.2.3 14.5.6 21.7.9-7.2-.5-14.4-1-21.7-1.5zm-4.8-74.1v11.4c1-2.1.8-9.5 0-11.4zm21.5 206.5l.6-.3c.1-1.1.2-2.1.3-3.2-.4-.2-.8-.4-1.3-.6.6 1.8.6 2.3.4 4.1zM631 459.2l.6.6c.1-2.2.5-6.1-.6-7.3v6.7zm-.3-26.9v4.7h.3c.7-1.5.2-3.8-.3-4.7zm.3-.3l-.3-10.1V432h.3zm-7.9-191.1v12.3h.3c.7-1.8 1-9.7-.3-12.3zm0-11v7c1.2-2.6.6-6.2 0-7zm9.2 351.4h.3c1.4-3.3.7-13.8-.3-15.5v15.5zm4.9-86.8c.2-5 .4-10.2 0-14.6-.3 4.5-.4 9.9 0 14.6zm17.5-4.7c.1-3.1.1-6.3-.1-9 0 2.8 0 6 .1 9zm270.4-253.9c.2-1.6.4-3.3-.3-4.7-.1 2.7-.3 2.4 0 4.7h.3zm-11.9-79.1l14 1.4c-.2 0-.3.1-.5.1 2.4.4 4.7.9 5.4 1.4 1 .6 1 1.2 1.3 2.5h.3c.3-.3.6-.6.8-.9-.3-.3-.5-.6-.7-1v.1-.2c-.2-.3-.3-.7-.4-1.1-.3-.1-.5-.2-.8-.3l-2.3-.4.1-.3c-.5 0-1-.1-1.5-.1-.1 0-.2 0-.4.1l-11.2-2.1-77.8-8.5c-.3.4-.3.5-.1.6l-.1.7.8.6 3.9.4c1.2.9 1.7.7 3.2.3l7.1.7c1.4 1 2 .6 3.5.7l.9-.3 3 .3c1.8 1.2 14.1 1.5 14.1 1.5 0 .3 3.5.6 4.6.5l6 .6c4.4 1.9 20.5 2.2 28.9 3.3-.8-.3-1.4-.4-2.1-.6zM932.7 345c.8-1.4.6-3.8-.3-5.1.1 2.1.2 1.6-.6 2.8.5 1 .7 1 .9 2.3zM457.3 639.2c-.5-2.4.5-4.7-.6-7-.2 2.3-.7 6.7.3 8.2l.3-1.2zm465.3-438.1c-.2 2.7 0 2.2.3 4.7.8-1.4.5-3.3-.3-4.7zm-256.2 27.5h.3c.3-2.3.5-4.9-.3-6v6zm126.2-37.3c-.4-.1-.8-.2-1.3-.3.1 1.4.2 2.7.3 4.1.4-1.3.7-2.6 1-3.8zm-157.5 92l-.3-7.2h-.3c-.6 1.7.7 5.5-.9 7 .5.1 1 .1 1.5.2zm4.7-15.5v3.8l.6.6c-.1-1.4-.3-2.9-.6-4.4zM765.1 241c1.3-1.9-.3-15.2-.9-15.8-.9 4.5-.7 13.2.9 16.4v-.6zm-98.7-23.5v4.7h.3c.2-1.2.3-3.7-.3-4.7zm157.5 224.3c.6.7 1.3 1.5 1.9 2.2v.6c.1-.6.2-1.3.3-1.9.9-.1 1.9-.2 2.8-.3-1.6-.2-3.3-.4-5-.6zm28.8 59.8l5.4.6v.3c-4.5 0-7.1-.7-11.1-.9-.2 1.1-.1 1-.6 1.6-.2-1.1-.2-.9-.6-1.6-1.6.1-3.2.2-4.7.3 0 1.6-.2 3.5-.6 4.1.1-2 .1-3.3-.9-4.1-1.4-.3-2.7-.6-4.1-.9v2.5l-.6-.3c-.2-1.6.1-1.2-.9-1.9-1.5-.1-3-.2-4.4-.3v5.7h-.6v-1.9c-.1-.9-.2-1.9-.3-2.8-.5-.4-1.1-.8-1.6-1.3-3.7-.2-5.8-1.4-9.5 0-.1 1.2-.1 2.9-.2 4.7-.3-2.1-.7-4-1.4-5.3 1-1.5 2.8-1.5 4.7-1.3-.4.9-.2.1-.3.9 8.9.3 17.7.6 26.6.9-1.2-.2-2.3-.4-3.5-.6 2.2.1 2.6 0 3.5-1.3-.2-1.2-.4-2.3-.6-3.5v4.1c-8.6-.6-17.3-1.3-25.9-1.9 1.4-7.6-1.1-12.7-1.3-22.4l23.7 1.2c.4 7.3.8 14.6 1.3 21.8h.3l-.9-22.5c-1.8-.1-3.6-.2-5.5-.3h.9c1.9.1 3.7.1 5.6.2.3 6.1.6 12.3.9 18.4.2-.7.4-1.5.6-2.2.1.5.2 1.1.3 1.6.6-1.6.5-6.5-.1-11-.1 0-.1-.1-.2-.1V481c0-.3-.1-.6-.1-.9h.8c-.1-2-.2-4-.3-6.1.3.1.6.2.9.4.1-.4.2-.8.3-1.3-.4 0-.9 0-1.3-.1l-.3-.3c-9.9-.4-19.9-.8-29.8-1.3-.3-.2-.6-.4-1.2-.7-.5-11.8-1.1-23.6-1.6-35.4l.6.3c.1 1.5.2 3 .3 4.4 3.3.2 6.1.1 6 4.1h-.3c-.1-.8-.2-1.7-.3-2.5l-5.1.6c.4 9.3.8 18.6 1.3 27.8h5.4c.1-1.3.2-2.5.3-3.8.1 1.4.2 2.7.3 4.1l5.1.6c.1-.8.2-1.7.3-2.5 0 1.4 0 1.6.6 2.2h5.1c.1-.7.2-1.5.3-2.2.2.9.4 1.9.6 2.8 1.6.1 3.2.2 4.7.3-.1-.7-.2-1.5-.3-2.2.4.6.7 1.3 1.1 1.9h-.8c.3 0 .6 0 .8.1 0 .1.1.1.1.2h2.4c1.5.1 3 .2 4.6.4-.2-.1-.5-.2-.8-.3l3.9.6v3.2h-.3c-.1-.8-.2-1.7-.3-2.5h-.9l-.3.3c.1 5.1.1 24.4 2.2 27.2.5-.6.4-.4.6-1.6l.6.3c.4 1.7.4 1.8 1.4 2.5zm-19-30.4l-5.7-.3 5.7.6v-.3zm13 38.9l.6.3c-.2-2.4-.4-4.9-.6-7.3v7zm-28.8 8.1c0-3.9.1-8.8-.4-12.8-.1 3.9 0 9 .4 12.8zm26.6-43.5c.1.2.2.5.4.9h.3-.3c.3.8.6 1.9.8 3.1-.1-1.4-.2-2.9-.2-4.3l-.6-.3c-5.2-.8-23.8 0-28.2-2.1.2.3.4.7.6 1.4 1.3.5 2.8.9 4.2 1.1 4.8.2 9.7.5 14.5.7 1 0 2 .1 3 .1 1.9 0 3.7.1 5.6.2-.1-.2-.1-.5-.1-.8zm-30.7-61.3c2.7.2 5.3.4 8 .6.3-.1.6-.2.8-.3.5.1 1.1.2 1.6.3-.1.1-.2.1-.3.2 2.7.2 5.5.4 8.2.6-.1-.1-.2-.1-.3-.2l6 .3c-.2.1-.4.2-.7.2 2 .2 4 .3 6.1.5.4.2.7.4 1.1.6-.1-.3-.3-.5-.5-.6v-.3c.9.2 1.9.4 2.8.6v-1.3c-2.1-.1-4.1-.1-4.7-1.9-1.5 1.8-3.1 1.2-5.7.9-.1-.5-.2-1.1-.3-1.6v-.6c-.1.8-.2 1.7-.3 2.5-1.8.2-4.9 0-5.1-2.8-.2.7-.4 1.5-.6 2.2-3.4-.2-6.7-.4-10.1-.6-.3-.6-.6-1.3-.9-1.9-.3.6-.6 1.3-.9 1.9-1.5-.1-3-.2-4.4-.3l-.6-6.6-.6-.3v7.3c.7.3 1.1.4 1.4.6zm33.8 26.5h.3c.4 2.2 1.7 2.7.6 3.5-1.1 1.1-2.8.3-4.1-.3l-.6.3c-.1.8-.2 1.7-.3 2.5v-.6c-1-1.6-1.9-1.8-2.8-3.2 1.1-.1 2.1-.2 3.2-.3-.6-7.6-1.3-15.2-1.9-22.8l-.6-.9c-8.2-.6-16.4-1.3-24.7-1.9h4.7c-2.4-.4-4.9-.8-7.3-1.3 0-.3 0-.5-.1-.7 5.9 2.9 21.1-.2 27.6 2.3.9.6 1.4 4.7 1.8 9-.1-.2-.1-.3-.2-.5.1 1 0 1.2.2 1.5 0 .4 0 .7.1 1.1h-.3l.3.3c0 .5.1 1 .1 1.6h-.1v.9c0-.1.1-.3.1-.4 0 .6 0 1.2.1 1.8-.1-.3-.1-.5-.2-.8v1.3h.2v.7c-.1 0-.2-.1-.2-.1v1.3c.1-.1.2-.3.3-.4v1.5c-.1-.2-.2-.4-.3-.5.2 1.4.2 4.1.9 5.1-.2-1.1-.2-3.3-.6-4.5v-1.6c.1-.2.2-.3.3-.5-.1-.1-.2-.1-.4-.2v-.8h.1c0-.1-.1-.2-.1-.4 0-.6-.1-1.3-.1-2 .1-.2.1-.4.2-.5h-.2v-1.5l.2.2c-.1-.2-.2-.3-.3-.5v-1.1l.3.3-.3-.9c-.1-3.3-.2-6.5-.3-9.8l.9.3h.3c1.8 4.5.6 20.8 2.2 25.3l.6-.3c.2-.5.3-1 .4-1.5zM823 416.5l-.9-.6-.3.6h1.2zm-23.3-38.1c-.1-.2-.3-.3-.4-.5 1.5 32.3 8.3 190.7 9.8 222.9h.3c.1-.4.2-.7.3-1.1v-2.1c-.6-15.5-8.3-195.5-9.7-213.7-.1-2.2-.3-4-.3-5.5zm10 225.4c.2 9.4.6 18.8 1.3 28.2-.4-9.3-.8-18.8-1.3-28.2zm32.9-163.3c-8.2-.6-16.4-1.3-24.7-1.9-.4-7.1-.8-14.1-1.3-21.2 8.3.6 16.7 1.3 25 1.9.4 7.1.7 14.1 1 21.2zm-17.4-6h-.3l-.3.6.6-.6zm1.6-6v.6c.3-.5.3 0 0-.6zm8.2 7.3v.6c.3-.6.3-.1 0-.6zm3.5.6l-.6-.9c-.3 1-.5.1-.9-.3.3-.5.2 0 0-.6-.4 1-.4.2-1.3 0 .7 1.3.5 1.6 1.6 1.6.3 0 .8.1 1.2.2zm.3-4.1h-.3l-.3.9.6-.9zm.6 3.8h-.3c.1.8-.3.2.3.9v-.9zm-4.7 6.3c.5.3 1.1.6 1.6.9.8.7.8 1.2 1.3 2.2V444c1-.8 1.2-1 3.2-.9-2.1-.3-4.1-.5-6.1-.7zM705 205.2l.6.6c-.6-.4-.2 0-.6-.6zM655.7 184c-.6-.4-.2 0-.6-.6.1.2.3.4.6.6zm24.6 2.2l-.6-.6c.6.4.2 0 .6.6zM922 345.3c.6.4.2 0 .6.6l-.6-.6zm13.3-103.7c.6.4.2 0 .6.6l-.6-.6zm-206.6-52.2l-.6-.6c.6.4.2 0 .6.6zm-18.6 14c0-.1 0-.1 0 0 0-.1 0-.1 0 0zm138.8 127.7c-.6-.4-.2 0-.6-.6l.6.6zm1.3 27.8l-.6-.6c.6.4.1 0 .6.6zm-218.3 57.6c.6.4.2 0 .6.6-.1-.2-.4-.4-.6-.6zm16.6-178.4s-.1.1 0 0h-.1.1zM562 444.6l-.6-.6c.6.4.2 0 .6.6zm65.8-270.4l.6.6c-.5-.4-.1 0-.6-.6zm-53.4 271.7l.6.6c-.6-.4-.2 0-.6-.6zm-9.2 17.1l.6.6c-.6-.4-.2 0-.6-.6zm266.6-136c-.6-.4-.2 0-.6-.6.2.1.4.4.6.6zm51.3 98c.6.4.2 0 .6.6l-.6-.6zm-1.9-136l-.6-.6c.6.4.1 0 .6.6zm-56.6 123c-.6-.4-.2 0-.6-.6.1.2.3.4.6.6zM374.2 684.1c-.6-.4-.2 0-.6-.6.1.2.4.4.6.6zm2.5-27.2c.6.4.2 0 .6.6l-.6-.6zm1.3-28.5c-.6-.4-.2 0-.6-.6.1.2.3.4.6.6zm-.7-7.6c.6.4.2 0 .6.6-.2-.1-.4-.3-.6-.6zm2.6-55.6c-.6-.4-.2 0-.6-.6.1.2.3.4.6.6zm-12.1 56.9l-.6-.6c.6.4.2 0 .6.6zm-.6 14.6l-.6-.6c.6.4.2 0 .6.6zm-6.6 44.9c-.6-.4-.2 0-.6-.6.1.2.4.4.6.6zm-20.9-10.8s0 .1 0 0c0 .1 0 0 0 0zm594-319.8l-.6-.6c.6.4.1 0 .6.6zm-31.3-60.7c.6.4.2 0 .6.6l-.6-.6zm.6-77.5c-.6-.4-.2 0-.6-.6l.6.6zm-5.7 157.8c-.6-.4-.2 0-.6-.6l.6.6zm11.1-79.4c-.6-.4-.2 0-.6-.6l.6.6zM322.3 650.9h-.9.9zm323.6-386.6l-.6-.6c.5.4.1 0 .6.6zm87.9 240.8c-.1-.1-.1-.1-.2-.1h.1l.1.1zm-63.7-146.9c.1.1.3.2.4.3-.4-.2-.3-.1-.4-.3zm.4-11.6l.6.6c-.5-.4-.1 0-.6-.6zm-8.5 95.8l.6.6c-.6-.4-.2 0-.6-.6zm-1-.6l-.6-.6c.6.4.2 0 .6.6zm-11.7-17.1l.6.6c-.5-.4-.1 0-.6-.6zM405.5 693.9l.6.6c-.6-.4-.2 0-.6-.6zM651.2 401l-.6-.6c.6.4.2 0 .6.6zm-.9-.3l-.6-.6c.6.4.1 0 .6.6zm-9.5 2.5l.6.6c-.6-.4-.2 0-.6-.6zm3.2-1.5c.6.4.2 0 .6.6l-.6-.6zm.9 5l.6.6c-.6-.4-.2 0-.6-.6zm2.5-7.3l.6.6c-.5-.4-.1 0-.6-.6zm2.6 5.1c.6.4.2 0 .6.6l-.6-.6zm46.1-156.6c.6.4.2 0 .6.6l-.6-.6zm-11.7 152.5l.6.6c-.5-.4-.1 0-.6-.6zm12.7 131.3c.6.4.2 0 .6.6l-.6-.6zm-26.3-1.3l-.6-.6c.6.4.2 0 .6.6zm83.5 7.6l.6.6c-.5-.4-.1 0-.6-.6zm10.5-253.7l.6.6c-.6-.4-.2 0-.6-.6zm9.5 142.7v.6c0-.1-.1-.2 0-.6zm-.3-11.7l-.6-.6c.5.4.1 0 .6.6zm-26.9-96.8l-.6-.6c.5.4.1 0 .6.6zM711 377.9c-.6-.4-.2 0-.6-.6l.6.6zm-120.5 100c-.6-.4-.2 0-.6-.6l.6.6zm-25.6 130c.6.4.2 0 .6.6l-.6-.6zm13.6-38.9l-.6-.6c.6.4.1 0 .6.6zm-1.6-84.5l-.6-.6c.6.4.2 0 .6.6zm-3.5 53.5l-.6-.6c.6.4.2 0 .6.6zm-7.2 43c.3-.1.5-.3.6-.4v.1l-.6.3zm.6-14.9l.6.6c-.6-.4-.2 0-.6-.6zm.3-65.8l-.6-.6c.6.4.2 0 .6.6zm-57.6 36.1c-.6-.4-.2 0-.6-.6l.6.6zm-62 49l-.6-.6c.6.4.2 0 .6.6zm-12.3 28.8l-.6-.6c.6.4.2 0 .6.6zm.3-15.5l-.6-.6c.6.4.2 0 .6.6zm-.3-7.3c.6.4.2 0 .6.6-.2-.1-.4-.4-.6-.6zm1.6-12.9l.6.6c-.6-.4-.2 0-.6-.6zm-3.8 3.4c-.6-.4-.2 0-.6-.6l.6.6zm-1-8.2c-.6-.4-.2 0-.6-.6l.6.6zm-1.9 15.2c-.6-.4-.2 0-.6-.6l.6.6zm-6.3 78.1l-.6-.6c.6.4.2 0 .6.6zm-12.6-36.7l-.6-.6c.5.4.1 0 .6.6zm359.6-245.8l-.3-.6c.1 0 .1.1.1.1.1.2.1.4.2.5zm-99-143.9l-.6-.6c.6.4.1 0 .6.6zm22.8-18l-.6-.6c.5.4.1 0 .6.6zM436.2 627.5c-.1-.1-.1-.1 0 0-.1-.1-.1 0 0 0zM686 378.8l.6.6c-.6-.4-.1 0-.6-.6zm17.1-60.6l.6-.6c-.4.5 0 .1-.6.6zm-23.4 83.7l.6.6c-.6-.4-.2 0-.6-.6zm-23 120.8c0-.1 0-.1.1-.2 0 .2.1.4.1.6 0-.2-.1-.3-.2-.4zm1.5-10.4c-.6-.4-.2 0-.6-.6l.6.6zM354.6 651.5c-.1.1-.1.1 0 0-.1 0-.1 0 0 0zm295.4-125l.6.6c-.6-.4-.2 0-.6-.6zM395.7 655.9v-.6c.1.6.1.5 0 .6zm-.1 0s.1 0 0 0c.1 0 0 0 0 0zm-2.1-26.5l.3.9c-.1-.3-.3-.6-.4-.8 0 0 0-.1.1-.1zm295.7-132.6l.6.6c-.6-.4-.2 0-.6-.6z" fill="#1d1d1d"/></svg>