<svg xmlns="http://www.w3.org/2000/svg" viewBox="0 0 850 850"><title>Bootstrap</title><path d="M539.2 518.5c0 22-6.5 39.2-19.3 51.2-12.7 12.1-30.9 18.1-54.1 18.1H330.5V451.2h135.3c23.3 0 41.1 5.6 54.1 17.4 13 11.7 19.3 28.3 19.3 49.9zm-37.9-137.9c12.2-10.5 18.4-25.5 18.4-45.1 0-22-5.5-37.6-16.5-46.5-11-8.9-26.9-13.5-47.7-13.5h-125v120.7h124.9c18.3 0 33.6-5.1 45.9-15.6zm298.4-205.4v499.5c0 68.7-56.2 124.9-124.9 124.9H175.2c-68.7 0-124.9-56.2-124.9-124.9V175.2c0-68.7 56.2-124.9 124.9-124.9h499.5c68.8 0 125 56.2 125 124.9zM615.8 528.5c0-29.9-7-54.6-20.8-74.4-13.8-19.7-34.3-32.4-61.2-38.2v-1.2c20.1-8.6 35.5-20.8 46.3-36.5 10.8-15.7 16.2-34.5 16.2-56.6 0-36.4-11.9-63.4-35.5-81.4-23.6-18-55.1-26.9-94.3-26.9H254v437.1h200.8c28.2 0 52.4-3.2 72.8-9.5s37.1-14.9 50.2-25.7 22.7-23.6 28.8-38.6c6.1-15 9.2-31 9.2-48.1z" fill="#563d7c"/></svg>