<svg version="1.1" xmlns="http://www.w3.org/2000/svg" x="0" y="0" viewBox="0 0 850 850" xml:space="preserve"><title>CakePHP</title><path fill="#d33e44" d="M128.6 613.8c-32.1 0-55.9-24.8-55.9-56.1v-.3c0-31 23.4-56.4 56.9-56.4 20.6 0 32.9 6.9 43 16.8l-15.3 17.6c-8.4-7.6-17-12.3-27.9-12.3-18.4 0-31.6 15.3-31.6 34v.3c0 18.7 12.9 34.3 31.6 34.3 12.5 0 20.1-5 28.7-12.8l15.3 15.4c-11.3 12-23.8 19.5-44.8 19.5zm110.3-1.8v-9c-5.8 6.4-13.7 10.6-25.2 10.6-15.7 0-28.7-9-28.7-25.6v-.3c0-18.2 13.9-26.6 33.7-26.6 8.4 0 14.5 1.4 20.4 3.4V563c0-9.8-6.1-15.3-17.9-15.3-9 0-15.4 1.7-23.1 4.5l-5.9-18.1c9.2-4 18.2-6.7 32.4-6.7 25.9 0 37.2 13.4 37.2 36V612h-22.9zm.5-33.7c-4-1.9-9.4-3.1-15.1-3.1-10.1 0-16.4 4.1-16.4 11.5v.3c0 6.4 5.3 10.1 12.9 10.1 11.1 0 18.5-6.1 18.5-14.6l.1-4.2zM336 612l-21.8-34.1-8.3 8.7V612h-23.7V498.2h23.7v60.6l27.7-30.4H362l-31.8 32.9 32.9 50.6-27.1.1zm112.1-33.5H390c2.3 10.7 9.8 16.4 20.4 16.4 7.9 0 13.7-2.5 20.3-8.6l13.6 12c-7.8 9.7-19 15.6-34.1 15.6-25.1 0-43.6-17.6-43.6-43.2v-.3c0-23.8 17-43.5 41.3-43.5 27.9 0 40.7 21.7 40.7 45.3v.3c-.2 2.4-.3 3.8-.5 6zm-40.3-32.6c-9.8 0-16.2 7-18.1 17.8h35.7c-1.4-10.6-7.7-17.8-17.6-17.8z"/><path fill="#414042" d="M510.8 579.2h-18.2V612h-24V502.9h44.6c26 0 41.8 15.4 41.8 37.7v.3c-.1 25.3-19.8 38.3-44.2 38.3zm19.8-38.1c0-10.8-7.5-16.5-19.5-16.5h-18.5v33.3h19c12 0 19-7.2 19-16.5v-.3zM640.9 612v-43.8h-44.3V612h-24V502.9h24V546h44.3v-43.2h24V612h-24zm92.4-32.8H715V612h-24V502.9h44.6c26 0 41.7 15.4 41.7 37.7v.3c0 25.3-19.6 38.3-44 38.3zm19.7-38.1c0-10.8-7.5-16.5-19.5-16.5H715v33.3h19c12 0 19-7.2 19-16.5v-.3z"/><path fill="#d33e44" d="M425 318.3l102.8 25.5c17.9-7 28.7-15.9 28.7-25.5v-41.1c0-22.6-58.9-41-131.5-41s-131.5 18.4-131.5 41v41.1c0 22.6 58.8 41 131.5 41v-41zm102.8 66.5L425 359.3v41l102.8 25.5c17.9-7 28.7-15.9 28.7-25.5v-41c0 9.6-10.8 18.5-28.7 25.5zm-234.3-25.5v41c0 22.6 58.8 41 131.5 41v-41c-72.6 0-131.5-18.4-131.5-41z"/></svg>