<svg version="1.1" id="Livello_1" xmlns="http://www.w3.org/2000/svg" x="0" y="0" viewBox="0 0 850 850" xml:space="preserve"><title>C#</title><path d="M782.3 259.5c0-13.5-2.9-25.4-8.7-35.7-5.7-10.1-14.3-18.5-25.9-25.2-95.1-54.8-190.4-109.5-285.5-164.4-25.6-14.8-50.5-14.3-76 .8-37.9 22.3-227.5 131-284 163.7-23.3 13.5-34.6 34.1-34.6 60.9v331c0 13.2 2.8 24.9 8.4 35 5.7 10.4 14.5 19.1 26.2 25.9 56.5 32.7 246.1 141.4 284 163.7 25.5 15 50.3 15.6 76 .8 95.1-54.9 190.4-109.6 285.5-164.5 11.8-6.8 20.5-15.5 26.2-25.9 5.6-10.1 8.4-21.8 8.4-35 .1-.1.1-220.7 0-331.1" fill="#a179dc"/><path d="M426.1 423.9L76 625.5c5.7 10.4 14.5 19.1 26.2 25.9 56.5 32.7 246.1 141.4 284 163.7 25.5 15 50.3 15.6 76 .8 95.1-54.9 190.4-109.6 285.5-164.5 11.8-6.8 20.5-15.5 26.2-25.9L426.1 423.9" fill="#280068"/><path d="M782.3 259.5c0-13.5-2.9-25.4-8.7-35.7L426.1 423.9 774 625.5c5.6-10.1 8.3-21.8 8.4-35 0 0 0-220.6-.1-331" fill="#390091"/><path fill="#fff" d="M632.2 348.6v37.7h37.7v-37.7h18.8v37.7h37.7v18.8h-37.7v37.7h37.7v18.8h-37.7v37.7h-18.8v-37.7h-37.7v37.7h-18.8v-37.7h-37.7v-18.8h37.7v-37.7h-37.7v-18.8h37.7v-37.7h18.8zm37.7 56.5h-37.7v37.7h37.7v-37.7z"/><path fill="#fff" d="M426.9 159.3c98.3 0 184.1 53.4 230 132.7l-.4-.8-115.6 66.6c-22.8-38.6-64.5-64.6-112.5-65.1h-1.5c-73.1 0-132.3 59.2-132.3 132.3 0 23.9 6.4 46.3 17.4 65.6 22.8 39.8 65.7 66.7 114.8 66.7 49.5 0 92.6-27.2 115.3-67.4l-.6 1L657 557.7c-45.4 78.7-130 131.9-227.2 132.9h-3c-98.6 0-184.6-53.7-230.5-133.5-22.4-38.9-35.2-84.1-35.2-132.2.1-146.6 119-265.6 265.8-265.6z"/></svg>