<svg xmlns="http://www.w3.org/2000/svg" viewBox="0 0 850 850"><title>CSS3</title><path fill="#264de4" d="M690.6 197.4l-48.4 542.2L424.7 800l-217-60.3-48.3-542.3z"/><path fill="#2965f1" d="M600.8 705.1l41.4-463.3H425v512z"/><path fill="#ebebeb" d="M270.2 442.9l6 66.6H425v-66.6H270.2zM425 308.2H258.2l6 66.6H425v-66.6zm0 376.6v-69.2l-.3.1-74.1-20-4.7-53h-66.8l9.3 104.5L424.7 685l.3-.2z"/><path fill="#fff" d="M506.7 509.4l-7.7 86.3-74.2 19.9v69.3l136.3-37.8 1-11.3 15.6-175 1.7-17.9 12-134.7H424.8v66.6h93.7l-6 68.1h-87.7v66.5z"/><path fill="#000" d="M284.4 50h80.5v33.7h-46.8v33.7h46.8v33.7h-80.5V50zm96.7 0h80.5v29.3h-46.8v5.9h46.8v67.4h-80.5v-30.8h46.8V116h-46.8V50zm96.7 0h80.5v29.3h-46.8v5.9h46.8v67.4h-80.5v-30.8h46.8V116h-46.8V50z"/></svg>