<svg xmlns="http://www.w3.org/2000/svg" viewBox="0 0 850 850"><title>Git</title><path d="M795.9 390.7L459.3 54.1c-19.4-19.4-50.8-19.4-70.2 0L319.2 124l88.6 88.6c20.6-7 44.2-2.3 60.6 14.1 16.5 16.5 21.1 40.3 14 61l85.4 85.4c20.7-7.1 44.5-2.5 61 14 23.1 23.1 23.1 60.4 0 83.5s-60.5 23.1-83.6 0c-17.3-17.4-21.6-42.9-12.8-64.2l-79.7-79.7v209.7c5.6 2.8 10.9 6.5 15.6 11.2 23.1 23.1 23.1 60.4 0 83.5s-60.5 23.1-83.5 0c-23.1-23.1-23.1-60.5 0-83.5 5.7-5.7 12.3-10 19.3-12.9V323.2c-7-2.9-13.6-7.2-19.3-12.9-17.5-17.5-21.7-43.1-12.7-64.6l-87.4-87.4L54.1 389.1c-19.4 19.4-19.4 50.8 0 70.2l336.6 336.5c19.4 19.4 50.8 19.4 70.2 0l335-335c19.4-19.3 19.4-50.7 0-70.1z" fill="#e84427"/></svg>