<svg xmlns="http://www.w3.org/2000/svg" viewBox="0 0 850 850"><title>HTML5</title><path fill="#e44d26" d="M197.6 754.6L147 186.9h556.1l-50.6 567.6-227.8 63.1z"/><path fill="#f16529" d="M425.1 769.3l184-51 43.3-485H425.1z"/><path d="M425.1 443.8H333l-6.4-71.3h98.5v-69.6H250.5l1.7 18.7 17.1 191.9h155.8v-69.7zm0 180.9l-.3.1-77.5-20.9-5-55.5h-69.9l9.8 109.3 142.6 39.6.3-.1v-72.5z" fill="#ebebeb"/><path d="M198.7 32.6h35.4v35h32.4v-35h35.4v105.9h-35.4V103h-32.4v35.4h-35.4V32.6zm149.7 35.1h-31.1V32.6H415v35.1h-31.2v70.8h-35.4V67.7zm82.1-35.1h36.9L490 69.8l22.7-37.2h36.9v105.9h-35.2V86L490 123.6h-.6L465.1 86v52.5h-34.6V32.6zm136.7 0h35.4v70.9h49.8v35h-85.1V32.6z"/><path d="M424.8 443.8v69.6h85.7l-8.1 90.3-77.7 21v72.4l142.7-39.6 1-11.8L585 462.5l1.7-18.7H424.8zm0-140.9V372.5H593l1.4-15.6 3.2-35.3 1.7-18.7H424.8z" fill="#fff"/></svg>