<svg version="1.1" id="logo-bg-light" xmlns="http://www.w3.org/2000/svg" x="0" y="0" viewBox="0 0 850 850" xml:space="preserve"><title>Jekyll</title><path d="M742.9 268.5c-.1.6-.1 1.2 0 1.9 0 0 2 13.2-.3 19.1l-95.9 249.3c-6.8 18.3 2.3 38.8 20.6 45.8s38.8-2 46-20.2l95.9-249.3c1.9-4.9 12.6-14.3 12.6-14.3.5-.4 1-.9 1.2-1.4v-.1c.1-.1.1-.2.2-.3 2.5-6.4-13.5-18.5-35.6-27.1-22.1-8.5-42.1-10.2-44.6-3.8 0 .1-.1.2-.1.3v.1z" opacity=".1"/><linearGradient id="tube" gradientUnits="userSpaceOnUse" x1="672.353" y1="355.925" x2="733.125" y2="295.152" gradientTransform="scale(1 -1) rotate(23.966 2484.475 1.301)"><stop offset="0" stop-color="#919191"/><stop offset="1" stop-color="#fff"/></linearGradient><path d="M740.1 266.4c-.1.6-.2 1.2 0 1.9 0 0 2 13.2-.3 19.1l-95.9 249.3c-6.8 18.3 2.3 38.8 20.6 45.8s38.8-2 46-20.2L806.4 313c1.9-4.9 12.6-14.3 12.6-14.3.5-.4 1-.9 1.2-1.4v-.1c.1-.1.1-.2.2-.3 2.5-6.4-13.5-18.5-35.6-27.1-22.1-8.5-42.1-10.2-44.6-3.8 0 .1-.1.2-.1.4z" fill="url(#tube)"/><linearGradient id="liquid" gradientUnits="userSpaceOnUse" x1="649.535" y1="309.638" x2="686.329" y2="272.844" gradientTransform="scale(1 -1) rotate(23.966 2484.475 1.301)"><stop offset="0" stop-color="#900"/><stop offset="1" stop-color="#e80000"/></linearGradient><path d="M770.2 379.2L701 559c-5.1 12.9-19.9 19.6-33.1 14.5-13.2-5.1-20.3-20.2-15.4-33.2l44.2-114.9s5.5-8.9 16.4-15.2c10.8-6.3 19.8-5 31.8-10.3 12-5.4 25.3-20.7 25.3-20.7z" fill="url(#liquid)"/><path d="M805 291.6c-1.4 3.6-13.7 2.3-27.4-3s-23.8-12.5-22.4-16.1c1.4-3.6 13.7-2.3 27.4 3 13.8 5.3 23.8 12.5 22.4 16.1z" fill="#333"/><path d="M740.1 268.3s2 13.3-.3 19.1l-95.9 249.3c-6.8 18.3 2.3 38.8 20.6 45.8 3.2 1.2 6.4 1.9 9.6 2.2-12.3-9.3-17.6-25.9-12-41l94-244.4c.1 0-12.7-12-16-31z" opacity=".3" fill="#fff"/><path opacity=".5" fill="#fff" d="M711.8 428c.6 1.4 0 3-1.4 3.7-1.4.6-3 0-3.7-1.4-.6-1.4 0-3 1.4-3.7 1.4-.6 3 0 3.7 1.4zM731.3 447.6c.9 2.1 0 4.6-2.1 5.5s-4.6 0-5.5-2.1 0-4.6 2.1-5.5c2-1 4.5-.1 5.5 2.1zM706.8 470c1.8 4 0 8.6-4 10.4s-8.6 0-10.4-4c-1.8-4 0-8.6 4-10.4 4-1.7 8.6.1 10.4 4zM690.7 486c.9 2.1 0 4.6-2.1 5.5s-4.6 0-5.5-2.1 0-4.6 2.1-5.5 4.6 0 5.5 2.1zM706.1 517.7c.6 1.4 0 3-1.4 3.7-1.4.6-3 0-3.7-1.4-.6-1.4 0-3 1.4-3.7 1.5-.6 3.1 0 3.7 1.4z"/><path d="M214.7 413.8c4.2 3.4 11.9 1.4 17-4.2 5.4-5.9 6.2-13.6 2-17s-11.9-1.4-17 4.5c-5.4 5.9-6.3 13.3-2 16.7zm-12.5 11c-1.1 0-3.1 2-1.4 2.8 2.3.8 3.4 2.8 3.4 5.7-2 11.6-16.4 24.9-22.1 29.4-1.4 1.4.6 4.5 2 3.4 3.1-2.5 9.6-7.6 15-14.4-8.8 19.5-25.8 44.7-32.3 53.5-25.5 35.4-64.3 67.9-90.9 67.9-21.2 0-39.4-14.4-43.3-35.6-.3-2.3-3.4-2.8-2.8.3 4.8 29.1 27.2 40.5 54.4 40.5 29.7 0 64.6-21.5 83.8-43.6 31.1-35.7 51.2-76.6 45.9-99.8-2.3-8.9-8.3-10.4-11.7-10.1zm191.1 77.6c8.2-2 15-6.6 15-13.7 0-.7-1.4-.7-1.4 0 0 4.3-4.8 7.7-10.2 8.6-12.7 2-37.9-13-49.8-28.2 12.7 4.8 38.8-2.2 51-11 11.3-8.2 15.9-17.2 16.7-24.6 1.4-12.2-11.9-19.2-30.3-12.2-11.9 4.8-26 15.3-40.8 34.8 15.6-25.7 46.2-67.6 76.2-94.5 36.5-32.5 57.8-26.3 24.9 8.2-13.6 14.1-39.1 32.5-56.6 40.5-5.4 2.3-2.8 5.4 1.1 3.7 18.7-8.2 43.6-25.2 58.6-39.3 44.5-42.7 7.4-75-41.9-29.7-33.4 30.8-55.2 63.1-74.2 105-6.5 7.9-11.3 14.4-17.3 19.5-.7.6-1.3 1.2-1.7 1.8-16.4 14-42 32.9-58 33.2-11.3.3-16.1-8.2-14.2-19.2 3.1-17.3 21-37.6 36.2-44.7 19.8-9.1 31.4 8.5 5.4 22.6-9.9 5.1-21.8 7.9-26.6 7.9-5.7 0-5.1 2.3-.3 2.5 7.9.3 20.7-3.1 29.2-7.1 26.6-12.7 28.3-36.5-.6-37.3-31.4-1.1-69.1 25.7-68.8 59.4.3 15.3 12.5 23.5 29.2 23.5 27.8-.3 52.6-21.4 72.9-40.1 2.9-2.4 5.7-5.1 8.6-7.9-7.1 18.1-10.8 34.8-9.1 47.2 1.1 9.1 6.2 13.3 10.2 16.7.8.6 2.5 0 1.4-1.7-5.9-7.1-4.2-28.1 4-48.4 6.8 13.5 33.4 30.7 61.2 24.5zm-33.4-59c32.6-29.1 45.3-3.1 24.6 12.7-10.8 8.2-32 14.4-38.8 10.5l-1.4-.8c-.8-1.4-1.7-2.8-2.3-4.2 5.4-6.6 11.6-12.6 17.9-18.2zm180.7-33.1c13 1.4 7.6-14.4-5.7-10.5-5.9 1.7-11.6 13-15.9 22.9-13 19.5-34.8 46.1-50.1 60-13.6 11.6-26.1 14.7-10.8-7.1 6.2-8.8 14.2-18.1 18.7-27.4 10.8-23.5-12.2-33.9-30.6-19.8-10.8 8.2-25.2 25.2-36.5 34.5-3.1 2.5-2.3 6.2.8 3.7 9.1-7.4 24.9-24 38.5-33.9 11.3-8.8 15.9-3.1 9.3 4.2-9.1 10.5-24.9 28.6-28.9 40.2-5.7 17.3 1.1 24.9 12.5 24.9 15.6 0 38.8-24.3 54.4-43.6 5.1-6.5 10.8-14.1 15.6-21.5-13.6 26.3-27.7 52.9-45.3 76.9-24.9 33.9-56.1 59.4-85.5 59.4-21.2 0-39.6-14.4-43.6-35.6-.3-2.3-3.1-2.8-2.8.3 4.8 29.1 27.2 40.5 54.4 40.5 29.7 0 58.3-17.3 78.4-38.5 40.5-42.7 45.3-90.8 57.8-117.7 5.7-11.9 11-12.4 15.3-11.9zm164.6-41.1c5.9-10.2 5.7-18.1-8.2-18.1-10.5.3-29.4 7.6-38.2 14.4-2 2-1.1 3.1 1.4 2 1.7-.6 3.7-1.7 5.7-2.5 9.9-5.4 5.9 5.9 3.7 10.2-11.9 20.7-32.8 49.8-43.9 64.2-5.3 7.1-11.3 14.2-17 20.2-10.6 10.1-31.6 28-47.5 34-51.5 19.2 14.2-68.5 19.5-75.5 12.2-15.3 39.4-41.9 47.6-55.2 5.9-10.2 5.7-18.1-8.2-18.1-10.5.3-29.4 7.6-38.2 14.4-2 2-1.1 3.1 1.4 2 1.7-.6 3.7-1.7 5.7-2.5 9.9-5.4 5.9 5.9 3.7 10.2-11.9 20.7-32.8 49.8-43.9 64.2-9.1 12.2-20.1 24.3-28.6 31.1-3.4 2.8-1.4 5.4 2 3.1 3.1-2 7.6-6.5 12.7-11.9-9.3 18.7-17 45 7.6 48.1 21 2.9 46-18.6 62.1-34.4 1.8-1.7 3.7-3.7 5.8-5.8l1.4-1.4c-9.3 18.7-16.9 44.9 7.7 48 26.9 3.7 60.3-32.5 73.3-45.8 2.5-2.5 1.7-6.8-2.5-2.5-7.6 7.9-33.4 31.4-52.1 38.5-51.5 19.2 14.2-68.5 19.5-75.5 12.1-15.6 39.3-42.1 47.5-55.4z" opacity=".1"/><linearGradient id="shadow" gradientUnits="userSpaceOnUse" x1="27.023" y1="401.244" x2="706.169" y2="401.244" gradientTransform="matrix(1 0 0 -1 0 849.276)"><stop offset="0" stop-color="#1a1a1a"/><stop offset=".403" stop-color="#4a4a4c"/><stop offset="1" stop-color="#333"/></linearGradient><path d="M212 411.1c4.2 3.4 11.9 1.4 17-4.2 5.4-5.9 6.2-13.6 2-17s-11.9-1.4-17 4.5c-5.4 5.9-6.3 13.3-2 16.7zm-12.5 11c-1.1 0-3.1 2-1.4 2.8 2.3.8 3.4 2.8 3.4 5.7-2 11.6-16.4 24.9-22.1 29.4-1.4 1.4.6 4.5 2 3.4 3.1-2.5 9.6-7.6 15-14.4-8.8 19.5-25.8 44.7-32.3 53.5-25.5 35.4-64.3 67.9-90.9 67.9-21.2 0-39.4-14.4-43.3-35.6-.3-2.3-3.4-2.8-2.8.3 4.8 29.1 27.2 40.5 54.4 40.5 29.7 0 64.6-21.5 83.8-43.6 31.1-35.7 51.2-76.6 45.9-99.8-2.3-9-8.3-10.4-11.7-10.1zm191.1 77.6c8.2-2 15-6.6 15-13.7 0-.7-1.4-.7-1.4 0 0 4.3-4.8 7.7-10.2 8.6-12.7 2-37.9-13-49.8-28.2 12.7 4.8 38.8-2.2 51-11 11.3-8.2 15.9-17.2 16.7-24.6 1.4-12.2-11.9-19.2-30.3-12.2-11.9 4.8-26 15.3-40.8 34.8 15.6-25.7 46.2-67.6 76.2-94.5 36.5-32.5 57.8-26.3 24.9 8.2-13.6 14.1-39.1 32.5-56.6 40.5-5.4 2.3-2.8 5.4 1.1 3.7 18.7-8.2 43.6-25.2 58.6-39.3 44.5-42.7 7.4-75-41.9-29.7-33.4 30.8-55.2 63.1-74.2 105-6.5 7.9-11.3 14.4-17.3 19.5-.7.6-1.3 1.2-1.7 1.8-16.4 14-42 32.9-58 33.2-11.3.3-16.1-8.2-14.2-19.2 3.1-17.3 21-37.6 36.2-44.7 19.8-9.1 31.4 8.5 5.4 22.6-9.9 5.1-21.8 7.9-26.6 7.9-5.7 0-5.1 2.3-.3 2.5 7.9.3 20.7-3.1 29.2-7.1 26.6-12.7 28.3-36.5-.6-37.3-31.4-1.1-69.1 25.7-68.8 59.4.3 15.3 12.5 23.5 29.2 23.5 27.8-.3 52.6-21.4 72.9-40.1 2.9-2.4 5.7-5.1 8.6-7.9-7.1 18.1-10.8 34.8-9.1 47.2 1.1 9.1 6.2 13.3 10.2 16.7.8.6 2.5 0 1.4-1.7-5.9-7.1-4.2-28.1 4-48.4 6.8 13.5 33.4 30.7 61.2 24.5zm-33.5-59.1c32.6-29.1 45.3-3.1 24.6 12.7-10.8 8.2-32 14.4-38.8 10.5l-1.4-.8c-.8-1.4-1.7-2.8-2.3-4.2 5.5-6.6 11.7-12.5 17.9-18.2zm180.8-33c13 1.4 7.6-14.4-5.7-10.5-5.9 1.7-11.6 13-15.9 22.9-13 19.5-34.8 46.1-50.1 60-13.6 11.6-26 14.7-10.8-7.1 6.2-8.8 14.2-18.1 18.7-27.4 10.8-23.5-12.2-33.9-30.6-19.8-10.8 8.2-25.2 25.2-36.5 34.5-3.1 2.5-2.3 6.2.8 3.7 9.1-7.4 24.9-24 38.5-33.9 11.3-8.8 15.9-3.1 9.3 4.2-9.1 10.5-24.9 28.6-28.9 40.2-5.7 17.3 1.1 24.9 12.5 24.9 15.6 0 38.8-24.3 54.4-43.6 5.1-6.5 10.8-14.1 15.6-21.5-13.6 26.3-27.7 52.9-45.3 76.9-24.9 33.9-56.1 59.4-85.5 59.4-21.2 0-39.6-14.4-43.6-35.6-.3-2.3-3.1-2.8-2.8.3 4.8 29.1 27.2 40.5 54.4 40.5 29.7 0 58.3-17.3 78.4-38.5 40.5-42.7 45.3-90.8 57.8-117.7 5.6-11.9 11-12.4 15.3-11.9zm164.6-41.2c5.9-10.2 5.7-18.1-8.2-18.1-10.5.3-29.4 7.6-38.2 14.4-2 2-1.1 3.1 1.4 2 1.7-.6 3.7-1.7 5.7-2.5 9.9-5.4 5.9 5.9 3.7 10.2-11.9 20.7-32.8 49.8-43.9 64.2-5.3 7.1-11.3 14.2-17 20.2-10.6 10.1-31.6 28-47.5 34-51.5 19.2 14.2-68.5 19.5-75.5 12.2-15.3 39.4-41.9 47.6-55.2 5.9-10.2 5.7-18.1-8.2-18.1-10.5.3-29.4 7.6-38.2 14.4-2 2-1.1 3.1 1.4 2 1.7-.6 3.7-1.7 5.7-2.5 9.9-5.4 5.9 5.9 3.7 10.2-11.9 20.7-32.8 49.8-43.9 64.2-9.1 12.2-20.1 24.3-28.6 31.1-3.4 2.8-1.4 5.4 2 3.1 3.1-2 7.6-6.5 12.7-11.9-9.3 18.7-17 45 7.6 48.1 21 2.9 46-18.6 62.1-34.4 1.8-1.7 3.7-3.7 5.8-5.8.5-.5 1-1 1.4-1.5-9.3 18.7-16.9 44.9 7.7 48 26.9 3.7 60.3-32.5 73.3-45.8 2.5-2.5 1.7-6.8-2.5-2.5-7.6 7.9-33.4 31.4-52.1 38.5-51.5 19.2 14.2-68.5 19.5-75.5 12.1-15.4 39.3-42 47.5-55.3z" fill="url(#shadow)"/></svg>