<svg xmlns="http://www.w3.org/2000/svg" viewBox="0 0 850 850"><title>Microsoft SQL Server</title><g transform="matrix(.569 0 0 .569 199.451 -82.735)"><linearGradient id="a" gradientUnits="userSpaceOnUse" x1="-19854.807" y1="-12794.797" x2="-19593.975" y2="-12948.919" gradientTransform="translate(2676.564 2538.73) scale(.1187)"><stop offset="0" stop-color="#909ca9"/><stop offset="1" stop-color="#ededee"/></linearGradient><path d="M639.4 693.1l-150.5 49.2-131 57.8-36.6 9.7c-9.3 8.9-19.1 17.9-29.7 27-11.6 10-22.4 19.1-30.7 25.7-9.2 7.3-22.9 20.9-29.8 29.6-10.4 13-18.5 26.7-22.1 37.3-6.3 19.1-3.2 38.5 8.9 56.3 15.5 22.8 46.3 46 82.3 61.8 18.3 8.1 49.2 18.4 72.4 24.2 38.6 9.8 113.2 20.4 154.3 22 8.3.3 19.5.3 19.9 0 .9-.6 7.3-12.7 14.7-27.9 25.3-51.5 43.5-99.9 53.4-141.2 5.9-25 10.6-58.4 13.7-97.8.8-11 1.1-48 .5-60.5-1-20.5-2.8-37.1-5.7-53.4-.5-2.4-.6-4.6-.3-4.7.5-.3 1.8-.8 20.4-6.1l-4.1-9zM605 713.2c1.4 0 5 34.9 5.9 57 .2 4.7.1 7.7-.1 7.7-.9 0-19.2-10.8-32.3-19-11.4-7.2-33-21.5-36.4-24.2-1.1-.8-1-.9 8.3-4.1 15.8-5.3 53.4-17.4 54.6-17.4zm-76.7 25.3c1 0 3.6 1.5 9.9 5.3 23.4 14.7 55.3 32.4 68.9 38.3 4.2 1.8 4.7 1.1-5 7.7-20.7 14.1-46.5 28-78.2 42-5.6 2.5-10.2 4.4-10.4 4.4-.2 0 .5-2.8 1.4-6.3 7.6-28.3 11.9-57 12.2-80 .1-11.4.1-11.4 1.1-11.7-.1.3 0 .3.1.3zm-15.8 6c.7.7.2 26.2-.7 33.1-2 16.6-5.2 32.1-10.5 49.5-1.3 4.2-2.4 7.7-2.6 8-.5.6-16-14.7-21.2-20.6-8.9-10.2-15.8-20.5-20.9-30.5-2.6-5.1-6.7-15.1-6.4-15.5 1.9-1.2 61.9-24.4 62.3-24zm-74.4 29.2c.1 0 .2 0 .3.1.2.2 1 2 1.7 4.1 3.6 9.9 11.8 24.5 18.9 33.8 7.7 10.2 17.9 21.2 26.3 28.3 2.7 2.3 5.2 4.4 5.6 4.8.7.7.9.6-17.6 7.6-21.5 8.2-44.9 16.4-71.8 25l-19.2 6.3c-1 .3-.7-.2 2.3-4.9 13.3-20.8 33.6-61.7 44.9-90.6 1.9-5 3.9-10 4.2-11.1.5-1.6 1-2.2 2.5-3 .8-.1 1.6-.4 1.9-.4zm-22.8 9.5c.3.2-5.5 12.4-11.2 23.6-11 21.5-23.1 42.7-39.3 68.4-2.7 4.4-5.3 8.5-5.7 9-.6.8-.8.6-2.6-3-3.9-7.6-7.1-17.4-8.8-26.4-1.7-8.9-1.4-24.3.6-33.9 1.5-7.1 1.4-6.9 4.8-8.6 14.7-7.5 61.8-29.6 62.2-29.1zm196.3 8v4.8c0 25.4-2.7 60.2-6.7 85.6-.7 4.4-1.3 8.1-1.4 8.2 0 0-3.3-.9-7.2-2-17.1-5.3-35.6-13.2-52.3-22.4-11-6-27.1-15.9-26.6-16.4.1-.1 4.9-2.6 10.5-5.6 22.3-11.6 43.7-24.1 62.2-36.5 6.9-4.7 17.4-12.2 19.7-14.2l1.8-1.5zm-282.2 33.6c.5 0 .3.9-.3 5-.5 3-1 8.4-1.2 12.2-.9 16.6 1.8 28.9 10 45.7 2.3 4.7 4.1 8.5 4 8.6-.8.7-76.1 22.8-99.8 29.2-7.1 1.9-13.2 3.6-13.7 3.8-.8.2-.9.1-.6-1.8 2.6-16.7 15.4-38.6 33.1-57 11.8-12.3 21.3-19.5 37.4-28.7 11.6-6.6 29.5-16.5 30.8-17h.3zm177.5 31.8c.1-.1 2.8 1.4 6.1 3.3 24.3 14.1 58.3 27.2 87.1 33.9l2.6.6-3.6 2c-15.1 8.4-64.9 29.1-115.7 48.1-7.4 2.7-14.7 5.5-16 6-1.4.6-2.6.9-2.6.8 0-.1 2-4.1 4.7-9 14.2-26.6 28.6-59 35.8-81.6 1-2.1 1.5-4 1.6-4.1zm-18.1 5.9c.1.1-.8 2.5-1.9 5.2-9.9 24-22.9 50.2-39.5 79.5-4.2 7.5-7.7 13.5-7.9 13.5-.1 0-3.5-2-7.6-4.6-24.1-14.8-45.5-33-59.5-50.6l-2-2.5 10.4-2.8c37.1-10.1 68.6-21 99.9-34.5 4.4-1.7 8-3.2 8.1-3.2zm112.5 39.2s.1.2 0 0c.1 2.6-5.7 26.1-10.5 43-4 14.2-7.4 25.4-13.7 45.1-2.7 8.6-5.1 15.8-5.2 15.8-.1 0-.8-.1-1.5-.3-33.8-6.1-64.1-14.7-92.5-26.1-8-3.2-19.3-8.3-20-8.9-.2-.2 6.6-3.4 15.2-7.2 51.8-22.6 105.5-48.4 123.9-59.4 2.2-1.3 3.9-2 4.3-2zm-259.6 8.9c.2.2-14.2 21-34.5 49.4-7.1 9.9-15.2 21.5-18.3 25.8-3.1 4.3-7.7 11.2-10.4 15.2l-4.8 7.4-5.1-4.3c-6-5-16.5-15.7-21.2-21.6-9.8-12.2-16.4-25-19-36.7-1.3-5.5-1.3-8.2-.1-8.5 1.7-.5 32.1-7.6 60.5-14.2 15.8-3.6 34.1-8 40.7-9.6 6.8-1.6 12.1-2.9 12.2-2.9zm14.6 5.6l3.6 4.1c16.4 18.3 33.1 31.9 53.4 43.7 3.6 2 6.4 3.9 6.1 4-.8.6-70.3 25.3-102.5 36.4-18.1 6.4-33 11.5-33.1 11.5-.1 0-1.1-.7-2.3-1.5l-2-1.5 3.3-4.8c10.7-15.5 24.1-32.4 53.4-67.7l20.1-24.2zm90.8 65c.1-.1 5.1 1.7 11.3 4 14.8 5.6 26.5 9.1 42.2 13.1 19.3 4.9 47.3 9.7 63.8 11 2.5.2 3.9.5 3.4.8-.8.5-17.5 6-29.8 9.9-19.6 6.1-79.3 23.8-128 37.8-9 2.6-16.7 4.8-17.2 4.9-1.1.2-4.9-.8-4.9-1.3 0-.2 2.7-3.8 6-7.6 16.4-19.6 32.7-41.4 46.2-62.1 3.8-5.8 7-10.4 7-10.5zm-20 .5c.1.1-8 13.1-22.1 35.4-6 9.4-12.7 20.1-15.1 23.9-2.3 3.6-5.7 9.3-7.6 12.5l-3.3 5.8-1.7-.5c-4.1-1.1-32.9-11.3-40.5-14.3-9.4-3.8-19.2-8.3-26.5-12.2-9.1-4.9-20.5-12.2-19.6-12.4.2-.1 15.8-4.3 34.6-9.4 49.8-13.5 77.5-21.4 95.6-27.1 3.2-1 6.1-1.8 6.2-1.7zm141.6 33.2h.1c.5 1.1-18 52.3-24.7 68.5-1.5 3.6-2 4.6-2.8 4.4-1.9-.1-28.7-3.9-44.9-6.3-28.3-4.3-75.9-12.6-87.8-15.4l-2.7-.6 17-3.9c36.4-8.2 53.9-12.6 71.7-18.1 22.4-6.8 44.6-15.4 67-25.8 3.4-1.4 6.3-2.6 7.1-2.8z" fill="url(#a)"/><linearGradient id="b" gradientUnits="userSpaceOnUse" x1="-19844.518" y1="-17899.813" x2="-19634.644" y2="-17899.813" gradientTransform="translate(2676.564 2538.73) scale(.1187)"><stop offset="0" stop-color="#939fab"/><stop offset="1" stop-color="#dcdee1"/></linearGradient><path d="M484.2 342.2c-2.5-.3-42.9 14.2-68.9 24.8-35.2 14.3-62.5 28-79.3 39.8-6.3 4.4-14.1 12.3-15.4 15.4-.5 1.1-.7 2.5-.7 3.9l15.2 14.4 36.3 11.6 86.4 15.5 98.8 17 1-8.5c-.3 0-.6-.1-.9-.1l-13-2-2.6-4.7c-13.4-23.7-28.2-53-36.9-72.8-6.7-15.4-13.1-33.1-16.6-45.9-1.9-7.8-2.2-8.3-3.4-8.4zm-1.8 5.8h.1c.1.1.6 3.3 1 7.1 1.9 15.9 5.5 31.3 11 47.9 4.2 12.5 4.2 11.8-.7 10.4-11.6-3.2-63.6-12.2-101.3-17.4-6-.8-11.2-1.6-11.2-1.7-.5-.5 27.2-14.9 39.4-20.6 15.7-7.3 58.5-25.1 61.7-25.7zm-109.7 51l4.4 1.5c24.1 8.2 84.8 19.8 118.2 22.5 3.8.3 6.9.7 7.1.7.1.1-3.1 1.8-7.2 3.8-16.2 8.1-33.9 18-46.2 25.6-3.6 2.3-6.9 4.1-7.4 4.1s-2.8-.5-5.3-.8l-4.6-.7-11.4-11.2c-20-19.5-35.7-34.5-41.8-40.2l-5.8-5.3zm-4.6 3.5l16 20c8.8 11 17.6 21.8 19.6 24.2 1.9 2.4 3.5 4.3 3.4 4.4-.5.3-23.2-4.1-35.3-6.8-12.4-2.8-17.5-4.2-25.1-6.6l-6.3-2v-1.6c.1-7.6 9.8-19 26.2-30.6l1.5-1zm136.3 27.3c.5 0 1 1 2.4 4.1 3.9 8.5 15.9 31.5 18.9 36 .9 1.5 2.5 1.6-13.5-1-38.6-6.3-51-8.3-51-8.5 0-.1 1.1-.9 2.6-1.7 11.9-6.6 24-15 34.7-24 2.6-2.2 5-4.2 5.5-4.6.1-.3.3-.4.4-.3z" fill="url(#b)"/><radialGradient id="c" cx="-4676.43" cy="-10354.478" r="278.646" gradientTransform="matrix(-.114 -.01713 .03464 -.228 366.74 -1827.37)" gradientUnits="userSpaceOnUse"><stop offset="0" stop-color="#ee352c"/><stop offset="1" stop-color="#a91d22"/></radialGradient><path d="M321.4 420.6s-2.5 4-.1 9.9c1.5 3.6 5.8 8.1 10.7 12.6 0 0 50.6 49.4 56.8 56.4 28 32.3 40.2 64.2 41.3 108.1.7 28.2-4.7 53-18 81.8-23.7 51.7-73.6 108.7-150.6 171.9l11.3-3.8c7.3-5.5 17.2-11.3 40.4-24 53.6-29.4 113.9-56.3 187.8-84.1 106.5-40 281.6-86.9 381.3-102.2l10.4-1.6-1.6-2.5c-9.1-14.1-15.4-22.9-22.9-32.2-21.8-27.1-48.4-49-80.8-67.2-44.7-24.8-102.4-44.3-175.5-58.7-13.8-2.7-44-8-68.6-11.7-52.1-8.1-85.8-13.7-122.9-20-13.3-2.3-33.2-5.7-46.4-8.5-6.8-1.5-19.9-4.6-30.1-8.1-8.2-3.3-20-6.4-22.5-16.1zm29.3 28.4c.1-.1 1.9.6 4.3 1.4 4.3 1.5 9.9 3.2 16.5 5 5 1.4 10 2.7 15 4 6.8 1.7 12.5 3.3 12.6 3.3.8.8 12.3 37.5 16.2 51.7 1.5 5.3 2.6 9.9 2.5 9.9-.1.1-1.4-1.8-2.8-4.4-13.3-23.4-34.4-47.2-58.7-66.3-3.2-2.4-5.6-4.5-5.6-4.6zm56 15.5c.6 0 3.1.3 6.1 1 19.3 4.3 54 10.9 76.2 14.7 3.8.6 6.7 1.3 6.7 1.5 0 .2-1.4 1-3.1 1.9-3.8 1.9-18.9 10.9-23.9 14.3-12.6 8.4-24 17.5-32.2 25.7-3.3 3.3-6.1 6-6.1 6s-.7-1.9-1.3-4.3c-4.1-15.8-12.6-39.3-20.4-55.7-1.3-2.6-2.3-5-2.3-5.2.2.2.2.1.3.1zm98.5 18.8c.7.2 1.8 4.1 4.1 12.6 4.2 16.5 6.1 34.9 5.5 52.1-.2 4.8-.5 9.2-.7 9.8l-.3 1.1-5.9-1.9c-12.2-3.9-32-9.7-48.9-14.4-9.7-2.6-17.5-5-17.5-5.2 0-.7 14.1-14.8 20.1-20.1 11.4-10.2 42.6-34.4 43.6-34zm7.9 1.1c.3-.3 47.1 7.7 68.4 11.8 15.8 3.1 38.8 7.9 40.2 8.4.7.2-1.7 1.6-9.3 5-30 13.5-52.3 25.7-74.5 40.5-5.8 3.9-10.7 7.1-10.8 7.1-.1 0-.2-3.3-.2-7.3 0-21.6-4.3-43.5-12.3-61.9-1-1.8-1.6-3.5-1.5-3.6zM634 508.3c.3.3-1.1 9.6-2.5 15-4.1 17-15.1 42.1-28.7 65.8-2.4 4.2-4.6 7.6-4.8 7.7-.2.1-3.3-1.6-6.8-3.6-13.2-7.7-28.2-15-44.6-21.8-4.5-1.9-8.5-3.5-8.6-3.8-.8-.7 35.8-24.9 55.2-36.5 15.3-9.4 40.4-23.2 40.8-22.8zm8.7 1.4c1 0 21.7 5.7 32.5 8.9 26.7 8 57.5 19.2 77.5 28.3l8.3 3.8-5.8 1.4c-48.9 11.3-90.8 24.2-131.2 40.6-3.3 1.4-6.3 2.5-6.5 2.5-.2 0 .9-2.6 2.4-5.8 12.2-25.8 20-52.8 22-75.8.1-2.2.4-3.9.8-3.9zM436.5 557c.3-.3 16.2 3.4 24.7 5.8 13 3.6 40.5 12.9 40.5 13.5 0 .1-3.1 2.7-6.7 5.9-14.9 12.4-29.2 25.5-46.4 42.1-5.1 4.9-9.4 8.9-9.7 8.9-.2 0-.3-.7-.2-1.6 2.6-19.1 2-43.7-1.6-68.6-.4-3.2-.7-5.9-.6-6zm332.3.3c.2.2-7.3 12.1-12.1 18.8-6.8 9.8-16.8 22.8-39.5 51.2-11.9 15-25.4 32-29.8 37.7-4.6 5.7-8.3 10.5-8.4 10.5-.1 0-1.6-2-3.2-4.5-12.7-19.1-28-35.8-46.1-50.9-3.4-2.8-7.2-5.9-8.4-6.8-1.3-.9-2.3-1.8-2.3-1.9 0-.3 19.3-8.6 34-14.6 25.7-10.5 60.8-23 87-31.1 13.9-4.4 28.6-8.6 28.8-8.4zm8.8 2.3c.5-.1 3.2 1.3 6.5 3.2 27.6 15.8 54.7 36.2 76.1 57.1 6 5.9 20.9 21.4 20.7 21.5 0 0-5.2.5-11.4.9-47.9 3.6-109.2 13.8-168.2 28-4 .9-7.5 1.7-7.7 1.7-.2 0 4.2-4.4 9.8-9.8 34.6-33.3 50.4-54.4 69.1-91.9 2.6-5.6 4.9-10.3 5.1-10.7-.1 0-.1 0 0 0zm-253.4 26c1.6.3 16.4 7.3 27.5 12.9 10.2 5.1 25.6 13.3 26.4 14 .1.1-5.3 3-12.1 6.3-21.4 10.7-39.7 20.8-58.8 32.4-5.5 3.3-10 6-10.1 6-.5 0-.3-.5 2.7-6 10.2-18.7 18.4-41 23.1-62.7.5-1.8 1-2.9 1.3-2.9zm-14.8 2.7c.3.3-3.5 14.3-5.9 22-4.7 14.4-12.5 32.5-20.1 46.2-1.8 3.2-4.6 7.8-6 10.5l-2.8 4.6-6.4-6.1c-7.4-7.2-13.4-11.6-21.2-15.6-3.1-1.6-5.5-3-5.5-3.2 0-.9 19.5-18.5 34.4-31.3 10.7-9.4 33.2-27.4 33.5-27.1zm90.5 37.2l5.6 3.6c12.7 8.3 27.8 19.3 39.3 29 6.5 5.3 19 16.6 21.5 19.3l1.4 1.5-9.2 2.6C606.3 696 566 708.9 519 726.2c-5.2 1.9-9.7 3.5-10 3.5-.7 0-1.3.6 10.5-10.2 30-27.6 56.7-58.1 76.5-87.8l3.9-6.2zm-23.8 5.9c.2.2-15.4 22.2-24.7 34.6-11.1 14.8-30.9 39.6-44.6 55.7-5.7 6.7-10.6 12.3-10.8 12.4-.3.1-.5-1.6-.5-4.2 0-13.8-3.5-28.4-9.7-41-2.6-5.2-3.1-6.5-2.5-7.1 2.2-1.9 35.3-20.8 56.2-32.1 14.2-7.4 36.3-18.5 36.6-18.3zm-143.8 35.3c.3 0 3 1.4 5.9 3 7.3 4 13.8 8.4 19.6 13.2.2.2-2.7 2.6-6.6 5.5-10.8 7.7-27.2 20.1-36.7 27.8-10 8-10.4 8.2-9.2 6.5 7.5-11.5 11.3-18 15.2-26.3 3.5-7.4 7.1-16.2 9.6-23.8.8-3.4 2-5.9 2.2-5.9zm38.3 30c.6-.1 1.3.9 4.3 5.5 6.5 9.7 11.5 22.6 12.7 33.1l.2 2.3-15.6 6c-27.9 10.8-53.6 21.5-71 29.5-4.9 2.3-13.4 6.4-19 9.1-5.6 2.8-10.1 5-10.1 4.9s3.5-2.7 7.8-5.9c34-24.7 63.5-51.8 85.6-78.8 2.4-2.8 4.6-5.5 4.8-5.6l.3-.1zM453 701c.5.5-12.5 15.1-21.4 24.1-22 22.4-43.7 39.9-70.7 57-3.4 2.2-6.5 4.1-6.8 4.3-.8.5.2-.7 12.1-13.5 7.5-8.1 13.2-14.9 19.7-23.3 4.3-5.6 5.1-6.4 11.4-10.8 16.7-12 55.3-38.2 55.7-37.8z" fill="url(#c)"/></g><path d="M176.9 584.2c-1.2 0-2.4.1-3.6.1-24.1 1.3-40.4 11.9-49.9 32.6-8.1 18.7-7.2 43.3.1 62.1 8.5 18.4 22.3 28.2 45.3 31.8 4.9.8 8.1 3.5 17.6 14.5L198 739h21l-14-14.1c-7.7-7.7-14-14.5-14-15.1 0-.6 3-1.9 6.5-3 11.8-3.6 21.6-12.7 28.5-26.7 5.6-11.2 6.3-14.7 7.1-28.7 2.2-41.5-19.7-67.5-56.2-67.2zM195.3 693c-10.2 5-25.1 5.9-34.8 2.4-10-3.7-19.8-14.1-24.1-25.9-4.9-12.9-4.2-36.7 1.4-47.4 8.9-17.1 20.7-24.9 38-24.9 25.6 0 40.2 15.7 42.1 45.1 1.4 24.6-6.8 43-22.6 50.7zm363.6-73.3c-8.8 0-15.6 3.6-20.1 10.6l-3.6 5.6v-14.5h-15.3v86.9h15.3v-27.8c0-25.4.3-28.4 3.9-35.3 4.9-9.5 13.3-14.3 21.4-12l5.5 1.6v-15.1h-7.1zm-89.7-.8c-3 0-6.2.4-9.3 1.1-20.4 5.3-32 24.9-31.3 45.1 0 16.9 3.3 25.3 11.4 34.1 16.7 13.7 31.7 14.8 52.1 7.4 3.5-1.5 7.2-3.2 7.2-3.2v-13.7l-7.2 3.8c-16.5 7.2-28.9 7.2-38.8-1.3-6.3-6.5-9.1-14.2-10.4-23h61.6v-11.7c0-23.9-14.4-38.9-35.3-38.6zm-25 38.2s2.3-14.9 10.7-20.8c4.1-2.9 8.7-4.3 13.3-4.3 4.6 0 9.1 1.5 12.9 4.4 7.7 6 9 20.5 9 20.5h-45.9v.2zM75.9 641.4c-16.6-10-23.9-17.3-23-25.8 2.6-23.6 31.7-20.3 47.9-11.4l.1-15.9s-8.9-3.9-21.7-4.1c-19.6-.3-32.3 6.1-38.3 19.3-8.7 19.3-1 33.9 27 50.2 15.7 9.1 22.6 17.1 22.6 25.7 0 17.9-21.5 24.1-43.8 12.9-4.6-2.3-8.4-4.2-8.6-4.2-.8 5.1-.4 17.2-.4 17.2s6.8 2.9 17.1 4.8c25.4 5.1 48.5-6.8 50.7-26.2 1.8-18.1-4.7-27.7-29.6-42.5zm618.3-22.7c-3 0-6.1.4-9.4 1.1-20.4 5.3-31.9 24.9-31.1 45.1 0 16.8 3.3 25.2 11.4 34 16.7 13.7 31.7 14.8 52.2 7.4 3.5-1.5 7.2-3.2 7.2-3.2v-13.7l-7.2 3.8c-16.5 7.1-28.9 7.1-38.8-1.3-6.4-6.4-9.1-14.1-10.4-23h61.5v-11.7c-.2-23.7-14.5-38.8-35.4-38.5zm-25 38.2s2.3-14.9 10.7-20.8c4.1-2.9 8.7-4.3 13.3-4.3 4.6 0 9.1 1.5 12.9 4.4 7.7 6 9 20.6 9 20.6h-45.9v.1zm-280-15.3c-16.6-10-23.9-17.3-23-25.8 2.6-23.6 31.7-20.3 47.9-11.4l.1-15.9s-8.9-3.9-21.7-4.1c-19.6-.3-32.3 6.1-38.3 19.3-8.7 19.3-.9 33.9 27 50.2 15.7 9.1 22.6 17 22.6 25.6 0 17.9-21.5 24.2-43.7 12.9-4.6-2.3-8.4-4.2-8.6-4.2-.8 5.1-.4 17.2-.4 17.2s6.7 2.8 17 4.8c25.4 5.1 48.5-6.8 50.7-26.2 1.7-18-4.8-27.5-29.6-42.4zm394.7-22.1c-8.8 0-15.7 3.6-20.1 10.6l-3.6 5.6v-14.5H745v86.9h15.3v-27.8c0-25.4.3-28.4 3.9-35.3 4.9-9.5 13.3-14.3 21.4-12l5.5 1.6v-15.1h-7.2zm-516.2 21.6v-55.4h-15.4v122.6H317v-14.5h-49.4l.1-52.7zm356.2 17.2l-12.7 33-12.2-33.2-12.4-36.8h-15.8c10.2 29 21.3 58.4 32.5 87 4.9.1 9.7 0 14.6 0l17.1-43.1 17.5-43.9h-15.1c.1 0-6.6 17.5-13.5 37zm-320.7-106c2.5 0 4.6-.8 6.3-2.5 1.7-1.7 2.6-3.7 2.6-6.1 0-2.5-.9-4.6-2.6-6.1-1.7-1.6-3.7-2.4-6.1-2.4-2.5 0-4.6.8-6.3 2.5-1.7 1.7-2.5 3.8-2.5 6.1 0 2.5.8 4.6 2.5 6.1 1.5 1.6 3.6 2.4 6.1 2.4zm-5.5-14.1c1.5-1.5 3.3-2.2 5.6-2.2 2.2 0 4 .7 5.5 2.2 1.5 1.5 2.3 3.3 2.3 5.5s-.8 4.1-2.3 5.6c-1.5 1.5-3.3 2.2-5.5 2.2s-4-.7-5.5-2.2c-1.5-1.5-2.3-3.4-2.3-5.6 0-2.2.7-4 2.2-5.5zm3.7 6.2h1c.7 0 1.4.7 2 2l1.2 2.7h1.9l-1.5-3c-.6-1.2-1.2-1.9-1.9-2.1.9-.2 1.6-.5 2.1-1.1.5-.5.7-1.2.7-2 0-.9-.3-1.6-.9-2.1-.7-.6-1.8-.9-3.2-.9h-3.2V549h1.6v-4.7l.2.1zm0-5.1h1.4c1 0 1.7.2 2.1.5.4.3.5.7.5 1.4 0 1.3-.8 1.9-2.3 1.9h-1.7v-3.8zm-254.5 4.2c0-3.9-.1-6.7-.2-8.4h.1c.4 2 .9 3.5 1.3 4.5l14.8 33h2.5l14.8-33.3c.4-.9.8-2.3 1.3-4.2h.1c-.3 3.3-.4 6.2-.4 8.5v29.2h5.1v-43.3H80l-13.6 30.2c-.5 1.2-1.2 3-2.1 5.3H64c-.3-1.2-1-3-2-5.1l-13.3-30.5H42v43.3h4.9v-29.2zm50.4 0h4.4v27h-4.4v-27zm2.2-9.9c.9 0 1.7-.3 2.3-.9.6-.6 1-1.4 1-2.3 0-.9-.3-1.7-1-2.3-.6-.6-1.4-.9-2.3-.9-.9 0-1.7.3-2.3.9-.6.6-1 1.4-1 2.3 0 1 .3 1.7 1 2.3.7.6 1.4.9 2.3.9zm33.3 37.5v-4.8c-2.4 1.8-5 2.7-7.6 2.7-3.2 0-5.8-1.1-7.7-3.2-1.9-2.1-2.9-5-2.9-8.5 0-3.8 1-6.7 3.1-9 2-2.2 4.6-3.3 7.7-3.3 2.6 0 5.1.8 7.3 2.4v-5.1c-2.1-1.1-4.5-1.6-7.1-1.6-5 0-8.8 1.6-11.7 4.7-2.9 3.1-4.3 7.2-4.3 12.3 0 4.5 1.3 8.2 4 11.1 2.8 3 6.3 4.5 10.7 4.5 3.4-.1 6.1-.8 8.5-2.2zm12.5-14.4c0-3.6.8-6.4 2.3-8.4 1.4-1.8 3.1-2.7 5.1-2.7 1.7 0 2.9.3 3.8 1v-5.2c-.7-.3-1.7-.4-3-.4-1.8 0-3.4.6-4.8 1.7-1.5 1.2-2.7 3-3.4 5.2h-.1v-6.3h-4.9v30.9h5v-15.9zm28.5 16.5c4.7 0 8.4-1.5 11.2-4.5 2.8-3 4.2-6.9 4.2-11.9 0-5.1-1.3-8.9-3.9-11.8-2.6-2.9-6.1-4.3-10.8-4.3s-8.4 1.4-11.2 4.1c-3 3-4.6 7.1-4.6 12.5 0 4.7 1.3 8.5 4 11.4 2.8 3 6.5 4.5 11.1 4.5zm-7.1-25.2c1.9-2 4.4-3 7.4-3 3.2 0 5.6 1 7.4 3 1.8 2.1 2.7 5.1 2.7 9 0 3.8-.8 6.7-2.5 8.7-1.7 2.1-4.2 3.2-7.4 3.2s-5.7-1.1-7.5-3.2c-1.9-2.1-2.8-5-2.8-8.7-.2-3.7.8-6.8 2.7-9zm44.2 22.5c1.9-1.7 2.9-3.8 2.9-6.3 0-2.3-.8-4.2-2.3-5.7-1.2-1.2-3.1-2.3-5.8-3.4-2.4-1-3.9-1.9-4.7-2.6-.8-.8-1.3-1.8-1.3-3.2 0-1.3.5-2.3 1.5-3.1 1-.8 2.3-1.2 4-1.2 2.7 0 5 .7 7.1 2.2v-5c-2-1-4.2-1.5-6.7-1.5-3.2 0-5.9.9-7.9 2.6-2.1 1.7-3.1 3.9-3.1 6.4 0 2.3.7 4.2 2 5.6 1.1 1.2 3 2.4 5.6 3.5 2.5 1.1 4.2 2.1 5.1 2.9.9.8 1.3 1.8 1.3 3 0 2.9-2 4.4-5.8 4.4-3 0-5.7-1-8-3v5.3c2.2 1.3 4.8 1.9 7.6 1.9 3.6-.1 6.5-1 8.5-2.8zm23.6-29.7c-4.7 0-8.4 1.4-11.2 4.1-3 3-4.6 7.1-4.6 12.5 0 4.7 1.3 8.5 4 11.4 2.8 3 6.5 4.5 11.1 4.5 4.8 0 8.4-1.5 11.2-4.5 2.8-3 4.2-6.9 4.2-11.9 0-5.1-1.3-8.9-3.9-11.8-2.6-3-6.2-4.3-10.8-4.3zm9.6 16.2c0 3.8-.8 6.7-2.5 8.7-1.7 2.1-4.2 3.2-7.4 3.2s-5.7-1.1-7.5-3.2c-1.9-2.1-2.8-5-2.8-8.7 0-4 1-7.1 3-9.1 1.9-2 4.4-3 7.4-3 3.1 0 5.5 1 7.3 3 1.6 2.2 2.5 5.2 2.5 9.1zm13.4 15.5h4.9v-26.8h7.2v-4.2h-7.2v-4.8c0-4.3 1.7-6.5 5.2-6.5 1.2 0 2.4.3 3.3.8v-4.5c-.9-.4-2.1-.5-3.6-.5-2.7 0-4.9.8-6.6 2.5-2.1 2-3.2 4.6-3.2 8v5.1h-5.2v4.2h5.2v26.7zm20.4-8.4c0 6.1 2.7 9.1 8.1 9.1 2 0 3.5-.3 4.7-1v-4.3c-.9.7-2 1-3.2 1-1.7 0-2.9-.4-3.6-1.3-.7-.9-1.1-2.4-1.1-4.5v-17.5h7.8v-4.2h-7.8v-9.1c-1.7.6-3.4 1.1-5 1.6v7.5h-5.3v4.2h5.3l.1 18.5zm532.4 57c-1.7-1.6-3.7-2.4-6.1-2.4-2.5 0-4.6.8-6.3 2.5-1.7 1.7-2.5 3.8-2.5 6.1 0 2.5.8 4.6 2.5 6.1 1.7 1.6 3.8 2.4 6.3 2.4s4.6-.8 6.3-2.5c1.7-1.7 2.6-3.7 2.6-6.1-.2-2.4-1.1-4.5-2.8-6.1zm-.8 11.7c-1.5 1.5-3.3 2.2-5.5 2.2s-4-.7-5.5-2.2c-1.5-1.5-2.3-3.4-2.3-5.6 0-2.2.7-4 2.2-5.5 1.5-1.5 3.3-2.2 5.6-2.2 2.2 0 4 .7 5.5 2.2 1.5 1.5 2.3 3.3 2.3 5.5 0 2.4-.7 4.1-2.3 5.6zm-4.4-5c.9-.2 1.6-.6 2.1-1.1.5-.5.7-1.2.7-2 0-.9-.3-1.6-.9-2.1-.7-.6-1.8-.9-3.2-.9h-3.2v11.1h1.6v-4.7h1c.7 0 1.4.7 2 2l1.2 2.7h1.9l-1.5-3c-.5-1.3-1.1-1.8-1.7-2zm-1.1-1h-1.7V623h1.4c1 0 1.7.2 2.1.5.4.3.5.7.5 1.4 0 1.3-.8 1.9-2.3 1.9zm-276.8-86.5h1.4v-11.1h3.7v-1.4h-8.7v1.4h3.7l-.1 11.1zm8.4-8.4c0-1.1 0-2-.1-2.5.1.6.3 1 .4 1.3l4.3 9.5h.7l4.3-9.6c.1-.3.2-.7.4-1.2-.1 1-.1 1.8-.1 2.4v8.4h1.5v-12.5h-1.8l-3.9 8.6c-.1.3-.4.9-.6 1.6h-.1c-.1-.4-.3-.8-.6-1.5l-3.9-8.7h-2v12.5h1.4l.1-8.3z" fill="#231f1f"/></svg>