<svg version="1.1" id="WordPress" xmlns="http://www.w3.org/2000/svg" x="0" y="0" viewBox="0 0 850 850" xml:space="preserve"><title>MySQL</title><path fill="#687e91" d="M569.9 211.4c-3.7 0-6.3.4-9 1.1v.4h.4c1.8 3.5 4.8 5.9 7 9 1.8 3.5 3.3 7 5.1 10.5l.4-.4c3.1-2.2 4.6-5.7 4.6-11-1.3-1.5-1.5-3.1-2.6-4.6-1.3-2.1-4.2-3.2-5.9-5"/><path fill="#00758f" d="M220.9 644.4h-30.4c-1.1-51.3-4-99.5-8.9-144.7h-.3L135 644.4h-23L66 499.7h-.3c-3.4 43.4-5.6 91.6-6.4 144.7H31.6c1.8-64.5 6.3-125.1 13.4-181.5h37.7l43.8 133.4h.3l44.1-133.4h36c7.9 66.1 12.6 126.6 14 181.5m131.8-133.9c-12.4 67.1-28.7 115.9-48.9 146.4-15.8 23.5-33.1 35.2-51.9 35.2-5 0-11.2-1.5-18.6-4.5v-16.2c3.6.5 7.8.8 12.6.8 8.8 0 15.9-2.4 21.2-7.3 6.4-5.9 9.7-12.5 9.7-19.9 0-5-2.5-15.3-7.5-30.9L236 510.5h29.8l23.9 77.4c5.4 17.6 7.6 29.9 6.7 36.9 13.1-35 22.2-73.1 27.4-114.3h28.9z"/><path fill="#f29111" d="M757.1 644.4h-86.3V462.9h29.1v159.2h57.2v22.3zm-108.9 4.4l-33.4-16.5c3-2.4 5.8-5.1 8.3-8.1 14.2-16.7 21.3-41.3 21.3-73.9 0-60.1-23.6-90.1-70.7-90.1-23.1 0-41.1 7.6-54.1 22.9-14.2 16.7-21.2 41.2-21.2 73.7 0 31.9 6.3 55.3 18.8 70.2 11.5 13.4 28.8 20.2 51.9 20.2 8.6 0 16.6-1.1 23.8-3.2l43.5 25.3 11.8-20.5zm-108.1-40.7c-7.4-11.8-11-30.8-11-57 0-45.7 13.9-68.6 41.7-68.6 14.5 0 25.2 5.5 32 16.4 7.3 11.8 11 30.7 11 56.5 0 46.1-13.9 69.1-41.7 69.1-14.5 0-25.2-5.5-32-16.4m-54.3-14c0 15.4-5.7 28-16.9 37.9-11.3 9.8-26.4 14.8-45.4 14.8-17.8 0-35-5.7-51.6-17l7.8-15.6c14.3 7.2 27.3 10.8 39 10.8 10.9 0 19.5-2.4 25.7-7.2s9.9-11.6 9.9-20.2c0-10.8-7.5-20-21.3-27.7-12.7-7-38.2-21.6-38.2-21.6-13.8-10.1-20.7-20.9-20.7-38.6 0-14.7 5.2-26.6 15.5-35.6 10.3-9.1 23.6-13.6 39.9-13.6 16.9 0 32.2 4.5 46 13.5l-7 15.6c-11.8-5-23.5-7.5-34.9-7.5-9.3 0-16.5 2.2-21.5 6.7S404 499 404 506c0 10.8 7.7 20.1 21.9 28 12.9 7 39 21.9 39 21.9 13.8 9.9 20.9 20.6 20.9 38.2"/><path fill="#00758f" d="M793.6 402.1c-17.6-.4-31.1 1.3-42.6 6.1-3.3 1.3-8.5 1.3-9 5.5 1.8 1.8 2 4.6 3.5 7 2.6 4.4 7.2 10.3 11.4 13.4 4.6 3.5 9.2 7 14 10.1 8.5 5.3 18.2 8.3 26.5 13.6 4.8 3.1 9.7 7 14.5 10.3 2.4 1.8 3.9 4.6 7 5.7v-.7c-1.5-2-2-4.8-3.5-7-2.2-2.2-4.4-4.2-6.6-6.3-6.4-8.6-14.3-16-22.8-22.1-7-4.8-22.4-11.4-25.2-19.5l-.4-.4c4.8-.4 10.5-2.2 15.1-3.5 7.4-2 14.2-1.5 21.9-3.5 3.5-.9 7-2 10.5-3.1v-2c-4-3.9-6.8-9.2-11-12.9-11.2-9.6-23.5-19.1-36.2-27-6.8-4.4-15.6-7.2-22.8-11-2.6-1.3-7-2-8.5-4.2-3.9-4.8-6.2-11.2-9-16.9-6.4-12.1-12.5-25.4-18-38.2-3.9-8.5-6.4-17.1-11.2-25-22.6-37.3-47.2-59.9-84.9-82-8.1-4.6-17.8-6.6-28.1-9-5.5-.2-11-.7-16.5-.9-3.5-1.5-7-5.7-10.1-7.7-12.5-7.9-44.7-25-54-2.4-5.9 14.3 8.8 28.3 13.8 35.5 3.7 5 8.6 10.8 11.2 16.4 1.5 3.7 2 7.7 3.5 11.6 3.5 9.7 6.8 20.4 11.4 29.4 2.4 4.6 5 9.4 8.1 13.6 1.8 2.4 4.8 3.5 5.5 7.5-3.1 4.4-3.3 11-5.1 16.4-7.9 24.8-4.8 55.5 6.4 73.7 3.5 5.5 11.8 17.6 23 12.9 9.9-3.9 7.7-16.4 10.5-27.4.7-2.6.2-4.4 1.5-6.1v.4c3.1 6.1 6.1 12 9 18.2 6.8 10.7 18.6 21.9 28.5 29.4 5.2 4 9.4 10.8 16 13.2v-.7h-.4c-1.3-2-3.3-2.9-5-4.4-3.9-3.9-8.3-8.8-11.4-13.2-9.2-12.3-17.3-25.9-24.6-39.9-3.5-6.8-6.6-14.3-9.4-21.1-1.3-2.6-1.3-6.6-3.5-7.9-3.3 4.8-8.1 9-10.5 14.9-4.2 9.4-4.6 21.1-6.2 33.1-.9.2-.4 0-.9.4-7-1.8-9.4-9-12.1-15.1-6.6-15.6-7.7-40.6-2-58.6 1.5-4.6 8.1-19.1 5.5-23.5-1.3-4.2-5.7-6.6-8.1-9.9-2.8-4.2-5.9-9.4-7.9-14-5.3-12.3-7.9-25.9-13.6-38.2-2.6-5.7-7.2-11.6-11-16.9-4.2-5.9-8.8-10.1-12.1-17.1-1.1-2.4-2.6-6.4-.9-9 .4-1.8 1.3-2.4 3.1-2.9 2.8-2.4 11 .7 13.8 2 8.1 3.3 14.9 6.4 21.7 11 3.1 2.2 6.4 6.4 10.3 7.5h4.6c7 1.5 14.9.4 21.5 2.4 11.6 3.7 22.1 9.2 31.6 15.1 28.7 18.2 52.4 44.1 68.4 75 2.6 5 3.7 9.6 6.2 14.9 4.6 10.8 10.3 21.7 14.9 32.3 4.6 10.3 9 20.8 15.6 29.4 3.3 4.6 16.4 7 22.4 9.4 4.4 2 11.2 3.7 15.1 6.1 7.5 4.6 14.9 9.9 21.9 14.9 4.1 3 15 8.5 15.7 12.9"/><path fill="#f29111" d="M814.5 644.4h4.5v-22.2h-6.8l-5.6 15.2-6-15.2H794v22.2h4.3v-16.9h.2l6.3 16.9h3.3l6.3-16.9v16.9h.1zm-36.6 0h4.8v-18.5h6.3v-3.8h-17.7v3.8h6.5v18.5h.1z"/></svg>