<svg xmlns="http://www.w3.org/2000/svg" viewBox="0 0 850 850"><title>Node.js</title><path d="M434 680.7c-2.6 0-5.2-.7-7.5-2l-23.8-14.1c-3.5-2-1.8-2.7-.6-3.1 4.7-1.6 5.7-2 10.7-4.9.5-.3 1.2-.2 1.8.1l18.2 10.8c.7.4 1.6.4 2.2 0l71.1-41.1c.7-.4 1.1-1.1 1.1-1.9v-82.1c0-.8-.4-1.6-1.1-2l-71.1-41c-.7-.4-1.5-.4-2.2 0l-71.1 41c-.7.4-1.1 1.2-1.1 1.9v82.1c0 .8.4 1.5 1.1 1.9l19.5 11.3c10.6 5.3 17-.9 17-7.2v-81.1c0-1.1.9-2 2.1-2h9c1.1 0 2.1.9 2.1 2v81.1c0 14.1-7.7 22.2-21.1 22.2-4.1 0-7.3 0-16.4-4.5l-18.7-10.7c-4.6-2.7-7.5-7.6-7.5-13v-82.1c0-5.3 2.9-10.3 7.5-13l71.1-41.1c4.5-2.5 10.5-2.5 14.9 0l71.1 41.1c4.6 2.7 7.5 7.6 7.5 13v82.1c0 5.3-2.9 10.3-7.5 13l-71.1 41.1c-2 1.5-4.6 2.2-7.2 2.2zm57.4-80.9c0-15.4-10.4-19.5-32.2-22.3-22.1-2.9-24.3-4.4-24.3-9.6 0-4.3 1.9-10 18.3-10 14.6 0 20 3.1 22.2 13 .2.9 1 1.6 2 1.6h9.2c.6 0 1.1-.2 1.5-.7.4-.4.6-1 .5-1.6-1.4-17-12.7-24.9-35.5-24.9-20.3 0-32.4 8.6-32.4 22.9 0 15.6 12 19.9 31.5 21.8 23.3 2.3 25.1 5.7 25.1 10.3 0 8-6.4 11.3-21.4 11.3-18.8 0-23-4.7-24.4-14.1-.2-1-1-1.7-2-1.7h-9.2c-1.1 0-2.1.9-2.1 2 0 12 6.5 26.3 37.6 26.3 22.7 0 35.6-8.8 35.6-24.3zm53.4-75.5c-7.3 0-13.7 6-13.7 13.7 0 7.6 6.2 13.7 13.7 13.7 7.5 0 13.7-6.2 13.7-13.7 0-7.7-6.3-13.7-13.7-13.7zm0 2.2c6.3 0 11.5 5.1 11.5 11.5 0 6.3-5.2 11.5-11.5 11.5s-11.5-5.2-11.5-11.5c0-6.5 5.2-11.5 11.5-11.5zm-5.1 19.2h3v-6.2h2.7c1.1 0 1.4.4 1.6 1.3 0 .2.5 4.1.6 4.9h3.3c-.4-.7-.7-2.8-.8-4.1-.3-2-.4-3.3-2.5-3.5 1.1-.4 2.9-.9 2.9-3.8 0-4.1-3.6-4.1-5.4-4.1h-5.3v15.5zm2.9-12.9h2.5c.8 0 2.3 0 2.3 2.1 0 .8-.4 2.2-2.3 2.2h-2.4v-4.3z" fill="#679e63"/><path d="M213.5 476.4c0 1.6-.9 3.1-2.3 3.9-1.4.8-3.1.8-4.6 0l-44.8-25.7c-2.8-1.7-4.6-4.7-4.6-7.9v-54.6c0-3.3-1.7-6.3-4.6-7.9l-19.1-11c-1.4-.8-3-1.2-4.5-1.2-1.6 0-3.1.4-4.6 1.2l-19.1 11c-2.8 1.6-4.5 4.6-4.5 7.9v54.6c0 3.2-1.7 6.2-4.6 7.9l-44.8 25.7c-1.4.8-3.1.8-4.5 0s-2.3-2.3-2.3-3.9l-.2-116.9c0-3.3 1.7-6.3 4.6-7.9l75.4-43.4c1.3-.8 2.7-1.1 4.2-1.2h.8c1.4.1 2.9.4 4.2 1.2l75.4 43.4c2.8 1.6 4.6 4.6 4.6 7.9l-.1 116.9zm408-252.5c2.9 1.6 4.7 4.7 4.7 8V449c0 3.3-1.7 6.3-4.6 7.9l-75.5 43.6c-2.8 1.6-6.3 1.6-9.1 0l-75.4-43.6a9.12 9.12 0 01-4.6-7.9v-87.1c0-3.3 1.7-6.3 4.6-7.9l75.4-43.5c2.8-1.6 6.3-1.6 9.1 0l18.9 10.9c1 .6 2.2.6 3.2 0s1.6-1.6 1.6-2.8V202.8c0-1.6.9-3.1 2.2-3.9 1.4-.8 3.1-.8 4.5-.1l45 25.1zm-51.9 166.6c0-.8-.4-1.6-1.1-2l-25.9-15c-.7-.4-1.6-.4-2.3 0l-25.9 15c-.7.4-1.1 1.2-1.1 2v29.9c0 .8.4 1.6 1.1 2l25.9 14.9c.7.4 1.6.4 2.3 0l25.9-14.9c.7-.4 1.1-1.2 1.1-2v-29.9zm258.2-.8c2.8-1.6 4.5-4.6 4.5-7.9v-21.1c0-3.2-1.7-6.2-4.5-7.9l-75-43.5c-2.8-1.6-6.3-1.6-9.1 0l-75.4 43.5a9.12 9.12 0 00-4.6 7.9v87.1c0 3.3 1.8 6.3 4.6 7.9l74.9 42.7c2.8 1.6 6.2 1.6 8.9.1l45.3-25.2c1.4-.8 2.3-2.3 2.3-4 0-1.6-.9-3.2-2.3-4l-75.9-43.6c-1.4-.8-2.3-2.3-2.3-4v-27.3c0-1.6.9-3.1 2.3-3.9l23.6-13.6c1.4-.8 3.1-.8 4.5 0l23.6 13.6c1.4.8 2.3 2.3 2.3 3.9V412c0 1.6.9 3.1 2.3 3.9 1.4.8 3.2.8 4.6 0l45.4-26.2z" fill-rule="evenodd" clip-rule="evenodd" fill="#333"/><path d="M747.2 385.6c.5-.3 1.2-.3 1.7 0l14.5 8.4c.5.3.9.9.9 1.5v16.7c0 .6-.3 1.2-.9 1.5l-14.5 8.4c-.5.3-1.2.3-1.7 0l-14.5-8.4c-.5-.3-.9-.9-.9-1.5v-16.7c0-.6.3-1.2.9-1.5l14.5-8.4z" fill-rule="evenodd" clip-rule="evenodd" fill="#679e63"/><linearGradient id="a" gradientUnits="userSpaceOnUse" x1="365.862" y1="341.965" x2="298.084" y2="480.232"><stop offset="0" stop-color="#3f873f"/><stop offset=".33" stop-color="#3f8b3d"/><stop offset=".637" stop-color="#3e9638"/><stop offset=".934" stop-color="#3da92e"/><stop offset="1" stop-color="#3dae2b"/></linearGradient><path d="M339.9 309.7c-2.8-1.6-6.3-1.6-9.1 0l-75 43.3c-2.8 1.6-4.5 4.6-4.5 7.8v86.7c0 3.2 1.7 6.2 4.5 7.8l75 43.3c2.8 1.6 6.3 1.6 9.1 0l75-43.3c2.8-1.6 4.5-4.6 4.5-7.8v-86.7c0-3.2-1.7-6.2-4.5-7.8l-75-43.3z" fill-rule="evenodd" clip-rule="evenodd" fill="url(#a)"/><linearGradient id="b" gradientUnits="userSpaceOnUse" x1="323.94" y1="414.326" x2="514.119" y2="273.811"><stop offset=".138" stop-color="#3f873f"/><stop offset=".402" stop-color="#52a044"/><stop offset=".713" stop-color="#64b749"/><stop offset=".908" stop-color="#6abf4b"/></linearGradient><path d="M415.1 353l-75.2-43.3c-.7-.4-1.5-.7-2.4-.9L253 453.3c.7.8 1.6 1.5 2.5 2.1l75.4 43.3c2.1 1.2 4.7 1.5 7 .9l79.2-145c-.6-.6-1.3-1.2-2-1.6z" fill="url(#b)"/><linearGradient id="c" gradientUnits="userSpaceOnUse" x1="248.629" y1="294.102" x2="422.088" y2="294.102"><stop offset=".092" stop-color="#6abf4b"/><stop offset=".287" stop-color="#64b749"/><stop offset=".598" stop-color="#52a044"/><stop offset=".862" stop-color="#3f873f"/></linearGradient><path fill="url(#c)" d="M328.3 293.8l-1 .6h1.4z"/><linearGradient id="d" gradientUnits="userSpaceOnUse" x1="248.629" y1="404.173" x2="422.088" y2="404.173"><stop offset=".092" stop-color="#6abf4b"/><stop offset=".287" stop-color="#64b749"/><stop offset=".598" stop-color="#52a044"/><stop offset=".862" stop-color="#3f873f"/></linearGradient><path d="M415.1 455.4c2.2-1.3 3.8-3.4 4.4-5.8L337 308.7c-2.2-.4-4.4-.1-6.4 1l-74.7 43 80.7 147.1c1.2-.2 2.3-.5 3.3-1.1l75.2-43.3z" fill="url(#d)"/><linearGradient id="e" gradientUnits="userSpaceOnUse" x1="248.629" y1="453.692" x2="422.088" y2="453.692"><stop offset=".092" stop-color="#6abf4b"/><stop offset=".287" stop-color="#64b749"/><stop offset=".598" stop-color="#52a044"/><stop offset=".862" stop-color="#3f873f"/></linearGradient><path fill="url(#e)" d="M422.1 454l-.5-.9v1.2z"/></svg>