<svg xmlns="http://www.w3.org/2000/svg" viewBox="0 0 850 850"><title>PHP</title><path d="M94.2 310.1h116.6c34.2.3 59 10.2 74.4 29.6 15.4 19.4 20.4 46 15.2 79.6-2 15.4-6.5 30.5-13.5 45.2-6.7 14.8-15.9 28.1-27.8 40-14.5 15.1-30 24.6-46.5 28.7s-33.6 6.1-51.3 6.1H109L92.5 622H32l62.2-311.9m50.9 49.6L119 490.2c1.7.3 3.5.4 5.2.4h6.1c27.8.3 51-2.5 69.6-8.3 18.6-6.1 31-27.3 37.4-63.5 5.2-30.5 0-48-15.7-52.6-15.4-4.6-34.7-6.8-57.9-6.5-3.5.3-6.8.4-10 .4h-9.1l.5-.4M369.3 227h60l-17 83.1h53.9c29.6.6 51.6 6.7 66.1 18.3 14.8 11.6 19.1 33.6 13.1 66.1l-29.1 144.9h-60.9L483.3 401c2.9-14.5 2-24.8-2.6-30.9-4.6-6.1-14.6-9.1-30-9.1l-48.3-.4-35.7 178.8h-60L369.3 227m240.6 83.1h116.6c34.2.3 59 10.2 74.4 29.6 15.4 19.4 20.4 46 15.2 79.6-2 15.4-6.5 30.5-13.5 45.2-6.7 14.8-15.9 28.1-27.8 40-14.5 15.1-30 24.6-46.5 28.7-16.5 4.1-33.6 6.1-51.3 6.1h-52.2L608.2 622h-60.5l62.2-311.9m50.9 49.6l-26.1 130.5c1.7.3 3.5.4 5.2.4h6.1c27.8.3 51-2.5 69.6-8.3 18.6-6.1 31-27.3 37.4-63.5 5.2-30.5 0-48-15.7-52.6-15.4-4.6-34.7-6.8-57.9-6.5-3.5.3-6.8.4-10 .4h-9.1l.5-.4" fill="#000000"/></svg>