<svg version="1.1" xmlns="http://www.w3.org/2000/svg" x="0" y="0" viewBox="0 0 850 850" xml:space="preserve"><title>PrestaShop</title><path fill="#292457" d="M191.7 685.1c-.1-.6-.1-1.5-.1-2.8 0-8 2.7-14.2 8-18.7s11.2-6.7 17.6-6.7c8.5 0 14.4 3.2 17.7 9.7l-43.2 18.5zm61.7-11.4c-.1-9.5-3.7-17.1-10.7-23s-15.8-8.8-26.5-8.8c-6.7 0-13.1 1.5-19.2 4.5-6 3-11.1 7.6-15.2 13.9-4.1 6.3-6.1 13.6-6.1 21.9 0 12 3.9 21.6 11.8 29 7.9 7.3 17.4 11 28.4 11 12.6 0 23.5-4.8 32.8-14.3l-9.7-10.7c-5.7 6.8-12.8 10.2-21.6 10.2-8.7 0-15.6-3.1-20.7-9.4l56.7-23.8v-.5zM157 646.6c-4.5 3.1-8.1 7.1-10.7 12V643h-16.4v77.8h16.4v-33.3c0-8.9 2-15.9 6.1-21.2s10.2-7.9 18.3-7.9h.9l-.1-16.5c-5.2 0-10 1.6-14.5 4.7m155.1 34.6c-2.6-1.8-5.1-3.1-7.4-4.1s-4.7-1.9-7.1-2.6c-2.4-.8-5.2-1.6-8.4-2.3-3.2-.8-5.6-1.6-7.4-2.5-2.5-1.2-3.8-3-3.8-5.6 0-2.8 1.2-4.9 3.7-6.4 2.4-1.4 5.6-2.1 9.5-2.1 7.4 0 14.3 2.1 20.6 6.3l6.1-12.1c-8-5.3-16.5-7.9-25.4-7.9-9 0-16.3 2.2-21.9 6.5s-8.4 10.1-8.4 17.3c0 10.2 8.1 17.5 24.3 21.9.4.1 1 .3 1.8.6 10.3 3.1 15.5 6.6 15.5 10.5 0 2.6-1.1 4.8-3.2 6.5s-5.1 2.6-8.8 2.6c-8.5 0-17.3-3.4-26.3-10.2l-7.9 12.7c4.7 3.7 10.1 6.6 16.2 8.6s12 3.1 17.6 3.1c8.4 0 15.3-2.2 20.6-6.7 5.4-4.4 8-10.4 8-17.8s-2.6-12.8-7.9-16.3M95.4 669.7c-3.5 3.7-10 5.5-19.5 5.5h-20v-40.9h17.5c9.4 0 16.2 1.5 20.6 4.4 4.4 2.9 6.6 7.9 6.6 15 0 7-1.7 12.3-5.2 16m12.2-42.2c-7.1-5.9-18.4-8.9-33.9-8.9H38.6v102.2h17.3v-30H74c15 0 26.2-2.9 33.4-8.6 7.3-5.8 10.9-14.8 10.9-27.2s-3.6-21.6-10.7-27.5m250.7 80.3c-3.5 0-6.2-1.1-8.2-3.3s-2.9-5.1-2.9-8.8v-39.5h20.5V643h-20.5v-24.4h-16.4v76.6c0 8.2 2.5 14.7 7.4 19.5s10.9 7.2 17.8 7.2c7 0 13.3-2.6 19.1-7.7l-6.7-11.6c-3.2 3.5-6.5 5.2-10.1 5.2m75-7.4c-4.5 4.7-9.9 7.1-16.4 7.1-6.4 0-12-2.3-16.8-7s-7.2-10.7-7.2-18.2 2.3-13.7 7-18.6c4.7-5 10.3-7.5 16.8-7.5s12 2.5 16.5 7.5 6.7 11.2 6.7 18.6c.1 7.3-2.1 13.4-6.6 18.1m6.4-44c-6.6-9.7-15.1-14.6-25.3-14.6-10.2 0-19.1 3.6-26.6 10.8s-11.3 16.9-11.3 29 3.7 21.8 11 29.2 15.9 11.1 25.7 11.1c4.9 0 9.7-1.2 14.5-3.6 4.8-2.4 8.8-5.8 11.9-10.3v12.7H456V643h-16.4l.1 13.4z"/><path fill="#df0067" d="M698.9 700.2c-4.6 4.7-10.5 7.1-17.6 7.1s-13-2.4-17.6-7.1c-4.6-4.7-6.9-10.8-6.9-18.4 0-7.5 2.3-13.6 6.9-18.4 4.6-4.7 10.5-7.1 17.6-7.1s13 2.4 17.6 7.1c4.6 4.7 6.9 10.8 6.9 18.4 0 7.6-2.3 13.7-6.9 18.4m-17.6-58.4c-11.7 0-21.4 3.9-29.2 11.6-7.8 7.8-11.7 17.2-11.7 28.4s3.9 20.7 11.7 28.4 17.5 11.6 29.2 11.6 21.4-3.9 29.2-11.6c7.8-7.8 11.7-17.2 11.7-28.4s-3.9-20.7-11.7-28.4c-7.8-7.7-17.5-11.6-29.2-11.6m106.6 58.5c-4.8 4.7-10.4 7-16.8 7s-11.9-2.4-16.4-7.1c-4.5-4.7-6.7-10.8-6.7-18.2s2.2-13.6 6.7-18.5 10-7.4 16.5-7.4 12.1 2.5 16.8 7.4 7 11.1 7 18.6-2.4 13.5-7.1 18.2m12.4-47.7c-7.4-7.2-16.3-10.8-26.8-10.8-10.4 0-18.9 4.9-25.3 14.8V643h-16.4v106.2h16.4v-40.1c7.8 8.6 16.6 12.9 26.4 12.9 9.8 0 18.4-3.8 25.7-11.3 7.4-7.5 11-17.3 11-29.2.1-12-3.6-21.6-11-28.9m-198.1-10.8c-5.5 0-10.6 1.4-15.3 4.1-4.7 2.7-8.3 6.5-10.6 11.3v-44.7h-16.4v108.4h16.4v-42.1c0-7.2 2.1-12.7 6.3-16.5s9.1-5.6 14.8-5.6c11.9 0 17.8 7.2 17.8 21.5v42.7h16.4v-47.7c0-10.1-2.7-17.9-8.1-23.3-5.4-5.4-12.5-8.1-21.3-8.1m-61.8 29.9c-5.3-4.6-13.2-8.1-23.7-10.7-10.5-2.5-17.3-4.9-20.5-7.1-3.2-2.2-4.8-5.4-4.8-9.5s1.6-7.2 4.8-9.3c3.2-2 7.3-3.1 12.4-3.1 5 0 10.1.9 15.3 2.6 5.2 1.8 9.3 4 12.3 6.7l9.2-13c-4.7-3.9-10.2-6.9-16.7-9.1-6.4-2.1-12.9-3.2-19.4-3.2-10.1 0-18.6 2.6-25.5 7.7-6.9 5.1-10.3 12.4-10.3 21.9s3 16.5 9.1 21.1c3 2.4 6.5 4.4 10.4 5.9s9.6 3.2 17.1 5 12.8 3.8 15.9 6c3.1 2.2 4.6 5.3 4.6 9.2s-1.6 7.1-4.9 9.5c-3.3 2.4-7.7 3.6-13.2 3.6-11.1 0-21.8-4.5-32.2-13.5l-10.8 13c12.4 11 26.6 16.5 42.6 16.5 10.9 0 19.7-2.8 26.5-8.3 6.7-5.6 10.1-12.8 10.1-21.7-.4-8.9-3-15.7-8.3-20.2"/><path fill="#b0deec" d="M342.1 462.6c3.8-1.7 7.6-3.2 11.4-4.7 4.3-1.6 8.7-3.2 13.2-4.5 5.5-1.7 11.1-3.2 16.7-4.4 7.6-1.6 15.3-2.8 23.1-3.6-4.4 13.7-9.2 27.3-14.4 40.8.2 2.6.3 5.3.4 7.9 10.5-2.1 21.3-3.2 32.5-3.2s22 1.1 32.5 3.2c.1-2.6.2-5.3.4-7.9-5.2-13.5-10-27.1-14.4-40.8 7.8.8 15.5 2 23.1 3.6 5.6 1.2 11.2 2.7 16.7 4.4 4.4 1.3 8.8 2.9 13.2 4.5 3.9 1.4 7.7 3 11.4 4.7 26.7 11.9 51.1 29.5 71 52.4 50.1-43.2 81.8-107.1 81.8-178.4 0-130.2-105.5-235.7-235.7-235.7S189.3 206.4 189.3 336.6c0 71.3 31.7 135.2 81.8 178.4 19.9-22.9 44.3-40.5 71-52.4z"/><path fill="#5b5957" d="M357.6 505.2c11.1-4.9 22.8-8.6 34.9-11-.1-2.6-.2-5.3-.4-7.9 5.2-13.5 10-27.1 14.4-40.8-7.8.8-15.5 2-23.1 3.6-5.6 1.2-11.2 2.7-16.7 4.4-4.4 1.3-8.8 2.9-13.2 4.5l17.2 4.2-13.1 43zm-40.5 25.4c.4-4.4.7-8.8.7-13.3 0-2.7 2.2-4.9 4.9-4.9h4.3l15.1-49.9c-26.7 11.9-51.1 29.5-71 52.4 11 9.5 22.9 18 35.5 25.4 3.4-3.3 6.9-6.6 10.5-9.7zm190.8-68l15.1 49.9h4.3c2.7 0 4.9 2.2 4.9 4.9 0 4.5.3 8.9.7 13.3 3.6 3.1 7.2 6.4 10.5 9.7 12.6-7.4 24.5-15.9 35.5-25.4-19.9-22.9-44.3-40.5-71-52.4zm-28.6-.5l17.2-4.2c-4.3-1.6-8.7-3.2-13.2-4.5-5.5-1.7-11.1-3.2-16.7-4.4-7.6-1.6-15.3-2.8-23.1-3.6 4.4 13.7 9.2 27.3 14.4 40.8-.2 2.6-.3 5.3-.4 7.9 12.2 2.4 23.9 6.1 34.9 11l-13.1-43z"/><path fill="#000" d="M306.6 540.4c3.4-3.4 6.9-6.7 10.5-9.8-.5 4.9-1.2 9.7-2.2 14.4-2.8-1.4-5.6-3-8.3-4.6zm226.3-9.8c.5 4.9 1.2 9.7 2.2 14.4 2.8-1.5 5.6-3 8.3-4.6-3.4-3.4-6.9-6.7-10.5-9.8zm-75.4-36.3c0 .4-21.4-3.3-32.6-3.3s-22 1.1-32.5 3.2c-12.1 2.4-23.8 6.1-34.7 11l-2.3 7.3 139.2.1v-.1l-2.2-7.2c-11.1-4.9-22.8-8.6-34.9-11z"/><path fill="#b19975" d="M355.4 512.5l2.2-7.2 13.1-43.2-17.2-4.2c-3.9 1.4-7.7 3-11.4 4.7L327 512.5h28.4zm137-7.3l2.2 7.2H523l-15.1-49.9c-3.8-1.7-7.6-3.2-11.4-4.7l-17.2 4.2 13.1 43.2z"/><path fill="#c9b79d" d="M425 522.2h-97.1c-.1.1-.3.2-.4.3-.3 9.2-1.6 18.2-3.6 27 30.6 14.6 64.9 22.7 101.1 22.7v-50z"/><path fill="#b19975" d="M522.5 522.6v-.4H425v50.1c36.2 0 70.5-8.2 101.1-22.7-2-8.8-3.2-17.8-3.6-27z"/><path fill="#957b63" d="M532.9 530.6c-.4-4.4-.7-8.8-.7-13.3 0-2.7-2.2-4.9-4.9-4.9H322.7c-2.7 0-4.9 2.2-4.9 4.9 0 4.5-.3 8.9-.7 13.3-.5 4.9-1.2 9.7-2.2 14.4 3 1.6 6 3.1 9 4.5 2-8.8 3.2-17.8 3.6-27v-.3h195v.3c.3 9.2 1.6 18.2 3.6 27 3-1.4 6-3 9-4.5-1-4.7-1.7-9.5-2.2-14.4z"/><path fill="#c7c6c7" d="M582 284.1c0-.1-.1-.1-.1-.2-2-2.7-4-5.2-6.1-7.5l-.1-.1c-.9-1-1.9-2-2.9-2.9-.4-.3-.7-.7-1.1-1-.6-.6-1.2-1.1-1.8-1.6v21.9l8.4 38.4.3.9 5.8 6.5.1-.1h6.1v-1.7c0-18.1-3-35.6-8.4-51.9 0-.1-.1-.4-.2-.7z"/><path fill="#c7c6c7" d="M579.4 338.7z"/><path fill="#71706f" d="M579.2 335V335.3c.1.9.2 1.8.2 2.8v1.2c0 .9-.1 1.9-.2 2.7V342.3c-.1 1-.3 1.9-.5 2.8l5.8-6.5-5.8-6.5c.2 1 .3 2 .5 2.9z"/><path fill="#fff" d="M570.3 324.4c-2 0-3.6 2.7-3.6 6.1s1.6 6.1 3.6 6.1 3.6-2.7 3.6-6.1c-.1-3.4-1.6-6.1-3.6-6.1z"/><path fill="#000" d="M579.2 342.4c0-.1.1-.2.1-.4.1-.9.1-1.8.2-2.7v-.6-.6c0-.9-.1-1.9-.2-2.8 0-.1 0-.2-.1-.3-.1-1-.3-1.9-.5-2.8l-.3-.9c-.6-1.8-1.3-3.5-2.2-4.8-.1-.2-.2-.4-.4-.5-.2-.3-.5-.7-.8-.9-.4-.4-.8-.8-1.2-1.1-.2-.1-.3-.2-.5-.3-.4-.2-.7-.4-1.1-.6-.2-.1-.3-.1-.5-.2-.6-.2-1.1-.3-1.7-.3-.6 0-1.1.1-1.7.3-.2.1-.3.1-.5.2-.4.2-.8.4-1.1.6-.2.1-.3.2-.5.3-.4.3-.8.7-1.2 1.1-.3.3-.5.6-.8.9-.1.2-.3.3-.4.5-.9 1.4-1.7 3-2.2 4.8 0 .1 0 .1-.1.2-.2.8-.4 1.7-.6 2.7 0 .3-.1.5-.2.8-.1 1-.2 2.1-.2 3.2v.4c0 9 4.2 16.3 9.5 16.3.9 0 1.8-.2 2.6-.6.1-.1.3-.1.4-.2.3-.2.7-.4 1-.7.2-.1.3-.3.5-.5.4-.4.8-.8 1.2-1.3.3-.3.5-.7.8-1.1.2-.2.3-.5.4-.8.3-.5.5-1 .7-1.5.1-.2.2-.4.2-.6.3-.8.5-1.5.8-2.4.3-.9.4-1.8.6-2.8zm-8.9-5.8c-2 0-3.6-2.7-3.6-6.1s1.6-6.1 3.6-6.1 3.6 2.7 3.6 6.1c-.1 3.3-1.6 6.1-3.6 6.1zm-111.6 1.8c0-.8-.1-1.5-.1-2.3-.1-.7-.2-1.5-.4-2.2v-.1l-.6-2.1c-.2-.7-.5-1.4-.8-2-.3-.7-.6-1.3-1-1.9-1.1-1.9-2.4-3.6-4-5.1-2-1.9-4.3-3.4-6.9-4.5h-.1c-1.3-.5-2.6-.9-4-1.2h-.1c-1.4-.3-2.8-.4-4.3-.4-1.4 0-2.8.1-4.2.4h-.1c-1.3.3-2.7.7-3.9 1.2h-.1c-1.3.5-2.5 1.1-3.6 1.9-1.1.7-2.2 1.6-3.2 2.5v.1h-.1c-1.6 1.5-2.9 3.2-4 5.1v.1l-.9 1.8c0 .1-.1.1-.1.2-.3.6-.5 1.2-.7 1.8 0 .1-.1.2-.1.3-.2.6-.3 1.1-.5 1.7 0 .2-.1.3-.1.5-.1.6-.2 1.1-.3 1.7 0 .2-.1.3-.1.5-.1.8-.1 1.5-.1 2.3 0 1.5.1 2.9.4 4.3v.1c.3 1.4.7 2.7 1.2 4v.1c1.1 2.6 2.6 4.9 4.5 6.9 1.5 1.6 3.2 2.9 5.2 4l1.8.9c.1 0 .1.1.2.1.6.3 1.2.5 1.8.7.1 0 .2.1.3.1.6.2 1.1.3 1.7.5.2 0 .3.1.5.1.6.1 1.1.2 1.7.3.2 0 .3.1.5.1.8.1 1.5.1 2.3.1 3.1 0 6-.6 8.6-1.7 1.3-.6 2.6-1.2 3.8-2 2.4-1.6 4.4-3.6 6-6 .8-1.2 1.5-2.4 2-3.8 1.1-2.7 1.7-5.6 1.7-8.6v-.2c.2-.2.2-.3.2-.3zm-22.2-2.6c-4.6 0-8.3-3.7-8.3-8.3 0-4.6 3.7-8.3 8.3-8.3 4.6 0 8.3 3.7 8.3 8.3.1 4.5-3.7 8.3-8.3 8.3z"/><path fill="#fff" d="M436.5 319.1c-4.6 0-8.3 3.7-8.3 8.3 0 4.6 3.7 8.3 8.3 8.3 4.6 0 8.3-3.7 8.3-8.3.1-4.6-3.7-8.3-8.3-8.3z"/><path fill="#c7c6c7" d="M421.2 322.6l.1-.1 15.3-46.8v-5.5-2.3-.7-1-.6-.6-.3-.1c-8.5-1.7-17.3-2.7-26.2-2.7-3 0-6 .1-8.9.3-.4 0-.9.1-1.3.1-15.4 1.2-30.5 5.2-44.5 11.6-12 5.5-23.2 12.7-33.2 21.3-2.7 2.3-5.3 4.7-7.8 7.2l-1.4 1.4c-2.4 2.4-4.7 4.9-6.9 7.4-.5.6-1 1.1-1.4 1.7-2.2 2.6-4.4 5.3-6.4 8.1-.2.2-.3.5-.5.7-2 2.7-3.8 5.4-5.6 8.2-.4.5-.7 1.1-1.1 1.6-1.5 2.3-2.8 4.7-4.2 7.1H356.9l64.3-16z"/><path fill="#e9e4e3" d="M480.1 317.3c.1-1.8.3-3.6.4-5.5.1-2.5.2-4.9.3-7.4v-5.8-1.7c-.1-5-.2-9.9-.5-14.9 0 0-.1-.1-.2-.1s-.1-.1-.2-.1c-.9-.5-3.1-1.8-5.2-2.9 0 0-.1 0-.1-.1-.5-.3-1-.6-1.4-.8-.4-.2-.7-.4-1-.6-.1 0-.1-.1-.2-.1-.3-.2-.6-.3-.7-.4-3.2-1.7-6.5-3.2-9.8-4.6-7.9-3.3-18.6-6.3-24.6-7.7v11l15.2 46.9c1.6 1.5 2.9 3.2 4 5.1.4.6.7 1.3 1 1.9.3.7.5 1.3.8 2l.6 2.1v.1c.2.7.3 1.4.4 2.2.1.8.1 1.5.1 2.3l.1.1h18.6c1.3-6.8 2.1-13.7 2.7-20.6-.4 0-.4-.2-.3-.4z"/><path fill="#f9b233" d="M458.9 405.3c4.2-4.2 8.2-8.2 12-12.1 2.3-2.3 4.5-4.7 6.6-6.9 15.5-16.8 26.9-32.6 33.8-52.9.2-.5.3-1.1.5-1.8 0-.1 0-.2.1-.3.2-.8.3-1.6.5-2.5.1-.7.1-1.3.2-1.9-1.7-8.8-5.1-17.4-8-25.9v.1l-.1-.1c-.6-.5-1.2-1-1.7-1.6-1.7-1.6-3.5-3.2-5.3-4.7-5.4-4.6-11.1-8.7-17.1-12.4.3 5 .5 9.9.5 14.9v7.5c0 2.5-.1 4.9-.3 7.4-.1 1.8-.2 3.7-.4 5.5 0 .2 0 .4-.1.6-.6 6.9-1.4 13.8-2.7 20.6l-2.2 10.3c-4.6 18.5-13.8 35.2-21.4 52.5-2 4.6-3.9 9.2-5.6 13.9-.2.4-.3.9-.5 1.3 2.4-2.5 4.5-4.7 6.1-6.2 1.7-2 3.4-3.7 5.1-5.3z"/><path fill="#9c9b9b" d="M561.6 331.3c.6-1.8 1.3-3.5 2.2-4.8.1-.2.2-.4.4-.5.2-.3.5-.7.8-.9.4-.4.8-.8 1.2-1.1.2-.1.3-.2.5-.3.4-.2.7-.4 1.1-.6.2-.1.3-.1.5-.2.5-.2 1.1-.3 1.7-.3.6 0 1.1.1 1.7.3.2.1.3.1.5.2.4.2.8.4 1.1.6.2.1.3.2.5.3.4.3.8.7 1.2 1.1.3.3.5.6.8.9.1.2.2.3.4.5.9 1.4 1.7 3 2.2 4.8l-8.4-38.4-8.4 38.4zm-140.3-8.8c1-.9 2.1-1.8 3.2-2.5s2.3-1.4 3.6-1.9h.1c1.2-.5 2.6-.9 3.9-1.2h.1c1.4-.3 2.8-.4 4.2-.4 1.5 0 2.9.1 4.3.4h.1c1.4.3 2.7.7 4 1.2h.1c2.6 1.1 4.9 2.6 6.9 4.5l-15.2-46.9-15.3 46.8z"/><path fill="#71706f" d="M415.9 347.1c-.5-1.3-.9-2.6-1.2-4v-.1c-.3-1.4-.4-2.8-.4-4.3 0-.8 0-1.6.1-2.3 0-.2.1-.4.1-.5.1-.6.2-1.2.3-1.7 0-.2.1-.3.1-.5.1-.6.3-1.1.5-1.7 0-.1.1-.2.1-.3.2-.6.4-1.2.7-1.8 0-.1.1-.1.1-.2l.9-1.8v-.1c1.1-1.9 2.4-3.6 4-5.1l-64.4 15.9h-.1l63.7 15.6c-1.8-2.1-3.4-4.5-4.5-7.1.1 0 .1 0 0 0z"/><path fill="#e9e4e3" d="M560.7 335c0-.3.1-.6.2-.8l.6-2.7c0-.1 0-.2.1-.3l8.4-38.4v-21.9c-6.9-5.7-14.2-8.8-21.9-8.8-9.7 0-18.7 5.3-25.4 11.9-7.4 7.2-13.1 16.3-17.7 25.4l-.6 1.2c1.4 1.2 2.8 2.5 4.2 3.7 3.1 2.9 6.2 5.8 9.2 8.8l4.2 4.2c1.5 1.5 2.9 3 4.4 4.5 1.9 2 3.7 3.9 5.5 5.9.8.8 1.5 1.7 2.3 2.5 2.2 2.4 4.4 4.9 6.6 7.4.4.4.6.7.7.8h18.9v-.4c.1-.9.2-2 .3-3z"/><path fill="#5b5957" d="M275.8 362.7c.1-.1.1-.3.2-.4 1.2-3.2 2.6-6.3 4-9.5.4-.9.8-1.7 1.2-2.6 1.1-2.4 2.4-4.9 3.6-7.2.5-1 1-1.9 1.5-2.9.3-.5.6-1 .9-1.6 1.3-2.4 2.7-4.7 4.2-7.1.3-.5.7-1.1 1.1-1.6 1.8-2.8 3.7-5.5 5.6-8.2.2-.2.3-.5.5-.7 2.1-2.8 4.2-5.4 6.4-8.1.5-.6.9-1.1 1.4-1.7 2.2-2.5 4.5-5 6.9-7.4l1.4-1.4c2.5-2.5 5.1-4.9 7.8-7.2 10.6-35.5 43-61.3 81.3-61.3 15.4 0 30.8 4.4 43.9 12.5 13.5 8.3 24.5 20.3 31.6 34.4 0 .1.1.1.1.2.2.4.4.7.6 1.1 6 3.7 11.7 7.9 17.1 12.4 1.8 1.5 3.6 3.1 5.3 4.7.6.5 1.2 1 1.7 1.6v-.1l.6-1.2c5.4-34.1 20.4-58.7 38.2-58.7 13.4 0 25.2 13.9 32.6 35.4l.1.2c2.1 2.3 4.1 4.7 6.1 7.5 0 .1.1.1.1.2l.3.9-.3-1.1c-22.1-65.3-83.9-112.4-156.7-112.4-91.3 0-165.3 74-165.3 165.3 0 18 2.9 35.3 8.2 51.5v-.1c1-4.9 2.3-9.7 3.8-14.5 1.3-3.6 2.6-7.3 4-10.9z"/><path fill="#fff" d="M584.4 338.7l-5.8 6.5c-.2.8-.5 1.6-.8 2.4-.1.2-.2.4-.2.6-.2.5-.5 1.1-.7 1.5-.1.3-.3.5-.4.8-.2.4-.5.7-.8 1.1-.4.5-.8.9-1.2 1.3l-.5.5c-.3.3-.7.5-1 .7-.1.1-.3.1-.4.2-.8.4-1.7.6-2.6.6-5.2 0-9.5-7.3-9.5-16.3h-19c3.5 4.1 7 8.2 10.4 12.4 0 .1.1.1.1.2l9.9 12.3c.2.2.3.4.5.6 3.1 3.9 6.1 7.9 9.1 11.8l.9 1.2c3.2 4.2 6.4 8.4 9.5 12.6 0 0 0 .1.1.1 5.4-16.1 8.5-33.3 8.7-51.2l-6.3.1zM366.1 491.1c1.5.6 3 1.1 4.6 1.6 17.1 6 35.5 9.3 54.6 9.3 21.8 0 42.7-4.3 61.7-12 1-.4 2-.9 3-1.3l4.8-2.1c1.4-.7 2.9-1.3 4.3-2-.3 0-.7.1-1 .1-5.9.7-11.8.7-17.6-.1-34-4.9-41.6-21.3-40.5-38.4-2.4-1.4-4.9-3-7.5-4.8-26.2-19-41.7-39.2-41.7-39.2s20.2 15.6 50.3 27.2c.6.2 1.3.5 1.9.7 1.4-4.9 3.1-9.5 4.5-13.6.2-.4.3-.9.5-1.3 1.7-4.7 3.6-9.4 5.6-13.9 7.6-17.3 16.9-34 21.4-52.5l2.2-10.3h-18.6v.2c0 3.1-.6 6-1.7 8.6-.6 1.3-1.3 2.6-2 3.8-1.6 2.4-3.6 4.4-6 6-1.2.8-2.4 1.5-3.8 2-2.7 1.1-5.6 1.7-8.6 1.7-.8 0-1.5 0-2.3-.1-.2 0-.3-.1-.5-.1-.6-.1-1.2-.2-1.7-.3-.2 0-.3-.1-.5-.1-.6-.1-1.2-.3-1.7-.5-.1 0-.2-.1-.3-.1-.6-.2-1.2-.4-1.8-.7-.1 0-.1-.1-.2-.1l-1.8-.9c-1.9-1.1-3.6-2.4-5.2-4l-63.7-15.6h-69.6c-.3.5-.6 1-.9 1.6-.5 1-1 1.9-1.5 2.9-1.3 2.4-2.5 4.8-3.6 7.2-.4.9-.8 1.7-1.2 2.6-1.4 3.1-2.7 6.3-4 9.5-.1.1-.1.3-.2.4-1.4 3.7-2.7 7.4-3.8 11.1-1.5 4.8-2.7 9.6-3.8 14.5 11 33.4 32.3 62.1 60.1 82.3.8.6 1.7 1.1 2.5 1.7 4.7 3.3 9.6 6.4 14.6 9.2 6.7 3.8 13.6 7.1 20.7 9.8z"/><path fill="#a12553" d="M480.3 439.7c-.3 1.8-.4 3.5-.5 5.2-.1 3.1.1 6 .6 8.7.3 1.8.7 3.6 1.2 5.3.7 2.5 1.6 4.9 2.6 7.1s2.1 4.2 3.3 6l1.2 1.8c.6.8 1.2 1.6 1.7 2.4.8 1 1.5 1.9 2.2 2.7 3 3.5 5.4 5.4 5.4 5.4s0 .1.1.2c0 .1.1.2.1.4.3 0 .7-.1 1-.1 7.4-.9 14.8-2.9 22.1-5.6 3.7-1.3 7.5-2.8 11.1-4.5 1.1-.5 2.2-1.1 3.3-1.6 37.9-18.3 69.6-50.7 69.6-50.7-47.6 23.3-94.1 22.3-125 17.3z"/><path fill="#df0067" d="M571.5 375.9c-3-4-6.1-7.9-9.1-11.8-.2-.2-.3-.4-.5-.6-3.2-4.1-6.5-8.2-9.9-12.3 0-.1-.1-.1-.1-.2-3.4-4.2-6.9-8.3-10.4-12.4-.2-.3-.4-.5-.7-.8-2.2-2.5-4.4-4.9-6.6-7.4-.8-.8-1.5-1.7-2.3-2.5-1.8-2-3.7-4-5.5-5.9-1.5-1.5-2.9-3-4.4-4.5l-4.2-4.2c-3-3-6.1-5.9-9.2-8.8-1.4-1.3-2.8-2.5-4.2-3.7 3 8.6 6.4 17.3 8.1 26.2.4 2.3.8 4.6 1.1 6.8 4.2 31-5.8 51.2-21.5 77.8-1.1 1.9-2.3 3.8-3.5 5.8-3.6 6-5.9 11.7-7.3 17.1-.4 1.8-.8 3.5-1 5.2 30.9 5 77.4 5.9 125-17.5 0 0-9.3-13.7-23.4-32.6-3.1-4.2-6.3-8.4-9.5-12.6-.3-.3-.6-.7-.9-1.1z"/><path fill="#000" d="M400.2 262.3c.4 0 .9-.1 1.3-.1 2.9-.2 5.9-.3 8.9-.3 9 0 17.7 1 26.2 2.7v4.2-4.2c6 1.4 16.7 4.3 24.6 7.7 3.3 1.4 6.6 2.9 9.8 4.6.1.1.4.2.7.4.1 0 .1.1.2.1.3.2.6.3 1 .6s.9.5 1.4.8c0 0 .1 0 .1.1 2 1.2 4.3 2.4 5.2 2.9.1.1.2.1.2.1s.1.1.2.1c-.2-.4-.4-.7-.6-1.1 0-.1-.1-.1-.1-.2-7.1-14.1-18.1-26.2-31.6-34.4-13.2-8-28.5-12.5-43.9-12.5-38.3 0-70.7 25.8-81.3 61.3 10-8.6 21.2-15.8 33.2-21.3 14-6.3 29.1-10.3 44.5-11.5zM522.7 274c6.7-6.6 15.8-11.9 25.4-11.9 7.7 0 15 3.1 21.9 8.8v.1c.6.5 1.2 1.1 1.8 1.6.4.3.7.6 1.1 1 1 .9 1.9 1.9 2.9 2.9l.1.1-.1-.2c-7.3-21.5-19.2-35.4-32.6-35.4-17.7 0-32.8 24.6-38.2 58.7h.1c4.5-9.4 10.2-18.5 17.6-25.7zm-24.8 210.2s-2.4-1.9-5.4-5.4c-.7-.8-1.4-1.7-2.2-2.7-.6-.7-1.2-1.5-1.7-2.4-.4-.6-.8-1.1-1.2-1.8-1.1-1.8-2.3-3.8-3.3-6s-1.9-4.5-2.6-7.1c-.5-1.7-.9-3.4-1.2-5.3-.4-2.7-.7-5.7-.6-8.7.1-1.7.2-3.4.5-5.2.2-1.7.6-3.4 1-5.2 1.3-5.3 3.6-11 7.3-17.1v-.1c1.2-2 2.3-3.9 3.4-5.8 15.8-26.6 25.7-46.9 21.5-77.8-.3-2.2-.7-4.5-1.1-6.8-.2 1.6-.5 3-.7 4.2 0 .1 0 .2-.1.3-.2.7-.3 1.3-.5 1.8-6.9 20.3-18.2 36-33.8 52.9-2.1 2.3-4.3 4.6-6.6 6.9-3.8 3.9-7.8 7.9-12 12.1l-5.1 5.1c-1.6 1.6-3.7 3.7-6.1 6.2-1.5 4.1-3.1 8.7-4.5 13.6-.6-.2-1.2-.5-1.9-.7-30.1-11.7-50.3-27.2-50.3-27.2s15.5 20.2 41.7 39.2c2.5 1.8 5 3.4 7.5 4.8-1.1 17.1 6.5 33.5 40.5 38.4 5.8.8 11.6.8 17.6.1-.1-.2-.1-.3-.1-.4v.1z"/></svg>