<svg xmlns="http://www.w3.org/2000/svg" viewBox="0 0 850 850"><title>SASS</title><path d="M693.6 466.8c-26 .1-48.5 6.4-67.4 15.6-6.9-13.7-13.9-26-15.1-34.9-1.4-10.5-3-16.9-1.4-29.4s9-30.3 8.8-31.7c-.1-1.4-1.6-7.7-16.6-7.9s-27.9 2.9-29.4 6.8-4.3 12.9-6.3 22.2c-2.6 13.6-29.9 62.1-45.5 87.5-5-9.9-9.4-18.6-10.3-25.5-1.4-10.5-3-16.9-1.4-29.4s9-30.3 8.8-31.7c-.1-1.4-1.6-7.7-16.6-7.9-14.9-.1-27.9 2.9-29.4 6.8s-3.1 13.2-6.3 22.2-39.4 90-48.9 110.9c-4.9 10.7-9.1 19.3-12.1 25.1 0 0-.1.4-.5 1.1-2.6 5-4.1 7.7-4.1 7.7v.1c-2 3.7-4.2 7.1-5.3 7.1-.8 0-2.3-9.8.3-23.1 5.4-28.1 18.3-71.9 18.2-73.4 0-.8 2.4-8.4-8.4-12.4-10.6-3.9-14.4 2.6-15.4 2.6s-1.6 2.3-1.6 2.3 11.8-49.2-22.6-49.2c-21.5 0-51.1 23.5-65.8 44.7-9.2 5-28.9 15.8-50 27.3-8 4.5-16.3 9-24.1 13.2-.5-.5-1.1-1.2-1.6-1.8-41.6-44.4-118.5-75.8-115.2-135.5 1.2-21.7 8.7-78.8 147.7-148.1 114.4-56.4 205.5-40.8 221.2-6.1 22.6 49.5-48.8 141.3-167 154.6-45.1 5-68.8-12.4-74.7-18.9-6.3-6.8-7.2-7.2-9.5-5.8-3.8 2-1.4 8.2 0 11.7 3.5 9.2 18.1 25.5 42.7 33.6 21.7 7.1 74.6 11 138.6-13.7C479 355.8 535 278.7 518.6 214.2c-16.4-65.5-125.2-87.1-228-50.6-61.2 21.7-127.5 56-175.2 100.6-56.7 53-65.6 99.1-62 118.4C66.6 451.1 161 495.7 198.8 528.7c-1.9 1.1-3.7 2-5.2 2.9-18.9 9.4-90.9 47-108.9 86.8-20.4 45.1 3.3 77.5 18.9 81.8 48.5 13.5 98.4-10.7 125.2-50.7 26.8-40 23.5-91.9 11.1-115.6-.1-.3-.3-.5-.5-.8 4.9-2.9 9.9-5.8 14.8-8.7 9.6-5.7 19.2-11 27.3-15.4-4.6 12.6-8 27.7-9.6 49.5-2 25.5 8.4 58.7 22.2 71.8 6.1 5.7 13.3 5.8 17.9 5.8 16 0 23.2-13.3 31.3-29.1 9.8-19.3 18.6-41.7 18.6-41.7s-11 60.6 18.9 60.6c10.9 0 21.9-14.1 26.8-21.3v.1s.3-.4.8-1.4c1.1-1.8 1.8-2.9 1.8-2.9v-.3c4.3-7.6 14.1-24.9 28.7-53.5 18.8-37 36.8-83.2 36.8-83.2s1.6 11.3 7.2 30c3.3 11 10.1 23.1 15.5 34.8-4.3 6.1-7.1 9.5-7.1 9.5l.1.1c-3.5 4.6-7.3 9.6-11.6 14.5-14.8 17.7-32.5 37.9-34.9 43.8-2.9 6.9-2.2 12 3.3 16 3.9 3 11 3.4 18.2 3 13.3-1 22.7-4.2 27.3-6.3 7.2-2.6 15.6-6.5 23.5-12.4 14.5-10.7 23.4-26.1 22.6-46.3-.4-11.1-4.1-22.3-8.6-32.8 1.4-1.9 2.6-3.8 3.9-5.7 23-33.6 40.8-70.4 40.8-70.4s1.6 11.3 7.2 30c2.7 9.5 8.3 19.8 13.2 29.9-21.6 17.5-34.9 37.9-39.7 51.2-8.6 24.7-1.9 35.9 10.7 38.5 5.7 1.2 13.9-1.5 19.8-4.1 7.6-2.4 16.6-6.7 25.1-12.9 14.5-10.7 28.5-25.7 27.7-45.9-.4-9.2-2.9-18.3-6.3-27.2 18.3-7.6 42-11.8 72.2-8.3 64.7 7.6 77.5 48 75 65-2.4 17-16 26.2-20.5 29.1-4.5 2.9-6 3.8-5.6 5.8.5 3 2.7 2.9 6.5 2.3 5.3-1 34-13.7 35.2-45 2.6-39.6-35.5-83.2-102.8-82.8zM194.6 635c-21.5 23.4-51.4 32.2-64.3 24.7-13.9-8-8.4-42.5 17.9-67.3 16-15.1 36.7-29.1 50.4-37.6 3.1-1.9 7.7-4.6 13.3-8 1-.5 1.5-.8 1.5-.8 1.1-.7 2.2-1.4 3.3-2 9.7 35.3.5 66.4-22.1 91zm156.3-106.3c-7.5 18.2-23.1 64.8-32.6 62.2-8.2-2.2-13.2-37.5-1.6-72.4 5.8-17.5 18.2-38.5 25.4-46.6 11.7-13 24.6-17.4 27.7-12.1 3.9 7-14.3 57.5-18.9 68.9zm129 61.7c-3.1 1.6-6.1 2.7-7.5 1.9-1-.5 1.4-2.7 1.4-2.7s16.2-17.4 22.6-25.3c3.7-4.6 8-10.1 12.6-16.2v1.8c0 20.8-20.2 34.8-29.1 40.5zm99.5-22.7c-2.3-1.6-1.9-7.1 5.8-24.1 3-6.7 10.1-17.8 22.2-28.5 1.4 4.3 2.3 8.6 2.2 12.5-.2 26.3-19 36.1-30.2 40.1z" fill="#cd6799"/></svg>