<svg xmlns="http://www.w3.org/2000/svg" viewBox="0 0 850 850"><title>WordPress</title><path d="M425.3 65.9c48.5 0 95.6 9.5 139.9 28.2 21.3 9 41.8 20.1 61 33.1 19 12.9 36.9 27.6 53.2 43.9 16.3 16.3 31 34.2 43.9 53.2 13 19.2 24.1 39.7 33.1 61 18.7 44.3 28.2 91.3 28.2 139.9s-9.5 95.6-28.2 139.9c-9 21.3-20.1 41.8-33.1 61-12.9 19-27.6 36.9-43.9 53.2-16.3 16.3-34.2 31-53.2 43.9-19.2 13-39.7 24.1-61 33.1-44.3 18.7-91.3 28.2-139.9 28.2-48.5 0-95.6-9.5-139.9-28.2-21.3-9-41.8-20.2-61-33.1-19-12.9-36.9-27.6-53.2-43.9-16.3-16.3-31-34.2-43.9-53.2-13-19.2-24.1-39.7-33.1-61C75.5 520.8 66 473.8 66 425.2s9.5-95.6 28.2-139.9c9-21.3 20.2-41.8 33.1-61 12.9-19 27.6-36.9 43.9-53.2 16.3-16.3 34.2-31 53.2-43.9 19.2-13 39.7-24.1 61-33.1 44.3-18.7 91.4-28.2 139.9-28.2m0-22.9C214.2 43 43 214.2 43 425.3c0 211.1 171.2 382.3 382.3 382.3 211.1 0 382.3-171.2 382.3-382.3C807.6 214.2 636.4 43 425.3 43zM106.7 425.3c0 126.1 73.3 235.1 179.6 286.7l-152-416.4c-17.7 39.6-27.6 83.5-27.6 129.7zm533.7-16.1c0-39.4-14.1-66.6-26.3-87.9-16.2-26.3-31.3-48.5-31.3-74.7 0-29.3 22.2-56.5 53.5-56.5 1.4 0 2.8.2 4.1.3-56.7-51.9-132.2-83.6-215.1-83.6-111.3 0-209.2 57.1-266.2 143.6 7.5.2 14.5.4 20.5.4 33.3 0 84.9-4 84.9-4 17.2-1 19.2 24.2 2 26.3 0 0-17.3 2-36.5 3l116 345.1 69.7-209.1-49.6-136c-17.2-1-33.4-3-33.4-3-17.2-1-15.2-27.3 2-26.3 0 0 52.6 4 83.9 4 33.3 0 84.9-4 84.9-4 17.2-1 19.2 24.2 2 26.3 0 0-17.3 2-36.5 3l115.1 342.4L617 514.4c14.8-45.7 23.4-77.9 23.4-105.2zm-209.5 43.9l-95.6 277.7c28.5 8.4 58.7 13 90 13 37.1 0 72.7-6.4 105.8-18.1-.9-1.4-1.6-2.8-2.3-4.4l-97.9-268.2zm273.9-180.7c1.4 10.1 2.1 21 2.1 32.8 0 32.3-6.1 68.7-24.2 114.1l-97.3 281.3c94.7-55.2 158.4-157.8 158.4-275.4.1-55.3-14.1-107.4-39-152.8z" fill="#32373c"/></svg>