<svg xmlns="http://www.w3.org/2000/svg" viewBox="0 0 250 70"><path d="M248.1 9.1v51.8c0 4.3-3.5 7.9-7.9 7.9H9.7c-4.3 0-7.9-3.5-7.9-7.9V9.1c0-4.3 3.5-7.9 7.9-7.9h230.5c4.4 0 7.9 3.5 7.9 7.9z" fill="#fff" id="Containers"/><g id="Copy"><path fill="#5f6368" d="M85.6 20.5c0 1.8-.5 3.2-1.6 4.2-1.2 1.3-2.7 1.9-4.7 1.9-1.8 0-3.4-.6-4.7-1.9-1.3-1.3-1.9-2.9-1.9-4.7s.6-3.4 1.9-4.7c1.3-1.3 2.8-1.9 4.7-1.9.9 0 1.8.2 2.6.5s1.5.8 2 1.4l-1.2 1.2c-.4-.5-.9-.8-1.5-1.1-.6-.3-1.3-.4-2-.4-1.4 0-2.6.5-3.5 1.4-.9 1-1.4 2.2-1.4 3.6s.5 2.7 1.4 3.6c1 1 2.1 1.4 3.5 1.4 1.3 0 2.3-.4 3.2-1.1.8-.7 1.3-1.7 1.5-2.9h-4.6v-1.5h6.2c.1.3.1.6.1 1zM86.7 21.9c0-1.3.4-2.4 1.3-3.3.9-.9 1.9-1.3 3.2-1.3s2.4.4 3.2 1.3c.9.9 1.3 2 1.3 3.3 0 1.3-.4 2.5-1.3 3.3-.8.9-1.9 1.3-3.2 1.3s-2.4-.4-3.2-1.3c-.8-.8-1.3-1.9-1.3-3.3zm1.7 0c0 .9.3 1.7.8 2.3.5.6 1.2.9 2 .9s1.5-.3 2-.9c.5-.6.8-1.3.8-2.3 0-.9-.3-1.7-.8-2.3-.6-.6-1.2-.9-2-.9s-1.5.3-2 .9c-.6.7-.8 1.4-.8 2.3zM96.7 21.9c0-1.3.4-2.4 1.3-3.3.9-.9 1.9-1.3 3.2-1.3s2.4.4 3.2 1.3c.9.9 1.3 2 1.3 3.3 0 1.3-.4 2.5-1.3 3.3-.8.9-1.9 1.3-3.2 1.3s-2.4-.4-3.2-1.3c-.9-.8-1.3-1.9-1.3-3.3zm1.6 0c0 .9.3 1.7.8 2.3.5.6 1.2.9 2 .9s1.5-.3 2-.9c.5-.6.8-1.3.8-2.3 0-.9-.3-1.7-.8-2.3-.6-.6-1.2-.9-2-.9s-1.5.3-2 .9c-.5.7-.8 1.4-.8 2.3zM111 30.4c-.5 0-.9-.1-1.4-.2-.4-.1-.8-.3-1.2-.5-.3-.2-.6-.5-.9-.8-.2-.3-.4-.7-.6-1l1.5-.6c.2.5.5.9.9 1.2.4.3.9.5 1.5.5.9 0 1.6-.3 2.1-.8s.7-1.3.7-2.2v-.8h-.1c-.3.5-.7.8-1.3 1.1-.5.3-1.1.4-1.7.4-1.1 0-2.1-.4-2.9-1.3-.8-.9-1.2-2-1.2-3.3 0-1.3.4-2.4 1.2-3.3.8-.9 1.8-1.3 2.9-1.3.6 0 1.2.1 1.7.4s.9.6 1.3 1.1h.1v-1.2h1.6v8.3c0 1.4-.4 2.5-1.2 3.3-.6.6-1.7 1-3 1zm0-5.3c.8 0 1.5-.3 2-.9.5-.6.8-1.3.8-2.3 0-.9-.3-1.7-.8-2.3-.5-.6-1.2-.9-2-.9s-1.4.3-2 .9c-.5.6-.8 1.3-.8 2.3 0 .9.3 1.7.8 2.3.6.6 1.2.9 2 .9zM119 13.6v12.7h-1.6V13.6h1.6zM124.8 26.6c-1.3 0-2.3-.4-3.2-1.3-.8-.9-1.2-2-1.2-3.3 0-1.3.4-2.4 1.2-3.3.8-.9 1.8-1.3 3.1-1.3s2.3.4 3.1 1.3c.8.8 1.1 2 1.1 3.5v.2H122c0 .9.3 1.5.9 2.1.5.5 1.2.8 2 .8 1 0 1.9-.5 2.5-1.6l1.5.7c-.4.7-.9 1.3-1.6 1.7s-1.7.5-2.5.5zm-2.6-5.7h5c0-.6-.3-1.1-.7-1.5-.4-.4-1-.6-1.8-.6-.6 0-1.1.2-1.6.6-.5.4-.8.9-.9 1.5zM137.9 13.4c.6 0 1.1.1 1.5.3l-.4 1.4c-.3-.1-.6-.2-1-.2s-.7.1-1 .4c-.3.3-.4.6-.4 1.1v1.1h2.3V19h-2.3v7.2H135V19h-1.6v-1.5h1.6v-1.3c0-.9.3-1.6.8-2.1.6-.4 1.3-.7 2.1-.7zM139.4 21.9c0-1.3.4-2.4 1.3-3.3.9-.9 1.9-1.3 3.2-1.3s2.4.4 3.2 1.3c.9.9 1.3 2 1.3 3.3 0 1.3-.4 2.5-1.3 3.3-.8.9-1.9 1.3-3.2 1.3s-2.4-.4-3.2-1.3c-.8-.8-1.3-1.9-1.3-3.3zm1.7 0c0 .9.3 1.7.8 2.3.5.6 1.2.9 2 .9s1.5-.3 2-.9c.5-.6.8-1.3.8-2.3 0-.9-.3-1.7-.8-2.3-.6-.6-1.2-.9-2-.9s-1.5.3-2 .9c-.6.7-.8 1.4-.8 2.3zM151.3 26.3h-1.6v-8.7h1.6V19h.1c.2-.5.5-.9 1-1.2.5-.3 1-.5 1.5-.5s.9.1 1.2.2l-.5 1.6c-.2-.1-.5-.1-1-.1-.6 0-1.2.2-1.6.7-.5.5-.7 1.1-.7 1.7v4.9zM167.7 13.6v1.6H162v4h5.2v1.5H162v4h5.8v1.6h-7.4V13.6h7.3zM172.9 26.6c-1.1 0-2.1-.4-2.9-1.3-.8-.9-1.2-2-1.2-3.3 0-1.3.4-2.4 1.2-3.3.8-.9 1.8-1.3 2.9-1.3.6 0 1.2.1 1.7.4.5.3.9.6 1.2 1.1h.1l-.1-1.2v-4h1.6v12.7H176v-1.2h-.1c-.3.4-.7.8-1.2 1.1-.5.1-1.1.3-1.8.3zm.3-1.5c.8 0 1.5-.3 2-.9.5-.6.8-1.3.8-2.3 0-.9-.3-1.7-.8-2.3-.5-.6-1.2-.9-2-.9s-1.4.3-2 .9c-.5.6-.8 1.3-.8 2.3 0 .9.3 1.7.8 2.3.6.6 1.2.9 2 .9zM187.2 26.3h-1.6v-1.2h-.1c-.2.4-.6.8-1.1 1.1-.5.3-1.1.4-1.6.4-1.1 0-1.9-.3-2.5-.9-.6-.6-.9-1.5-.9-2.6v-5.5h1.6V23c0 1.4.8 2.1 2.1 2.1.7 0 1.2-.3 1.6-.8.4-.5.7-1.2.7-1.9v-4.8h1.6v8.7zM193 26.6c-1.3 0-2.4-.4-3.2-1.3-.8-.9-1.3-2-1.3-3.3 0-1.3.4-2.4 1.3-3.3.9-.9 1.9-1.3 3.2-1.3.9 0 1.7.2 2.3.7.7.4 1.2 1.1 1.5 1.8l-1.5.6c-.5-1.1-1.3-1.6-2.4-1.6-.7 0-1.4.3-1.9.9-.5.6-.8 1.3-.8 2.2 0 .9.3 1.6.8 2.2.5.6 1.2.9 1.9.9 1.2 0 2-.5 2.5-1.6l1.5.6c-.3.8-.8 1.4-1.5 1.8-.7.5-1.5.7-2.4.7zM201.5 17.3c1.2 0 2.2.3 2.9 1s1 1.5 1 2.7v5.4h-1.6v-1.2h-.1c-.7 1-1.6 1.5-2.7 1.5-1 0-1.8-.3-2.4-.9-.6-.6-1-1.3-1-2.1 0-.9.3-1.6 1-2.1s1.6-.8 2.7-.8c1 0 1.8.2 2.4.5v-.4c0-.6-.2-1-.7-1.4s-1-.6-1.6-.6c-.9 0-1.6.4-2.2 1.2L198 19c.8-1.1 2-1.7 3.5-1.7zm-2.1 6.3c0 .4.2.8.5 1.1.4.3.8.4 1.3.4.7 0 1.3-.3 1.8-.8s.8-1.1.8-1.8c-.5-.4-1.2-.6-2.1-.6-.7 0-1.2.2-1.7.5-.4.4-.6.8-.6 1.2zM210.6 26.4c-.7 0-1.3-.2-1.8-.7-.5-.4-.7-1-.7-1.8V19h-1.5v-1.5h1.5v-2.7h1.6v2.7h2.1V19h-2.1v4.3c0 .6.1 1 .3 1.2.2.2.5.3.8.3h.4c.1 0 .2-.1.3-.1l.5 1.5c-.4.2-.9.2-1.4.2zM215.6 14.6c0 .3-.1.6-.3.8-.2.2-.5.3-.8.3-.3 0-.6-.1-.8-.3-.2-.2-.3-.5-.3-.8s.1-.6.3-.8.5-.3.8-.3c.3 0 .6.1.8.3s.3.5.3.8zm-.3 3v8.7h-1.6v-8.7h1.6zM216.8 21.9c0-1.3.4-2.4 1.3-3.3.9-.9 1.9-1.3 3.2-1.3s2.4.4 3.2 1.3c.9.9 1.3 2 1.3 3.3 0 1.3-.4 2.5-1.3 3.3-.8.9-1.9 1.3-3.2 1.3s-2.4-.4-3.2-1.3c-.9-.8-1.3-1.9-1.3-3.3zm1.6 0c0 .9.3 1.7.8 2.3.5.6 1.2.9 2 .9s1.5-.3 2-.9c.5-.6.8-1.3.8-2.3 0-.9-.3-1.7-.8-2.3-.6-.6-1.2-.9-2-.9s-1.5.3-2 .9c-.5.7-.8 1.4-.8 2.3zM227.1 17.6h1.6v1.2h.1c.2-.4.6-.8 1.1-1.1.5-.3 1.1-.4 1.6-.4 1.1 0 1.9.3 2.5.9.6.6.9 1.5.9 2.6v5.5h-1.6v-5.4c0-1.4-.8-2.1-2.1-2.1-.7 0-1.2.3-1.6.8-.4.5-.7 1.2-.7 1.9v4.8h-1.6v-8.7z"/><g><path fill="#5f6368" d="M72.9 52.9V36.1h5.8c.8 0 1.5.1 2.1.4.7.3 1.2.6 1.8 1.1.5.5.9 1 1.2 1.6s.4 1.3.4 2.1-.1 1.4-.4 2.1-.7 1.2-1.2 1.6c-.5.5-1.1.8-1.8 1.1-.7.3-1.4.4-2.1.4h-3.2V53h-2.6zm5.9-9c.4 0 .8-.1 1.2-.2.3-.1.6-.3.9-.6.2-.3.4-.5.5-.8.1-.3.2-.6.2-.9 0-.3-.1-.7-.2-1-.1-.3-.3-.6-.5-.8-.2-.2-.5-.4-.9-.6-.3-.2-.7-.2-1.2-.2h-3.2V44h3.2zM93.2 51.5H93c-.3.5-.8.9-1.3 1.2-.5.4-1.2.6-2.1.6-.6 0-1.2-.1-1.7-.3-.5-.2-1-.5-1.4-.8s-.7-.8-.9-1.2c-.2-.5-.3-1-.3-1.6 0-.6.1-1.2.4-1.6.2-.5.6-.9 1-1.2.4-.3.9-.6 1.5-.8.6-.2 1.2-.3 1.9-.3.8 0 1.4.1 1.9.2s.9.3 1.2.4v-.4c0-.3-.1-.7-.2-1-.1-.3-.4-.6-.6-.8-.3-.2-.6-.4-.9-.5-.3-.1-.7-.2-1-.2-.6 0-1.1.1-1.6.3-.5.2-.9.6-1.2 1.1l-2.1-1.4c.5-.8 1.2-1.3 2-1.7.8-.4 1.7-.6 2.8-.6 1.7 0 3 .4 4 1.3.9.8 1.4 2.1 1.4 3.6v7h-2.6v-1.3zm0-3.4c-.3-.2-.7-.4-1.2-.5s-.9-.2-1.5-.2c-.8 0-1.5.2-2 .6s-.7.8-.7 1.4c0 .3.1.5.2.7.1.2.3.4.5.6.2.2.4.3.7.4.3.1.5.1.8.1.4 0 .8-.1 1.2-.2.4-.2.7-.4 1-.7s.5-.6.7-1c.2-.4.3-.8.3-1.2zM100.7 43.3h.1c.3-.7.8-1.2 1.4-1.5.6-.4 1.3-.5 2.1-.5h.6c.1 0 .2 0 .4.1V44c-.2-.1-.3-.1-.5-.1h-.6c-1 0-1.8.3-2.4.9-.6.6-.9 1.4-.9 2.4v6h-2.6V41.6h2.5v1.7zm8.1.4h-2v-2.3h2v-3.5h2.6v3.5h2.8v2.3h-2.8V49c0 .3 0 .6.1.8l.3.6c.3.3.6.5 1 .5.3 0 .4 0 .6-.1.1 0 .3-.1.4-.2l.8 2.3c-.3.1-.7.2-1 .3s-.8.1-1.2.1c-.5 0-1-.1-1.5-.3-.4-.2-.8-.4-1.1-.7-.7-.7-1-1.6-1-2.8v-5.8zM118.7 42.9h.1c.3-.5.8-1 1.5-1.4.6-.4 1.4-.6 2.2-.6 1.5 0 2.5.4 3.3 1.3.7.9 1.1 2 1.1 3.5v7.1h-2.6V46c0-1-.2-1.7-.7-2.1s-1.1-.6-1.8-.6c-.5 0-.9.1-1.2.3-.3.2-.6.4-.9.8-.3.3-.4.7-.6 1.1-.1.4-.2.9-.2 1.3v6h-2.6V41.4h2.5v1.5zM139.9 50.2c-.5.9-1.2 1.6-2.1 2.2-.9.6-2 .9-3.3.9-.9 0-1.7-.2-2.4-.5s-1.4-.7-1.9-1.3c-.5-.5-.9-1.2-1.2-1.9s-.4-1.6-.4-2.5c0-.8.1-1.6.4-2.4s.7-1.4 1.2-2 1.1-1 1.8-1.3 1.5-.5 2.4-.5c.9 0 1.7.1 2.4.4.7.3 1.3.7 1.8 1.2s.9 1.2 1.1 1.9.4 1.6.4 2.5V47.5h-8.9c0 .5.2 1 .4 1.4.2.4.5.7.8 1s.7.5 1.1.6c.4.1.8.2 1.2.2.8 0 1.4-.2 1.9-.5.5-.4.9-.8 1.2-1.3l2.1 1.3zm-2.4-4.5c0-.2-.1-.5-.2-.8-.1-.3-.3-.6-.5-.8-.2-.2-.6-.5-.9-.6-.4-.2-.8-.3-1.4-.3-.8 0-1.4.2-1.9.7-.5.4-.9 1-1.1 1.8h6zM142 41.4h2.5v1.7h.1c.1-.3.3-.6.6-.8.2-.3.5-.5.8-.7.3-.2.6-.3 1-.4s.7-.2 1-.2c.4 0 .7 0 1 .1s.5.2.7.3l-.8 2.4c-.2-.1-.4-.1-.6-.2-.2 0-.5-.1-.8-.1-.4 0-.8.1-1.2.3-.4.2-.7.4-.9.7-.3.3-.5.7-.6 1.1-.1.4-.2.8-.2 1.3v6H142V41.4z"/></g></g><g id="Brand__x2F__Icons"><path d="M55 35.5c0-1.5-.1-3-.4-4.3h-19v7.7h10.9c-.4 2.6-1.9 4.9-4.1 6.4v5.1H49c3.8-3.6 6-8.8 6-14.9z" fill="#4285f4"/><path d="M35.7 55.2c5.4 0 10-1.8 13.4-4.9l-6.5-5.1c-1.8 1.2-4.1 1.9-6.8 1.9-5.2 0-9.7-3.5-11.3-8.3h-6.7V44c3.2 6.7 10 11.2 17.9 11.2z" fill="#34a853"/><path d="M24.4 38.9c-.4-1.2-.6-2.5-.6-3.8 0-1.3.2-2.6.6-3.8V26h-6.7c-1.4 2.7-2.1 5.8-2.1 9.1s.8 6.3 2.1 9.1l6.7-5.3z" fill="#fbbc05"/><path d="M35.7 22.9c3 0 5.6 1 7.7 3l5.8-5.8c-3.5-3.3-8.1-5.3-13.5-5.3-7.9 0-14.7 4.5-18 11.1l6.7 5.2c1.6-4.7 6-8.2 11.3-8.2z" fill="#ea4335"/><path fill="none" d="M15.5 14.9h40.3v40.3H15.5z"/></g></svg>