<svg version="1.1" xmlns="http://www.w3.org/2000/svg" x="0" y="0" viewBox="0 0 225.3 70"><path id="Containers" d="M224.1 9.1v51.8c0 4.3-3.5 7.9-7.9 7.9H9.7c-4.3 0-7.9-3.5-7.9-7.9V9.1c0-4.3 3.5-7.9 7.9-7.9h206.5c4.4 0 7.9 3.5 7.9 7.9z" fill="#fff"/><path fill="#5f6368" d="M85.5 20.5c0 1.8-.5 3.2-1.6 4.2-1.2 1.3-2.7 1.9-4.6 1.9-1.8 0-3.4-.6-4.6-1.9-1.3-1.3-1.9-2.9-1.9-4.7s.6-3.4 1.9-4.7c1.3-1.3 2.8-1.9 4.6-1.9.9 0 1.8.2 2.6.5s1.5.8 2 1.4l-1.2 1.2c-.4-.5-.9-.8-1.5-1.1-.6-.3-1.3-.4-2-.4-1.4 0-2.6.5-3.5 1.4-.9 1-1.4 2.2-1.4 3.6s.5 2.7 1.4 3.6c1 1 2.1 1.4 3.5 1.4 1.3 0 2.3-.4 3.2-1.1.8-.7 1.3-1.7 1.5-2.9h-4.5v-1.5h6.1v1zm1 1.4c0-1.3.4-2.4 1.3-3.3s1.9-1.3 3.2-1.3c1.3 0 2.4.4 3.2 1.3.9.9 1.3 2 1.3 3.3s-.4 2.5-1.3 3.3c-.8.9-1.9 1.3-3.2 1.3-1.3 0-2.4-.4-3.2-1.3-.8-.8-1.3-1.9-1.3-3.3zm1.7 0c0 .9.3 1.7.8 2.3.5.6 1.2.9 2 .9s1.5-.3 2-.9.8-1.3.8-2.3c0-.9-.3-1.7-.8-2.3-.6-.6-1.2-.9-2-.9s-1.5.3-2 .9c-.6.7-.8 1.4-.8 2.3zm8.2 0c0-1.3.4-2.4 1.3-3.3.9-.9 1.9-1.3 3.2-1.3 1.3 0 2.4.4 3.2 1.3.9.9 1.3 2 1.3 3.3s-.4 2.5-1.3 3.3c-.8.9-1.9 1.3-3.2 1.3-1.3 0-2.4-.4-3.2-1.3-.9-.8-1.3-1.9-1.3-3.3zm1.6 0c0 .9.3 1.7.8 2.3.5.6 1.2.9 2 .9s1.5-.3 2-.9c.5-.6.8-1.3.8-2.3 0-.9-.3-1.7-.8-2.3-.6-.6-1.2-.9-2-.9s-1.5.3-2 .9c-.5.7-.8 1.4-.8 2.3zm12.6 8.5c-.5 0-.9-.1-1.4-.2-.4-.1-.8-.3-1.2-.5-.3-.2-.6-.5-.9-.8-.2-.3-.4-.7-.6-1l1.5-.6c.2.5.5.9.9 1.2.4.3.9.5 1.5.5.9 0 1.6-.3 2.1-.8s.7-1.3.7-2.2v-.8h-.1c-.3.5-.7.8-1.3 1.1-.5.3-1.1.4-1.7.4-1.1 0-2.1-.4-2.9-1.3s-1.2-2-1.2-3.3.4-2.4 1.2-3.3c.8-.9 1.8-1.3 2.9-1.3.6 0 1.2.1 1.7.4s.9.6 1.3 1.1h.1v-1.2h1.6v8.3c0 1.4-.4 2.5-1.2 3.3-.6.6-1.7 1-3 1zm0-5.3c.8 0 1.5-.3 2-.9.5-.6.8-1.3.8-2.3 0-.9-.3-1.7-.8-2.3-.5-.6-1.2-.9-2-.9s-1.4.3-2 .9c-.5.6-.8 1.3-.8 2.3 0 .9.3 1.7.8 2.3.6.6 1.2.9 2 .9zm7.9-11.5v12.7h-1.6V13.6h1.6zm5.7 13c-1.3 0-2.3-.4-3.2-1.3-.8-.9-1.2-2-1.2-3.3s.4-2.4 1.2-3.3c.8-.9 1.8-1.3 3.1-1.3s2.3.4 3.1 1.3c.8.8 1.1 2 1.1 3.5v.2h-6.8c0 .9.3 1.5.9 2.1.5.5 1.2.8 2 .8 1 0 1.9-.5 2.5-1.6l1.5.7c-.4.7-.9 1.3-1.6 1.7-.8.4-1.8.5-2.6.5zm-2.5-5.7h4.9c0-.6-.3-1.1-.7-1.5-.4-.4-1-.6-1.8-.6-.6 0-1.1.2-1.6.6-.4.4-.7.9-.8 1.5zM72.9 52.9V36.1h5.7c.8 0 1.5.1 2.1.4.7.3 1.2.6 1.8 1.1.5.5.9 1 1.2 1.6.3.6.4 1.3.4 2.1s-.1 1.4-.4 2.1c-.3.7-.7 1.2-1.2 1.6-.5.5-1.1.8-1.8 1.1-.7.3-1.4.4-2.1.4h-3.1V53l-2.6-.1zm5.8-9c.4 0 .8-.1 1.2-.2.3-.1.6-.3.9-.6.2-.3.4-.5.5-.8s.2-.6.2-.9c0-.3-.1-.7-.2-1s-.3-.6-.5-.8c-.2-.2-.5-.4-.9-.6-.3-.2-.7-.2-1.2-.2h-3.1V44l3.1-.1zm14.2 7.6h-.2c-.3.5-.8.9-1.3 1.2-.5.4-1.2.6-2.1.6-.6 0-1.2-.1-1.7-.3-.5-.2-1-.5-1.4-.8-.4-.3-.7-.8-.9-1.2-.2-.5-.3-1-.3-1.6s.1-1.2.4-1.6c.2-.5.6-.9 1-1.2s.9-.6 1.5-.8 1.2-.3 1.9-.3c.8 0 1.4.1 1.9.2s.9.3 1.2.4v-.4c0-.3-.1-.7-.2-1s-.4-.6-.6-.8c-.3-.2-.6-.4-.9-.5-.3-.1-.7-.2-1-.2-.6 0-1.1.1-1.6.3-.5.2-.9.6-1.2 1.1l-2.1-1.4c.5-.8 1.2-1.3 2-1.7s1.7-.6 2.8-.6c1.7 0 2.9.4 3.9 1.3.9.8 1.4 2.1 1.4 3.6v7h-2.6l.1-1.3zm0-3.4c-.3-.2-.7-.4-1.2-.5s-.9-.2-1.5-.2c-.8 0-1.5.2-2 .6-.5.4-.7.8-.7 1.4 0 .3.1.5.2.7s.3.4.5.6c.2.2.4.3.7.4.3.1.5.1.8.1.4 0 .8-.1 1.2-.2.4-.2.7-.4 1-.7.3-.3.5-.6.7-1s.3-.8.3-1.2zm7.3-4.8c.4-.7.9-1.2 1.5-1.5.6-.4 1.3-.5 2.1-.5h.6c.1 0 .2 0 .4.1V44c-.2-.1-.3-.1-.5-.1h-.6c-1 0-1.8.3-2.4.9-.6.6-.9 1.4-.9 2.4v6h-2.6V41.6h2.5l-.1 1.7zm8 .4h-2v-2.3h2v-3.5h2.6v3.5h2.8v2.3h-2.8V49c0 .3 0 .6.1.8l.3.6c.3.3.6.5 1 .5.3 0 .4 0 .6-.1.1 0 .3-.1.4-.2l.8 2.3c-.3.1-.7.2-1 .3s-.8.1-1.2.1c-.5 0-1-.1-1.5-.3-.4-.2-.8-.4-1.1-.7-.7-.7-1-1.6-1-2.8v-5.8zm9.7-.8c.4-.5.9-1 1.6-1.4.6-.4 1.4-.6 2.2-.6 1.5 0 2.5.4 3.2 1.3.7.9 1.1 2 1.1 3.5v7.1h-2.6V46c0-1-.2-1.7-.7-2.1s-1.1-.6-1.8-.6c-.5 0-.9.1-1.2.3s-.6.4-.9.8c-.3.3-.4.7-.6 1.1-.1.4-.2.9-.2 1.3v6h-2.6V41.4h2.5v1.5zm20.9 7.3c-.5.9-1.2 1.6-2.1 2.2-.9.6-2 .9-3.2.9-.9 0-1.7-.2-2.4-.5s-1.4-.7-1.9-1.3c-.5-.5-.9-1.2-1.2-1.9-.3-.7-.4-1.6-.4-2.5 0-.8.1-1.6.4-2.4.3-.8.7-1.4 1.2-2 .5-.6 1.1-1 1.8-1.3.7-.3 1.5-.5 2.4-.5s1.7.1 2.4.4c.7.3 1.3.7 1.8 1.2s.9 1.2 1.1 1.9c.2.7.4 1.6.4 2.5v.6h-8.7c0 .5.2 1 .4 1.4s.5.7.8 1 .7.5 1.1.6.8.2 1.2.2c.8 0 1.4-.2 1.9-.5.5-.4.9-.8 1.2-1.3l1.8 1.3zm-2.4-4.5c0-.2-.1-.5-.2-.8-.1-.3-.3-.6-.5-.8-.2-.2-.6-.5-.9-.6-.4-.2-.8-.3-1.4-.3-.8 0-1.4.2-1.9.7-.5.4-.9 1-1.1 1.8h6zm4.4-4.3h2.5v1.7h.1c.1-.3.3-.6.6-.8.2-.3.5-.5.8-.7.3-.2.6-.3 1-.4.4-.1.7-.2 1-.2.4 0 .7 0 1 .1.3.1.5.2.7.3l-.8 2.4c-.2-.1-.4-.1-.6-.2-.2 0-.5-.1-.8-.1-.4 0-.8.1-1.2.3s-.7.4-.9.7c-.3.3-.5.7-.6 1.1-.1.4-.2.8-.2 1.3v6h-2.6V41.4z"/><path d="M41.1 27h1.4l3.9-3.9.2-1.6c-3.1-2.7-7.1-4.4-11.5-4.4-8 0-14.7 5.4-16.7 12.8.4-.3 1.3-.1 1.3-.1l7.7-1.3s.4-.7.6-.6c1.8-1.9 4.3-3.1 7.1-3.1 2.3.1 4.4.9 6 2.2z" fill="#ea4335"/><path d="M51.8 30c-.9-3.3-2.7-6.2-5.2-8.4L41.1 27c2.2 1.8 3.6 4.5 3.6 7.5v1c2.7 0 4.8 2.2 4.8 4.8 0 2.7-2.2 4.8-4.8 4.8h-9.6l-1 1v5.8l1 1h9.6c6.9 0 12.5-5.6 12.5-12.5 0-4.4-2.1-8.1-5.4-10.4z" fill="#4285f4"/><path d="M25.4 52.8H35v-7.7h-9.6c-.7 0-1.4-.2-2-.4l-1.4.4-3.8 3.9-.3 1.3c2.1 1.6 4.7 2.5 7.5 2.5z" fill="#34a853"/><path d="M25.4 27.8c-6.9 0-12.5 5.6-12.5 12.5 0 4.1 1.9 7.7 5 10l5.6-5.6c-1.7-.8-2.8-2.4-2.8-4.4 0-2.7 2.2-4.8 4.8-4.8 1.9 0 3.6 1.2 4.4 2.8l5.6-5.6c-2.4-3-6-4.9-10.1-4.9z" fill="#fbbc05"/><g><path fill="#5f6368" d="M139.5 26.4c-1.8 0-3.4-.6-4.6-1.9-1.2-1.2-1.9-2.8-1.9-4.7 0-1.9.6-3.4 1.9-4.7 1.2-1.2 2.8-1.9 4.6-1.9 1.9 0 3.4.7 4.6 2l-1.1 1.1c-.9-1.1-2-1.6-3.5-1.6-1.4 0-2.5.5-3.4 1.4-.9.9-1.4 2.1-1.4 3.6s.5 2.7 1.4 3.6c.9.9 2.1 1.4 3.4 1.4 1.5 0 2.8-.6 3.8-1.8l1.1 1.1c-.6.7-1.3 1.2-2.1 1.6-.8.6-1.8.8-2.8.8zM147.5 26.1h-1.6V13.6h1.6v12.5zM150.1 18.6c.8-.9 1.9-1.3 3.2-1.3 1.3 0 2.3.4 3.2 1.3.8.9 1.2 2 1.2 3.3 0 1.3-.4 2.4-1.2 3.3-.8.9-1.9 1.3-3.2 1.3-1.3 0-2.3-.4-3.2-1.3-.8-.9-1.2-2-1.2-3.3 0-1.4.4-2.4 1.2-3.3zm1.2 5.5c.6.6 1.2.8 2 .8s1.4-.3 2-.8c.6-.6.8-1.3.8-2.2s-.3-1.7-.8-2.2c-.6-.6-1.2-.8-2-.8s-1.4.3-2 .8c-.6.6-.8 1.3-.8 2.2s.3 1.6.8 2.2zM166.6 26.1h-1.5v-1.2h-.1c-.2.4-.6.8-1.1 1-.5.3-1 .4-1.6.4-1.1 0-1.9-.3-2.4-1-.6-.7-.8-1.5-.8-2.6v-5.2h1.6v5c0 1.6.7 2.4 2.1 2.4.7 0 1.2-.3 1.6-.8.4-.5.6-1.2.6-1.9v-4.7h1.6v8.6zM172 26.4c-1.1 0-2.1-.4-2.9-1.3-.8-.9-1.2-2-1.2-3.2 0-1.3.4-2.4 1.2-3.2.8-.9 1.8-1.3 2.9-1.3.7 0 1.2.1 1.8.4.5.3.9.6 1.2 1h.1l-.1-1.2v-3.9h1.6v12.5H175V25c-.3.4-.6.8-1.2 1-.5.3-1.1.4-1.8.4zm.3-1.5c.8 0 1.4-.3 1.9-.8.5-.6.8-1.3.8-2.3 0-.9-.3-1.7-.8-2.3-.5-.6-1.2-.8-1.9-.8s-1.4.3-1.9.8c-.5.6-.8 1.3-.8 2.2s.3 1.7.8 2.2c.5.8 1.2 1 1.9 1z"/></g></svg>