<svg xmlns="http://www.w3.org/2000/svg" viewBox="0 0 1080 360"><path d="M496.6 118.6l-7.2-.9v-.4h6.8l.4 1.3zm-167.3 77.9l.4.8c6.1.7 12.3.4 18.4.1v-.4c-3.5-2.8-15-.6-18.8-.5zm184.4-79.9l13.2.9v.4h-3.5c.7.1 1.2.3 1.4.5-5.1-.2-25-.4-26.2 1.4-.7-.5-.8-1.1-1.6-1.6l.4-.8c1.2 0 9.6-.2 16.8-.1l-.5-.7zm8.5 1.1h.3c.1-.1.3-.2.4-.3-.3.2-.5.2-.7.3zm-2.6-.2h.5v-.1c-.2.1-.4.1-.5.1zm-158.6 99l.7 12.8.1-12.4-.8-.4zm9.4 69.5l-.8-.4-.6 31-18.4.7-.8.8c8.1 1.9 19.5 2 27.8.6-.9-1.1-4.1-1.4-6.4-1.6-2.7-5.2-1-29.5-.8-31.1zm57.1-1.6l.5-7.6 11.2-1.1-14.4-.5c1 2.3 1.5 6.2 2.7 9.2zm-34.6-27.5v-6.8c-.8 1.2-.7 5.7 0 6.8zm33.7-21.1c-15.5 1.2-36.4-.8-53 0l-.4.8c6.3.2 12.7 0 18.8.9.3 2.4-.3 4.3.8 5.6l.4-6c4.7-1.3 28.3 2.1 33.4-1.3zm-32.8 38.3c-.8-1.7-1-4.5-1.2-6.4l-.8-.4c.4 4.5.9 5.5-1.3 8.4l25.4.6.8-.4c-3.8-3-18.2-1-22.9-1.8zM372 236.6l1.6-1.2c-1.7.1-3.5.4-5.2.4 1.2.9 2 .5 3.6.8zm-3.1 42.6c1.1 1.1-.2 4.5 1.6 6.4l.4-6c1.9-1.7 12.7-1.4 15.2-1.5-1.3-2.4-16-.1-17.2 1.1zm127.4-67.4l-.4-.8-.1 13.2h1.2c-.1-4.1 1.2-8.3-.7-12.4zm-37.5 24.6c1.1 1.1 1 2.7 2.4 3.6l1.6-4-16.4-.1 12.4.5zm-72.2 41.7l2 .8c1.9-.9 2.7-.4 7.2-.3-1.3-1.3-7.7-1.3-8.8-1.7l-.4 1.2zm85.9-42.4v.4c4.1.3 8.4 1 12.4.5-1.8-1.6-9.1-1-12.4-.9zm-44.2-9.9l.5-10.4c-1.1 1.4-1.4 8.2-.5 10.4zm-135.8 10.6h-51.8l-.4.8 15.6.9c2.1 3.8-2.4 21.6.9 23.6.1-8.7.9-18.3 1.1-23.2 12.9-.4 26-.9 39-1.3-2.3-2-3.4-5.5-3.8-9.8-.3 4-.5 7.2-.6 9zM98.6 158.3l-1.2.4c6.3.2 12.5.9 18.8.1v-.4c-3.1-1-14.7-2.3-17.6-.1zm25.1 38.4l-.8-1.6c-1.1 1.1-2.3 2-3.6 2.8 2 .4 4 .4 6 0l-2.8-.8c.9-.8.1-.2 1.2-.4zm-16.3-78.5l-7.6-.1c-.5.8 0 .3-.8.8l9.2.5-.8-1.2zm17.4 39.1v1.6l18-.7c-4.7-3.6-13.2.8-18-.9zm17.3 39.9l-.4.8c4-.1 4.4-1 8.4.1-1.9-1.9-6-.7-8-.9zm11.3.1v.4c2.4.3 3.9 0 5.6.8-.6-2.2-2.6-1.2-5.6-1.2zm-5.4-78.8v.4l10 .1c.8-1.1-7.7-.7-10-.5zm14-.3h-2.4l.4 1.6v-1.2l5.2.4c-1.1-1-1.7-.9-3.2-.8zM708.5.7h3.6l-1.5-.7h-.8c-.9.2-1.5.5-1.3.7zM94.9 119.3l-.8-.8c.6.8.1.3.8.8zM552.5 0h-8.6c2.9 0 6.4.5 8.6 0zm181.2 39.3l2-1.2-6.4-.4c.9 1.5 2.7 1.2 4.4 1.6zM47.3 77.6l11.1-.1c-3.2-.6-7.1-.3-11.1.1zm0 1l-2-.8c.7-.1 1.3-.1 2-.3H33.6l-.1-.1h-.1l-.1-.1.7-35.9v-.3l10-.4v-1.6H7.8v1.2c3.2.7 21.6 1.2 23.4-.4l1.6.4c0 10.9.3 26.7-2 37.2l-7.6.4v.8c1.7.7 3.9.9 6.1.9-.1 0-.1.1-.3.1 5.5.4 12-.5 18.3-1.1zm218.4 78.5l-.4.8c6.4.2 14.7-.7 23.4-1.3-7.7.2-15.3.3-23 .5zm263-39.2c2.4.3 5.1.2 7.5-.4l-7.2-.8c-.1.4-.3.8-.3 1.2zM262.1 276v.4l29 .6c1 6-1.2 16.7 1.1 21 1.5-4.4-1.2-17.8 2.2-21.3v-.4c-8.3-2.4-22.7-.2-32.3-.3zm8.2 39.4c5.6 1.4 11.2.3 16.8.5-5.4-2.7-10-.6-16.8-.5zm22.6-15.8l-.4-.8-.8-.4-.1 16-3.2.8c.9.8 2.9 1 5.6.8-1.9-3.6-2-12.6-1.1-16.4zM166.3 197.4c5.6.4 11.2 1.1 16.8.5-4.4-2.7-11.8-.9-16.8-.5zm135.8 107.9l.5-8.4c-1.5 1.5-1.9 6.4-.5 8.4zm-9-77.8c.3-5.2.6-11.7.5-17.3-.6 5.7-1.1 12.1-.5 17.3zm-32.9-30.7c-2.1-1.7-1.7-5.8-1.5-9.2h-.4l-.9 8.4c-2.8.8-6.8 1.2-9.2.7-.5.8 0 .3-.8.8 7.5 3.1 31.6.5 45 .7.9 2.5 1.2 6.9 1.3 11.9.6-4.8 1.1-9.3 1.2-12.3l10-.3c-2.1-1.8-39.1-2.2-44.7-.7zm-79.8-78.9l-5.6.4 4.8.8.8-1.2zm8 79.6c2.1 1.5 6.8.8 9.2.5l-8.4-1.7c-.4 1.1.4.4-.8 1.2zm68.4 64.7c.1-.1.1-.1.1-.3-.1 0-.1.2-.1.3zm-88.7-105v.4c2.9.8 5.9 1 8.8.5-1.7-.9-6.3-.8-8.4-.9h-.4zm60.3 119c1.2.9 4 1 6.4.8-1.6-1.3-3.6-.4-6.4-.8zm28.4-14c-.8 2.5-1.1 7.5-1.2 12.9-3.3 1-6.1 1.3-8.4.7l-.4.8 14.4.1-2.8-.4c-1.3-2.7-1.6-8.2-1.6-14.1zm79.9 95.1c-2.8-7.1-1.2-18.6-1.4-26.2l-1.2-1.2c-.2 8.8-.4 17.6-.6 26.6-7.6.2-15.2.4-23 .6l-.4.8 35.4.6-.4-.8h.8l-9.2-.4zm571.1-237.7l1.6-.4-13.6-.5c.4 1.2 9 .2 12 .9zm-33.5-40h-1.2v36.6c-.8.8-.1.4-1.6.8.9.9.9.7 1.1 1.2 3.2-.4 6.4-.7 9.7-.8l-7.6-.4-.4-37.4zM867 130h.4c.4-3.1 1.1-7.6-.3-10.4L867 130zm-6-52.9h-8.4l-.8.4c1.2.8.8.4 2.8.4-.5.8 0 .3-.8.8 1.9 1.5 5.1.7 7.2.4v-.4l-2-.4 1.6-.4.4-.8zm52 41.7l-.4.4c.3.3.4.5.5.8h8.9c.1-.3.3-.5.5-1.2-3.1-.3-6.4-.3-9.5 0zM773.5 321.4l-.8-.8c.7.8.2.3.8.8zm6.2-24.8l-.8-.4-.2 22.2c2.6-6.3-.2-16.2 1-21.8zm172.2-219l-.8 1.6h3.2l.4-.8h2.8c-1.2-.9-3.4-.9-5.6-.8zm-162.7.7v-.4c-1.6-1.2-4.3-.7-6.8-.8 1.6 2.1 4.9 1.1 6.8 1.2zm57.5-39.1c-4.3-.5-8.4-.9-12-.9h-27.9c-1.2-6.7-2.4-24.6 0-37.4l1.5-.9h-68.1c-1 15.1-2.5 37.4-3 38.7 1.6 1.2 3.1.9 4.8 1.6-.8-.1 28.3-.7 29 1.6 4.5-1.5 9.9-2.3 15.7-2.7-1.8-.1-3.6-.2-5.3-.3l11.4.1c-2.1.1-4.1.2-6 .3 4.6.2 9.3.3 13.1-.2h3.7c11.3.2 23.2.9 34.2 1 3.1 6.7.7 30.3 1.2 35.8-1.6 2-4.3 2.1-6.4 1.6-.7 1.2.1.3 0 2h4.4l-1.2-.8c.9-.4 1.9-.5 2.8-.4l-1.6 1.2c3.1.8 4.9-.1 6.8-1.6v-.4h-3.6V40.9c2-.7 4.1-1.3 6.5-1.7zm-60.4 120l13.6.5.7 10c.6-4.3-.2-7.9 2.5-10.8l-16.8-.1v.4zM831 77.9l-2 .4c.7.5 1.1.5 1.6 1.2-2.7-.5-4.4.3-6.8-1.2-.5 1.7-3.3 1.1-6 1.2l2-1.6c-3.1.4-1.2.1-2.8 1.6h-9.2c0 9.3-2 31.2.8 37.4l18.8.4c-1.6.1-1.6.1-2.4.8h-16.4c.1-.3-.1 0 .7-.4v-.4c-.8-.1-1.6 0-2.4.4v.4h-3.6l-.8-1.2 4-.8c.1-7.5 1.5-34-.8-36.6l-8.4-.4c.8-1.6 1.1-.3.4-2 7.1-.1 30.2-1.3 33.3.8zm-30.2.4l-1.2-.8-.4.8h1.6zm10.8 39c1.2.7 1.6.8 2.4 0h-2.4zm-.8-39l-4-.4c1.3 1 2 .7 4 .4zm128.7 6.1c0 1.5-.1 3.5.8 4.8v.8h.4c0-2.5.9-4.4-1.2-5.6zm105.1 37.2c.1.1.2.3.3.4h-2.3c0 .5 0 1.1-.1 1.6-.7.3-1.4.7-1.9 1.2-.2-1-.5-1.9-.8-2.9-7.2.1-26.8 1.1-29.8-1 .8-.9.4 0 .4-1.2 9.6-.1 19.2 0 28.8-.1 1.3 0 2.6.1 4.1.2.5.6.9 1.2 1.3 1.8zm-24.5-1l-5.2-.4c1.2.8 3.8 1.2 5.2.4zM597 247.4c-.5 1.2-.4 14.5.7 16l.1-16-.4 2.4c-.2-.7-.3-1.5-.4-2.4zM879.1 77.8v-.3l-16.4-.4c-1.1.9-.7.1-.8 1.2h-.8c1.2 1.2 3.3.8 5.6.4-.7-.5-.3 0-.8-.8l.8.8c1.5-.3 2.8-.7 4-.8l-1.2.4c1.7 1.1 1.3-.8 1.6 1.2 2.3-1.7 4.4-1.3 8-1.6v-.1h-.1.1zm94.1-26.6c-.4 3.5-.4 8-.1 12.3.1-4.2.3-8.5.1-12.3zM871.1 38.4c.1 0 .2-.1.3-.1-8.5-.4-17.1-.5-24.3.8 8.4.9 17.2 1.7 24-.7-.1 0-.1 0 0 0zm208-38.4c.2.9.5 1.6.9 2.4-4.4.8-5.5 3.4-6.1 11.5-.4 5.7-1.9 19.1 1.1 24.6-.1.8-.2 1.6-.1 2.3-11 .1-22 .1-33 .1 0 2.1.1 4 .1 6.1v.1c.4 11.5 1.3 23-.5 31.8v.1c1.7-.7 3.5-.7 4.3.8h-24.2l.4-.8c3.9 0 12-.7 16.8-1.6.8-2.7.3-34.7-1.2-36.2h-2.5c-15.1-.1-30.3.1-45.4-.4-8-.3-11.7-2.1-15.4 4.8-.7 1.3-1.2 3.2-1.5 5.6-.1-5.7-.8-10.3-2.3-11.2l-62.9.8c0 2.7-.3 7.2-.4 12.3h-.3c-.3 10.1-.4 22.3 1.6 24.7 10.8-1.9 30.6-1.3 39.8.4v.4l-2 .4.8-.8-6.8 1.6c-.1 2.1-.4 3.3-1.2 4l-.4-.4-.4-3.6c-10.5.1-43.6 1.6-48.2-.8 1.5-.3 1.9.4 1.2-.8-.9.1-3.3.4-4 .8 1.7 0 1.2-.4 2.4.8l-8.8-.4 2-.8c-1.7-.1-3-.3-3.9-.7v-.1c8.5-.1 17-.3 25.6-.4 1.2-3.5 1.7-29.5-.4-37-9.1 0-21.4-1.5-33.4-2h.1c.4-.1.9-.3 1.2-.5V37h-1l.2-34.2c-.2-.9-.5-1.6-.8-1.9-12.7 2.3-49.5.6-60.2-.9h193.2v.1c.2.1.4.3.5.4l21.9-.5h53.2zm-7.5 34.7l-.3-29.1V2.3h-2v-.2h-31.6s.1 0 .1-.1h-.7c-.1.1-.4.1-.7.3h-12.9c-1.2 0-2.4-.1-3.5 0-4.3-.3-8.7-1.6-13.1.4l.1 8.7v2.9l.1 3.3c.2 1.1.4 2.1.5 3.2.6 4.6.5 9-.2 13.6l.1 3.5c3.9 1.1 8 1.7 12.3 2 5.1 0 10 0 14.9.3 11.6-.4 23.5-1.6 34-1.9h2.4v-3.9l.5.3zm-98.5 28.8c-.3 7.2-.8 13.5-.9 14.7l-1.6.8.4-1.2c-2.4.5-3.7 1.2-7.2 1.2 5.7 2.8 13.5-.5 17.2-.8l-5.2-.8c-1.4-2.7-2.3-8.2-2.7-13.9zM998.9 78c-1.9-1.3-7.2-.9-11.2-.8-.4 1.2-.5.3.4 1.2h-1.6c2.4 2.3 10.7 1.3 14.4.8l-2.8-.4c-.6-.8.1-.8.8-.8zm8-.8l-.8.4c-.9 4.9.9 19.2 1.2 26.6h.4c.3-15.9-4.8-25.8 13.2-24.6-1.5-1.2-1.2-.1-1.2-2l-12.8-.4zm-.8 41.8h1.2c2-3.7-.2-11.2-1.1-12.4l-.5 11.6.4.8zm-4 .7c-.5 1.2 0 .5-.8 1.2 3.2 1.2 4.9-.1 8 .8l.4-.8c-2.7-.8-1.9-.9-4.4-2-1.2 1.2-1.6.8-3.2.8zm49.6-40.3c.1-.1.2-.3.4-.4l-5.4.3c1.6 0 3.3 0 5 .1zM665.2 188.9l-1.2-.8c-.2 2.7-.2 5.7.8 7.2l.4-6.4zm1.2 54.6l.4-6.4h-3.2c1.5 1.7 2 5.2 2.8 6.4zm0 4h-.4c-2.6 3.5-1.1 20.5-1 28.2l1.2.4c-.4-6.2.2-17.6.2-28.6zm33.8 56.1l.1-8.4h-.4c-.6 2.8-.8 7 .3 8.4zm0-8.9l.1-7.2h-.4c-.6 1.2-.7 5.4.3 7.2zm-50.6-58.2c2.3 1.6 9.2 1 12.8.9-2.6-1.3-8.7-1-12.8-.9zm-52.2 10.9l.5-9.6-2-.4 1.5 10zM326 157.5c-2.9-1-5.9-1.2-8.8-1.1 2.9.4 5.6 1 8 1.9l.8-.8zm271.1 18.1c-.7 2.5-1.8 13.6.3 16.4l.5-16-.4-.4h-.4zm7.8 21.7l10 .5c-.5-1.5-5.1-1.2-10-.5zm23.7-.7l-.4.4v.4l3.6.8c.3 1.6.2 4.3 1.2 5.2.7-6.7 4.6-5.4 10.5-5.9-4-2.4-10.8-1.1-14.9-.9zm-362.3-86.2c2.1-5.2 1.5-14 .5-21.8-1.4 6.9-1.6 15.9-.5 21.8zM66 85.4c-1.7 5.1-1.6 14.9-.7 22.8.7-7.1 1.6-16.6.7-22.8zm667.8 177.5c.9-1.5-.1-1.1 1.6-.8.7-2.8 1.4-9.1-1.1-11.2-1.3 1.6-1.5 9.7-.5 12zm-61.5-154.1c.3-3.6.3-7.9.2-11.9-.3 4.2-.5 8.2-.2 11.9zm38.6 10.1h.1c9.9.6 19.3.8 29.2.6l.4-.8-29.8-.2.1.4zm40.6-.2c-.5.1-1.2.3-1.7.4l12.4.1c-4.3-.6-8.2-1-10.7-.5zM711 77.6h-.8c-.7.9-.9 1.1-2 1.6-.4-1.5-1.1-1.6-2.8-1.2l.4 1.2-32.2.8c0 5.1-.5 10.8-.8 16.4 0-1.2 0-2.3-.1-3.5-.1.1 0 0-.1 0v-.1h.1c-.3-5.9-.8-11.2-1.5-13.6h-34.3c-2.4-.1-6.7-.5-11.3-.9 4.5-.1 8.8-.5 11.9-2-.4-12.1-.7-24.4-.9-36.6l-25.2.3h-7.7c-7.2 0-27.8-3.2-32.4 1.7l.4 35.4h29.4c4.1 0 9.5.5 14.9.9 3.1-.1 6.4 0 9.7.3-3.2.1-6.5 0-9.7-.3-4.5.1-8.4.8-9.7 2.4v36.4l65.5-.4c.5-1.9.8-4.8 1.1-8.3.1 3.2.5 6.1 1.3 8.7 5.5-.1 31.1-1.2 33.4.8-11.1 2.8-25.2.4-36.6.4h-58.6l-.7 1c-1.9-.4-5.2-.7-9.3-.9l-4.6.2c-2.6.4-5.8.4-9 .2-6.5.3-14.2 1.1-21.7 1.5-.2 7.3-.4 14.4-.5 21.6-3.4-2.7-.8-15.8-1.8-21.5-8.4.3-16.4 0-22.3-2.2-.9-.3-1.7-.5-2.3-.8l30.8.2c1.9 0 5.2.3 8.9.6 5.8-.2 12.7-.2 18.6 0 2.7-.3 4.8-.9 5.9-2V79.3h.1l-65.3-.3c-1.9 3.7-1.9 32.3-.2 37.6-2.1-.9-1.2-1.6-2.1-7.3-1.6-9.5-.3-20.3-.3-29.9-11.3-.3-22.7-.5-34.2-.8-5.9-.1-27.9-3.1-31.2 1.2l-.4 36.6c1.2 0 2.4.1 3.6.4-1.1.7-.7.7-2 .4.9.8 1.2.5 1.5.8H466c.3-1.1 1.7-1.3 3.2-2.4.1-8.8 2.1-30-.8-36.6h-64.7c-1.3 7.3-2.3 30.8-.4 37.8 19 0 41 1 58.1 1.2h-66.2c2.1-.3 3.7-.8 6.1-2.4l-.3-36.7h-64.7l-1.2 1.2.2 36.2c7.7-.2 15.1-.2 22.2.2l-.5-.7c1.8 0 3.6.4 5.3 1.1 8.8.5 21.1-3 29.1 1-9.5.3-18.8.7-28.2 1l-.9 10.8h-.4c-1-3.5-1.3-7.1-1.1-10.8l-66.3.3c.8 3.3.6 7.1.2 10.8-.3-7.2-2.7-12.7-9.8-11.7l.2-.4h-25l.3.7-1.2.4c-3.7-.2-14.8 1.8-18.4-.9l1.7-.1h-5.6c1.9.2 3.3.5 3.9.9-4.5-.2-11.6-1.3-14 1.1-6.9-3.1-18.9-.7-26.1-1.4v-.4c2.9 0 6.4-.2 10.3-.3h-17.9v1l-10-.5c1-.1 1.9-.3 2.8-.6l-155.3-.1c.3-.4.4-.8.7-1.2l33.4-.4c0-1.7.4-4.5.7-7.9.4 3.3.9 6.4 1.5 8.3h64.7v-37h-.1c-1.3-.1-2.5-.3-3.9-.4v.1c-.1 0-.3-.1-.4-.1h-.7c-2.8.1-5.7.1-8.7.1.4-.1.7-.3.9-.4-6.3-.1-12.5.1-18.8.4l.3.3h-6.4c1.6-.1 2.9-.1 4.5-.3-3.6.1-7.3.3-10.9.3h-4.9c-.9 0-1.9-.1-3.1-.1h.8c-6.1-.4-10.5-.9-13.5 4.8-.1.4-.4.8-.5 1.2-.4-2.1-.9-3.7-1.7-4.8-1.5-1.7-3.5-2.7-5.9-3.1l39.9-.2V40.7c-6 0-43.8 4.1-47-1.2h-.8l.4-.8 14.4-.4V1.7H.5L0 0h543.4c-1.9 0-3.5.2-4.4 1.1v36.2h65.1l1.2-.8-.8-36.5h98.6c.1 0 .1 0 .1.1l1.6.4-31.4.8.4 36.6 46.6.4c-5.1 1.7-10.7 2.8-16.5 3.4l-.1 26.9.8-.1c.1 4.3 1.1 4.3 1.2 8.8l5.2.3zM269.4 38.3c13.6 0 46.4 2.2 60.7.2.8-.1 1.7-.3 2.4-.4.7-.1 1.3-.3 2-.5 0-1.5.1-2.9.1-4.4l.1-.1c0-.9.1-1.9.1-2.8.5-8.1 1.1-17.5 0-25.2l-.8-4-14.4.1h-.7l-49.6.2.1 36.9zm-70 1.2c-.3.4-.7.9-1.1 1.2h-1.5v-.1l-.1.1h-2c.4-.3.7-.4.9-.7l.4-.4c-9.6.5-19.2 1.3-28.3 1.5v36.6h31.5c9.1 0 25.5 2.8 33.5-.8V40.3c-10.6-1.6-21.9-1.5-33.3-.8zm-64.7-1.7c7.9 0 52.4 5 63.1-.1 0-.1.1-.1.3-.3.5-.3 1.1-.5 1.3-.8l.4-.4v-.3c0-.3 0-.5-.1-.7 0-.1.1-.1.1-.3l-.4-33.8h-23.9v.1h-40.2v3.9c-.1.1-.3.4-.3.5l-.3 32.2zm21.5 40.7c.8-.1 1.5-.4 2.3-.7 2 0 3.9-.1 5.3-.5.5-.1.9-.3 1.5-.5.1-4.4.7-19.8.3-29.2-.1-1.9-.3-3.6-.5-4.9-.3-1.2-.5-2.1-.8-2.4l-63.9.4v37h29.8c6.4-.1 17.3 1.2 26 .8zm42.2 1.1h-.1l-31.1-.1c-2 0-4.1-.1-6.1-.1h-8.4l-19-.1c-1.6 5.3-1.1 36.3.8 37.8l63.9-.4V79.6zm86.9 37.9c-.4-.3-.7-.3-2-.5.7.2 1.2.4 1.9.7l.1-.2zM333 80.1c0-.1-.1-.3-.1-.4v-.8c-8.9 0-35.5 4.5-43.2-.6 4.5-.3 8.3-.7 10.7-1.5 0-2.5.7-17.9.3-27.9v.3c0-.3 0-.5-.1-.8h.1c-.1-2.7-.3-4.9-.5-6.4v-.3c-.1-.7-.3-1.2-.5-1.5h-1.9c-17.5-.1-35-.4-52.4 0-1.9.1-3.6.1-5.5.3h-.4c-1.6 0-3.2.1-4.8.1-.1 12.7-2.1 29.1.4 37 9.5 0 24.3.8 37.6 1-2.8.1-4.7 4.4-5.7 10-.4-3.5-.9-6.8-1.2-9.3h-65c-.7 2.5-1.1 8.4-1.3 14.9 0 .3 0 .5.1.8-.1 1.6-.1 3.3 0 4.9 0 .4-.1.8-.1 1.1.1 0 .1.1.1.1v.5l-.1.1c.1 7.2.5 13.6 1.3 15.2 15.7-.1 31.5-.7 47.2-.4 2.3 0 4.3.2 6.1.3l5.7-.4.1.3c2.6-.6 4.7-2.2 6.5-6.1 0-.1 0-.1.1-.3.5 2.9 1.3 5.1 2.3 5.9 8.8.1 17.6.3 26.6.4.1.7 0 .7.2.9 3.2 0 6.5-.1 9.7-.2l.6-.3c-1.5.1-1.2.4-2.4-.4 1.6 0 4.6.3 8 .5 6.9-.3 13.9-.6 20.7-.8.4-.3.8-.5 1-.9l-.2-35.3zm34.9-3.6l-.4-33.5c0-.3-.1-.4-.1-.7v-2h-3.9l-60.7-.4c-.1.4-.4.9-.5 1.7h.1c-.4 1.6-.7 3.9-.8 6.7-.7 9.9-.3 24.8.4 29h31.2c8.6 0 26.9 2.8 34.7-.8zm135-38.9c8.7 0 27.5 3.5 34.3-1.1v-.1h.1L536.5.2c-21.8-.2-43.6.2-65.4.8v36.6h31.8zm66.5 2h-64.2l-1.2.8v.9h-.1c-.3 7.5-2.1 29.8.8 36l64.7-.4V39.6zm102.5-1.9L671.5.3h-65.1c-.1.5-.1 1.1-.3 1.7v.1c-1.3 9.5-1.5 29.1.2 35.5l65.6.1zM317.2 156.4c-5.3-.7-11.5-.7-17.7-.5 4.5 2.5 10.9.7 17.7.5zm-23.4-10.8c-.6 4.2-1.1 8-1.1 10.6l6.8-.4c-2-1.1-3.7-3.2-4.9-6.7-.4-1.1-.7-2.3-.8-3.5.6-5.1 1.3-10.8.9-15.7-.6 5.4-1.5 10.8-.9 15.7zM190.9 40.7h.4c-.1-.1-.4-.1-.5-.1.1-.1.1.1.1.1zm97.4 37.8c-3.9.1-8.1.3-12.5.3 4.4.1 9.3.9 12.5-.3zm491.3-1l-5.6-.4-1.2-10v2.8h-.4v-2c-1.9 1.7-1.1 6-1.2 9.2-7.3 1.3-9.9.4-17.2.4 1.9 2 8.9 1.7 12.8.4l.8.8 11.6-.4.4-.8z" fill="#1d1d1d"/></svg>