<?xml version="1.0" encoding="utf-8"?>
<svg xmlns="http://www.w3.org/2000/svg" viewBox="0 0 640 200"><path d="M9.3 145l-8.1-8.1V11.1l8-8.1h15.5l8 8.1v31.4l15.9 15.8v78.5l-8.1 8.1H9.3zM144 19h-31.3v23.9l15.6 15.5V137l-8.1 8.1H89.3l-8.1-8.1V19h-32V3.1h94.7L144 19zm123.9 0v31.3h63v15.9h-47.2v63h47.2v15.9h-86.5l-8.1-8.1V11.1l8.1-8.1h86.5v16h-63zm83.8 126l-8.1-8.1V89.7l8.1-8.1h55.2V50.1h-47.6v15.7h-15.6V42.2l7.9-7.9h63.3l7.9 7.9v32l15.6 15.6V137l-8.1 8.1-78.6-.1zm55.1-47.4h-31.7v31.5h31.7V97.6zm130.7 39.3l-8.1 8.1h-78.6l-8.1-8.1v-23.7h15.6v15.9h31.3V97.6h-38.9l-8.1-8.1V42.4l8.1-8.1h78.6l8.1 8.1v23.5h-15.6V50.2h-47.4v31.5h54.9l8.1 8.1.1 47.1zm101.2 47.4l-8.1 8.1h-87v-15.9H623V145h-71.2l-8.1-8.1V42.3l8.1-8.1h31.6l8.1 8.1v47.6l-16.1 15.9v23.3H623V34.4h15.6v149.9zM14.4 165.7h-3.9l-.6-.8.5-2.8.9-.7h3.9l.6.7-.5 2.8-.9.8zm-.5 3.1l-1.6 10 3.4 4-1.9 11.9-2.4 2h-4l-1.7-2 4.1-26 4.1.1zm53.8 4.1h-12l-1 6 3.4 3.9-1.9 11.9-2.4 2H46l-1.7-2 3.7-23.9 2.4-2h19.8l1.7 2-4.1 26h-3.9l3.8-23.9zm45.3 0l-1 6 3.4 3.9-1.9 11.9-2.4 2h-7.9l-1.7-2 3.5-22h-4.1l.7-4h4.1l1-5.9 2.3-1.9h10l-.7 4h-8.1l-.6 3.9h8.1l-.7 4h-4zm33.1 23.9l-1.7-2 3.7-23.9 2.4-2h19.8l1.7 2-3.7 23.9-2.4 2h-19.8zm21.7-23.9h-11.9l-1 6 3.3 3.9-1.6 10h8.1l3.1-19.9zm32.9 23.9l-1.7-2 3.7-23.9 2.4-2H223l-.7 4h-11.9l-1 6 3.4 3.9-1.9 12-2.4 2h-7.8zm47.4 0l-1.7-2 3.7-23.9 2.4-2h35.9l1.7 2-4.1 26h-3.9l3.8-24h-12l-1 6 3.4 3.9-1.9 12-2.4 2h-3.8l-1.7-2 3.5-22h-12.1l-1 6 3.4 3.9-1.9 12-2.4 2-7.9.1zm71.7 0l-1.7-2 1.9-11.9 2.4-2h14l1.2-8h-12.1l-.7 3.9h-3.9l1-6 2.3-2h16l1.6 2-1.2 8.1 3.4 3.9-1.9 11.9-2.4 2-19.9.1zm15.9-12h-8.1l-1.2 8h8.1l1.2-8zm41 12l-1.7-2 3.5-22h-4l.7-4h4l1.2-8h3.9l-1.2 8h8.1l-.7 4h-4l-1 6 3.4 4-1.9 11.9-2.4 2h-7.9zm51.4-31.1h-3.9l-.6-.8.5-2.8.9-.7h3.9l.6.7-.5 2.8-.9.8zm-.5 3.1l-1.6 10 3.4 4-1.9 11.9-2.4 2h-3.9l-1.7-2 4.1-26 4 .1zm54.7 26l-2.4 2H460l-1.7-2 3.7-23.9 2.4-2h19.8l1.7 2-1 5.9H481l.7-3.9h-12l-1 6 3.4 3.9-1.6 10h8.1l.7-4h3.9l-.9 6zm31.4 2l-1.7-2 1.9-11.9 2.4-2h14l1.2-8h-12.1l-.7 3.9h-3.9l1-6 2.3-2h16l1.6 2-1.2 8.1 3.4 3.9-1.9 11.9-2.4 2-19.9.1zm15.9-12h-8.1l-1.2 8h8.1l1.2-8z"/></svg>