<?xml version="1.0" encoding="utf-8"?>
<svg xmlns="http://www.w3.org/2000/svg" viewBox="0 0 640 200"><path fill="#EB0028" d="M225.5 60.7l2.4 1.1-1.9 3.6c-1.1 1.7-3.2 1.7-4.9.9-.4-.2-.9-.4-1.7-.6-.8-.2-1.5-.4-2.6-.6-5.5-.9-11.3.4-15.2 4.3-3 3.2-5.6 8.1-7.5 14.3v43.6h-7V59h3c2.1 0 3.6 1.5 3.6 3.8V68c1.1-1.5 2.3-3 3.6-4.1 2.1-1.9 4.3-3.4 7-4.3 4.7-1.7 10.2-1.9 15-.8 2.4.4 4.3 1.2 6.2 1.9zm61.3 54.4l2.1 2.1-1.5 1.9c-.9 1.1-2.1 2.3-3.8 3.4-1.5 1.1-3.4 2.1-5.5 3-2.1.9-4.3 1.5-6.8 2.1-6.8 1.5-14.1 1.1-20.5-1.7-3.8-1.7-7-4.1-9.6-7.3-2.6-3.2-4.5-7-6-11.5-2.8-9-3-19.6 0-28.4 1.3-4.1 3.4-7.7 5.8-10.7 2.6-3 5.8-5.5 9.6-7.1 7-3.2 15.8-3.6 22.9-.6 3.2 1.3 6 3.4 8.5 5.8 2.4 2.6 4.1 5.6 5.5 9.4.9 2.4 1.5 5.1 1.7 7.7.2 2.3 1.1 5.8-1.1 7.5-.6.4-1.3.8-2.1.8h-46.3v.6c0 4.9.6 9.2 1.7 13 1.1 3.6 2.8 6.8 4.7 9.2 2.1 2.4 4.5 4.1 7.3 5.5 5.5 2.4 12.4 2.6 18.1.9 2.4-.8 4.3-1.5 5.8-2.3 1.5-.8 2.6-1.5 3.4-2.3 2-1.8 4-2.9 6.1-1zm-32.9-48.7c-2.6 1.1-4.9 2.6-7 4.5-1.9 1.9-3.6 4.3-4.7 7.1-.9 2.1-1.5 4.1-1.9 6.6h41.9c-.2-2.6-.8-5.1-1.5-7.1-.9-2.8-2.4-5.1-4.1-7-1.7-1.9-3.8-3.2-6-4.1-5-2.3-11.4-2.1-16.7 0z"/><path fill="#196093" d="M353 100.8c0-2.3-.2-4.1-.6-5.5-.4-1.5-1.1-2.6-2.3-3.6-1.1-.9-2.6-1.7-4.5-2.3-1.9-.6-4.3-1.1-7.3-1.5-4.3-.6-7.9-1.1-10.5-1.5-2.6-.4-4.9-.8-7-1.3-3.4-.9-6-1.9-8.3-3.2-2.1-1.3-3.8-2.8-5.1-4.5-1.3-1.7-2.1-3.8-2.4-6.2s-.6-5.1-.6-8.1v-5.3c0-4.5.8-8.3 2.1-11.3s3.4-5.5 6.2-7.3c2.8-1.9 6.4-3 10.7-3.8 8.7-1.5 17.9-1.7 26.7-.4 3.6.6 7.1 1.3 10.5 2.6v11.8c-3.4-1.1-7-2.1-10.3-2.6-5.3-.9-10.7-1.1-16.2-.8-4.3.2-9.4.6-13.4 3-1.7.9-2.8 2.3-3.4 3.9-.6 1.5-.9 3.4-.9 5.6v4.7c0 2.1.2 3.8.6 5.1.4 1.3.9 2.4 1.9 3.4s2.1 1.5 3.6 2.1c1.5.6 3.4.9 5.6 1.5 5.5 1.1 10.3 2.1 14.9 2.6 4.5.6 8.5 1.5 11.7 2.8 1.7.8 3 1.5 4.3 2.6 3 2.4 4.5 5.8 5.3 9.6.4 2.3.8 4.9.8 7.9v5.1c0 8.7-2.8 15-8.3 18.8-4.7 3.2-10.7 4.5-16.4 5.1-7.7.9-15.8.8-23.5-.2-3.9-.6-7.5-1.3-10.9-2.4v-11.7c3.2 1.1 6.8 1.9 10.7 2.6 6 .9 12.2 1.1 18.2.8 4.3-.2 9.2-.8 13-3 3.4-2.1 5.3-5.5 5.3-10.2v-5.3h-.2zm109.3 27V79.7c0-3.6-.9-6.2-2.8-7.9-2.6-2.3-6.4-2.6-9.8-2.4-3.9 0-7.9.8-11.5 2.4-3.4 1.7-6.4 4.3-9 8.3v48h-11.1V79.5c0-4.3-1.9-8.1-6.2-9.6-5.3-1.7-12-.8-16.6 2.3-3 1.9-5.8 4.9-8.5 8.7v46.8h-11.1V60h11.1v11.8c1.3-2.1 2.6-4.1 4.3-5.8 3-3.4 7.1-5.8 11.7-7 5.5-1.3 12.2-1.5 17.3.9 4.3 2.1 7 6.2 8.1 10.9 2.8-4.3 6.2-7.5 10.5-9.6 7.1-3.4 16.9-4.3 24.4-2.1 7.7 2.4 10.2 9.6 10.2 16.9v51.2h-11.1v.6zm70.3 0v-10.7c-8.3 11.7-24.8 15.8-38.4 11.8-2.8-.8-5.1-1.9-6.6-3.4-1.7-1.5-2.8-3.4-3.4-5.5-.6-2.1-.9-4.5-.9-7.1v-11.1c0-3 .4-5.6 1.1-7.9.8-2.1 2.1-3.8 3.9-5.1 1.9-1.3 4.3-2.3 7.5-2.8 8.5-1.5 18.1-1.3 26.5.4 4.1.9 7.3 1.9 10 2.8V83c0-2.8-.4-5.3-1.1-7.1-.8-1.9-1.9-3.4-3.6-4.7-1.7-1.1-3.9-2.1-6.6-2.4-7.1-1.3-15-1.1-22.2 0-3.6.6-6.8 1.1-9.6 2.1V60.7c2.8-.8 5.8-1.3 9.4-1.7 9.2-1.1 19-1.3 28 .4 3.8.8 7 2.1 9.4 3.8 2.4 1.9 4.1 4.1 5.3 7.3 1.1 3 1.7 7 1.7 11.5v45.7h-10.5v.1zm0-31.5c-2.3-.9-5.3-1.7-9-2.4-4.5-.9-9.2-1.1-13.7-1.1-3.8 0-8.1.2-11.5 2.1-2.4 1.5-3.6 4.3-3.6 8.7v6.6c0 1.9.2 3.4.6 4.7.4 1.3 1.1 2.4 2.3 3.2 3.4 2.8 9 2.6 13.2 2.4 4.5-.2 9.2-1.1 13.2-3.4 3.8-2.3 6.8-4.9 9-7.9V96.3h-.5zm21.3 31.5V60.3h11.5v11.8c4.3-6.8 10.7-11.3 18.6-12.8 2.8-.6 5.8-.8 9.4-.9v11.1c-6 0-11.3.8-15.8 2.3-4.5 1.5-8.5 4.7-12.2 9.6v46.5c-.1-.1-11.5-.1-11.5-.1zm85.9.8c-1.1.4-2.4.8-4.3.9-7.1 1.1-16.6.9-22.2-4.3-3.4-3.2-5.1-8.1-5.1-15v-41h-7v-8.8h7V43.8h11.1v16.6h20.3v8.8h-19.9v41c0 3.8.8 6.4 2.4 8.1 2.1 2.1 5.3 2.4 8.1 2.4 3.2.2 6.8 0 9.8-1.3v9.2h-.2z"/><g fill="#FFF"><path d="M98.4 88.9L9.2 47.2 84.4 4.1l85.4 32.3zM97.6 183l-79.4-45.7-9-90.1 89.2 41.7zM169.8 36.4l-8.2 89-64 57.6.8-94.1z"/></g><path fill="#EB0028" d="M166.1 123.9L97.2 188l.6 8.1 79.5-74.1zM11.7 135l5.8-4.3-.6-7.4L0 135.4z"/><path fill="#196093" d="M177.3 122l-14.8-7.3-.6 7.1 4.2 2.1zM97.2 188l-85.5-53-11.7.4 97.8 60.7z"/><g><path fill="#EB0028" d="M84.8 5.4L63.6 17.6l24.8 10 20.9-13-24.5-9.2"/><path fill="#196093" d="M88.8 29.3L66 43.4l26.9 11.7L115.3 40 88.8 29.3M117.2 40.8L95 55.8l28.7 12.4 21.9-16-28.4-11.4"/><path fill="#EB0028" d="M64.3 44.3L39.7 59.6 67 72.4 91.2 56 64.3 44.3M62.1 18.4L38.9 31.6l25.2 10.9 22.8-14-24.8-10.1M111.1 15.4l-20.8 13 26.5 10.7 20.5-13.7-26.2-10"/><path fill="#196093" d="M37.2 32.7L12.4 47l25.4 11.8 24.6-15.2-25.2-10.9"/><path fill="#EB0028" d="M93.3 56.9L69 73.3 98.2 87l23.9-17.5-28.8-12.6M139.2 26.1l-20.5 13.7 28.4 11.5L167 36.6l-27.8-10.5"/></g><path fill="#EB0028" d="M29.5 89.3c.2-.2.2-.4.4-.4l.4-.4c.2-.2.4-.2.4-.4.1-.1.3-.1.3-.3.2-.2.6-.2.8-.4.2-.2.6-.2.8-.2.4 0 .6 0 .9-.2h.9c.3 0 .8 0 1.1.2.4 0 .8.2 1.1.4.4.2.8.2 1.1.4.4.2.8.4 1.1.6.4.2.6.4.9.4.4.2.6.4.9.6.4.2.6.4.9.6.4.2.6.4.9.6.2.2.6.4.8.6.2.2.6.4.8.8.2.2.6.4.8.8l.8.8 1.3 1.3-.9 1.5c0 .2-.2.2-.2.2H45c-.2 0-.2 0-.4-.2-.2 0-.2-.2-.4-.2s-.2-.2-.4-.2-.2-.2-.4-.2-.2-.2-.4-.2l-.2-.2-.2-.2-.2-.2-.2-.2s-.2-.2-.4-.2-.2-.2-.4-.2-.2-.2-.4-.2-.2-.2-.4-.4-.4-.2-.4-.4c-.2-.2-.4-.2-.4-.4-.2-.2-.4-.2-.4-.2-.2 0-.4-.2-.4-.2-.6-.4-1.1-.6-1.7-.8-.6-.2-1.1-.4-1.7-.4-.6 0-.9 0-1.5.2-.4.2-.9.4-1.1.6-.4.2-.8.6-1.1.9-.4.4-.6.9-.9 1.3-.2.6-.6 1.1-.8 1.7-.2.6-.4 1.3-.6 2.1l1.9 24.1-3.4-1.9-3.2-38.2 1.7.8c.2.2.6.4.8.6.2.2.4.6.6.8.2.2.4.6.4.9.2.4.2.6.2.9l.9 2.9m38.6 53c-.6-.4-1.1-.8-1.7-1.1-.6-.4-1.1-.8-1.7-1.1-.6-.4-1.1-.9-1.7-1.3-.6-.6-1.1-.9-1.7-1.5l-1.5-1.5c-.6-.6-.9-1.1-1.3-1.7s-.9-1.1-1.3-1.7-.8-1.1-1.1-1.9c-.4-.6-.8-1.3-1.1-1.9s-.6-1.3-.9-1.9c-.4-.8-.6-1.3-.8-2.1-.2-.8-.6-1.3-.8-2.1-.4-1.5-.8-2.8-1.1-4.3-.2-1.5-.4-2.8-.6-4.3V110c.2-1.3.4-2.4.6-3.6.2-.6.4-.9.6-1.5.2-.4.4-.9.8-1.3.2-.4.6-.8.8-1.1l.9-.9c.4-.2.8-.6 1.1-.8s.8-.4 1.1-.6c.4-.2.9-.2 1.3-.2h1.5c.6 0 1.1 0 1.7.2.6 0 1.1.2 1.7.4.6.2 1.1.4 1.7.6.6.2 1.1.6 1.9.8.6.2 1.1.6 1.5.9.6.4 1.1.6 1.5.9.6.4.9.8 1.5 1.1.6.4.9.8 1.5 1.3.6.4.9.9 1.3 1.3s.9.9 1.3 1.5.8.9 1.1 1.5c.4.6.8 1.1 1.1 1.7.4.6.8 1.1.9 1.7.4.6.6 1.1.9 1.7.2.6.6 1.1.8 1.9.2.6.4 1.3.6 1.9.2.4.2.9.4 1.3s.2.9.4 1.3c0 .4.2.8.2 1.3 0 .4.2.8.2 1.3 0 .4.2.8.2 1.1v1.3c0 .4 0 .8-.2.9l-.6.6h-.2-.8c-.2 0-.2 0-.4-.2l-25.6-13.5v.4c0 .8 0 1.3.2 2.1 0 .8.2 1.3.2 2.1.2.6.2 1.3.4 1.9.2.6.4 1.3.6 1.9.2.6.4 1.1.6 1.7.2.6.4 1.1.8 1.7.2.6.6 1.1.8 1.5.2.6.6.9.8 1.5.4.6.6.9.9 1.3.4.4.6.9.9 1.3s.8.8 1.1 1.3l1.1 1.1c.4.4.9.8 1.3 1.1.4.4.9.8 1.3 1.1.4.4.9.8 1.5.9.6.4.9.6 1.5.9.4.2.8.4 1.1.6.4.2.8.4 1.1.6.4.2.8.2 1.1.4.4.2.8.2 1.1.4.4 0 .6.2.9.2.4 0 .6.2.8.2h3.6c.2 0 .4 0 .4-.2h1.2c.2 0 .4.2.6.2.2 0 .2.2.4.2s.2.2.4.2l.4.4.4.4 1.1 1.7-1.1.8c-.2 0-.2.2-.4.2s-.4.2-.6.2c-.2 0-.4.2-.6.2-.2 0-.4 0-.6.2H77c-.2 0-.6 0-.8-.2-.4 0-.6 0-.9-.2-.4 0-.6-.2-.9-.2-.4 0-.6-.2-.9-.2-.4 0-.6-.2-.9-.4-.4-.2-.8-.2-1.1-.4-.4-.2-.8-.4-1.1-.4-.4-.2-.8-.4-1.1-.6-.5-.2-.8-.4-1.2-.6m29.7-50.9L10 50l8.5 85.4L97 180.5l.8-89.1m-31.2 14.8c-.4-.2-.9-.4-1.3-.6-.4-.2-.9-.4-1.3-.4-.4-.2-.8-.2-1.3-.4-.4 0-.8-.2-1.1-.2h-1.1c-.3 0-.8 0-.9.2-.4 0-.6.2-.9.2-.2.2-.6.2-.8.4-.2.2-.6.4-.8.6l-.6.6c-.2.2-.4.6-.6.8-.2.2-.4.6-.4.9-.2.2-.2.6-.4.8 0 .2-.2.6-.2.8s-.2.6-.2.8c0 .4-.2.6-.2.9L78 123.7c0-.4 0-.8-.2-1.1 0-.4-.2-.8-.2-1.1 0-.4-.2-.8-.2-1.1-.2-.4-.2-.8-.4-1.1-.2-.6-.4-.9-.6-1.5-.2-.4-.4-.9-.6-1.3-.2-.4-.4-.9-.6-1.3-.2-.4-.6-.8-.8-1.3-.2-.4-.6-.8-.8-1.1-.2-.4-.6-.8-.9-1.1-.4-.4-.6-.8-.9-1.1l-.9-.9c-.4-.4-.8-.6-1.1-.9-.4-.4-.8-.6-1.1-.9-.4-.2-.8-.6-1.1-.8-.1-.5-.5-.7-1-.9"/><path fill="#196093" d="M130.7 131.6l.6-.6.6-.6.6-.6.6-.6 1.3-1.3c.4-.4.9-.9 1.3-1.5s.9-1.1 1.3-1.7c.4-.6.9-1.1 1.3-1.9.4-.6.8-1.1.9-1.7.4-.6.6-1.1.8-1.9.2-.6.4-1.3.6-1.9.2-.6.2-1.3.2-1.9l.2-2.6v-.9-.8-.8-.6c0-.2 0-.4-.2-.4 0-.2-.2-.2-.2-.4s-.2-.2-.2-.2l-.2-.2h-.8c-.2 0-.4 0-.6.2-.2 0-.4.2-.6.2-.2 0-.4.2-.6.4-.2.2-.4.2-.8.4-.2.2-.6.4-.8.6-.2.2-.6.4-.9.6-.4.4-.9.6-1.3.8-.4.2-.8.6-1.1.8-.4.2-.8.4-.9.8-.4.2-.6.4-.9.6-.2.2-.6.4-.8.6-.2.2-.6.4-.8.4-.2.2-.6.2-.8.4-.2.2-.4.2-.6.4-.4.2-.8.4-.9.4-.4.2-.6.2-.9.4-.4.2-.6.2-.8.2-.2 0-.6 0-.8.2h-.6c-.2 0-.4 0-.6-.2-.2 0-.4-.2-.6-.2-.2-.2-.4-.2-.4-.4-.2-.2-.2-.4-.4-.6-.2-.2-.2-.4-.2-.6 0-.2-.2-.4-.2-.8 0-.2-.2-.6-.2-.9v-.9-1.1-1.1-1.3l.2-3.2c0-.8 0-1.3.2-2.1 0-.8.2-1.3.2-1.9.2-.6.2-1.3.4-1.9s.4-1.1.4-1.7c.2-.6.4-1.1.6-1.7.2-.6.4-1.1.8-1.7.2-.6.6-1.1.8-1.7.4-.6.6-1.1.9-1.5.4-.6.8-1.1 1.1-1.5.4-.6.8-.9 1.1-1.5.4-.6.8-.9 1.3-1.5.4-.6.9-.9 1.3-1.5l1.5-1.5c.6-.6 1.1-.9 1.5-1.5.6-.6 1.1-.9 1.5-1.3.6-.4 1.1-.9 1.5-1.3.4-.4.9-.8 1.3-.9.4-.4.9-.6 1.3-.9.4-.4.9-.6 1.3-.8.4-.2.9-.6 1.3-.8.4-.2.8-.4 1.1-.6.4-.2.8-.4 1.1-.6s.8-.4 1.1-.4c.4-.2.8-.2 1.1-.4l-.6 7.1c-.4.2-.8.2-.9.4-.4.2-.8.2-1.1.4-.4.2-.8.4-1.1.6-.4.2-.8.4-1.1.6-.4.2-.8.4-1.1.8-.4.2-.8.6-1.3.8-.4.4-.8.6-1.3.9-.4.4-.8.6-1.3.9-.2.2-.4.2-.6.4-.2.2-.4.2-.6.4-.2.2-.4.2-.6.4-.2.2-.4.2-.6.4-.6.4-.9.8-1.5 1.3-.6.4-.9.9-1.5 1.5s-.9 1.1-1.5 1.7c-.6.6-.9 1.3-1.3 1.9-.2.4-.4.6-.6.9-.2.4-.4.6-.4.9-.2.4-.2.6-.4.9-.2.4-.2.6-.4.9 0 .4-.2.6-.2.9 0 .4-.2.6-.2.9 0 .4 0 .6-.2.9v.9l-.2 2.8V107.8c0 .2 0 .4.2.4 0 .2.2.2.2.4s.2.2.2.2l.2.2s.2 0 .4.2h.8c.2 0 .4 0 .4-.2.2 0 .4-.2.6-.2.2 0 .4-.2.6-.2.2 0 .4-.2.6-.4.2-.2.4-.2.8-.4.6-.4 1.1-.6 1.7-.9.6-.4 1.1-.6 1.5-.9.6-.4.9-.6 1.5-.9.6-.4.9-.6 1.5-.9.4-.4.9-.6 1.3-.9.4-.2.8-.6 1.3-.8.4-.2.8-.4 1.1-.6.4-.2.8-.2.9-.4H142.6c.2 0 .2 0 .4.2s.6.2.8.6c.2.2.4.6.6.8.2.4.2.8.4 1.1 0 .4.2.8.2 1.3v4l-.2 2.8c0 1.1-.2 2.4-.4 3.6-.2 1.1-.6 2.3-.8 3.4-.4 1.1-.8 2.1-1.1 3.2-.4.9-.9 2.1-1.5 3-.6.9-.9 1.7-1.5 2.4-.6.8-1.1 1.5-1.7 2.3-.6.8-1.1 1.3-1.7 2.1-.6.6-1.1 1.3-1.7 1.9l-1.1 1.1c-.4.4-.8.8-1.1.9-.4.4-.8.8-1.1.9-.4.4-.8.6-1.1.9-.4.4-.9.8-1.3 1.1-.4.4-.9.8-1.3 1.1-.4.4-.9.8-1.3 1.1-.4.4-.9.8-1.3.9-.4.4-.8.6-1.1.8-.4.2-.8.6-1.1.8-.4.2-.8.4-1.1.6-.4.2-.8.4-1.1.6l.2-6.4c.4-.2.8-.4 1.1-.6.4-.2.8-.4 1.1-.6.4-.2.8-.4 1.1-.8.4-.2.8-.6 1.1-.8.4-.4.9-.6 1.3-.9.4-.4.9-.6 1.3-.9.4-.4.9-.8 1.3-1.1.9-.5 1.2-.9 1.8-1.3m37.2-91.4l-67.3 50-.9 89 60.7-54.5 7.5-84.5"/><path fill="#EB0028" d="M201.8 159.3c-.2.2-.2.4-.6.4-.2 0-.4-.2-.6-.4s-.6-.4-1.1-.8c-.4-.2-.9-.6-1.7-.8-.6-.2-1.5-.4-2.3-.4-.8 0-1.5.2-2.3.4-.8.2-1.3.6-1.7.9-.6.4-.9.9-1.1 1.5s-.4 1.1-.4 1.9.2 1.5.6 1.9c.4.6.9.9 1.5 1.3s1.3.8 2.1.9c.8.2 1.5.6 2.3.8.8.2 1.5.6 2.3.9.8.4 1.5.8 2.1 1.1.6.6 1.1 1.1 1.5 1.7.4.8.6 1.5.6 2.4 0 1.1-.2 2.1-.6 3-.4.9-.9 1.7-1.5 2.4-.8.8-1.5 1.1-2.4 1.7-.9.4-2.1.6-3.4.6-1.7 0-3-.2-4.1-.8-1.1-.6-2.3-1.3-3.2-2.3l.6-.8c0-.2.2-.2.2-.4 0 0 .2-.2.4-.2s.4.2.8.4.8.6 1.1.9c.4.4 1.1.6 1.7.9.8.2 1.5.4 2.6.4.9 0 1.9-.2 2.6-.4.8-.4 1.3-.8 1.9-1.1.6-.6.9-1.1 1.1-1.7.2-.8.4-1.3.4-2.1s-.2-1.5-.6-2.1c-.4-.6-.9-.9-1.5-1.3s-1.3-.8-2.1-.9c-.8-.2-1.5-.6-2.3-.8-.8-.2-1.5-.6-2.3-.9-.8-.4-1.5-.8-2.1-1.1-.6-.6-1.1-1.1-1.5-1.7-.4-.8-.6-1.5-.6-2.6 0-.9.2-1.7.6-2.4.4-.8.9-1.5 1.5-2.1.6-.6 1.5-1.1 2.4-1.5.9-.4 2.1-.6 3.2-.6 1.3 0 2.6.2 3.8.6 1.1.4 2.1 1.1 3 2.1l-.9 1.1zm15.8-3.4c1.7 0 3.2.4 4.3.9 1.3.6 2.4 1.5 3.2 2.6.9 1.1 1.5 2.4 2.1 3.9.4 1.5.8 3.4.8 5.3s-.2 3.8-.8 5.3c-.4 1.5-1.1 2.8-2.1 3.9-.9 1.1-2.1 1.9-3.2 2.6-1.3.6-2.8.9-4.3.9s-3.2-.4-4.3-.9c-1.3-.6-2.4-1.5-3.2-2.6-.9-1.1-1.5-2.4-2.1-3.9-.4-1.5-.8-3.4-.8-5.3s.2-3.8.8-5.3c.4-1.5 1.1-2.8 2.1-3.9.9-1.1 2.1-1.9 3.2-2.6 1.3-.7 2.6-.9 4.3-.9zm0 23.5c1.3 0 2.6-.2 3.6-.8.9-.6 1.9-1.3 2.6-2.3.8-.9 1.1-2.1 1.5-3.4s.6-2.8.6-4.5-.2-3.2-.6-4.5c-.4-1.3-.9-2.4-1.5-3.4-.8-.9-1.5-1.7-2.6-2.3-.9-.6-2.3-.8-3.6-.8s-2.6.2-3.6.8-1.9 1.3-2.6 2.3c-.8.9-1.1 2.1-1.5 3.4-.4 1.3-.6 2.8-.6 4.5s.2 3.2.6 4.5c.4 1.3.9 2.4 1.5 3.4.8.9 1.5 1.7 2.6 2.3 1.2.6 2.3.8 3.6.8zm19-34.6v36.1h-2.3v-36.1h2.3zm9.8 11.4V172c0 2.3.6 4.1 1.5 5.5.9 1.3 2.4 2.1 4.5 2.1 1.5 0 2.8-.4 4.1-1.3 1.3-.8 2.4-1.9 3.6-3.4v-18.6h2.3v24.8h-1.1c-.4 0-.6-.2-.8-.6l-.2-3.8c-1.1 1.5-2.3 2.6-3.8 3.4-1.3.9-3 1.3-4.7 1.3-1.3 0-2.4-.2-3.4-.6-.9-.4-1.7-1.1-2.4-1.9-.6-.8-1.1-1.9-1.5-3-.4-1.1-.6-2.4-.6-3.9v-15.8h2.5zm38.5 1c0 .4-.2.8-.4.9L270.3 179h14.1v1.9h-16.7v-.9c0-.2.2-.6.4-.9l14.3-21.1h-13.9v-1.9h16.6l-.2 1.1zm9.2-9.6c0 .4 0 .6-.2.8s-.2.6-.4.8l-.6.6c-.2.2-.6.2-.8.2s-.6 0-.8-.2c-.2-.2-.4-.2-.6-.6-.2-.2-.4-.4-.4-.8-.2-.2-.2-.6-.2-.8 0-.4 0-.6.2-.9.2-.2.2-.6.4-.8l.6-.6c.2-.2.6-.2.8-.2s.6 0 .8.2c.2.2.4.2.6.6.2.2.4.4.4.8s.2.7.2.9zm-.9 8.6V181h-2.3v-24.8h2.3zm16.9-.3c1.7 0 3.2.4 4.3.9 1.3.6 2.4 1.5 3.2 2.6.9 1.1 1.5 2.4 2.1 3.9.4 1.5.8 3.4.8 5.3s-.2 3.8-.8 5.3c-.4 1.5-1.1 2.8-2.1 3.9-.9 1.1-2.1 1.9-3.2 2.6-1.3.6-2.8.9-4.3.9-1.7 0-3.2-.4-4.3-.9-1.3-.6-2.4-1.5-3.2-2.6-.9-1.1-1.5-2.4-2.1-3.9-.4-1.5-.8-3.4-.8-5.3s.2-3.8.8-5.3c.4-1.5 1.1-2.8 2.1-3.9.9-1.1 2.1-1.9 3.2-2.6 1.1-.7 2.6-.9 4.3-.9zm0 23.5c1.3 0 2.6-.2 3.6-.8.9-.6 1.9-1.3 2.6-2.3.8-.9 1.1-2.1 1.5-3.4s.6-2.8.6-4.5-.2-3.2-.6-4.5c-.4-1.3-.9-2.4-1.5-3.4-.8-.9-1.5-1.7-2.6-2.3-.9-.6-2.3-.8-3.6-.8-1.3 0-2.6.2-3.6.8-.9.6-1.9 1.3-2.6 2.3-.8.9-1.1 2.1-1.5 3.4-.4 1.3-.6 2.8-.6 4.5s.2 3.2.6 4.5c.4 1.3.9 2.4 1.5 3.4.8.9 1.5 1.7 2.6 2.3 1 .6 2.1.8 3.6.8zm16 1.5v-24.8h1.1c.4 0 .6.2.8.6l.2 3.8c1.1-1.5 2.3-2.6 3.6-3.4 1.3-.9 3-1.3 4.7-1.3 1.3 0 2.4.2 3.4.6.9.4 1.7 1.1 2.4 1.9.6.8 1.1 1.9 1.5 3 .4 1.1.6 2.4.6 3.9V181h-2.3v-15.8c0-2.3-.6-4.1-1.5-5.5-.9-1.3-2.4-2.1-4.5-2.1-1.5 0-2.8.4-4.1 1.3-1.3.8-2.4 2.1-3.4 3.4v18.6h-2.5zm28.8-33.3c0 .4 0 .6-.2.8s-.2.6-.4.8l-.6.6c-.2.2-.6.2-.8.2s-.6 0-.8-.2c-.2-.2-.4-.2-.6-.6-.2-.2-.4-.4-.4-.8-.2-.2-.2-.6-.2-.8 0-.4 0-.6.2-.9.2-.2.2-.6.4-.8l.6-.6c.2-.2.6-.2.8-.2.2 0 .6 0 .8.2.2.2.4.2.6.6.2.2.4.4.4.8s.2.7.2.9zm-1 8.6V181h-2.3v-24.8h2.3zm32-8.2c0 .6-.2.9-.4 1.5-.2.4-.4.9-.8 1.1-.4.4-.8.6-1.1.8-.4.2-.9.4-1.5.4s-.9-.2-1.3-.4-.8-.6-1.1-.8c-.4-.4-.6-.8-.8-1.1-.2-.4-.4-.9-.4-1.5s.2-1.1.4-1.5c.2-.6.4-.9.8-1.3s.8-.6 1.1-.8c.4-.2.9-.4 1.3-.4.6 0 .9.2 1.5.4.4.2.8.6 1.1.8.4.4.6.8.8 1.3.4.5.4.9.4 1.5zm-.7 7.5v25.6h-5.6v-25.6h5.6zm6.4 25.4v-25.6h3.4c.8 0 1.1.4 1.5 1.1l.4 2.1 1.5-1.5c.6-.4 1.1-.8 1.7-1.1.6-.4 1.3-.6 1.9-.8.8-.2 1.3-.2 2.3-.2 1.3 0 2.4.2 3.4.8.9.6 1.9 1.1 2.4 2.1.8.9 1.1 1.9 1.5 3 .4 1.1.6 2.4.6 3.9v16.2h-5.6v-16.2c0-1.5-.4-2.8-.9-3.6-.8-.9-1.7-1.3-3-1.3-.9 0-1.9.2-2.8.8-.9.6-1.7 1.1-2.4 1.9v18.4h-5.9zm27 0V160l-2.1-.4c-.4 0-.8-.2-1.1-.6-.2-.2-.4-.6-.4-1.1v-2.4h3.6v-1.9c0-1.5.2-2.8.6-3.9.4-1.1.9-2.1 1.7-3 .8-.8 1.7-1.5 2.8-1.9 1.1-.4 2.3-.6 3.8-.6 1.1 0 2.1.2 3 .6l-.2 3c0 .6-.2.8-.6.9-.4.2-.8.2-1.3.2-.8 0-1.3 0-1.9.2s-.9.4-1.3.8-.6.9-.8 1.5c-.2.6-.4 1.5-.4 2.4v1.7h6.2v4.3h-6v20.9h-5.6v.2zm25.2-25.8c1.7 0 3.4.4 4.7.9 1.5.6 2.6 1.5 3.8 2.6.9 1.1 1.9 2.4 2.3 4.1.6 1.7.8 3.4.8 5.5s-.2 3.8-.8 5.5-1.3 3-2.3 4.1c-.9 1.1-2.3 2.1-3.8 2.6-1.5.6-3 .9-4.7.9-1.7 0-3.4-.4-4.9-.9-1.5-.6-2.6-1.5-3.8-2.6-.9-1.1-1.9-2.4-2.4-4.1-.6-1.7-.8-3.4-.8-5.5s.2-3.8.8-5.5c.6-1.7 1.3-3 2.4-4.1.9-1.1 2.3-2.1 3.8-2.6 1.6-.7 3.3-.9 4.9-.9zm0 21.5c1.9 0 3.4-.8 4.3-2.1.9-1.5 1.5-3.6 1.5-6.2 0-2.8-.6-4.9-1.5-6.2-.9-1.5-2.4-2.3-4.3-2.3-2.1 0-3.4.8-4.3 2.3-.9 1.5-1.5 3.6-1.5 6.2s.6 4.9 1.5 6.2c1 1.3 2.5 2.1 4.3 2.1zm16.2 4.3v-25.6h3.4c.6 0 .9.2 1.1.4s.4.6.4 1.1l.4 3c.8-1.5 1.9-2.8 3-3.8 1.1-.9 2.4-1.3 3.8-1.3 1.1 0 2.1.4 2.8.9l-.8 4.5c0 .4-.2.6-.4.6-.2.2-.4.2-.6.2-.2 0-.6 0-.9-.2s-.9-.2-1.5-.2c-1.1 0-2.3.4-3 1.1-.8.8-1.5 1.7-2.1 3v15.8H460v.5zm18.8 0v-25.6h3.4c.8 0 1.1.4 1.5 1.1l.4 1.9c.4-.6.9-.9 1.3-1.3s.9-.8 1.5-1.1c.6-.4 1.1-.6 1.7-.8.6-.2 1.3-.2 1.9-.2 1.5 0 2.6.4 3.8 1.3 1.1.9 1.7 2.1 2.1 3.4.4-.8.8-1.5 1.3-2.3.6-.6 1.1-1.1 1.9-1.5.8-.4 1.3-.8 2.1-.8.8-.2 1.5-.2 2.3-.2 1.3 0 2.4.2 3.4.6.9.4 1.9 1.1 2.6 1.9.8.8 1.1 1.9 1.5 3 .4 1.1.6 2.6.6 4.1v16.2h-5.6v-16.2c0-1.7-.4-2.8-.9-3.8-.8-.8-1.7-1.3-2.8-1.3-.6 0-1.1.2-1.7.4s-.9.6-1.3.9-.8.9-.9 1.5-.4 1.3-.4 2.1v16.2h-5.6v-16.2c0-1.7-.4-3-.9-3.8-.6-.8-1.5-1.1-2.8-1.1-.8 0-1.5.2-2.3.6-.8.4-1.3 1.1-2.1 1.9v18.6h-5.6v.5zm57.2 0h-2.6c-.6 0-.9 0-1.3-.2s-.6-.6-.8-1.1l-.6-1.9c-.6.6-1.1 1.1-1.7 1.5-.6.4-1.1.8-1.7 1.1-.6.4-1.3.6-1.9.8-.8.2-1.5.2-2.3.2-.9 0-1.9-.2-2.8-.4s-1.5-.8-2.3-1.3c-.6-.6-1.1-1.3-1.5-2.3-.4-.9-.6-1.9-.6-3 0-.9.2-1.9.8-2.8.4-.9 1.3-1.7 2.3-2.6 1.1-.8 2.4-1.3 4.3-1.9 1.9-.6 4.1-.8 6.8-.8v-1.5c0-1.7-.4-3-.9-3.8-.8-.8-1.7-1.3-2.8-1.3-.9 0-1.7.2-2.3.4-.6.2-1.1.6-1.5.8-.4.4-.9.6-1.3.8-.4.2-.8.4-1.3.4-.4 0-.8-.2-.9-.4l-.8-.8-1.1-1.9c2.6-2.6 6-3.9 9.8-3.9 1.3 0 2.6.2 3.8.8s2.1 1.1 2.8 2.1c.8.9 1.3 1.9 1.7 3.2.4 1.1.6 2.4.6 3.9v16h.1zm-11.1-3.8c.6 0 1.1 0 1.7-.2.6-.2.9-.4 1.3-.6.4-.2.9-.6 1.3-.8.4-.4.8-.8 1.3-1.1v-4.3c-1.7 0-3 .2-4.1.4s-2.1.6-2.6.9c-.8.4-1.1.8-1.5 1.3-.4.4-.4.9-.4 1.5 0 1.1.4 1.9.9 2.3.4.4 1.2.6 2.1.6zm24.5 4.2c-2.1 0-3.6-.6-4.7-1.9-1.1-1.3-1.7-3-1.7-5.3v-14.3h-2.4c-.4 0-.6-.2-.8-.4-.2-.2-.4-.6-.4-.9v-2.4l3.8-.8 1.1-7c0-.4.2-.6.4-.8.2-.2.6-.2.8-.2h3v8.1h6.2v4.3h-6.2v13.9c0 .8.2 1.5.6 1.9.4.4.9.8 1.5.8.4 0 .6 0 .9-.2.2 0 .4-.2.6-.4s.4-.2.6-.4c.2-.2.2-.2.4-.2s.4 0 .4.2c.2 0 .2.2.4.4l1.7 3c-.8.8-1.7 1.3-2.8 1.7-1.2.7-2.3.9-3.4.9zm16.9-33.3c0 .6-.2.9-.4 1.5-.2.4-.4.9-.8 1.1-.4.4-.8.6-1.1.8-.4.2-.9.4-1.5.4s-.9-.2-1.3-.4-.8-.6-1.1-.8-.6-.8-.8-1.1c-.2-.4-.4-.9-.4-1.5s.2-1.1.4-1.5c.2-.6.4-.9.8-1.3s.8-.6 1.1-.8c.4-.2.9-.4 1.3-.4.6 0 .9.2 1.5.4.4.2.8.6 1.1.8.4.4.6.8.8 1.3.2.5.4.9.4 1.5zm-1 7.5v25.6h-5.6v-25.6h5.6zm23.2 5.3l-.6.6c-.2.2-.4.2-.8.2s-.6-.2-.9-.4c-.2-.2-.6-.4-.9-.6-.4-.2-.8-.4-1.3-.6-.6-.2-1.1-.4-1.9-.4-.9 0-1.9.2-2.6.6-.8.4-1.3.9-1.9 1.7-.6.8-.9 1.7-1.1 2.6-.2 1.1-.4 2.3-.4 3.6 0 1.3.2 2.6.4 3.6.2 1.1.6 1.9 1.1 2.6.6.8 1.1 1.3 1.9 1.7s1.5.6 2.4.6c.9 0 1.7-.2 2.3-.4.6-.2.9-.6 1.5-.8.4-.4.8-.6.9-.8.4-.2.6-.4.9-.4s.8.2 1.1.6l1.7 2.3c-.6.8-1.3 1.5-2.1 2.1-.8.6-1.5.9-2.3 1.3-.8.4-1.7.6-2.4.8-.8.2-1.7.2-2.4.2-1.5 0-2.8-.4-4.1-.9s-2.4-1.5-3.4-2.6c-.9-1.1-1.7-2.4-2.3-4.1-.6-1.7-.8-3.6-.8-5.6 0-1.9.2-3.6.8-5.3.6-1.7 1.3-3 2.3-4.1.9-1.1 2.1-2.1 3.6-2.8 1.5-.8 3-.9 4.9-.9 1.7 0 3.4.4 4.7.9 1.3.6 2.4 1.5 3.6 2.6l-1.9 2.1zm5.2 20.1V144h5.6v14.1c.9-.9 1.9-1.7 3-2.3s2.4-.9 3.9-.9c1.3 0 2.4.2 3.4.8.9.6 1.9 1.1 2.4 2.1.8.9 1.1 1.9 1.5 3 .4 1.1.6 2.4.6 3.9v16.2h-5.6v-16.2c0-1.5-.4-2.8-.9-3.6-.8-.9-1.7-1.3-3-1.3-.9 0-1.9.2-2.8.8-.9.6-1.7 1.1-2.4 1.9v18.4h-5.7zm36-25.8c1.5 0 2.8.2 4.1.8 1.3.6 2.3 1.3 3.2 2.3.9.9 1.7 2.3 2.1 3.6.6 1.5.8 3 .8 4.9v1.1c0 .4-.2.6-.2.8-.2.2-.2.4-.4.4s-.4.2-.6.2H624c.2 2.6.8 4.5 1.9 5.8s2.6 1.9 4.5 1.9c.9 0 1.7-.2 2.4-.4s1.3-.6 1.7-.8c.6-.2.9-.6 1.3-.8s.8-.4 1.1-.4c.2 0 .4 0 .6.2.2.2.4.2.4.4l1.7 2.3c-.6.8-1.3 1.5-2.1 2.1s-1.7.9-2.4 1.3c-.9.4-1.7.6-2.6.8-.9.2-1.7.2-2.6.2-1.7 0-3.2-.4-4.5-.9-1.5-.6-2.6-1.5-3.8-2.6s-1.9-2.6-2.4-4.3c-.6-1.7-.9-3.8-.9-5.8 0-1.7.2-3.4.8-4.9.6-1.5 1.3-2.8 2.3-3.9.9-1.1 2.1-2.1 3.6-2.6 1.3-1.5 3-1.7 4.7-1.7zm.1 4.3c-1.7 0-3 .6-3.9 1.5-.9.9-1.5 2.4-1.9 4.3h10.7c0-.8-.2-1.5-.4-2.3-.2-.8-.6-1.3-.9-1.9-.4-.6-.9-.9-1.5-1.3-.6-.1-1.3-.3-2.1-.3z"/></svg>